<svg width="28" height="28" viewBox="0 0 28 28" fill="none" xmlns="http://www.w3.org/2000/svg">
<g clip-path="url(#clip0_77_946)">
<path d="M27.3457 14.262C27.3457 13.1149 27.2527 12.2778 27.0512 11.4097H13.9519V16.5873H21.6409C21.4859 17.874 20.6488 19.8118 18.7885 21.1139L18.7625 21.2873L22.9042 24.4958L23.1912 24.5245C25.8265 22.0906 27.3457 18.5096 27.3457 14.262Z" fill="#4285F4"/>
<path d="M13.952 27.9037C17.719 27.9037 20.8814 26.6635 23.1913 24.5243L18.7886 21.1137C17.6105 21.9353 16.0293 22.5089 13.952 22.5089C10.2625 22.5089 7.13114 20.0751 6.01488 16.7112L5.85126 16.7251L1.5446 20.058L1.48828 20.2146C3.78257 24.7722 8.49523 27.9037 13.952 27.9037Z" fill="#34A853"/>
<path d="M6.01476 16.7113C5.72023 15.8432 5.54977 14.913 5.54977 13.9519C5.54977 12.9907 5.72023 12.0606 5.99927 11.1925L5.99147 11.0076L1.63084 7.62109L1.48817 7.68896C0.54258 9.58024 0 11.7041 0 13.9519C0 16.1997 0.54258 18.3234 1.48817 20.2147L6.01476 16.7113Z" fill="#FBBC05"/>
<path d="M13.952 5.3947C16.5718 5.3947 18.339 6.52635 19.3467 7.47205L23.2843 3.6275C20.866 1.37969 17.719 0 13.952 0C8.49523 0 3.78257 3.13141 1.48828 7.68899L5.99938 11.1925C7.13114 7.82857 10.2625 5.3947 13.952 5.3947Z" fill="#EB4335"/>
</g>
<defs>
<clipPath id="clip0_77_946">
<rect width="28" height="28" fill="white"/>
</clipPath>
</defs>
</svg>
