<svg width="24" height="24" viewBox="0 0 24 24" fill="none" xmlns="http://www.w3.org/2000/svg">
<g clip-path="url(#clip0_29_35286)">
<path d="M17.9078 1.62441C17.8652 3.26412 19.6411 4.31185 21.0558 3.48165C21.3907 3.285 21.7659 3.66732 21.563 3.99856C20.7062 5.3973 21.7203 7.19265 23.3605 7.18111C23.7491 7.17818 23.8828 7.69692 23.5414 7.88222C22.1 8.66518 22.0806 10.7271 23.5068 11.5372C23.8447 11.7289 23.7013 12.2449 23.3129 12.2348C21.6732 12.1923 20.6255 13.9683 21.4555 15.383C21.6522 15.7179 21.27 16.093 20.9388 15.8902C19.54 15.0334 17.7445 16.0474 17.7562 17.6877C17.759 18.0761 17.2404 18.2099 17.0549 17.8684C16.2722 16.4272 14.21 16.4078 13.4002 17.834C13.2083 18.1718 12.6923 18.0283 12.7023 17.6399C12.745 16.0004 10.9691 14.9525 9.55439 15.7827C9.21931 15.9793 8.84431 15.597 9.04719 15.2658C9.90394 13.8672 8.88972 12.0717 7.24965 12.0834C6.8611 12.0861 6.72743 11.5676 7.06874 11.3821C8.51014 10.5991 8.52955 8.53719 7.10316 7.72713C6.76552 7.53542 6.90889 7.01943 7.29725 7.0295C8.93696 7.07216 9.98469 5.29604 9.15467 3.88155C8.95802 3.54647 9.34016 3.17147 9.6714 3.37435C11.0701 4.2311 12.8657 3.21688 12.854 1.57662C12.8512 1.18826 13.3698 1.05459 13.5551 1.3959C14.338 2.8373 16.4002 2.85671 17.21 1.43032C17.4019 1.09249 17.9179 1.23605 17.9078 1.62441Z" fill="url(#paint0_radial_29_35286)"/>
<path d="M15.6674 1.22012C16.0656 2.81113 18.0575 3.34488 19.198 2.16605C19.4681 1.88681 19.9319 2.15469 19.8252 2.52823C19.3744 4.10531 20.8326 5.56338 22.4097 5.11258C22.783 5.00601 23.0509 5.46963 22.7717 5.7399C21.5929 6.88028 22.1266 8.8721 23.7176 9.27035C24.0946 9.36465 24.0946 9.90023 23.7176 9.99453C22.1266 10.3928 21.5929 12.3846 22.7717 13.525C23.0509 13.7951 22.783 14.2589 22.4097 14.1521C20.8326 13.7015 19.3744 15.1596 19.8252 16.7367C19.9319 17.1102 19.4681 17.3779 19.198 17.0988C18.0575 15.92 16.0656 16.4536 15.6674 18.0448C15.5731 18.4216 15.0375 18.4216 14.9432 18.0448C14.5449 16.4536 12.5531 15.92 11.4127 17.0988C11.1427 17.3779 10.6789 17.1102 10.7856 16.7367C11.2362 15.1596 9.77817 13.7015 8.20108 14.1521C7.82754 14.2589 7.55984 13.7951 7.8389 13.525C9.01773 12.3846 8.48416 10.3928 6.89297 9.99453C6.51614 9.90023 6.51614 9.36465 6.89297 9.27035C8.48416 8.8721 9.01773 6.88028 7.8389 5.7399C7.55984 5.46963 7.82754 5.00601 8.20108 5.11258C9.77817 5.56338 11.2362 4.10531 10.7856 2.52823C10.6789 2.15469 11.1427 1.88681 11.4127 2.16605C12.5531 3.34488 14.5449 2.81113 14.9432 1.22012C15.0375 0.843292 15.5731 0.843292 15.6674 1.22012Z" fill="white"/>
<path d="M15.6674 1.22012C16.0656 2.81113 18.0575 3.34488 19.198 2.16605C19.4681 1.88681 19.9319 2.15469 19.8252 2.52823C19.3744 4.10531 20.8326 5.56338 22.4097 5.11258C22.783 5.00601 23.0509 5.46963 22.7717 5.7399C21.5929 6.88028 22.1266 8.8721 23.7176 9.27035C24.0946 9.36465 24.0946 9.90023 23.7176 9.99453C22.1266 10.3928 21.5929 12.3846 22.7717 13.525C23.0509 13.7951 22.783 14.2589 22.4097 14.1521C20.8326 13.7015 19.3744 15.1596 19.8252 16.7367C19.9319 17.1102 19.4681 17.3779 19.198 17.0988C18.0575 15.92 16.0656 16.4536 15.6674 18.0448C15.5731 18.4216 15.0375 18.4216 14.9432 18.0448C14.5449 16.4536 12.5531 15.92 11.4127 17.0988C11.1427 17.3779 10.6789 17.1102 10.7856 16.7367C11.2362 15.1596 9.77817 13.7015 8.20108 14.1521C7.82754 14.2589 7.55984 13.7951 7.8389 13.525C9.01773 12.3846 8.48416 10.3928 6.89297 9.99453C6.51614 9.90023 6.51614 9.36465 6.89297 9.27035C8.48416 8.8721 9.01773 6.88028 7.8389 5.7399C7.55984 5.46963 7.82754 5.00601 8.20108 5.11258C9.77817 5.56338 11.2362 4.10531 10.7856 2.52823C10.6789 2.15469 11.1427 1.88681 11.4127 2.16605C12.5531 3.34488 14.5449 2.81113 14.9432 1.22012C15.0375 0.843292 15.5731 0.843292 15.6674 1.22012Z" fill="url(#paint1_radial_29_35286)"/>
<path d="M21.1717 9.63275C21.1717 12.8726 18.5453 15.4989 15.3056 15.4989C12.0657 15.4989 9.43945 12.8726 9.43945 9.63275C9.43945 6.39307 12.0657 3.7666 15.3056 3.7666C18.5453 3.7666 21.1717 6.39307 21.1717 9.63275Z" fill="url(#paint2_radial_29_35286)"/>
<path d="M15.5068 13.8516C15.2834 13.8486 15.0637 13.8618 14.8486 13.8896C14.6541 13.9151 14.4849 13.7617 14.4853 13.5656C14.4853 13.5641 14.4853 13.5628 14.4853 13.5615C14.4853 11.4954 12.8102 9.82031 10.7441 9.82031C9.11811 9.82031 7.73511 10.8578 7.21931 12.3069C7.16602 12.4563 7.01423 12.548 6.85804 12.5191C6.69288 12.4883 6.52259 12.4722 6.34827 12.4722C4.8025 12.4722 3.54932 13.7252 3.54932 15.2712V15.2812C3.55006 15.4442 3.43269 15.5854 3.271 15.6057C1.42951 15.8366 0.00422049 17.4056 9.0609e-06 19.3087C-0.00456857 21.3712 1.72596 23.0585 3.78846 23.0585H15.4455C17.9971 23.0585 20.0638 20.9826 20.0491 18.4277C20.0347 15.9318 18.0027 13.8845 15.5068 13.8516Z" fill="url(#paint3_linear_29_35286)"/>
<path d="M14.4586 13.1201C14.481 13.3036 14.4886 13.4827 14.4841 13.6586C14.4797 13.8287 14.3665 13.9754 14.2025 14.0214C12.6318 14.4604 11.4002 15.712 10.9891 17.2945C10.9082 17.2999 10.8265 17.3028 10.7441 17.3028C8.67779 17.3028 7.00293 15.6277 7.00293 13.5616C7.00293 11.4498 8.75214 9.74694 10.8806 9.82275C12.7114 9.88793 14.238 11.3015 14.4586 13.1201Z" fill="url(#paint4_linear_29_35286)"/>
<path d="M9.14129 15.0813C9.22845 16.4048 8.39441 17.5476 7.21796 17.9319C6.66772 16.5511 5.3186 15.5755 3.74152 15.5755C3.74097 15.5755 3.74042 15.5755 3.73987 15.5755C3.64081 15.5755 3.55731 15.4999 3.55273 15.4012C3.55072 15.3578 3.5498 15.3142 3.5498 15.2705C3.5498 13.6595 4.91138 12.3661 6.54687 12.4785C7.9306 12.5737 9.05029 13.6972 9.14129 15.0813Z" fill="url(#paint5_linear_29_35286)"/>
</g>
<defs>
<radialGradient id="paint0_radial_29_35286" cx="0" cy="0" r="1" gradientUnits="userSpaceOnUse" gradientTransform="translate(15.3675 9.64847) rotate(15.5401) scale(8.42844)">
<stop stop-color="#FFA700"/>
<stop offset="0.3726" stop-color="#FFA802" stop-opacity="0.627451"/>
<stop offset="0.5069" stop-color="#FFAA09" stop-opacity="0.494118"/>
<stop offset="0.6026" stop-color="#FFAE14" stop-opacity="0.396078"/>
<stop offset="0.68" stop-color="#FFB425" stop-opacity="0.321569"/>
<stop offset="0.7463" stop-color="#FFBC3B" stop-opacity="0.254902"/>
<stop offset="0.805" stop-color="#FFC557" stop-opacity="0.196078"/>
<stop offset="0.8581" stop-color="#FFD077" stop-opacity="0.141176"/>
<stop offset="0.9069" stop-color="#FFDD9D" stop-opacity="0.094118"/>
<stop offset="0.9523" stop-color="#FFECC8" stop-opacity="0.047059"/>
<stop offset="0.9926" stop-color="#FFFCF6" stop-opacity="0.01"/>
<stop offset="1" stop-color="white" stop-opacity="0"/>
</radialGradient>
<radialGradient id="paint1_radial_29_35286" cx="0" cy="0" r="1" gradientUnits="userSpaceOnUse" gradientTransform="translate(15.3705 9.63241) scale(9.31786)">
<stop stop-color="#FFD459"/>
<stop offset="0.2794" stop-color="#FFD55B" stop-opacity="0.721569"/>
<stop offset="0.4354" stop-color="#FFD763" stop-opacity="0.564706"/>
<stop offset="0.5609" stop-color="#FFDA71" stop-opacity="0.439216"/>
<stop offset="0.6702" stop-color="#FFDF85" stop-opacity="0.329412"/>
<stop offset="0.7691" stop-color="#FFE69E" stop-opacity="0.231373"/>
<stop offset="0.8603" stop-color="#FFEEBE" stop-opacity="0.141176"/>
<stop offset="0.944" stop-color="#FFF8E2" stop-opacity="0.054902"/>
<stop offset="1" stop-color="white" stop-opacity="0"/>
</radialGradient>
<radialGradient id="paint2_radial_29_35286" cx="0" cy="0" r="1" gradientUnits="userSpaceOnUse" gradientTransform="translate(13.7445 7.30443) scale(7.91254)">
<stop stop-color="#FFD459"/>
<stop offset="0.2296" stop-color="#FFD355"/>
<stop offset="0.4362" stop-color="#FFCF4A"/>
<stop offset="0.634" stop-color="#FFC838"/>
<stop offset="0.825" stop-color="#FFBF1F"/>
<stop offset="1" stop-color="#FFB400"/>
</radialGradient>
<linearGradient id="paint3_linear_29_35286" x1="7.95333" y1="12.3342" x2="12.0783" y2="25.2366" gradientUnits="userSpaceOnUse">
<stop stop-color="#F2E9DC"/>
<stop offset="0.2282" stop-color="#F0E4D7"/>
<stop offset="0.5158" stop-color="#EAD7C7"/>
<stop offset="0.8338" stop-color="#E0C2AD"/>
<stop offset="1" stop-color="#DAB49D"/>
</linearGradient>
<linearGradient id="paint4_linear_29_35286" x1="10.4757" y1="13.5253" x2="17.3087" y2="14.4518" gradientUnits="userSpaceOnUse">
<stop stop-color="#F2E9DC" stop-opacity="0"/>
<stop offset="0.6804" stop-color="#CFA37B" stop-opacity="0.682353"/>
<stop offset="1" stop-color="#C08552"/>
</linearGradient>
<linearGradient id="paint5_linear_29_35286" x1="6.93865" y1="14.9393" x2="2.74654" y2="17.2938" gradientUnits="userSpaceOnUse">
<stop stop-color="#F2E9DC" stop-opacity="0"/>
<stop offset="0.6804" stop-color="#CFA37B" stop-opacity="0.682353"/>
<stop offset="1" stop-color="#C08552"/>
</linearGradient>
<clipPath id="clip0_29_35286">
<rect width="24" height="24" fill="white"/>
</clipPath>
</defs>
</svg>
