<svg width="24" height="24" viewBox="0 0 24 24" fill="none" xmlns="http://www.w3.org/2000/svg">
<g clip-path="url(#clip0_29_35299)">
<path d="M6.70082 16.8018C6.53611 16.6976 6.31804 16.7467 6.21385 16.9113L5.45903 18.1044C5.35479 18.2691 5.40388 18.4871 5.56858 18.5913C5.62712 18.6284 5.69239 18.6461 5.75691 18.6461C5.8739 18.6461 5.98835 18.588 6.0555 18.4818L6.81032 17.2888C6.9146 17.124 6.86552 16.906 6.70082 16.8018Z" fill="url(#paint0_linear_29_35299)"/>
<path d="M4.81405 19.7842C4.64935 19.68 4.43132 19.7291 4.32709 19.8938L3.57231 21.0868C3.46807 21.2515 3.51716 21.4696 3.68186 21.5738C3.74045 21.6109 3.80567 21.6285 3.87019 21.6285C3.98718 21.6285 4.10163 21.5704 4.16878 21.4642L4.92356 20.2712C5.02784 20.1065 4.97876 19.8884 4.81405 19.7842Z" fill="url(#paint1_linear_29_35299)"/>
<path d="M2.92703 22.7676C2.76233 22.6634 2.5443 22.7125 2.44007 22.8772L2.26567 23.1528C2.16143 23.3176 2.21052 23.5356 2.37522 23.6398C2.43381 23.6769 2.49903 23.6945 2.56355 23.6945C2.68054 23.6945 2.79499 23.6364 2.86214 23.5303L3.03654 23.2546C3.14082 23.0898 3.09174 22.8719 2.92703 22.7676Z" fill="url(#paint2_linear_29_35299)"/>
<path d="M7.45532 15.609C7.51391 15.6461 7.57914 15.6637 7.64365 15.6637C7.76064 15.6637 7.87509 15.6056 7.94224 15.4994L8.69707 14.3063C8.8013 14.1416 8.75222 13.9236 8.58751 13.8194C8.42276 13.7151 8.20474 13.7642 8.10055 13.9289L7.34572 15.122C7.24154 15.2868 7.29057 15.5048 7.45532 15.609Z" fill="url(#paint3_linear_29_35299)"/>
<path d="M14.4996 18.8672C14.4411 18.8301 14.3758 18.8125 14.3113 18.8125C14.1943 18.8125 14.0798 18.8706 14.0127 18.9768L13.2579 20.1698C13.1536 20.3345 13.2027 20.5525 13.3674 20.6568C13.5321 20.761 13.7501 20.7119 13.8544 20.5472L14.6092 19.3542C14.7134 19.1894 14.6643 18.9715 14.4996 18.8672Z" fill="url(#paint4_linear_29_35299)"/>
<path d="M15.741 17.5648L16.4958 16.3718C16.6001 16.2071 16.551 15.989 16.3863 15.8848C16.3277 15.8477 16.2625 15.8301 16.1979 15.8301C16.081 15.8301 15.9665 15.8882 15.8994 15.9944L15.1446 17.1874C15.0403 17.3521 15.0894 17.5701 15.2541 17.6744C15.4188 17.7786 15.6368 17.7295 15.741 17.5648Z" fill="url(#paint5_linear_29_35299)"/>
<path d="M12.6129 21.8497C12.5543 21.8126 12.4891 21.7949 12.4245 21.7949C12.3076 21.7949 12.1931 21.853 12.126 21.9592L11.3711 23.1523C11.2669 23.317 11.316 23.535 11.4807 23.6393C11.6454 23.7435 11.8634 23.6944 11.9677 23.5297L12.7225 22.3366C12.8267 22.1719 12.7776 21.9538 12.6129 21.8497Z" fill="url(#paint6_linear_29_35299)"/>
<path d="M17.6278 14.582L17.8022 14.3063C17.9064 14.1416 17.8573 13.9236 17.6926 13.8194C17.634 13.7823 17.5688 13.7646 17.5043 13.7646C17.3873 13.7646 17.2728 13.8228 17.2057 13.9289L17.0313 14.2046C16.9271 14.3693 16.9761 14.5873 17.1408 14.6916C17.3056 14.7958 17.5236 14.7467 17.6278 14.582Z" fill="url(#paint7_linear_29_35299)"/>
<path d="M10.8844 19.7842C10.7197 19.68 10.5017 19.729 10.3974 19.8938L9.64262 21.0869C9.53839 21.2516 9.58747 21.4696 9.75217 21.5738C9.81076 21.6109 9.87599 21.6286 9.94055 21.6286C10.0575 21.6286 10.1719 21.5704 10.2391 21.4643L10.994 20.2712C11.0982 20.1065 11.0491 19.8885 10.8844 19.7842Z" fill="url(#paint8_linear_29_35299)"/>
<path d="M8.99735 22.7676C8.83259 22.6634 8.61462 22.7125 8.51038 22.8772L8.33598 23.1528C8.23175 23.3176 8.28083 23.5356 8.44553 23.6398C8.50412 23.6769 8.56935 23.6945 8.63386 23.6945C8.75085 23.6945 8.8653 23.6364 8.93245 23.5303L9.10685 23.2546C9.21113 23.0898 9.16205 22.8719 8.99735 22.7676Z" fill="url(#paint9_linear_29_35299)"/>
<path d="M12.7711 16.8018C12.6063 16.6976 12.3884 16.7467 12.2841 16.9113L11.5293 18.1044C11.4251 18.2691 11.4742 18.4871 11.6389 18.5913C11.6975 18.6284 11.7627 18.6461 11.8272 18.6461C11.9442 18.6461 12.0587 18.588 12.1258 18.4818L12.8806 17.2888C12.9849 17.124 12.9358 16.906 12.7711 16.8018Z" fill="url(#paint10_linear_29_35299)"/>
<path d="M13.5256 15.6089C13.5842 15.646 13.6494 15.6637 13.714 15.6637C13.8309 15.6637 13.9454 15.6055 14.0125 15.4994L14.7674 14.3063C14.8716 14.1416 14.8225 13.9236 14.6578 13.8194C14.4932 13.7151 14.2751 13.7642 14.1708 13.9289L13.416 15.122C13.3118 15.2867 13.3609 15.5047 13.5256 15.6089Z" fill="url(#paint11_linear_29_35299)"/>
<path d="M6.54257 21.8497C6.48398 21.8126 6.41875 21.7949 6.35424 21.7949C6.23725 21.7949 6.1228 21.853 6.05565 21.9592L5.30083 23.1523C5.19659 23.317 5.24567 23.535 5.41038 23.6393C5.57508 23.7435 5.79311 23.6944 5.89734 23.5297L6.65217 22.3366C6.75635 22.1719 6.70727 21.9538 6.54257 21.8497Z" fill="url(#paint12_linear_29_35299)"/>
<path d="M9.67073 17.5648L10.4255 16.3718C10.5297 16.2071 10.4807 15.989 10.316 15.8848C10.2574 15.8477 10.1921 15.8301 10.1276 15.8301C10.0106 15.8301 9.89619 15.8882 9.82904 15.9944L9.07426 17.1874C8.97003 17.3521 9.01911 17.5701 9.18382 17.6744C9.34857 17.7786 9.5665 17.7295 9.67073 17.5648Z" fill="url(#paint13_linear_29_35299)"/>
<path d="M9.67073 17.5648L10.4255 16.3718C10.5297 16.2071 10.4807 15.989 10.316 15.8848C10.2574 15.8477 10.1921 15.8301 10.1276 15.8301C10.0106 15.8301 9.89619 15.8882 9.82904 15.9944L9.07426 17.1874C8.97003 17.3521 9.01911 17.5701 9.18382 17.6744C9.34857 17.7786 9.5665 17.7295 9.67073 17.5648Z" fill="url(#paint14_linear_29_35299)"/>
<path d="M11.5575 14.582L11.7319 14.3063C11.8361 14.1416 11.787 13.9236 11.6223 13.8194C11.5637 13.7823 11.4985 13.7646 11.434 13.7646C11.317 13.7646 11.2025 13.8228 11.1354 13.9289L10.961 14.2046C10.8567 14.3693 10.9058 14.5873 11.0705 14.6916C11.2353 14.7958 11.4532 14.7467 11.5575 14.582Z" fill="url(#paint15_linear_29_35299)"/>
<path d="M8.42929 18.8672C8.37074 18.8301 8.30547 18.8125 8.24096 18.8125C8.12397 18.8125 8.00952 18.8706 7.94237 18.9768L7.18754 20.1698C7.08331 20.3345 7.13239 20.5525 7.2971 20.6568C7.46176 20.761 7.67983 20.7119 7.78406 20.5472L8.53889 19.3542C8.64307 19.1894 8.59399 18.9715 8.42929 18.8672Z" fill="url(#paint16_linear_29_35299)"/>
<path d="M18.8414 16.8018C18.6767 16.6976 18.4587 16.7467 18.3544 16.9113L17.5997 18.1044C17.4954 18.2691 17.5445 18.4871 17.7092 18.5913C17.7678 18.6284 17.833 18.6461 17.8975 18.6461C18.0145 18.6461 18.129 18.588 18.1961 18.4818L18.9509 17.2888C19.0552 17.124 19.0061 16.906 18.8414 16.8018Z" fill="url(#paint17_linear_29_35299)"/>
<path d="M20.7282 13.8194C20.5635 13.7151 20.3454 13.7642 20.2412 13.9289L19.4864 15.122C19.3821 15.2867 19.4312 15.5047 19.5959 15.6089C19.6545 15.646 19.7197 15.6637 19.7843 15.6637C19.9012 15.6637 20.0157 15.6055 20.0828 15.4994L20.8377 14.3063C20.9419 14.1416 20.8929 13.9236 20.7282 13.8194Z" fill="url(#paint18_linear_29_35299)"/>
<path d="M16.9547 19.7842C16.79 19.68 16.572 19.7291 16.4678 19.8938L15.7129 21.0869C15.6087 21.2516 15.6578 21.4696 15.8225 21.5738C15.8811 21.6109 15.9463 21.6286 16.0109 21.6286C16.1278 21.6286 16.2423 21.5705 16.3095 21.4643L17.0643 20.2712C17.1685 20.1065 17.1195 19.8885 16.9547 19.7842Z" fill="url(#paint19_linear_29_35299)"/>
<path d="M15.0677 22.7676C14.9029 22.6634 14.6849 22.7125 14.5807 22.8772L14.4063 23.1528C14.3021 23.3176 14.3511 23.5356 14.5158 23.6398C14.5744 23.6769 14.6397 23.6945 14.7042 23.6945C14.8212 23.6945 14.9356 23.6364 15.0028 23.5303L15.1772 23.2546C15.2814 23.0898 15.2324 22.8719 15.0677 22.7676Z" fill="url(#paint20_linear_29_35299)"/>
<path d="M6.37655 13.5229H5.80761C5.64365 13.5229 5.51071 13.39 5.51071 13.226V8.79897C5.51071 8.62791 5.28789 8.56203 5.1949 8.70565L2.3029 13.1722C2.05871 13.5493 2.32939 14.0471 2.77871 14.0471H3.34765C3.51161 14.0471 3.64455 14.18 3.64455 14.344V18.7711C3.64455 18.9421 3.86737 19.008 3.96036 18.8644L6.85236 14.3978C7.09655 14.0207 6.82586 13.5229 6.37655 13.5229Z" fill="url(#paint21_linear_29_35299)"/>
<path d="M3.96005 18.8647L6.85205 14.3982C7.09624 14.0211 6.82555 13.5233 6.37624 13.5233H5.8073C5.64334 13.5233 5.5104 13.3904 5.5104 13.2264V8.79932C5.5104 8.71504 5.45624 8.65645 5.39021 8.63574L4.32697 12.0912C4.15398 12.6534 4.30593 13.2652 4.72188 13.6812C5.16 14.1193 5.3033 14.7723 5.0889 15.3536L3.76758 18.9361C3.83487 18.9559 3.91365 18.9364 3.96005 18.8647Z" fill="url(#paint22_linear_29_35299)"/>
<path d="M18.1874 4.32941C17.7929 4.32941 17.4136 4.39379 17.0583 4.51106C17.0731 4.3976 17.0815 4.28216 17.0815 4.16471C17.0815 2.69628 15.8911 1.50588 14.4227 1.50588C13.7578 1.50588 13.1504 1.75049 12.6843 2.15393C12.1273 0.885929 10.8611 0 9.38741 0C7.46002 0 5.88651 1.51468 5.79197 3.41859C3.77484 3.66052 2.21094 5.37647 2.21094 7.45882C2.21094 9.70696 4.03338 11.5294 6.28153 11.5294C8.52967 11.5294 16.1992 11.5294 18.1874 11.5294C20.1756 11.5294 21.7874 9.91765 21.7874 7.92941C21.7874 5.94118 20.1756 4.32941 18.1874 4.32941Z" fill="url(#paint23_linear_29_35299)"/>
<path d="M2.21094 7.45923C2.21094 9.70737 4.03338 11.5298 6.28153 11.5298C8.52967 11.5298 16.1992 11.5298 18.1874 11.5298C20.1756 11.5298 21.7874 9.91805 21.7874 7.92981C21.7874 7.06341 21.4812 6.26868 20.9713 5.64746H2.6356C2.36383 6.19301 2.21094 6.80821 2.21094 7.45923Z" fill="url(#paint24_linear_29_35299)"/>
<path d="M18.1866 4.32939C17.792 4.32939 17.4127 4.39377 17.0575 4.51104C17.0723 4.39758 17.0807 4.28214 17.0807 4.16468C17.0807 2.69626 15.8903 1.50586 14.4219 1.50586C14.253 1.50586 14.0878 1.52181 13.9277 1.55198V11.5294H18.1866C20.1748 11.5294 21.7866 9.91762 21.7866 7.92939C21.7866 5.94115 20.1748 4.32939 18.1866 4.32939Z" fill="url(#paint25_linear_29_35299)"/>
<path d="M17.0813 4.16468C17.0813 4.28186 17.0738 4.39715 17.0592 4.51009C15.9783 4.86586 15.1237 5.72045 14.7679 6.80139C14.655 6.81598 14.5397 6.82351 14.4225 6.82351C12.9543 6.82351 11.7637 5.63292 11.7637 4.16468C11.7637 2.69645 12.9543 1.50586 14.4225 1.50586C15.8907 1.50586 17.0813 2.69645 17.0813 4.16468Z" fill="url(#paint26_linear_29_35299)"/>
<path d="M11.7636 4.16471C11.7636 4.75482 11.9561 5.30024 12.2812 5.74118C11.6252 6.62635 10.5735 7.2 9.38711 7.2C7.39887 7.2 5.78711 5.58824 5.78711 3.6C5.78711 1.61176 7.39887 0 9.38711 0C10.8605 0 12.1273 0.885176 12.6841 2.15294C12.1203 2.64047 11.7636 3.36094 11.7636 4.16471Z" fill="url(#paint27_linear_29_35299)"/>
<path d="M11.7628 4.16471C11.7628 4.75482 11.9553 5.30024 12.2804 5.74118C11.8056 6.38212 11.1233 6.85929 10.3327 7.07388C10.1388 5.00612 8.39855 3.38824 6.28043 3.38824C6.11478 3.38824 5.95149 3.39812 5.79102 3.41741C5.88607 1.51388 7.45925 0 9.38631 0C10.8597 0 12.1265 0.885176 12.6833 2.15294C12.1195 2.64047 11.7628 3.36094 11.7628 4.16471Z" fill="url(#paint28_linear_29_35299)"/>
<path d="M20.3947 11.6424H19.9841C19.8658 11.6424 19.7699 11.5465 19.7699 11.4282V8.2335C19.7699 8.11006 19.6091 8.06253 19.542 8.16616L17.455 11.3893C17.2788 11.6615 17.4742 12.0207 17.7984 12.0207H18.2089C18.3272 12.0207 18.4231 12.1166 18.4231 12.2349V15.4296C18.4231 15.553 18.5839 15.6006 18.651 15.4969L20.738 12.2738C20.9142 12.0016 20.7189 11.6424 20.3947 11.6424Z" fill="url(#paint29_linear_29_35299)"/>
<path d="M18.6505 15.4968L20.7375 12.2736C20.9137 12.0015 20.7184 11.6422 20.3942 11.6422H19.9836C19.8653 11.6422 19.7694 11.5463 19.7694 11.428V8.23331C19.7694 8.17246 19.7303 8.1302 19.6826 8.11523L18.9154 10.6088C18.7905 11.0145 18.9002 11.456 19.2004 11.7561C19.5166 12.0723 19.62 12.5435 19.4652 12.963L18.5117 15.5483C18.5602 15.5626 18.6171 15.5486 18.6505 15.4968Z" fill="url(#paint30_linear_29_35299)"/>
<path d="M14.4723 16.4195L10.3287 23.8348C10.1265 24.1962 9.70338 23.9139 9.79345 23.4779L10.9099 18.059C10.9923 17.6575 10.7374 17.2777 10.4332 17.35L9.93364 17.4693C9.60738 17.5474 9.34484 17.1068 9.47228 16.6926L11.3862 10.4576C11.4373 10.2911 11.5576 10.1826 11.6911 10.1826H13.5695C13.8048 10.1826 13.9645 10.5055 13.8744 10.799L12.5895 14.9854C12.463 15.3984 12.7238 15.8379 13.0501 15.7598L14.0637 15.5178C14.44 15.4282 14.7026 16.0076 14.4723 16.4195Z" fill="url(#paint31_linear_29_35299)"/>
<path d="M14.0638 15.5178L13.0502 15.7598C12.7239 15.8379 12.4631 15.3984 12.5896 14.9854L13.8745 10.799C13.9646 10.5055 13.8049 10.1826 13.5696 10.1826H12.6595L11.219 14.9941C11.0301 15.6248 11.1388 16.3469 11.4951 16.828C11.8677 17.3312 11.9679 18.0949 11.7461 18.7404L9.95312 23.9563C10.0727 24.035 10.2281 24.0147 10.3288 23.8348L14.4724 16.4195C14.7027 16.0077 14.4401 15.4283 14.0638 15.5178Z" fill="url(#paint32_linear_29_35299)"/>
<path d="M14.0637 15.5178L13.0501 15.7598C12.7238 15.8379 12.463 15.3984 12.5895 14.9854L13.8744 10.799C13.9645 10.5055 13.8048 10.1826 13.5695 10.1826H11.6911C11.5576 10.1826 11.4373 10.2912 11.3862 10.4577L9.47228 16.6926C9.34484 17.1069 9.60738 17.5474 9.93364 17.4694L10.4332 17.3501C10.7374 17.2778 10.9923 17.6575 10.9099 18.0591L10.8881 18.1648H13.4971L14.4723 16.4196C14.7026 16.0077 14.44 15.4283 14.0637 15.5178Z" fill="url(#paint33_linear_29_35299)"/>
<path d="M8.1999 10.1645C8.31167 10.1645 8.4208 10.1757 8.52644 10.1966C8.67157 9.12878 9.5864 8.30563 10.694 8.30563C10.9632 8.30563 11.2208 8.35452 11.4589 8.44356C11.5596 8.48125 11.6641 8.40568 11.6599 8.2982C11.6592 8.27725 11.6587 8.25617 11.6587 8.23504C11.6587 7.31241 12.4067 6.56445 13.3293 6.56445C14.2386 6.56445 14.9777 7.29109 14.9989 8.19528C16.3858 8.29184 17.4799 9.45128 17.4704 10.8649C17.4607 12.3327 16.2404 13.5056 14.7726 13.5056H8.23289C7.29614 13.5056 6.51171 12.739 6.5296 11.8025C6.54696 10.8949 7.28814 10.1645 8.1999 10.1645Z" fill="url(#paint34_linear_29_35299)"/>
<path d="M12.8816 10.4939C12.8816 11.7024 11.9019 12.6821 10.6934 12.6821C10.3541 12.6821 10.0327 12.605 9.7461 12.4671C9.8261 12.2723 9.86986 12.0586 9.86986 11.8351C9.86986 11.0238 9.29198 10.348 8.52539 10.1965C8.67033 9.12872 9.58563 8.30566 10.6934 8.30566C11.9019 8.30566 12.8816 9.28543 12.8816 10.4939Z" fill="url(#paint35_linear_29_35299)"/>
<path d="M14.9989 8.19457C14.9368 8.19034 14.8742 8.18798 14.8111 8.18798C13.774 8.18798 12.8756 8.78187 12.4375 9.64822C11.9693 9.35222 11.6582 8.82986 11.6582 8.23504C11.6582 7.31222 12.406 6.56445 13.3288 6.56445C14.238 6.56445 14.9777 7.29057 14.9989 8.19457Z" fill="url(#paint36_linear_29_35299)"/>
<path d="M8.5264 10.1967C8.42075 10.1758 8.31162 10.1646 8.19986 10.1646C7.28809 10.1646 6.54692 10.895 6.5296 11.8026C6.51167 12.7392 7.29614 13.5057 8.23289 13.5057H14.7725C16.2403 13.5057 17.4606 12.3328 17.4704 10.8651C17.4724 10.571 17.4259 10.2882 17.3397 10.0234H8.5575C8.54503 10.0804 8.53435 10.1381 8.5264 10.1967Z" fill="url(#paint37_linear_29_35299)"/>
<path d="M14.999 8.19495C14.9834 7.5326 14.5824 6.96591 14.0117 6.70996V13.5053H14.7726C16.2404 13.5053 17.4607 12.3324 17.4705 10.8646C17.4799 9.451 16.3858 8.29156 14.999 8.19495Z" fill="url(#paint38_linear_29_35299)"/>
<path d="M14.6611 11.7423C14.6021 11.7423 14.5445 11.7482 14.4888 11.7592C14.4122 11.1958 13.9295 10.7615 13.3451 10.7615C13.2031 10.7615 13.0672 10.7872 12.9415 10.8343C12.8884 10.8541 12.8332 10.8143 12.8354 10.7575C12.8358 10.7465 12.8361 10.7354 12.8361 10.7242C12.8361 10.2374 12.4414 9.84277 11.9546 9.84277C11.4748 9.84277 11.0848 10.2262 11.0737 10.7033C10.3418 10.7543 9.76458 11.366 9.76956 12.112C9.77474 12.8864 10.4186 13.5053 11.1931 13.5053H14.6437C15.138 13.5053 15.5519 13.1008 15.5425 12.6066C15.5332 12.1277 15.1422 11.7423 14.6611 11.7423Z" fill="url(#paint39_linear_29_35299)"/>
<path d="M14.6611 11.7423C14.6021 11.7423 14.5445 11.7482 14.4888 11.7592C14.4122 11.1958 13.9295 10.7615 13.3451 10.7615C13.2031 10.7615 13.0672 10.7872 12.9415 10.8343C12.8884 10.8541 12.8332 10.8143 12.8354 10.7575C12.8358 10.7465 12.8361 10.7354 12.8361 10.7242C12.8361 10.2374 12.4414 9.84277 11.9546 9.84277C11.4748 9.84277 11.0848 10.2262 11.0737 10.7033C10.3418 10.7543 9.76458 11.366 9.76956 12.112C9.77474 12.8864 10.4186 13.5053 11.1931 13.5053H14.6437C15.138 13.5053 15.5519 13.1008 15.5425 12.6066C15.5332 12.1277 15.1422 11.7423 14.6611 11.7423Z" fill="url(#paint40_linear_29_35299)"/>
</g>
<defs>
<linearGradient id="paint0_linear_29_35299" x1="5.4043" y1="17.6966" x2="6.8651" y2="17.6966" gradientUnits="userSpaceOnUse">
<stop stop-color="#D5DAF3"/>
<stop offset="1" stop-color="#60B7FF"/>
</linearGradient>
<linearGradient id="paint1_linear_29_35299" x1="3.51758" y1="20.679" x2="4.97833" y2="20.679" gradientUnits="userSpaceOnUse">
<stop stop-color="#D5DAF3"/>
<stop offset="1" stop-color="#60B7FF"/>
</linearGradient>
<linearGradient id="paint2_linear_29_35299" x1="2.21094" y1="23.2037" x2="3.09132" y2="23.2037" gradientUnits="userSpaceOnUse">
<stop stop-color="#D5DAF3"/>
<stop offset="1" stop-color="#60B7FF"/>
</linearGradient>
<linearGradient id="paint3_linear_29_35299" x1="7.29099" y1="14.7142" x2="8.75179" y2="14.7142" gradientUnits="userSpaceOnUse">
<stop stop-color="#D5DAF3"/>
<stop offset="1" stop-color="#60B7FF"/>
</linearGradient>
<linearGradient id="paint4_linear_29_35299" x1="13.2031" y1="19.762" x2="14.6639" y2="19.762" gradientUnits="userSpaceOnUse">
<stop stop-color="#D5DAF3"/>
<stop offset="1" stop-color="#60B7FF"/>
</linearGradient>
<linearGradient id="paint5_linear_29_35299" x1="15.0898" y1="16.7796" x2="16.5506" y2="16.7796" gradientUnits="userSpaceOnUse">
<stop stop-color="#D5DAF3"/>
<stop offset="1" stop-color="#60B7FF"/>
</linearGradient>
<linearGradient id="paint6_linear_29_35299" x1="11.3164" y1="22.7444" x2="12.7772" y2="22.7444" gradientUnits="userSpaceOnUse">
<stop stop-color="#D5DAF3"/>
<stop offset="1" stop-color="#60B7FF"/>
</linearGradient>
<linearGradient id="paint7_linear_29_35299" x1="16.9765" y1="14.2555" x2="17.8569" y2="14.2555" gradientUnits="userSpaceOnUse">
<stop stop-color="#D5DAF3"/>
<stop offset="1" stop-color="#60B7FF"/>
</linearGradient>
<linearGradient id="paint8_linear_29_35299" x1="9.58789" y1="20.679" x2="11.0487" y2="20.679" gradientUnits="userSpaceOnUse">
<stop stop-color="#D5DAF3"/>
<stop offset="1" stop-color="#60B7FF"/>
</linearGradient>
<linearGradient id="paint9_linear_29_35299" x1="8.28125" y1="23.2037" x2="9.16163" y2="23.2037" gradientUnits="userSpaceOnUse">
<stop stop-color="#D5DAF3"/>
<stop offset="1" stop-color="#60B7FF"/>
</linearGradient>
<linearGradient id="paint10_linear_29_35299" x1="11.4746" y1="17.6966" x2="12.9354" y2="17.6966" gradientUnits="userSpaceOnUse">
<stop stop-color="#D5DAF3"/>
<stop offset="1" stop-color="#60B7FF"/>
</linearGradient>
<linearGradient id="paint11_linear_29_35299" x1="13.3613" y1="14.7142" x2="14.8221" y2="14.7142" gradientUnits="userSpaceOnUse">
<stop stop-color="#D5DAF3"/>
<stop offset="1" stop-color="#60B7FF"/>
</linearGradient>
<linearGradient id="paint12_linear_29_35299" x1="5.2461" y1="22.7444" x2="6.70685" y2="22.7444" gradientUnits="userSpaceOnUse">
<stop stop-color="#D5DAF3"/>
<stop offset="1" stop-color="#60B7FF"/>
</linearGradient>
<linearGradient id="paint13_linear_29_35299" x1="9.01949" y1="16.7796" x2="10.4802" y2="16.7796" gradientUnits="userSpaceOnUse">
<stop stop-color="#D5DAF3"/>
<stop offset="1" stop-color="#60B7FF"/>
</linearGradient>
<linearGradient id="paint14_linear_29_35299" x1="8.75342" y1="17.3665" x2="9.8985" y2="16.6921" gradientUnits="userSpaceOnUse">
<stop stop-color="#1F3596" stop-opacity="0"/>
<stop offset="0.4068" stop-color="#1D3290" stop-opacity="0.407"/>
<stop offset="0.9508" stop-color="#192B7F" stop-opacity="0.951"/>
<stop offset="1" stop-color="#192A7D"/>
</linearGradient>
<linearGradient id="paint15_linear_29_35299" x1="10.9063" y1="14.2555" x2="11.7866" y2="14.2555" gradientUnits="userSpaceOnUse">
<stop stop-color="#D5DAF3"/>
<stop offset="1" stop-color="#60B7FF"/>
</linearGradient>
<linearGradient id="paint16_linear_29_35299" x1="7.13281" y1="19.762" x2="8.59357" y2="19.762" gradientUnits="userSpaceOnUse">
<stop stop-color="#D5DAF3"/>
<stop offset="1" stop-color="#60B7FF"/>
</linearGradient>
<linearGradient id="paint17_linear_29_35299" x1="17.545" y1="17.6966" x2="19.0057" y2="17.6966" gradientUnits="userSpaceOnUse">
<stop stop-color="#D5DAF3"/>
<stop offset="1" stop-color="#60B7FF"/>
</linearGradient>
<linearGradient id="paint18_linear_29_35299" x1="19.4317" y1="14.7142" x2="20.8924" y2="14.7142" gradientUnits="userSpaceOnUse">
<stop stop-color="#D5DAF3"/>
<stop offset="1" stop-color="#60B7FF"/>
</linearGradient>
<linearGradient id="paint19_linear_29_35299" x1="15.6583" y1="20.679" x2="17.119" y2="20.679" gradientUnits="userSpaceOnUse">
<stop stop-color="#D5DAF3"/>
<stop offset="1" stop-color="#60B7FF"/>
</linearGradient>
<linearGradient id="paint20_linear_29_35299" x1="14.3516" y1="23.2037" x2="15.2319" y2="23.2037" gradientUnits="userSpaceOnUse">
<stop stop-color="#D5DAF3"/>
<stop offset="1" stop-color="#60B7FF"/>
</linearGradient>
<linearGradient id="paint21_linear_29_35299" x1="2.84958" y1="11.5216" x2="6.20671" y2="15.9189" gradientUnits="userSpaceOnUse">
<stop stop-color="#FEF0AE"/>
<stop offset="1" stop-color="#FAC600"/>
</linearGradient>
<linearGradient id="paint22_linear_29_35299" x1="6.12626" y1="13.7896" x2="3.85224" y2="13.7896" gradientUnits="userSpaceOnUse">
<stop stop-color="#FEA613" stop-opacity="0"/>
<stop offset="0.2032" stop-color="#FDA215" stop-opacity="0.203"/>
<stop offset="0.4052" stop-color="#FB961B" stop-opacity="0.405"/>
<stop offset="0.6066" stop-color="#F68225" stop-opacity="0.607"/>
<stop offset="0.8066" stop-color="#F06633" stop-opacity="0.807"/>
<stop offset="1" stop-color="#E94444"/>
</linearGradient>
<linearGradient id="paint23_linear_29_35299" x1="7.05743" y1="2.84988" x2="17.0034" y2="12.7958" gradientUnits="userSpaceOnUse">
<stop stop-color="#E1D3CE"/>
<stop offset="1" stop-color="#9E9797"/>
</linearGradient>
<linearGradient id="paint24_linear_29_35299" x1="11.9992" y1="8.61217" x2="11.9992" y2="12.3875" gradientUnits="userSpaceOnUse">
<stop stop-color="#433F43" stop-opacity="0"/>
<stop offset="0.3174" stop-color="#3B373B" stop-opacity="0.317"/>
<stop offset="0.8224" stop-color="#242324" stop-opacity="0.822"/>
<stop offset="1" stop-color="#1A1A1A"/>
</linearGradient>
<linearGradient id="paint25_linear_29_35299" x1="18.9152" y1="7.43913" x2="22.9152" y2="8.23913" gradientUnits="userSpaceOnUse">
<stop stop-color="#433F43" stop-opacity="0"/>
<stop offset="0.3174" stop-color="#3B373B" stop-opacity="0.317"/>
<stop offset="0.8224" stop-color="#242324" stop-opacity="0.822"/>
<stop offset="1" stop-color="#1A1A1A"/>
</linearGradient>
<linearGradient id="paint26_linear_29_35299" x1="14.673" y1="4.08238" x2="17.92" y2="3.18826" gradientUnits="userSpaceOnUse">
<stop stop-color="#433F43" stop-opacity="0"/>
<stop offset="0.3174" stop-color="#3B373B" stop-opacity="0.317"/>
<stop offset="0.8224" stop-color="#242324" stop-opacity="0.822"/>
<stop offset="1" stop-color="#1A1A1A"/>
</linearGradient>
<linearGradient id="paint27_linear_29_35299" x1="10.8425" y1="2.37816" x2="13.3836" y2="0.244847" gradientUnits="userSpaceOnUse">
<stop stop-color="#433F43" stop-opacity="0"/>
<stop offset="0.3174" stop-color="#3B373B" stop-opacity="0.317"/>
<stop offset="0.8224" stop-color="#242324" stop-opacity="0.822"/>
<stop offset="1" stop-color="#1A1A1A"/>
</linearGradient>
<linearGradient id="paint28_linear_29_35299" x1="8.21106" y1="4.02937" x2="5.12085" y2="5.15878" gradientUnits="userSpaceOnUse">
<stop stop-color="#433F43" stop-opacity="0"/>
<stop offset="0.3174" stop-color="#3B373B" stop-opacity="0.317"/>
<stop offset="0.8224" stop-color="#242324" stop-opacity="0.822"/>
<stop offset="1" stop-color="#1A1A1A"/>
</linearGradient>
<linearGradient id="paint29_linear_29_35299" x1="17.8495" y1="10.1982" x2="20.2721" y2="13.3714" gradientUnits="userSpaceOnUse">
<stop stop-color="#FEF0AE"/>
<stop offset="1" stop-color="#FAC600"/>
</linearGradient>
<linearGradient id="paint30_linear_29_35299" x1="20.2137" y1="11.8344" x2="18.5728" y2="11.8344" gradientUnits="userSpaceOnUse">
<stop stop-color="#FEA613" stop-opacity="0"/>
<stop offset="0.2032" stop-color="#FDA215" stop-opacity="0.203"/>
<stop offset="0.4052" stop-color="#FB961B" stop-opacity="0.405"/>
<stop offset="0.6066" stop-color="#F68225" stop-opacity="0.607"/>
<stop offset="0.8066" stop-color="#F06633" stop-opacity="0.807"/>
<stop offset="1" stop-color="#E94444"/>
</linearGradient>
<linearGradient id="paint31_linear_29_35299" x1="8.15887" y1="14.3281" x2="14.7321" y2="19.2716" gradientUnits="userSpaceOnUse">
<stop stop-color="#FEF0AE"/>
<stop offset="1" stop-color="#FAC600"/>
</linearGradient>
<linearGradient id="paint32_linear_29_35299" x1="13.3547" y1="17.136" x2="8.80964" y2="17.0029" gradientUnits="userSpaceOnUse">
<stop stop-color="#FEA613" stop-opacity="0"/>
<stop offset="0.2032" stop-color="#FDA215" stop-opacity="0.203"/>
<stop offset="0.4052" stop-color="#FB961B" stop-opacity="0.405"/>
<stop offset="0.6066" stop-color="#F68225" stop-opacity="0.607"/>
<stop offset="0.8066" stop-color="#F06633" stop-opacity="0.807"/>
<stop offset="1" stop-color="#E94444"/>
</linearGradient>
<linearGradient id="paint33_linear_29_35299" x1="11.9991" y1="15.3727" x2="11.9991" y2="13.1032" gradientUnits="userSpaceOnUse">
<stop stop-color="#FEA613" stop-opacity="0"/>
<stop offset="0.2032" stop-color="#FDA215" stop-opacity="0.203"/>
<stop offset="0.4052" stop-color="#FB961B" stop-opacity="0.405"/>
<stop offset="0.6066" stop-color="#F68225" stop-opacity="0.607"/>
<stop offset="0.8066" stop-color="#F06633" stop-opacity="0.807"/>
<stop offset="1" stop-color="#E94444"/>
</linearGradient>
<linearGradient id="paint34_linear_29_35299" x1="11.0924" y1="8.62657" x2="12.5649" y2="12.8875" gradientUnits="userSpaceOnUse">
<stop stop-color="#E1D3CE"/>
<stop offset="1" stop-color="#9E9797"/>
</linearGradient>
<linearGradient id="paint35_linear_29_35299" x1="9.6189" y1="10.4939" x2="7.56788" y2="10.4939" gradientUnits="userSpaceOnUse">
<stop stop-color="#433F43" stop-opacity="0"/>
<stop offset="0.3174" stop-color="#3B373B" stop-opacity="0.317"/>
<stop offset="0.8224" stop-color="#242324" stop-opacity="0.822"/>
<stop offset="1" stop-color="#1A1A1A"/>
</linearGradient>
<linearGradient id="paint36_linear_29_35299" x1="13.3258" y1="7.75245" x2="15.4435" y2="6.60737" gradientUnits="userSpaceOnUse">
<stop stop-color="#433F43" stop-opacity="0"/>
<stop offset="0.3174" stop-color="#3B373B" stop-opacity="0.317"/>
<stop offset="0.8224" stop-color="#242324" stop-opacity="0.822"/>
<stop offset="1" stop-color="#1A1A1A"/>
</linearGradient>
<linearGradient id="paint37_linear_29_35299" x1="11.9999" y1="12.6116" x2="11.9999" y2="13.8245" gradientUnits="userSpaceOnUse">
<stop stop-color="#433F43" stop-opacity="0"/>
<stop offset="0.3174" stop-color="#3B373B" stop-opacity="0.317"/>
<stop offset="0.8224" stop-color="#242324" stop-opacity="0.822"/>
<stop offset="1" stop-color="#1A1A1A"/>
</linearGradient>
<linearGradient id="paint38_linear_29_35299" x1="15.6064" y1="10.6205" x2="18.2887" y2="11.4833" gradientUnits="userSpaceOnUse">
<stop stop-color="#433F43" stop-opacity="0"/>
<stop offset="0.3174" stop-color="#3B373B" stop-opacity="0.317"/>
<stop offset="0.8224" stop-color="#242324" stop-opacity="0.822"/>
<stop offset="1" stop-color="#1A1A1A"/>
</linearGradient>
<linearGradient id="paint39_linear_29_35299" x1="13.1431" y1="11.8012" x2="15.5666" y2="9.87176" gradientUnits="userSpaceOnUse">
<stop stop-color="#433F43" stop-opacity="0"/>
<stop offset="0.3174" stop-color="#3B373B" stop-opacity="0.317"/>
<stop offset="0.8224" stop-color="#242324" stop-opacity="0.822"/>
<stop offset="1" stop-color="#1A1A1A"/>
</linearGradient>
<linearGradient id="paint40_linear_29_35299" x1="13.3761" y1="12.235" x2="16.6231" y2="13.2232" gradientUnits="userSpaceOnUse">
<stop stop-color="#433F43" stop-opacity="0"/>
<stop offset="0.3174" stop-color="#3B373B" stop-opacity="0.317"/>
<stop offset="0.8224" stop-color="#242324" stop-opacity="0.822"/>
<stop offset="1" stop-color="#1A1A1A"/>
</linearGradient>
<clipPath id="clip0_29_35299">
<rect width="24" height="24" fill="white"/>
</clipPath>
</defs>
</svg>
