<svg width="25" height="25" viewBox="0 0 25 25" fill="none" xmlns="http://www.w3.org/2000/svg">
<g clip-path="url(#clip0_201_2718)">
<path d="M13.3238 20.1079H11.6767V1.32353C11.6767 0.868706 12.0454 0.5 12.5003 0.5C12.9551 0.5 13.3238 0.868706 13.3238 1.32353V20.1079Z" fill="url(#paint0_linear_201_2718)"/>
<path d="M11.6767 16.1553H13.3238V20.1082H11.6767V16.1553Z" fill="url(#paint1_linear_201_2718)"/>
<path d="M11.6767 7.88867H13.3238V14.571H11.6767V7.88867Z" fill="url(#paint2_linear_201_2718)"/>
<path d="M10.6657 24.4993C9.03894 24.4745 7.74704 23.1169 7.74704 21.49V21.0304C7.74704 20.7373 7.98469 20.4997 8.27781 20.4997H9.56925C9.86238 20.4997 10.1 20.7373 10.1 21.0304V21.5172C10.1 21.8462 10.3523 22.1297 10.6809 22.146C11.0322 22.1633 11.3235 21.8825 11.3235 21.535V18.8657C11.3235 18.5726 11.5612 18.335 11.8543 18.335H13.1457C13.4388 18.335 13.6765 18.5726 13.6765 18.8657V21.535C13.6765 23.185 12.3214 24.5246 10.6657 24.4993Z" fill="url(#paint3_linear_201_2718)"/>
<path d="M11.8545 18.335C11.5613 18.335 11.3237 18.5726 11.3237 18.8657V21.535C11.3237 21.8825 11.0323 22.1633 10.681 22.146C10.3524 22.1297 10.1001 21.8462 10.1001 21.5172V21.0304C10.1001 20.7373 9.8625 20.4997 9.56937 20.4997H8.82956V20.8236C8.82956 22.107 9.61906 23.1778 10.6132 23.1974C11.625 23.2173 12.4531 22.1607 12.4531 20.8591V18.335H11.8545Z" fill="url(#paint4_linear_201_2718)"/>
<path d="M24.3437 8.67639C22.7482 4.98905 18.0492 2.31738 12.5001 2.31738C6.95093 2.31738 2.25206 4.98905 0.656434 8.6763C0.0944109 9.99677 1.11686 11.443 2.61615 11.443C3.58858 11.443 4.42872 10.8129 4.66298 9.93004C4.68547 9.8452 4.76392 9.78472 4.85578 9.78472C4.93893 9.78472 5.01309 9.83423 5.04156 9.90868C5.377 10.7861 6.26072 11.443 7.33959 11.443C8.38312 11.443 9.2834 10.8162 9.62829 9.92515C9.66076 9.84129 9.74331 9.78472 9.83714 9.78472C9.92505 9.78472 10.0045 9.83423 10.0398 9.91089C10.4523 10.8071 11.3931 11.443 12.5001 11.443C13.607 11.443 14.5478 10.8071 14.9603 9.91089C14.9956 9.83418 15.0751 9.78472 15.163 9.78472C15.2568 9.78472 15.3394 9.84129 15.3718 9.92515C15.7167 10.8162 16.617 11.443 17.6605 11.443C18.7394 11.443 19.6231 10.7861 19.9586 9.90868C19.987 9.83423 20.0611 9.78472 20.1443 9.78472C20.2362 9.78472 20.3146 9.8452 20.3371 9.93004C20.5714 10.8129 21.4115 11.443 22.384 11.443C23.8832 11.443 24.9056 9.99682 24.3437 8.67639Z" fill="url(#paint5_linear_201_2718)"/>
<path d="M0.656434 8.67649C0.0944109 9.99696 1.11686 11.4432 2.61615 11.4432C3.58858 11.4432 4.42872 10.8131 4.66298 9.93023C4.68547 9.84538 4.76392 9.78491 4.85578 9.78491C4.93893 9.78491 5.01309 9.83442 5.04156 9.90886C5.377 10.7863 6.26072 11.4432 7.33959 11.4432C8.38312 11.4432 9.2834 10.8164 9.62829 9.92529C9.66076 9.84143 9.74331 9.78486 9.83714 9.78486C9.92505 9.78486 10.0045 9.83437 10.0398 9.91103C10.4523 10.8072 11.3931 11.4431 12.5001 11.4431C13.607 11.4431 14.5478 10.8072 14.9603 9.91103C14.9956 9.83432 15.0751 9.78486 15.163 9.78486C15.2568 9.78486 15.3394 9.84143 15.3718 9.92529C15.7167 10.8163 16.617 11.4432 17.6605 11.4432C18.7394 11.4432 19.6231 10.7863 19.9586 9.90886C19.987 9.83442 20.0611 9.78491 20.1443 9.78491C20.2362 9.78491 20.3146 9.84538 20.3371 9.93023C20.5714 10.8131 21.4115 11.4432 22.384 11.4432C23.8832 11.4432 24.9057 9.99705 24.3437 8.67658C23.8868 7.62067 23.175 6.6483 22.2621 5.79785H2.73808C1.82514 6.64825 1.11333 7.62063 0.656434 8.67649Z" fill="url(#paint6_linear_201_2718)"/>
<path d="M12.3976 2.31738C8.95535 2.36745 6.0409 4.93941 4.98749 8.50068C4.84415 8.98491 4.87441 9.46778 5.03686 9.89814C5.0225 9.86552 4.99865 9.83814 4.96942 9.81828C4.93705 9.79654 4.89775 9.78425 4.85582 9.78425C4.76396 9.78425 4.68537 9.84472 4.66307 9.92976C4.54627 10.371 4.27761 10.749 3.91653 11.0173C3.55549 11.2847 3.10203 11.4425 2.6162 11.4425C1.11676 11.4425 0.0941276 9.99635 0.656434 8.67588C2.24246 5.01122 6.89314 2.34999 12.3976 2.31738Z" fill="url(#paint7_linear_201_2718)"/>
<path d="M24.4997 9.43141C24.4997 10.4934 23.5987 11.4426 22.3839 11.4426C21.4117 11.4426 20.5712 10.8123 20.337 9.92981C20.3259 9.88726 20.301 9.85089 20.267 9.82491C20.233 9.79941 20.1905 9.7843 20.1443 9.7843C20.0647 9.7843 19.9941 9.82966 19.9633 9.89814C20.1258 9.46774 20.1561 8.98491 20.0127 8.50068C18.9592 4.93941 16.0447 2.36745 12.6025 2.31738C18.107 2.34999 22.7577 5.01122 24.3436 8.67592C24.4504 8.92679 24.4997 9.18195 24.4997 9.43141Z" fill="url(#paint8_linear_201_2718)"/>
<path d="M7.33959 11.443C5.72829 11.443 4.54999 9.97861 4.98721 8.50105C6.04104 4.93983 8.95507 2.36811 12.3975 2.3179C12.4315 2.31738 12.466 2.31738 12.5 2.31738C11.1785 2.31738 10.0704 5.28792 9.77258 9.28783C9.68218 10.5028 8.61799 11.443 7.33959 11.443Z" fill="url(#paint9_linear_201_2718)"/>
<path d="M17.6605 11.443C16.3821 11.443 15.3179 10.5028 15.2274 9.28783C14.9297 5.28788 13.8216 2.31738 12.5 2.31738C12.534 2.31738 12.5685 2.31738 12.6025 2.3179C16.045 2.36811 18.959 4.93983 20.0128 8.50105C20.4501 9.97861 19.2718 11.443 17.6605 11.443Z" fill="url(#paint10_linear_201_2718)"/>
<path d="M6.26627 5.79785H2.73827C1.82533 6.6483 1.11347 7.62063 0.656481 8.67658C0.0942219 9.99705 1.11681 11.4432 2.61625 11.4432C3.10208 11.4432 3.55554 11.2854 3.91658 11.018C4.27761 10.7497 4.54627 10.3717 4.66312 9.93046C4.68542 9.84543 4.76401 9.78496 4.85587 9.78496C4.8978 9.78496 4.93709 9.79724 4.96947 9.81898C4.99869 9.83884 5.02255 9.86623 5.0369 9.89884C4.87446 9.46844 4.8442 8.98562 4.98754 8.50138C5.27987 7.51296 5.71573 6.601 6.26627 5.79785Z" fill="url(#paint11_linear_201_2718)"/>
<path d="M20.0126 8.50129C20.1559 8.98552 20.1257 9.46839 19.9632 9.89875C19.994 9.83023 20.0646 9.78491 20.1442 9.78491C20.1905 9.78491 20.2329 9.80002 20.2669 9.82552C20.3009 9.8515 20.3258 9.88788 20.337 9.93042C20.5711 10.8129 21.4116 11.4432 22.3838 11.4432C23.5986 11.4432 24.4996 10.494 24.4996 9.43202C24.4996 9.18256 24.4503 8.92745 24.3435 8.67658C23.8866 7.62063 23.1747 6.6483 22.2618 5.79785H18.7338C19.2843 6.601 19.7202 7.51296 20.0126 8.50129Z" fill="url(#paint12_linear_201_2718)"/>
<path d="M6.26613 5.7979C5.71559 6.60105 5.27968 7.51296 4.98726 8.50124C4.55003 9.97879 5.72834 11.4432 7.33963 11.4432C8.61799 11.4432 9.68222 10.503 9.77267 9.28802C9.86891 7.99517 10.0499 6.81009 10.2953 5.79785H6.26613V5.7979Z" fill="url(#paint13_linear_201_2718)"/>
<path d="M15.2274 9.28797C15.3179 10.5029 16.3821 11.4432 17.6605 11.4432C19.2718 11.4432 20.4501 9.97875 20.0129 8.50119C19.7204 7.51291 19.2845 6.60096 18.734 5.79785H14.7049C14.9502 6.80999 15.1312 7.99507 15.2274 9.28797Z" fill="url(#paint14_linear_201_2718)"/>
<path d="M11.3235 20.3584V21.5349C11.3235 21.8824 11.0322 22.1632 10.6809 22.1459C10.3523 22.1296 10.1 21.8461 10.1 21.5171V21.0304C10.1 20.7372 9.86233 20.4996 9.5692 20.4996H8.27777C7.98468 20.4996 7.74704 20.7372 7.74704 21.0304V21.4899C7.74704 23.1168 9.03894 24.4744 10.6657 24.4992C12.3214 24.5245 13.6764 23.1849 13.6764 21.5349V20.3584H11.3235Z" fill="url(#paint15_linear_201_2718)"/>
</g>
<defs>
<linearGradient id="paint0_linear_201_2718" x1="11.7003" y1="10.3039" x2="13.2596" y2="10.3039" gradientUnits="userSpaceOnUse">
<stop stop-color="#EAF6FF"/>
<stop offset="1" stop-color="#B3DAFE"/>
</linearGradient>
<linearGradient id="paint1_linear_201_2718" x1="12.5003" y1="17.2847" x2="12.5003" y2="19.5592" gradientUnits="userSpaceOnUse">
<stop stop-color="#8AC9FE" stop-opacity="0"/>
<stop offset="0.0662" stop-color="#85C2F3" stop-opacity="0.066"/>
<stop offset="0.3695" stop-color="#6FA2C3" stop-opacity="0.37"/>
<stop offset="0.6372" stop-color="#608CA0" stop-opacity="0.637"/>
<stop offset="0.8565" stop-color="#567E8B" stop-opacity="0.857"/>
<stop offset="1" stop-color="#537983"/>
</linearGradient>
<linearGradient id="paint2_linear_201_2718" x1="12.5003" y1="13.473" x2="12.5003" y2="10.9802" gradientUnits="userSpaceOnUse">
<stop stop-color="#8AC9FE" stop-opacity="0"/>
<stop offset="0.0662" stop-color="#85C2F3" stop-opacity="0.066"/>
<stop offset="0.3695" stop-color="#6FA2C3" stop-opacity="0.37"/>
<stop offset="0.6372" stop-color="#608CA0" stop-opacity="0.637"/>
<stop offset="0.8565" stop-color="#567E8B" stop-opacity="0.857"/>
<stop offset="1" stop-color="#537983"/>
</linearGradient>
<linearGradient id="paint3_linear_201_2718" x1="9.49301" y1="19.5358" x2="13.7911" y2="23.677" gradientUnits="userSpaceOnUse">
<stop stop-color="#BB9AE2"/>
<stop offset="1" stop-color="#662D91"/>
</linearGradient>
<linearGradient id="paint4_linear_201_2718" x1="12.8531" y1="22.0182" x2="6.9864" y2="17.3123" gradientUnits="userSpaceOnUse">
<stop stop-color="#BB9AE2"/>
<stop offset="1" stop-color="#662D91"/>
</linearGradient>
<linearGradient id="paint5_linear_201_2718" x1="10.814" y1="7.69014" x2="14.425" y2="9.69329" gradientUnits="userSpaceOnUse">
<stop stop-color="#F5F173"/>
<stop offset="1" stop-color="#FBB03B"/>
</linearGradient>
<linearGradient id="paint6_linear_201_2718" x1="12.5001" y1="8.00256" x2="12.5001" y2="11.8828" gradientUnits="userSpaceOnUse">
<stop stop-color="#DB841D" stop-opacity="0"/>
<stop offset="1" stop-color="#F7931E"/>
</linearGradient>
<linearGradient id="paint7_linear_201_2718" x1="4.72533" y1="4.62312" x2="6.80641" y2="6.63075" gradientUnits="userSpaceOnUse">
<stop stop-color="#F7657E"/>
<stop offset="1" stop-color="#FF1D25"/>
</linearGradient>
<linearGradient id="paint8_linear_201_2718" x1="18.9032" y1="6.9891" x2="24.31" y2="8.70472" gradientUnits="userSpaceOnUse">
<stop stop-color="#89E2FF"/>
<stop offset="1" stop-color="#3FA9F5"/>
</linearGradient>
<linearGradient id="paint9_linear_201_2718" x1="7.29413" y1="5.44576" x2="10.6033" y2="7.55155" gradientUnits="userSpaceOnUse">
<stop stop-color="#FCA52C"/>
<stop offset="1" stop-color="#F15A24"/>
</linearGradient>
<linearGradient id="paint10_linear_201_2718" x1="14.8334" y1="6.56665" x2="19.8926" y2="8.78962" gradientUnits="userSpaceOnUse">
<stop stop-color="#69D774"/>
<stop offset="1" stop-color="#2E8E59"/>
</linearGradient>
<linearGradient id="paint11_linear_201_2718" x1="3.38312" y1="8.00256" x2="3.38312" y2="11.8828" gradientUnits="userSpaceOnUse">
<stop stop-color="#FF1D25" stop-opacity="0"/>
<stop offset="1" stop-color="#7E0034"/>
</linearGradient>
<linearGradient id="paint12_linear_201_2718" x1="21.6168" y1="8.00256" x2="21.6168" y2="11.8828" gradientUnits="userSpaceOnUse">
<stop stop-color="#2740B0" stop-opacity="0"/>
<stop offset="0.2879" stop-color="#243CA6" stop-opacity="0.288"/>
<stop offset="0.7742" stop-color="#1D308C" stop-opacity="0.774"/>
<stop offset="1" stop-color="#192A7D"/>
</linearGradient>
<linearGradient id="paint13_linear_201_2718" x1="7.5953" y1="8.0026" x2="7.5953" y2="11.8829" gradientUnits="userSpaceOnUse">
<stop stop-color="#DB841D" stop-opacity="0"/>
<stop offset="1" stop-color="#FF5831"/>
</linearGradient>
<linearGradient id="paint14_linear_201_2718" x1="17.4048" y1="8.00251" x2="17.4048" y2="11.8828" gradientUnits="userSpaceOnUse">
<stop stop-color="#017B4E" stop-opacity="0"/>
<stop offset="0.8532" stop-color="#026B43" stop-opacity="0.853"/>
<stop offset="1" stop-color="#026841"/>
</linearGradient>
<linearGradient id="paint15_linear_201_2718" x1="10.7117" y1="21.7702" x2="10.7117" y2="24.9394" gradientUnits="userSpaceOnUse">
<stop stop-color="#662D91" stop-opacity="0"/>
<stop offset="0.2376" stop-color="#592989" stop-opacity="0.238"/>
<stop offset="0.6717" stop-color="#381E76" stop-opacity="0.672"/>
<stop offset="1" stop-color="#1B1464"/>
</linearGradient>
<clipPath id="clip0_201_2718">
<rect width="24" height="24" fill="white" transform="translate(0.500011 0.5)"/>
</clipPath>
</defs>
</svg>
