<svg width="24" height="24" viewBox="0 0 24 24" fill="none" xmlns="http://www.w3.org/2000/svg">
<g clip-path="url(#clip0_29_35262)">
<path d="M12.0008 19.862C16.343 19.862 19.863 16.342 19.863 11.9999C19.863 7.65771 16.343 4.1377 12.0008 4.1377C7.65868 4.1377 4.13867 7.65771 4.13867 11.9999C4.13867 16.342 7.65868 19.862 12.0008 19.862Z" fill="url(#paint0_linear_29_35262)"/>
<path d="M12.0003 17.7135C15.1556 17.7135 17.7135 15.1556 17.7135 12.0003C17.7135 8.84499 15.1556 6.28711 12.0003 6.28711C8.84499 6.28711 6.28711 8.84499 6.28711 12.0003C6.28711 15.1556 8.84499 17.7135 12.0003 17.7135Z" fill="url(#paint1_linear_29_35262)"/>
<path d="M12.0005 19.1884C15.9703 19.1884 19.1884 15.9703 19.1884 12.0005C19.1884 8.03066 15.9703 4.8125 12.0005 4.8125C8.03066 4.8125 4.8125 8.03066 4.8125 12.0005C4.8125 15.9703 8.03066 19.1884 12.0005 19.1884Z" fill="url(#paint2_linear_29_35262)"/>
<path d="M11.9995 3.5216C12.3325 3.5216 12.6025 2.73326 12.6025 1.7608C12.6025 0.788337 12.3325 0 11.9995 0C11.6665 0 11.3965 0.788337 11.3965 1.7608C11.3965 2.73326 11.6665 3.5216 11.9995 3.5216Z" fill="url(#paint3_linear_29_35262)"/>
<path d="M11.9995 24.0001C12.3325 24.0001 12.6025 23.2118 12.6025 22.2393C12.6025 21.2669 12.3325 20.4785 11.9995 20.4785C11.6665 20.4785 11.3965 21.2669 11.3965 22.2393C11.3965 23.2118 11.6665 24.0001 11.9995 24.0001Z" fill="url(#paint4_linear_29_35262)"/>
<path d="M22.2393 12.6035C23.2118 12.6035 24.0001 12.3335 24.0001 12.0005C24.0001 11.6674 23.2118 11.3975 22.2393 11.3975C21.2669 11.3975 20.4785 11.6674 20.4785 12.0005C20.4785 12.3335 21.2669 12.6035 22.2393 12.6035Z" fill="url(#paint5_linear_29_35262)"/>
<path d="M1.7608 12.6035C2.73326 12.6035 3.5216 12.3335 3.5216 12.0005C3.5216 11.6674 2.73326 11.3975 1.7608 11.3975C0.788337 11.3975 0 11.6674 0 12.0005C0 12.3335 0.788337 12.6035 1.7608 12.6035Z" fill="url(#paint6_linear_29_35262)"/>
<path d="M19.6667 5.18618C18.979 5.87381 18.2307 6.24035 17.9952 6.00487C17.7597 5.76938 18.1262 5.02101 18.8139 4.33338C19.5015 3.64576 20.2499 3.27922 20.4853 3.5147C20.7208 3.75018 20.3543 4.49851 19.6667 5.18618Z" fill="url(#paint7_linear_29_35262)"/>
<path d="M5.18618 19.6667C4.49856 20.3543 3.75018 20.7208 3.5147 20.4853C3.27922 20.2499 3.64576 19.5015 4.33338 18.8139C5.02101 18.1262 5.76938 17.7597 6.00487 17.9952C6.24035 18.2307 5.87381 18.979 5.18618 19.6667Z" fill="url(#paint8_linear_29_35262)"/>
<path d="M18.8139 19.6667C18.1262 18.979 17.7597 18.2307 17.9952 17.9952C18.2307 17.7597 18.979 18.1262 19.6667 18.8139C20.3543 19.5015 20.7208 20.2499 20.4853 20.4853C20.2499 20.7208 19.5015 20.3543 18.8139 19.6667Z" fill="url(#paint9_linear_29_35262)"/>
<path d="M4.33339 5.18618C3.64572 4.49851 3.27922 3.75018 3.51471 3.5147C3.75019 3.27922 4.49856 3.64576 5.18619 4.33338C5.87381 5.02101 6.24035 5.76938 6.00487 6.00487C5.76934 6.24035 5.02101 5.87381 4.33339 5.18618Z" fill="url(#paint10_linear_29_35262)"/>
<path d="M8.61304 2.62883C8.82584 3.13184 8.77949 3.63222 8.50961 3.74638C8.23968 3.86055 7.84838 3.54535 7.63558 3.04229C7.42278 2.53927 7.46914 2.0389 7.73902 1.92473C8.0089 1.81057 8.40024 2.12582 8.61304 2.62883Z" fill="url(#paint11_linear_29_35262)"/>
<path d="M16.365 20.956C16.5778 21.459 16.5314 21.9594 16.2616 22.0735C15.9916 22.1877 15.6003 21.8725 15.3875 21.3694C15.1747 20.8664 15.2211 20.366 15.491 20.2519C15.7609 20.1377 16.1522 20.453 16.365 20.956Z" fill="url(#paint12_linear_29_35262)"/>
<path d="M21.3714 8.61206C20.8684 8.82486 20.368 8.77851 20.2538 8.50863C20.1397 8.2387 20.4549 7.84741 20.9579 7.63461C21.4609 7.42181 21.9613 7.46816 22.0755 7.73804C22.1896 8.00797 21.8744 8.39926 21.3714 8.61206Z" fill="url(#paint13_linear_29_35262)"/>
<path d="M3.04327 16.365C2.54025 16.5778 2.03988 16.5314 1.92571 16.2616C1.81155 15.9917 2.12675 15.6003 2.62981 15.3875C3.13282 15.1747 3.63319 15.2211 3.74736 15.491C3.86152 15.7609 3.54628 16.1522 3.04327 16.365Z" fill="url(#paint14_linear_29_35262)"/>
<path d="M2.97929 7.76919C3.48546 7.97442 3.80649 8.36096 3.69637 8.63258C3.58626 8.90416 3.08668 8.95799 2.58052 8.75272C2.07435 8.5475 1.75332 8.16096 1.86343 7.88933C1.97355 7.61771 2.47317 7.56397 2.97929 7.76919Z" fill="url(#paint15_linear_29_35262)"/>
<path d="M21.4207 15.2467C21.9269 15.4519 22.2479 15.8385 22.1378 16.1101C22.0277 16.3817 21.5281 16.4355 21.0219 16.2302C20.5158 16.025 20.1947 15.6385 20.3048 15.3669C20.415 15.0953 20.9145 15.0415 21.4207 15.2467Z" fill="url(#paint16_linear_29_35262)"/>
<path d="M16.2293 2.97831C16.0241 3.48448 15.6375 3.80552 15.3659 3.6954C15.0943 3.58528 15.0405 3.0857 15.2458 2.57954C15.451 2.07337 15.8375 1.75234 16.1091 1.86246C16.3807 1.97257 16.4345 2.4722 16.2293 2.97831Z" fill="url(#paint17_linear_29_35262)"/>
<path d="M8.75274 21.4197C8.54752 21.9259 8.16098 22.2469 7.88935 22.1368C7.61773 22.0267 7.56394 21.5271 7.76921 21.0209C7.97448 20.5148 8.36098 20.1937 8.6326 20.3039C8.90418 20.414 8.95796 20.9136 8.75274 21.4197Z" fill="url(#paint18_linear_29_35262)"/>
</g>
<defs>
<linearGradient id="paint0_linear_29_35262" x1="9.27764" y1="9.27666" x2="16.7473" y2="16.7464" gradientUnits="userSpaceOnUse">
<stop stop-color="#FFDA2D"/>
<stop offset="1" stop-color="#FDBF00"/>
</linearGradient>
<linearGradient id="paint1_linear_29_35262" x1="10.0561" y1="9.06005" x2="23.7084" y2="29.7073" gradientUnits="userSpaceOnUse">
<stop stop-color="#FF9100" stop-opacity="0"/>
<stop offset="1" stop-color="#FF9100"/>
</linearGradient>
<linearGradient id="paint2_linear_29_35262" x1="13.153" y1="13.6243" x2="2.29876" y2="-1.66821" gradientUnits="userSpaceOnUse">
<stop stop-color="white" stop-opacity="0"/>
<stop offset="1" stop-color="white"/>
</linearGradient>
<linearGradient id="paint3_linear_29_35262" x1="11.5435" y1="1.30485" x2="12.7942" y2="2.55553" gradientUnits="userSpaceOnUse">
<stop stop-color="#FFDA2D"/>
<stop offset="1" stop-color="#FDBF00"/>
</linearGradient>
<linearGradient id="paint4_linear_29_35262" x1="11.5435" y1="21.7834" x2="12.7942" y2="23.034" gradientUnits="userSpaceOnUse">
<stop stop-color="#FFDA2D"/>
<stop offset="1" stop-color="#FDBF00"/>
</linearGradient>
<linearGradient id="paint5_linear_29_35262" x1="22.6953" y1="11.5445" x2="21.4446" y2="12.7952" gradientUnits="userSpaceOnUse">
<stop stop-color="#FFDA2D"/>
<stop offset="1" stop-color="#FDBF00"/>
</linearGradient>
<linearGradient id="paint6_linear_29_35262" x1="2.21675" y1="11.5445" x2="0.966071" y2="12.7952" gradientUnits="userSpaceOnUse">
<stop stop-color="#FFDA2D"/>
<stop offset="1" stop-color="#FDBF00"/>
</linearGradient>
<linearGradient id="paint7_linear_29_35262" x1="19.2392" y1="4.11355" x2="19.2392" y2="5.88202" gradientUnits="userSpaceOnUse">
<stop stop-color="#FFDA2D"/>
<stop offset="1" stop-color="#FDBF00"/>
</linearGradient>
<linearGradient id="paint8_linear_29_35262" x1="4.76086" y1="18.5919" x2="4.76086" y2="20.3603" gradientUnits="userSpaceOnUse">
<stop stop-color="#FFDA2D"/>
<stop offset="1" stop-color="#FDBF00"/>
</linearGradient>
<linearGradient id="paint9_linear_29_35262" x1="19.8865" y1="19.2392" x2="18.118" y2="19.2392" gradientUnits="userSpaceOnUse">
<stop stop-color="#FFDA2D"/>
<stop offset="1" stop-color="#FDBF00"/>
</linearGradient>
<linearGradient id="paint10_linear_29_35262" x1="5.40817" y1="4.76086" x2="3.6397" y2="4.76086" gradientUnits="userSpaceOnUse">
<stop stop-color="#FFDA2D"/>
<stop offset="1" stop-color="#FDBF00"/>
</linearGradient>
<linearGradient id="paint11_linear_29_35262" x1="8.07781" y1="2.81141" x2="9.32082" y2="3.31487" gradientUnits="userSpaceOnUse">
<stop stop-color="#FF9100"/>
<stop offset="1" stop-color="#E63950"/>
</linearGradient>
<linearGradient id="paint12_linear_29_35262" x1="15.838" y1="21.1387" x2="17.0811" y2="21.6422" gradientUnits="userSpaceOnUse">
<stop stop-color="#FF9100"/>
<stop offset="1" stop-color="#E63950"/>
</linearGradient>
<linearGradient id="paint13_linear_29_35262" x1="21.1888" y1="8.07683" x2="20.6853" y2="9.31985" gradientUnits="userSpaceOnUse">
<stop stop-color="#FF9100"/>
<stop offset="1" stop-color="#E63950"/>
</linearGradient>
<linearGradient id="paint14_linear_29_35262" x1="2.86051" y1="15.838" x2="2.35705" y2="17.0811" gradientUnits="userSpaceOnUse">
<stop stop-color="#FF9100"/>
<stop offset="1" stop-color="#E63950"/>
</linearGradient>
<linearGradient id="paint15_linear_29_35262" x1="2.73621" y1="8.27801" x2="3.97164" y2="7.75558" gradientUnits="userSpaceOnUse">
<stop stop-color="#FF9100"/>
<stop offset="1" stop-color="#E63950"/>
</linearGradient>
<linearGradient id="paint16_linear_29_35262" x1="21.1832" y1="15.7603" x2="22.4186" y2="15.2379" gradientUnits="userSpaceOnUse">
<stop stop-color="#FF9100"/>
<stop offset="1" stop-color="#E63950"/>
</linearGradient>
<linearGradient id="paint17_linear_29_35262" x1="15.7205" y1="2.73523" x2="16.2429" y2="3.97066" gradientUnits="userSpaceOnUse">
<stop stop-color="#FF9100"/>
<stop offset="1" stop-color="#E63950"/>
</linearGradient>
<linearGradient id="paint18_linear_29_35262" x1="8.23918" y1="21.1822" x2="8.76161" y2="22.4177" gradientUnits="userSpaceOnUse">
<stop stop-color="#FF9100"/>
<stop offset="1" stop-color="#E63950"/>
</linearGradient>
<clipPath id="clip0_29_35262">
<rect width="24" height="24" fill="white"/>
</clipPath>
</defs>
</svg>
