<svg width="25" height="25" viewBox="0 0 25 25" fill="none" xmlns="http://www.w3.org/2000/svg">
<g clip-path="url(#clip0_201_2741)">
<path d="M21.51 13.5751L16.6629 12.2764L13.7183 15.693L20.4586 17.499L21.51 13.5751Z" fill="url(#paint0_linear_201_2741)"/>
<path d="M17.7061 16.7618L20.4586 17.4993L21.51 13.5754L18.7575 12.8379L17.7061 16.7618Z" fill="url(#paint1_linear_201_2741)"/>
<path d="M15.1332 14.0512L20.9639 15.6135L21.51 13.5751L16.6629 12.2764L15.1332 14.0512Z" fill="url(#paint2_linear_201_2741)"/>
<path d="M21.6198 21.7578L14.942 19.9685C13.2666 19.5195 11.8861 18.3337 11.1896 16.7452L10.4147 14.9781C10.2219 14.5384 10.6235 14.0709 11.0873 14.1952L22.8049 17.3349C23.3173 17.4722 23.6587 17.9555 23.6167 18.4843L23.5181 19.7275C23.5095 19.8367 23.4809 19.9434 23.4338 20.0423L22.8976 21.1682C22.6695 21.6471 22.1321 21.895 21.6198 21.7578Z" fill="url(#paint3_linear_201_2741)"/>
<path d="M11.3741 17.125C12.1136 18.5214 13.4034 19.5556 14.9419 19.9678L21.6198 21.7571C22.1321 21.8944 22.6694 21.6464 22.8975 21.1675L23.3008 20.3207L11.3741 17.125Z" fill="url(#paint4_linear_201_2741)"/>
<path d="M23.6167 18.4843C23.6587 17.9556 23.3173 17.4722 22.8049 17.3349L11.0873 14.1952C10.6235 14.0709 10.2219 14.5384 10.4147 14.9781L11.1896 16.7452C11.2464 16.8748 11.3083 17.0015 11.374 17.1256L23.3008 20.3214L23.4338 20.0423C23.4809 19.9434 23.5094 19.8367 23.5181 19.7275L23.6167 18.4843Z" fill="url(#paint5_linear_201_2741)"/>
<path d="M23.6167 18.4839C23.6587 17.9551 23.3173 17.4717 22.8049 17.3344L20.0698 16.6016L18.8847 21.0244L21.6198 21.7573C22.1322 21.8946 22.6695 21.6467 22.8976 21.1678L23.4338 20.0419C23.4809 19.943 23.5095 19.8363 23.5181 19.7271L23.6167 18.4839Z" fill="url(#paint6_linear_201_2741)"/>
<path d="M23.6167 18.4843C23.6587 17.9556 23.3173 17.4722 22.8049 17.3349L11.0873 14.1952C10.6235 14.0709 10.2219 14.5384 10.4147 14.9781L10.7756 15.8009L23.5579 19.226L23.6167 18.4843Z" fill="url(#paint7_linear_201_2741)"/>
<path d="M21.4099 14.2131L16.2259 12.824C15.8409 12.7208 15.6124 12.3251 15.7156 11.9401L15.7597 11.7754C15.8629 11.3903 16.2586 11.1619 16.6437 11.265L21.8277 12.654C22.2127 12.7572 22.4412 13.153 22.3381 13.538L22.2939 13.7027C22.1907 14.0877 21.795 14.3163 21.4099 14.2131Z" fill="url(#paint8_linear_201_2741)"/>
<path d="M17.1225 15.3435L18.9404 15.8306C19.0518 15.8605 19.1662 15.7944 19.1961 15.6831L19.5086 14.5165C19.5385 14.4052 19.4724 14.2907 19.3611 14.2609L17.5432 13.7738C17.4318 13.7439 17.3174 13.81 17.2876 13.9213L16.975 15.0879C16.9452 15.1993 17.0112 15.3137 17.1225 15.3435Z" fill="url(#paint9_linear_201_2741)"/>
<path d="M17.1225 15.3435L18.9404 15.8306C19.0518 15.8605 19.1662 15.7944 19.1961 15.6831L19.5086 14.5165C19.5385 14.4052 19.4724 14.2907 19.3611 14.2609L17.5432 13.7738C17.4318 13.7439 17.3174 13.81 17.2876 13.9213L16.975 15.0879C16.9452 15.1993 17.0112 15.3137 17.1225 15.3435Z" fill="url(#paint10_linear_201_2741)"/>
<path d="M18.6974 14.083L17.5432 13.7738C17.4319 13.7439 17.3174 13.81 17.2876 13.9213L16.975 15.0879C16.9451 15.1992 17.0112 15.3137 17.1226 15.3435L18.2767 15.6528L18.6974 14.083Z" fill="url(#paint11_linear_201_2741)"/>
<path d="M16.6306 13.5288L15.7796 13.3008L14.6016 14.6676L16.21 15.0986C16.3213 15.1285 16.4357 15.0624 16.4656 14.951L16.7782 13.7844C16.808 13.6731 16.7419 13.5586 16.6306 13.5288Z" fill="url(#paint12_linear_201_2741)"/>
<path d="M16.6306 13.5288L15.7796 13.3008L14.6016 14.6676L16.21 15.0986C16.3213 15.1285 16.4357 15.0624 16.4656 14.951L16.7782 13.7844C16.808 13.6731 16.7419 13.5586 16.6306 13.5288Z" fill="url(#paint13_linear_201_2741)"/>
<path d="M22.8049 17.3344L20.0698 16.6016L19.6475 18.1777L23.5579 19.2255L23.6167 18.4838C23.6587 17.9551 23.3173 17.4717 22.8049 17.3344Z" fill="url(#paint14_linear_201_2741)"/>
<path d="M15.2091 8.61946C13.2745 7.71305 10.899 8.05906 9.30099 9.65656C7.26157 11.696 7.26157 15.0019 9.30099 17.0409C9.31792 17.0578 9.33437 17.0743 9.3513 17.0912C10.0913 17.8218 11.0461 18.2787 12.0696 18.464C12.2656 18.4997 12.4537 18.5932 12.6051 18.7451L13.0207 19.1607C13.1269 19.2669 13.251 19.3445 13.3831 19.3939V22.854H4.1197C3.72902 22.854 3.41216 22.5372 3.41216 22.147V12.9545H3.41404C3.44271 11.1652 4.13945 9.38483 5.5047 8.02004C8.29398 5.2303 12.8161 5.2303 15.6059 8.02004C15.612 8.02569 15.6176 8.0318 15.6233 8.03791C15.9068 8.32615 15.5753 8.7911 15.2091 8.61946Z" fill="url(#paint15_linear_201_2741)"/>
<path d="M15.2091 8.61946C13.2745 7.71305 10.899 8.05906 9.30099 9.65656C7.26157 11.696 7.26157 15.0019 9.30099 17.0409C9.31792 17.0578 9.33437 17.0743 9.3513 17.0912C10.0913 17.8218 11.0461 18.2787 12.0696 18.464C12.2656 18.4997 12.4537 18.5932 12.6051 18.7451L13.0207 19.1607C13.1269 19.2669 13.251 19.3445 13.3831 19.3939V22.854H4.1197C3.72902 22.854 3.41216 22.5372 3.41216 22.147V12.9545H3.41404C3.44271 11.1652 4.13945 9.38483 5.5047 8.02004C8.29398 5.2303 12.8161 5.2303 15.6059 8.02004C15.612 8.02569 15.6176 8.0318 15.6233 8.03791C15.9068 8.32615 15.5753 8.7911 15.2091 8.61946Z" fill="url(#paint16_linear_201_2741)"/>
<path d="M4.77181 13.1891C4.77181 16.7416 7.65168 19.6215 11.2042 19.6215C11.9017 19.6215 12.5731 19.51 13.202 19.3047C13.1377 19.2646 13.0767 19.2168 13.0208 19.1609L12.605 18.7451C12.4533 18.5935 12.2657 18.4999 12.0696 18.4644C11.0463 18.2789 10.0916 17.8218 9.35139 17.0913C9.33451 17.0746 9.31768 17.0579 9.30099 17.0412C7.26185 15.0021 7.26185 11.6961 9.30099 9.65697C10.8989 8.05909 13.2747 7.71331 15.2093 8.61972C15.3788 8.69917 15.5409 8.64191 15.6379 8.52908C14.484 7.43091 12.9228 6.75684 11.2042 6.75684C7.65168 6.75679 4.77181 9.63666 4.77181 13.1891Z" fill="url(#paint17_linear_201_2741)"/>
<path d="M11.9834 18.6933C12.1634 18.6933 12.3414 18.6844 12.517 18.6678C12.3833 18.5616 12.2295 18.4935 12.0697 18.4645C11.0463 18.2791 10.0917 17.8219 9.35148 17.0915C9.3346 17.0748 9.31777 17.0581 9.30108 17.0414C7.26194 15.0022 7.26194 11.6963 9.30108 9.65711C10.899 8.05924 13.2748 7.71346 15.2094 8.61987C15.2613 8.64417 15.3124 8.65532 15.3612 8.65635C14.4231 7.94316 13.2528 7.51953 11.9834 7.51953C8.89785 7.51953 6.39653 10.0209 6.39653 13.1064C6.39653 16.192 8.89785 18.6933 11.9834 18.6933Z" fill="url(#paint18_linear_201_2741)"/>
<path d="M23.8727 18.6736C23.3109 18.1118 22.4002 18.1118 21.8389 18.6736L21.2494 19.2631C20.6876 19.8244 19.7769 19.8244 19.2156 19.2631L18.626 18.6736C18.0642 18.1118 17.1536 18.1118 16.5923 18.6736L16.0027 19.2631C15.4409 19.8244 14.5303 19.8244 13.9689 19.2631L13.3794 18.6736C13.1644 18.4585 12.8983 18.3259 12.6202 18.2755C11.1692 18.0126 9.81563 17.3644 8.76602 16.3286C8.74204 16.305 8.71825 16.2813 8.69456 16.2577C5.80326 13.3664 5.80326 8.67872 8.69456 5.78743C10.9603 3.52178 14.329 3.03153 17.072 4.31667C17.5909 4.55978 18.0608 3.90089 17.6594 3.49202C17.6509 3.48342 17.6425 3.47486 17.634 3.4664C13.6788 -0.488799 7.26626 -0.488799 3.31153 3.4664C1.37554 5.40192 0.387798 7.92651 0.346897 10.4633H0.345016V19.8181V20.2006V23.497C0.345016 24.051 0.794037 24.5 1.34794 24.5H23.3186C23.8725 24.5 24.3216 24.051 24.3216 23.497V19.7575C24.3217 19.351 24.1602 18.9611 23.8727 18.6736Z" fill="url(#paint19_linear_201_2741)"/>
<path d="M21.8389 18.6733L21.2493 19.2629C20.6875 19.8242 19.7769 19.8242 19.2155 19.2629L18.626 18.6733C18.0642 18.1115 17.1535 18.1115 16.5922 18.6733L16.0027 19.2629C15.4409 19.8242 14.5302 19.8242 13.9689 19.2629L13.3793 18.6733C12.8175 18.1115 11.9069 18.1115 11.3456 18.6733L10.7349 19.2835C10.1721 19.8228 9.27888 19.8167 8.7246 19.2624L8.13459 18.6733C7.57325 18.1115 6.66261 18.1115 6.10128 18.6733L5.51127 19.2624C4.94993 19.8242 4.03929 19.8242 3.47796 19.2624L2.88794 18.6733C2.32661 18.1115 1.41597 18.1115 0.854636 18.6733L0.794977 18.7328C0.506882 19.0204 0.345016 19.4107 0.345016 19.8177V23.4967C0.345016 24.0506 0.794037 24.4996 1.34794 24.4996H23.3186C23.8725 24.4996 24.3216 24.0506 24.3216 23.4967V19.7572C24.3216 19.3506 24.1601 18.9607 23.8726 18.6733C23.3108 18.1115 22.4002 18.1115 21.8389 18.6733Z" fill="url(#paint20_linear_201_2741)"/>
<path d="M21.8389 20.6938L21.2493 21.2834C20.6875 21.8447 19.7769 21.8447 19.2155 21.2834L18.626 20.6938C18.0642 20.132 17.1535 20.132 16.5922 20.6938L16.0027 21.2834C15.4409 21.8447 14.5302 21.8447 13.9689 21.2834L13.3793 20.6938C12.8175 20.132 11.9069 20.132 11.3456 20.6938L10.7349 21.304C10.1721 21.8433 9.27888 21.8372 8.7246 21.2829L8.13459 20.6938C7.57325 20.132 6.66261 20.132 6.10128 20.6938L5.51127 21.2829C4.94993 21.8447 4.03929 21.8447 3.47796 21.2829L2.88794 20.6938C2.32661 20.132 1.41597 20.132 0.854636 20.6938L0.794977 20.7533C0.506882 21.0409 0.345016 21.4312 0.345016 21.8383V23.4969C0.345016 24.0508 0.794037 24.4998 1.34794 24.4998H23.3186C23.8725 24.4998 24.3216 24.0508 24.3216 23.4969V21.7777C24.3216 21.3711 24.1601 20.9813 23.8726 20.6938C23.3108 20.132 22.4002 20.132 21.8389 20.6938Z" fill="url(#paint21_linear_201_2741)"/>
<path d="M21.8389 20.6938L21.2493 21.2834C20.6875 21.8447 19.7769 21.8447 19.2155 21.2834L18.626 20.6938C18.0642 20.132 17.1535 20.132 16.5922 20.6938L16.0027 21.2834C15.4409 21.8447 14.5302 21.8447 13.9689 21.2834L13.3793 20.6938C12.8175 20.132 11.9069 20.132 11.3456 20.6938L10.7349 21.304C10.1721 21.8433 9.27888 21.8372 8.7246 21.2829L8.13459 20.6938C7.57325 20.132 6.66261 20.132 6.10128 20.6938L5.51127 21.2829C4.94993 21.8447 4.03929 21.8447 3.47796 21.2829L2.88794 20.6938C2.32661 20.132 1.41597 20.132 0.854636 20.6938L0.794977 20.7533C0.506882 21.0409 0.345016 21.4312 0.345016 21.8383V23.4969C0.345016 24.0508 0.794037 24.4998 1.34794 24.4998H23.3186C23.8725 24.4998 24.3216 24.0508 24.3216 23.4969V21.7777C24.3216 21.3711 24.1601 20.9813 23.8726 20.6938C23.3108 20.132 22.4002 20.132 21.8389 20.6938Z" fill="url(#paint22_linear_201_2741)"/>
<path d="M24.3216 23.4967V19.7572C24.3216 19.3507 24.1601 18.9608 23.8726 18.6733C23.3108 18.1115 22.4002 18.1115 21.8389 18.6733L21.2493 19.2628C20.6875 19.8242 19.7769 19.8242 19.2155 19.2628L18.626 18.6733C18.0642 18.1115 17.1535 18.1115 16.5922 18.6733L16.0027 19.2628C15.4409 19.8242 14.5302 19.8242 13.9689 19.2628L13.3793 18.6733C13.3168 18.6108 13.2498 18.5556 13.1795 18.507V24.4997H23.3187C23.8726 24.4997 24.3216 24.0506 24.3216 23.4967Z" fill="url(#paint23_linear_201_2741)"/>
<path d="M2.27251 10.7953C2.27251 15.8324 6.35591 19.9158 11.393 19.9158C12.382 19.9158 13.334 19.7578 14.2258 19.4666C14.1346 19.4097 14.0481 19.3421 13.9689 19.2628L13.3793 18.6732C13.1643 18.4582 12.8982 18.3255 12.6201 18.2751C11.1691 18.0122 9.81554 17.364 8.76593 16.3283C8.74195 16.3046 8.71817 16.281 8.69447 16.2573C5.80318 13.366 5.80318 8.67832 8.69447 5.78702C10.9602 3.52138 14.3289 3.03113 17.0719 4.31627C17.3123 4.42892 17.542 4.34777 17.6796 4.18774C16.0435 2.63062 13.8299 1.6748 11.393 1.6748C6.35591 1.6748 2.27251 5.75816 2.27251 10.7953Z" fill="url(#paint24_linear_201_2741)"/>
<path d="M12.4979 18.6002C12.7532 18.6002 13.0055 18.5876 13.2546 18.564C13.065 18.4136 12.8468 18.3169 12.6202 18.2758C11.1692 18.0129 9.81562 17.3647 8.76601 16.329C8.74203 16.3053 8.71824 16.2817 8.69455 16.258C5.80325 13.3667 5.80325 8.67905 8.69455 5.78776C10.9602 3.52211 14.329 3.03186 17.072 4.31701C17.1455 4.35147 17.218 4.36726 17.2873 4.36877C15.9572 3.35752 14.2978 2.75684 12.4979 2.75684C8.12287 2.75684 4.57622 6.30349 4.57622 10.6785C4.57622 15.0535 8.12292 18.6002 12.4979 18.6002Z" fill="url(#paint25_linear_201_2741)"/>
<path d="M16.9875 6.15746C17.377 6.15746 17.6927 5.84173 17.6927 5.45226C17.6927 5.0628 17.377 4.74707 16.9875 4.74707C16.598 4.74707 16.2823 5.0628 16.2823 5.45226C16.2823 5.84173 16.598 6.15746 16.9875 6.15746Z" fill="url(#paint26_linear_201_2741)"/>
<path d="M17.5989 7.95887C17.8672 7.95887 18.0847 7.74138 18.0847 7.47309C18.0847 7.2048 17.8672 6.9873 17.5989 6.9873C17.3306 6.9873 17.1131 7.2048 17.1131 7.47309C17.1131 7.74138 17.3306 7.95887 17.5989 7.95887Z" fill="url(#paint27_linear_201_2741)"/>
<path d="M14.3079 5.51454C14.5762 5.51454 14.7937 5.29704 14.7937 5.02875C14.7937 4.76046 14.5762 4.54297 14.3079 4.54297C14.0396 4.54297 13.8221 4.76046 13.8221 5.02875C13.8221 5.29704 14.0396 5.51454 14.3079 5.51454Z" fill="url(#paint28_linear_201_2741)"/>
<path d="M23.5182 19.7274L23.6168 18.4842C23.6172 18.4795 23.617 18.475 23.6173 18.4703C23.0619 18.123 22.3215 18.1903 21.8389 18.6733L21.2494 19.2628C20.6876 19.8242 19.777 19.8242 19.2156 19.2628L18.6261 18.6733C18.0643 18.1115 17.1536 18.1115 16.5923 18.6733L16.0028 19.2628C15.441 19.8242 14.5303 19.8242 13.969 19.2628L13.3794 18.6733C13.0493 18.3431 12.5987 18.2073 12.1692 18.2652C12.9006 19.0803 13.8596 19.6783 14.942 19.9683L21.6198 21.7576C22.1322 21.8949 22.6695 21.647 22.8976 21.1681L23.4338 20.0422C23.481 19.9433 23.5096 19.8366 23.5182 19.7274Z" fill="url(#paint29_linear_201_2741)"/>
<path d="M21.8389 18.674L21.7664 18.7465L23.5579 19.2266L23.6167 18.4849C23.6171 18.4802 23.6169 18.4757 23.6172 18.471C23.0619 18.1237 22.3214 18.1911 21.8389 18.674Z" fill="url(#paint30_linear_201_2741)"/>
<path d="M4.35937 5.33368C4.41785 5.37073 4.48306 5.38836 4.54751 5.38836C4.66439 5.38836 4.77872 5.3303 4.84581 5.22424L5.5999 4.03237C5.70403 3.86782 5.65499 3.65001 5.49045 3.54588C5.3259 3.44174 5.10805 3.49083 5.00396 3.65532L4.24987 4.8472C4.14579 5.01174 4.19482 5.22955 4.35937 5.33368Z" fill="url(#paint31_linear_201_2741)"/>
<path d="M2.47437 8.31321C2.5329 8.35026 2.59806 8.36788 2.66251 8.36788C2.77939 8.36788 2.89372 8.30982 2.96081 8.20376L3.71485 7.01189C3.81898 6.84735 3.76995 6.62954 3.6054 6.5254C3.44086 6.42122 3.22305 6.4703 3.11891 6.63485L2.36487 7.82672C2.26079 7.99131 2.30977 8.20912 2.47437 8.31321Z" fill="url(#paint32_linear_201_2741)"/>
<path d="M1.16895 10.3772C1.22748 10.4142 1.29264 10.4319 1.35709 10.4319C1.47397 10.4319 1.5883 10.3738 1.65539 10.2677L1.82962 9.99234C1.93375 9.82779 1.88472 9.60998 1.72017 9.50585C1.55563 9.40172 1.33782 9.45075 1.23368 9.6153L1.05945 9.8907C0.955367 10.0552 1.00435 10.2731 1.16895 10.3772Z" fill="url(#paint33_linear_201_2741)"/>
<path d="M6.24453 2.35425C6.30306 2.3913 6.36822 2.40893 6.43267 2.40893C6.54955 2.40893 6.66388 2.35087 6.73097 2.2448L7.48506 1.05289C7.58919 0.888341 7.54016 0.67053 7.37561 0.566397C7.21102 0.462263 6.99321 0.511298 6.88912 0.675843L6.13503 1.86776C6.03095 2.03235 6.07998 2.25016 6.24453 2.35425Z" fill="url(#paint34_linear_201_2741)"/>
<path d="M18.4221 16.3281C18.3637 16.2911 18.2984 16.2734 18.234 16.2734C18.1171 16.2734 18.0028 16.3315 17.9357 16.4376L17.1816 17.6294C17.0775 17.794 17.1265 18.0118 17.2911 18.1159C17.4556 18.2201 17.6735 18.171 17.7775 18.0065L18.5316 16.8146C18.6357 16.65 18.5867 16.4322 18.4221 16.3281Z" fill="url(#paint35_linear_201_2741)"/>
<path d="M19.6627 15.027L20.4167 13.8351C20.5208 13.6706 20.4718 13.4528 20.3073 13.3486C20.2487 13.3116 20.1836 13.2939 20.1191 13.2939C20.0022 13.2939 19.8879 13.352 19.8208 13.4581L19.0668 14.6499C18.9626 14.8145 19.0117 15.0323 19.1762 15.1364C19.3408 15.2406 19.5586 15.1915 19.6627 15.027Z" fill="url(#paint36_linear_201_2741)"/>
<path d="M21.5478 12.047L21.722 11.7716C21.8262 11.6071 21.7771 11.3893 21.6126 11.2851C21.5541 11.2481 21.4889 11.2305 21.4244 11.2305C21.3076 11.2305 21.1932 11.2885 21.1261 11.3946L20.9519 11.67C20.8478 11.8345 20.8968 12.0523 21.0614 12.1565C21.2259 12.2607 21.4437 12.2116 21.5478 12.047Z" fill="url(#paint37_linear_201_2741)"/>
<path d="M16.537 19.3076C16.4785 19.2706 16.4133 19.2529 16.3489 19.2529C16.232 19.2529 16.1177 19.311 16.0506 19.4171L15.2965 20.609C15.1924 20.7735 15.2414 20.9913 15.406 21.0955C15.5706 21.1996 15.7884 21.1506 15.8925 20.986L16.6466 19.7941C16.7506 19.6295 16.7016 19.4117 16.537 19.3076Z" fill="url(#paint38_linear_201_2741)"/>
<path d="M23.3618 8.58886C23.3033 8.55181 23.2381 8.53418 23.1737 8.53418C23.0568 8.53418 22.9425 8.59224 22.8754 8.6983L22.1213 9.89022C22.0172 10.0548 22.0662 10.2726 22.2308 10.3767C22.3953 10.4808 22.6132 10.4318 22.7172 10.2673L23.4713 9.07535C23.5754 8.91075 23.5264 8.69299 23.3618 8.58886Z" fill="url(#paint39_linear_201_2741)"/>
<path d="M10.3769 5.33368C10.4354 5.37073 10.5006 5.38836 10.5651 5.38836C10.682 5.38836 10.7963 5.3303 10.8634 5.22424L11.6175 4.03237C11.7216 3.86782 11.6726 3.65001 11.508 3.54588C11.3435 3.44174 11.1256 3.49083 11.0215 3.65532L10.2675 4.8472C10.1634 5.01174 10.2124 5.22955 10.3769 5.33368Z" fill="url(#paint40_linear_201_2741)"/>
<path d="M9.13652 6.63487L8.38248 7.82674C8.27834 7.99129 8.32738 8.2091 8.49192 8.31323C8.55045 8.35028 8.61561 8.36791 8.68007 8.36791C8.79694 8.36791 8.91128 8.30984 8.97836 8.20378L9.7324 7.01191C9.83654 6.84737 9.7875 6.62956 9.62296 6.52542C9.45841 6.4212 9.2406 6.47032 9.13652 6.63487Z" fill="url(#paint41_linear_201_2741)"/>
<path d="M7.25128 9.6153L7.07706 9.8907C6.97292 10.0552 7.02196 10.2731 7.1865 10.3772C7.24503 10.4142 7.31019 10.4319 7.37465 10.4319C7.49152 10.4319 7.60586 10.3738 7.67294 10.2677L7.84717 9.99234C7.95131 9.82779 7.90227 9.60998 7.73773 9.50585C7.57318 9.40172 7.35537 9.45075 7.25128 9.6153Z" fill="url(#paint42_linear_201_2741)"/>
<path d="M12.2622 2.35425C12.3207 2.3913 12.3859 2.40893 12.4503 2.40893C12.5672 2.40893 12.6815 2.35087 12.7486 2.2448L13.5027 1.05289C13.6068 0.888341 13.5578 0.67053 13.3933 0.566397C13.2287 0.462263 13.0109 0.511298 12.9068 0.675843L12.1527 1.86776C12.0486 2.03235 12.0976 2.25016 12.2622 2.35425Z" fill="url(#paint43_linear_201_2741)"/>
<path d="M4.68335 14.2646C4.51881 14.1605 4.30095 14.2096 4.19687 14.3741L3.44278 15.5659C3.33864 15.7305 3.38768 15.9483 3.55222 16.0524C3.61071 16.0895 3.67591 16.1071 3.74037 16.1071C3.85724 16.1071 3.97158 16.0491 4.03867 15.943L4.79275 14.7511C4.89693 14.5865 4.8479 14.3687 4.68335 14.2646Z" fill="url(#paint44_linear_201_2741)"/>
<path d="M2.79805 17.2451C2.63351 17.1409 2.4157 17.19 2.31156 17.3546L1.55752 18.5464C1.45339 18.711 1.50242 18.9288 1.66697 19.0329C1.7255 19.07 1.79066 19.0876 1.85512 19.0876C1.97199 19.0876 2.08633 19.0296 2.15341 18.9235L2.90745 17.7316C3.01163 17.567 2.96265 17.3492 2.79805 17.2451Z" fill="url(#paint45_linear_201_2741)"/>
<path d="M6.08196 11.3946L5.32787 12.5865C5.22374 12.7511 5.27277 12.9689 5.43732 13.073C5.49585 13.11 5.56101 13.1277 5.62546 13.1277C5.74234 13.1277 5.85667 13.0696 5.92376 12.9636L6.67785 11.7716C6.78198 11.6071 6.73295 11.3893 6.5684 11.2851C6.40386 11.181 6.18605 11.23 6.08196 11.3946Z" fill="url(#paint46_linear_201_2741)"/>
<path d="M12.4045 16.3281C12.346 16.2911 12.2808 16.2734 12.2163 16.2734C12.0995 16.2734 11.9851 16.3315 11.918 16.4376L11.164 17.6294C11.0598 17.794 11.1089 18.0118 11.2734 18.1159C11.438 18.2201 11.6558 18.171 11.7599 18.0065L12.514 16.8146C12.6181 16.65 12.569 16.4322 12.4045 16.3281Z" fill="url(#paint47_linear_201_2741)"/>
<path d="M13.645 15.027L14.3991 13.8351C14.5032 13.6706 14.4542 13.4528 14.2896 13.3486C14.2311 13.3116 14.1659 13.2939 14.1015 13.2939C13.9846 13.2939 13.8703 13.352 13.8032 13.4581L13.0491 14.6499C12.945 14.8145 12.994 15.0323 13.1586 15.1364C13.3231 15.2406 13.5409 15.1915 13.645 15.027Z" fill="url(#paint48_linear_201_2741)"/>
<path d="M15.5301 12.047L15.7044 11.7716C15.8085 11.6071 15.7595 11.3893 15.5949 11.2851C15.5364 11.2481 15.4712 11.2305 15.4068 11.2305C15.2899 11.2305 15.1756 11.2885 15.1085 11.3946L14.9343 11.67C14.8301 11.8345 14.8792 12.0523 15.0437 12.1565C15.2082 12.2607 15.4261 12.2116 15.5301 12.047Z" fill="url(#paint49_linear_201_2741)"/>
<path d="M10.5192 19.3076C10.4607 19.2706 10.3956 19.2529 10.3311 19.2529C10.2142 19.2529 10.0999 19.311 10.0328 19.4171L9.27872 20.609C9.17458 20.7735 9.22362 20.9913 9.38816 21.0955C9.55275 21.1996 9.77056 21.1506 9.87465 20.986L10.6287 19.7941C10.7328 19.6295 10.6838 19.4117 10.5192 19.3076Z" fill="url(#paint50_linear_201_2741)"/>
<path d="M18.0982 7.39717C18.2628 7.5013 18.4806 7.45222 18.5847 7.28772L19.3388 6.09585C19.4429 5.93131 19.3939 5.7135 19.2294 5.60936C19.1709 5.57232 19.1057 5.55469 19.0412 5.55469C18.9243 5.55469 18.81 5.61275 18.7429 5.71881L17.9888 6.91068C17.8846 7.07527 17.9337 7.29304 18.0982 7.39717Z" fill="url(#paint51_linear_201_2741)"/>
<path d="M19.9834 4.41768C20.1479 4.52186 20.3657 4.47278 20.4699 4.30823L21.2239 3.11636C21.3281 2.95182 21.279 2.73401 21.1145 2.62987C21.0559 2.59283 20.9908 2.5752 20.9263 2.5752C20.8095 2.5752 20.6951 2.63326 20.628 2.73932L19.874 3.93119C19.7698 4.09578 19.8188 4.31359 19.9834 4.41768Z" fill="url(#paint52_linear_201_2741)"/>
<path d="M21.8685 1.43773C22.0331 1.54187 22.2509 1.49283 22.355 1.32829L22.5292 1.05288C22.6334 0.888339 22.5843 0.670528 22.4198 0.566395C22.3613 0.529349 22.2961 0.511719 22.2316 0.511719C22.1148 0.511719 22.0004 0.56978 21.9333 0.675841L21.7591 0.951243C21.6549 1.11579 21.7039 1.3336 21.8685 1.43773Z" fill="url(#paint53_linear_201_2741)"/>
<path d="M17.3442 8.58886C17.2856 8.55181 17.2205 8.53418 17.156 8.53418C17.0392 8.53418 16.9248 8.59224 16.8577 8.6983L16.1037 9.89022C15.9995 10.0548 16.0486 10.2726 16.2131 10.3767C16.3777 10.4808 16.5955 10.4318 16.6996 10.2673L17.4537 9.07535C17.5578 8.91075 17.5087 8.69299 17.3442 8.58886Z" fill="url(#paint54_linear_201_2741)"/>
<path d="M16.3948 5.33368C16.4532 5.37073 16.5185 5.38836 16.5829 5.38836C16.6998 5.38836 16.8141 5.3303 16.8812 5.22424L17.6353 4.03237C17.7394 3.86782 17.6904 3.65001 17.5258 3.54588C17.3613 3.44174 17.1434 3.49083 17.0394 3.65532L16.2853 4.8472C16.1812 5.01174 16.2302 5.22955 16.3948 5.33368Z" fill="url(#paint55_linear_201_2741)"/>
<path d="M15.1541 6.63487L14.4001 7.82674C14.2959 7.99129 14.345 8.2091 14.5095 8.31323C14.568 8.35028 14.6332 8.36791 14.6976 8.36791C14.8145 8.36791 14.9289 8.30984 14.9959 8.20378L15.75 7.01191C15.8541 6.84737 15.8051 6.62956 15.6405 6.52542C15.476 6.4212 15.2582 6.47032 15.1541 6.63487Z" fill="url(#paint56_linear_201_2741)"/>
<path d="M13.2691 9.6153L13.0949 9.8907C12.9907 10.0552 13.0398 10.2731 13.2043 10.3772C13.2629 10.4142 13.328 10.4319 13.3925 10.4319C13.5093 10.4319 13.6237 10.3738 13.6908 10.2677L13.865 9.99234C13.9691 9.82779 13.9201 9.60998 13.7555 9.50585C13.591 9.40172 13.3732 9.45075 13.2691 9.6153Z" fill="url(#paint57_linear_201_2741)"/>
<path d="M18.2798 2.35425C18.3384 2.3913 18.4035 2.40893 18.468 2.40893C18.5848 2.40893 18.6992 2.35087 18.7663 2.2448L19.5204 1.05289C19.6245 0.888341 19.5755 0.67053 19.4109 0.566397C19.2463 0.462263 19.0285 0.511298 18.9244 0.675843L18.1703 1.86776C18.0662 2.03235 18.1153 2.25016 18.2798 2.35425Z" fill="url(#paint58_linear_201_2741)"/>
<path d="M10.7009 14.2646C10.5364 14.1605 10.3185 14.2096 10.2144 14.3741L9.46036 15.5659C9.35622 15.7305 9.40526 15.9483 9.5698 16.0524C9.62829 16.0895 9.69349 16.1071 9.75795 16.1071C9.87482 16.1071 9.98916 16.0491 10.0562 15.943L10.8103 14.7511C10.9145 14.5865 10.8655 14.3687 10.7009 14.2646Z" fill="url(#paint59_linear_201_2741)"/>
<path d="M8.81588 17.2451C8.65133 17.1409 8.43352 17.19 8.32939 17.3546L7.57535 18.5464C7.47121 18.711 7.52025 18.9288 7.68479 19.0329C7.74332 19.07 7.80848 19.0876 7.87294 19.0876C7.98981 19.0876 8.10415 19.0296 8.17124 18.9235L8.92528 17.7316C9.02946 17.567 8.98047 17.3492 8.81588 17.2451Z" fill="url(#paint60_linear_201_2741)"/>
<path d="M6.93068 20.2246C6.76614 20.1205 6.54833 20.1695 6.44419 20.334L6.26996 20.6094C6.16583 20.774 6.21487 20.9918 6.37941 21.0959C6.43794 21.133 6.5031 21.1506 6.56756 21.1506C6.68443 21.1506 6.79877 21.0926 6.86585 20.9865L7.04008 20.7111C7.14426 20.5465 7.09528 20.3287 6.93068 20.2246Z" fill="url(#paint61_linear_201_2741)"/>
<path d="M11.455 13.073C11.5135 13.11 11.5787 13.1277 11.6432 13.1277C11.76 13.1277 11.8744 13.0696 11.9415 12.9636L12.6955 11.7716C12.7997 11.6071 12.7506 11.3893 12.5861 11.2851C12.4215 11.181 12.2037 11.23 12.0996 11.3946L11.3455 12.5865C11.2414 12.7511 11.2904 12.9689 11.455 13.073Z" fill="url(#paint62_linear_201_2741)"/>
<path d="M6.38684 16.3281C6.32835 16.2911 6.26315 16.2734 6.19869 16.2734C6.08182 16.2734 5.96748 16.3315 5.90039 16.4376L5.14631 17.6294C5.04217 17.794 5.09121 18.0118 5.25575 18.1159C5.4203 18.2201 5.63816 18.171 5.74224 18.0065L6.49633 16.8146C6.60042 16.65 6.55138 16.4322 6.38684 16.3281Z" fill="url(#paint63_linear_201_2741)"/>
<path d="M7.62737 15.027L8.38141 13.8351C8.48554 13.6706 8.43651 13.4528 8.27196 13.3486C8.21343 13.3116 8.14827 13.2939 8.08381 13.2939C7.96694 13.2939 7.8526 13.352 7.78552 13.4581L7.03148 14.6499C6.92734 14.8145 6.97638 15.0323 7.14092 15.1364C7.30547 15.2406 7.52328 15.1915 7.62737 15.027Z" fill="url(#paint64_linear_201_2741)"/>
<path d="M9.51249 12.047L9.68672 11.7716C9.79085 11.6071 9.74182 11.3893 9.57727 11.2851C9.51874 11.2481 9.45358 11.2305 9.38913 11.2305C9.27225 11.2305 9.15792 11.2885 9.09083 11.3946L8.9166 11.67C8.81247 11.8345 8.8615 12.0523 9.02605 12.1565C9.19059 12.2607 9.4084 12.2116 9.51249 12.047Z" fill="url(#paint65_linear_201_2741)"/>
<path d="M4.50167 19.3076C4.44314 19.2706 4.37798 19.2529 4.31352 19.2529C4.19665 19.2529 4.08231 19.311 4.01522 19.4171L3.26114 20.609C3.157 20.7735 3.20604 20.9913 3.37058 21.0955C3.53518 21.1996 3.75299 21.1506 3.85707 20.986L4.61116 19.7941C4.71525 19.6295 4.66621 19.4117 4.50167 19.3076Z" fill="url(#paint66_linear_201_2741)"/>
<path d="M12.0806 7.39717C12.2451 7.5013 12.463 7.45222 12.5671 7.28772L13.3211 6.09585C13.4253 5.93131 13.3762 5.7135 13.2117 5.60936C13.1532 5.57232 13.088 5.55469 13.0236 5.55469C12.9067 5.55469 12.7923 5.61275 12.7253 5.71881L11.9712 6.91068C11.867 7.07527 11.916 7.29304 12.0806 7.39717Z" fill="url(#paint67_linear_201_2741)"/>
<path d="M13.9657 4.41768C14.1303 4.52186 14.3481 4.47278 14.4522 4.30823L15.2063 3.11636C15.3104 2.95182 15.2614 2.73401 15.0968 2.62987C15.0383 2.59283 14.9731 2.5752 14.9087 2.5752C14.7918 2.5752 14.6775 2.63326 14.6104 2.73932L13.8563 3.93119C13.7522 4.09578 13.8012 4.31359 13.9657 4.41768Z" fill="url(#paint68_linear_201_2741)"/>
<path d="M15.8509 1.43773C16.0154 1.54187 16.2332 1.49283 16.3373 1.32829L16.5116 1.05288C16.6157 0.888339 16.5667 0.670528 16.4021 0.566395C16.3436 0.529349 16.2784 0.511719 16.214 0.511719C16.0971 0.511719 15.9828 0.56978 15.9157 0.675841L15.7415 0.951243C15.6373 1.11579 15.6863 1.3336 15.8509 1.43773Z" fill="url(#paint69_linear_201_2741)"/>
<path d="M11.3265 8.58886C11.268 8.55181 11.2028 8.53418 11.1384 8.53418C11.0215 8.53418 10.9072 8.59224 10.8401 8.6983L10.086 9.89022C9.98186 10.0548 10.0309 10.2726 10.1954 10.3767C10.36 10.4808 10.5778 10.4318 10.6819 10.2673L11.436 9.07535C11.5401 8.91075 11.4911 8.69299 11.3265 8.58886Z" fill="url(#paint70_linear_201_2741)"/>
<path d="M23.5435 3.54588C23.3789 3.44174 23.1611 3.49083 23.057 3.65532L22.3029 4.8472C22.1988 5.01174 22.2478 5.22955 22.4123 5.33368C22.4708 5.37073 22.536 5.38836 22.6005 5.38836C22.7174 5.38836 22.8317 5.3303 22.8988 5.22424L23.6529 4.03237C23.757 3.86777 23.7081 3.64996 23.5435 3.54588Z" fill="url(#paint71_linear_201_2741)"/>
<path d="M21.1719 6.63487L20.4179 7.82674C20.3137 7.99129 20.3628 8.2091 20.5273 8.31323C20.5859 8.35028 20.651 8.36791 20.7155 8.36791C20.8323 8.36791 20.9467 8.30984 21.0138 8.20378L21.7678 7.01191C21.8719 6.84737 21.8229 6.62956 21.6584 6.52542C21.4938 6.4212 21.276 6.47032 21.1719 6.63487Z" fill="url(#paint72_linear_201_2741)"/>
<path d="M19.2867 9.6153L19.1125 9.8907C19.0083 10.0552 19.0574 10.2731 19.2219 10.3772C19.2804 10.4142 19.3456 10.4319 19.41 10.4319C19.5269 10.4319 19.6413 10.3738 19.7083 10.2677L19.8826 9.99234C19.9867 9.82779 19.9377 9.60998 19.7731 9.50585C19.6086 9.40172 19.3908 9.45075 19.2867 9.6153Z" fill="url(#paint73_linear_201_2741)"/>
<path d="M16.7185 14.2646C16.554 14.1605 16.3361 14.2096 16.232 14.3741L15.4779 15.5659C15.3738 15.7305 15.4228 15.9483 15.5874 16.0524C15.6459 16.0895 15.7111 16.1071 15.7755 16.1071C15.8924 16.1071 16.0067 16.0491 16.0738 15.943L16.8279 14.7511C16.9321 14.5865 16.8831 14.3687 16.7185 14.2646Z" fill="url(#paint74_linear_201_2741)"/>
<path d="M14.8335 17.2451C14.6689 17.1409 14.4511 17.19 14.347 17.3546L13.5929 18.5464C13.4888 18.711 13.5378 18.9288 13.7024 19.0329C13.7609 19.07 13.8261 19.0876 13.8905 19.0876C14.0074 19.0876 14.1217 19.0296 14.1888 18.9235L14.9429 17.7316C15.047 17.567 14.998 17.3492 14.8335 17.2451Z" fill="url(#paint75_linear_201_2741)"/>
<path d="M12.9483 20.2246C12.7838 20.1205 12.566 20.1695 12.4618 20.334L12.2876 20.6094C12.1835 20.774 12.2325 20.9918 12.3971 21.0959C12.4556 21.133 12.5207 21.1506 12.5852 21.1506C12.7021 21.1506 12.8164 21.0926 12.8835 20.9865L13.0577 20.7111C13.1619 20.5465 13.1129 20.3287 12.9483 20.2246Z" fill="url(#paint76_linear_201_2741)"/>
<path d="M17.4727 13.073C17.5312 13.11 17.5964 13.1277 17.6608 13.1277C17.7777 13.1277 17.892 13.0696 17.9591 12.9636L18.7132 11.7716C18.8173 11.6071 18.7683 11.3893 18.6037 11.2851C18.4392 11.181 18.2213 11.23 18.1173 11.3946L17.3632 12.5865C17.2591 12.7511 17.3081 12.9689 17.4727 13.073Z" fill="url(#paint77_linear_201_2741)"/>
<path d="M1.60971 15.027L2.36375 13.8351C2.46789 13.6706 2.41885 13.4528 2.25431 13.3486C2.19577 13.3116 2.13061 13.2939 2.06616 13.2939C1.94929 13.2939 1.83495 13.352 1.76786 13.4581L1.01382 14.6499C0.909689 14.8145 0.958724 15.0323 1.12327 15.1364C1.28781 15.2406 1.50562 15.1915 1.60971 15.027Z" fill="url(#paint78_linear_201_2741)"/>
<path d="M3.49484 12.047L3.66907 11.7716C3.7732 11.6071 3.72416 11.3893 3.55962 11.2851C3.50109 11.2481 3.43593 11.2305 3.37147 11.2305C3.2546 11.2305 3.14026 11.2885 3.07318 11.3946L2.89895 11.67C2.79481 11.8345 2.84385 12.0523 3.00839 12.1565C3.17294 12.2607 3.39075 12.2116 3.49484 12.047Z" fill="url(#paint79_linear_201_2741)"/>
<path d="M6.06292 7.39717C6.22746 7.5013 6.44532 7.45222 6.54941 7.28772L7.30349 6.09585C7.40763 5.93131 7.35859 5.7135 7.19405 5.60936C7.13556 5.57232 7.07035 5.55469 7.0059 5.55469C6.88903 5.55469 6.77469 5.61275 6.7076 5.71881L5.95352 6.91068C5.84934 7.07527 5.89837 7.29304 6.06292 7.39717Z" fill="url(#paint80_linear_201_2741)"/>
<path d="M7.94809 4.41768C8.11263 4.52186 8.33045 4.47278 8.43458 4.30823L9.18862 3.11636C9.29275 2.95182 9.24372 2.73401 9.07917 2.62987C9.02064 2.59283 8.95548 2.5752 8.89103 2.5752C8.77415 2.5752 8.65982 2.63326 8.59273 2.73932L7.83869 3.93119C7.73451 4.09578 7.7835 4.31359 7.94809 4.41768Z" fill="url(#paint81_linear_201_2741)"/>
<path d="M9.83321 1.43773C9.99776 1.54187 10.2156 1.49283 10.3197 1.32829L10.4939 1.05288C10.5981 0.888339 10.549 0.670528 10.3845 0.566395C10.326 0.529349 10.2608 0.511719 10.1963 0.511719C10.0795 0.511719 9.96513 0.56978 9.89804 0.675841L9.72381 0.951243C9.61963 1.11579 9.66862 1.3336 9.83321 1.43773Z" fill="url(#paint82_linear_201_2741)"/>
<path d="M4.1778 10.3767C4.34239 10.4808 4.5602 10.4318 4.66428 10.2673L5.41837 9.07535C5.52251 8.9108 5.47347 8.69299 5.30893 8.58886C5.25039 8.55181 5.18523 8.53418 5.12078 8.53418C5.00391 8.53418 4.88957 8.59224 4.82248 8.6983L4.0684 9.89022C3.96422 10.0548 4.0132 10.2726 4.1778 10.3767Z" fill="url(#paint83_linear_201_2741)"/>
<path d="M22.7363 14.2646C22.5718 14.1605 22.3539 14.2096 22.2498 14.3741L21.4958 15.5659C21.3916 15.7305 21.4407 15.9483 21.6052 16.0524C21.6637 16.0895 21.7289 16.1071 21.7933 16.1071C21.9102 16.1071 22.0246 16.0491 22.0916 15.943L22.8457 14.7511C22.9499 14.5865 22.9009 14.3687 22.7363 14.2646Z" fill="url(#paint84_linear_201_2741)"/>
<path d="M20.851 17.2451C20.6865 17.1409 20.4687 17.19 20.3645 17.3546L19.6105 18.5464C19.5064 18.711 19.5554 18.9288 19.7199 19.0329C19.7785 19.07 19.8436 19.0876 19.9081 19.0876C20.025 19.0876 20.1393 19.0296 20.2064 18.9235L20.9604 17.7316C21.0646 17.567 21.0156 17.3492 20.851 17.2451Z" fill="url(#paint85_linear_201_2741)"/>
<path d="M18.966 20.2246C18.8014 20.1205 18.5836 20.1695 18.4795 20.334L18.3053 20.6094C18.2011 20.774 18.2502 20.9918 18.4147 21.0959C18.4732 21.133 18.5384 21.1506 18.6029 21.1506C18.7197 21.1506 18.8341 21.0926 18.9012 20.9865L19.0754 20.7111C19.1796 20.5465 19.1306 20.3287 18.966 20.2246Z" fill="url(#paint86_linear_201_2741)"/>
</g>
<defs>
<linearGradient id="paint0_linear_201_2741" x1="17.3256" y1="13.7414" x2="18.4262" y2="17.1755" gradientUnits="userSpaceOnUse">
<stop stop-color="#EAF9FA"/>
<stop offset="1" stop-color="#B3DAFE"/>
</linearGradient>
<linearGradient id="paint1_linear_201_2741" x1="20.0277" y1="15.2859" x2="21.2461" y2="15.6125" gradientUnits="userSpaceOnUse">
<stop stop-color="#B3DAFE" stop-opacity="0"/>
<stop offset="0.2769" stop-color="#AFD7FC" stop-opacity="0.277"/>
<stop offset="0.5367" stop-color="#A4CEF6" stop-opacity="0.537"/>
<stop offset="0.7888" stop-color="#91BEEB" stop-opacity="0.789"/>
<stop offset="1" stop-color="#7BACDF"/>
</linearGradient>
<linearGradient id="paint2_linear_201_2741" x1="18.2853" y1="13.9491" x2="18.4518" y2="13.3279" gradientUnits="userSpaceOnUse">
<stop stop-color="#B3DAFE" stop-opacity="0"/>
<stop offset="0.2769" stop-color="#AFD7FC" stop-opacity="0.277"/>
<stop offset="0.5367" stop-color="#A4CEF6" stop-opacity="0.537"/>
<stop offset="0.7888" stop-color="#91BEEB" stop-opacity="0.789"/>
<stop offset="1" stop-color="#7BACDF"/>
</linearGradient>
<linearGradient id="paint3_linear_201_2741" x1="16.9764" y1="17.8833" x2="16.9502" y2="20.2116" gradientUnits="userSpaceOnUse">
<stop stop-color="#EAF9FA"/>
<stop offset="1" stop-color="#B3DAFE"/>
</linearGradient>
<linearGradient id="paint4_linear_201_2741" x1="17.2346" y1="19.0795" x2="16.882" y2="20.3018" gradientUnits="userSpaceOnUse">
<stop stop-color="#B3DAFE" stop-opacity="0"/>
<stop offset="0.2769" stop-color="#AFD7FC" stop-opacity="0.277"/>
<stop offset="0.5367" stop-color="#A4CEF6" stop-opacity="0.537"/>
<stop offset="0.7888" stop-color="#91BEEB" stop-opacity="0.789"/>
<stop offset="1" stop-color="#7BACDF"/>
</linearGradient>
<linearGradient id="paint5_linear_201_2741" x1="16.5739" y1="18.5179" x2="16.8873" y2="17.4209" gradientUnits="userSpaceOnUse">
<stop stop-color="#B3DAFE" stop-opacity="0"/>
<stop offset="0.2769" stop-color="#AFD7FC" stop-opacity="0.277"/>
<stop offset="0.5367" stop-color="#A4CEF6" stop-opacity="0.537"/>
<stop offset="0.7888" stop-color="#91BEEB" stop-opacity="0.789"/>
<stop offset="1" stop-color="#7BACDF"/>
</linearGradient>
<linearGradient id="paint6_linear_201_2741" x1="21.8373" y1="19.7228" x2="23.1585" y2="20.4642" gradientUnits="userSpaceOnUse">
<stop stop-color="#B3DAFE" stop-opacity="0"/>
<stop offset="0.2769" stop-color="#AFD7FC" stop-opacity="0.277"/>
<stop offset="0.5367" stop-color="#A4CEF6" stop-opacity="0.537"/>
<stop offset="0.7888" stop-color="#91BEEB" stop-opacity="0.789"/>
<stop offset="1" stop-color="#7BACDF"/>
</linearGradient>
<linearGradient id="paint7_linear_201_2741" x1="17.043" y1="16.0547" x2="16.8885" y2="17.7722" gradientUnits="userSpaceOnUse">
<stop stop-color="#FD8087"/>
<stop offset="1" stop-color="#E74335"/>
</linearGradient>
<linearGradient id="paint8_linear_201_2741" x1="19.1654" y1="12.2235" x2="18.7363" y2="13.8236" gradientUnits="userSpaceOnUse">
<stop stop-color="#FD8087"/>
<stop offset="1" stop-color="#E74335"/>
</linearGradient>
<linearGradient id="paint9_linear_201_2741" x1="18.0124" y1="13.8102" x2="18.4507" y2="15.7232" gradientUnits="userSpaceOnUse">
<stop stop-color="#5A5A5A"/>
<stop offset="1" stop-color="#444444"/>
</linearGradient>
<linearGradient id="paint10_linear_201_2741" x1="18.3004" y1="14.5833" x2="18.5444" y2="13.6735" gradientUnits="userSpaceOnUse">
<stop stop-color="#433F43" stop-opacity="0"/>
<stop offset="0.3174" stop-color="#3B373B" stop-opacity="0.317"/>
<stop offset="0.8224" stop-color="#242324" stop-opacity="0.822"/>
<stop offset="1" stop-color="#1A1A1A"/>
</linearGradient>
<linearGradient id="paint11_linear_201_2741" x1="17.6096" y1="14.6372" x2="16.8219" y2="14.426" gradientUnits="userSpaceOnUse">
<stop stop-color="#433F43" stop-opacity="0"/>
<stop offset="0.3174" stop-color="#3B373B" stop-opacity="0.317"/>
<stop offset="0.8224" stop-color="#242324" stop-opacity="0.822"/>
<stop offset="1" stop-color="#1A1A1A"/>
</linearGradient>
<linearGradient id="paint12_linear_201_2741" x1="15.4598" y1="13.3603" x2="15.8854" y2="14.8775" gradientUnits="userSpaceOnUse">
<stop stop-color="#5A5A5A"/>
<stop offset="1" stop-color="#444444"/>
</linearGradient>
<linearGradient id="paint13_linear_201_2741" x1="15.7753" y1="13.9059" x2="15.9924" y2="13.0961" gradientUnits="userSpaceOnUse">
<stop stop-color="#433F43" stop-opacity="0"/>
<stop offset="0.3174" stop-color="#3B373B" stop-opacity="0.317"/>
<stop offset="0.8224" stop-color="#242324" stop-opacity="0.822"/>
<stop offset="1" stop-color="#1A1A1A"/>
</linearGradient>
<linearGradient id="paint14_linear_201_2741" x1="22.0321" y1="17.9419" x2="24.1517" y2="18.1661" gradientUnits="userSpaceOnUse">
<stop stop-color="#E41F2D" stop-opacity="0"/>
<stop offset="0.3461" stop-color="#DE1E2B" stop-opacity="0.346"/>
<stop offset="0.8036" stop-color="#CE1B28" stop-opacity="0.804"/>
<stop offset="1" stop-color="#C41926"/>
</linearGradient>
<linearGradient id="paint15_linear_201_2741" x1="5.06461" y1="14.3909" x2="15.9015" y2="14.3909" gradientUnits="userSpaceOnUse">
<stop stop-color="#D5DAF3"/>
<stop offset="1" stop-color="#60B7FF"/>
</linearGradient>
<linearGradient id="paint16_linear_201_2741" x1="6.75675" y1="11.7898" x2="4.04255" y2="8.42219" gradientUnits="userSpaceOnUse">
<stop stop-color="#1F3596" stop-opacity="0"/>
<stop offset="0.4068" stop-color="#1D3290" stop-opacity="0.407"/>
<stop offset="0.9508" stop-color="#192B7F" stop-opacity="0.951"/>
<stop offset="1" stop-color="#192A7D"/>
</linearGradient>
<linearGradient id="paint17_linear_201_2741" x1="10.0689" y1="12.4759" x2="11.3006" y2="-3.33044" gradientUnits="userSpaceOnUse">
<stop stop-color="#1F3596" stop-opacity="0"/>
<stop offset="0.4068" stop-color="#1D3290" stop-opacity="0.407"/>
<stop offset="0.9508" stop-color="#192B7F" stop-opacity="0.951"/>
<stop offset="1" stop-color="#192A7D"/>
</linearGradient>
<linearGradient id="paint18_linear_201_2741" x1="10.7467" y1="12.4674" x2="11.8165" y2="-1.26131" gradientUnits="userSpaceOnUse">
<stop stop-color="#1F3596" stop-opacity="0"/>
<stop offset="0.4068" stop-color="#1D3290" stop-opacity="0.407"/>
<stop offset="0.9508" stop-color="#192B7F" stop-opacity="0.951"/>
<stop offset="1" stop-color="#192A7D"/>
</linearGradient>
<linearGradient id="paint19_linear_201_2741" x1="3.56159" y1="12.5" x2="24.6556" y2="12.5" gradientUnits="userSpaceOnUse">
<stop stop-color="#D5DAF3"/>
<stop offset="1" stop-color="#60B7FF"/>
</linearGradient>
<linearGradient id="paint20_linear_201_2741" x1="12.1705" y1="19.6774" x2="11.6768" y2="13.8008" gradientUnits="userSpaceOnUse">
<stop stop-color="#1F3596" stop-opacity="0"/>
<stop offset="0.4068" stop-color="#1D3290" stop-opacity="0.407"/>
<stop offset="0.9508" stop-color="#192B7F" stop-opacity="0.951"/>
<stop offset="1" stop-color="#192A7D"/>
</linearGradient>
<linearGradient id="paint21_linear_201_2741" x1="12.3333" y1="22.7436" x2="12.3333" y2="24.9333" gradientUnits="userSpaceOnUse">
<stop stop-color="#1F3596" stop-opacity="0"/>
<stop offset="0.4068" stop-color="#1D3290" stop-opacity="0.407"/>
<stop offset="0.9508" stop-color="#192B7F" stop-opacity="0.951"/>
<stop offset="1" stop-color="#192A7D"/>
</linearGradient>
<linearGradient id="paint22_linear_201_2741" x1="12.3752" y1="22.1206" x2="12.9393" y2="14.8806" gradientUnits="userSpaceOnUse">
<stop stop-color="#1F3596" stop-opacity="0"/>
<stop offset="0.4068" stop-color="#1D3290" stop-opacity="0.407"/>
<stop offset="0.9508" stop-color="#192B7F" stop-opacity="0.951"/>
<stop offset="1" stop-color="#192A7D"/>
</linearGradient>
<linearGradient id="paint23_linear_201_2741" x1="22.383" y1="21.3758" x2="24.8079" y2="21.3758" gradientUnits="userSpaceOnUse">
<stop stop-color="#1F3596" stop-opacity="0"/>
<stop offset="0.4068" stop-color="#1D3290" stop-opacity="0.407"/>
<stop offset="0.9508" stop-color="#192B7F" stop-opacity="0.951"/>
<stop offset="1" stop-color="#192A7D"/>
</linearGradient>
<linearGradient id="paint24_linear_201_2741" x1="9.78338" y1="9.78392" x2="11.5298" y2="-12.628" gradientUnits="userSpaceOnUse">
<stop stop-color="#1F3596" stop-opacity="0"/>
<stop offset="0.4068" stop-color="#1D3290" stop-opacity="0.407"/>
<stop offset="0.9508" stop-color="#192B7F" stop-opacity="0.951"/>
<stop offset="1" stop-color="#192A7D"/>
</linearGradient>
<linearGradient id="paint25_linear_201_2741" x1="10.7444" y1="9.77234" x2="12.2612" y2="-9.69364" gradientUnits="userSpaceOnUse">
<stop stop-color="#1F3596" stop-opacity="0"/>
<stop offset="0.4068" stop-color="#1D3290" stop-opacity="0.407"/>
<stop offset="0.9508" stop-color="#192B7F" stop-opacity="0.951"/>
<stop offset="1" stop-color="#192A7D"/>
</linearGradient>
<linearGradient id="paint26_linear_201_2741" x1="16.1099" y1="4.57467" x2="17.4152" y2="5.87999" gradientUnits="userSpaceOnUse">
<stop stop-color="#D5DAF3"/>
<stop offset="1" stop-color="#60B7FF"/>
</linearGradient>
<linearGradient id="paint27_linear_201_2741" x1="16.9944" y1="6.86855" x2="17.8935" y2="7.76777" gradientUnits="userSpaceOnUse">
<stop stop-color="#D5DAF3"/>
<stop offset="1" stop-color="#60B7FF"/>
</linearGradient>
<linearGradient id="paint28_linear_201_2741" x1="13.7034" y1="4.42421" x2="14.6025" y2="5.32343" gradientUnits="userSpaceOnUse">
<stop stop-color="#D5DAF3"/>
<stop offset="1" stop-color="#60B7FF"/>
</linearGradient>
<linearGradient id="paint29_linear_201_2741" x1="17.4263" y1="20.4621" x2="18.6251" y2="16.3485" gradientUnits="userSpaceOnUse">
<stop stop-color="#1F3596" stop-opacity="0"/>
<stop offset="0.4068" stop-color="#1D3290" stop-opacity="0.407"/>
<stop offset="0.9508" stop-color="#192B7F" stop-opacity="0.951"/>
<stop offset="1" stop-color="#192A7D"/>
</linearGradient>
<linearGradient id="paint30_linear_201_2741" x1="21.207" y1="17.8303" x2="24.3098" y2="19.4522" gradientUnits="userSpaceOnUse">
<stop stop-color="#1F3596" stop-opacity="0"/>
<stop offset="0.4068" stop-color="#1D3290" stop-opacity="0.407"/>
<stop offset="0.9508" stop-color="#192B7F" stop-opacity="0.951"/>
<stop offset="1" stop-color="#192A7D"/>
</linearGradient>
<linearGradient id="paint31_linear_201_2741" x1="4.87049" y1="4.38534" x2="5.76867" y2="5.28352" gradientUnits="userSpaceOnUse">
<stop stop-color="#D5DAF3"/>
<stop offset="1" stop-color="#60B7FF"/>
</linearGradient>
<linearGradient id="paint32_linear_201_2741" x1="2.98549" y1="7.36491" x2="3.88367" y2="8.26309" gradientUnits="userSpaceOnUse">
<stop stop-color="#D5DAF3"/>
<stop offset="1" stop-color="#60B7FF"/>
</linearGradient>
<linearGradient id="paint33_linear_201_2741" x1="1.40293" y1="9.89987" x2="2.0904" y2="10.5873" gradientUnits="userSpaceOnUse">
<stop stop-color="#D5DAF3"/>
<stop offset="1" stop-color="#60B7FF"/>
</linearGradient>
<linearGradient id="paint34_linear_201_2741" x1="6.75565" y1="1.40591" x2="7.65383" y2="2.30409" gradientUnits="userSpaceOnUse">
<stop stop-color="#D5DAF3"/>
<stop offset="1" stop-color="#60B7FF"/>
</linearGradient>
<linearGradient id="paint35_linear_201_2741" x1="17.8022" y1="17.1676" x2="18.7003" y2="18.0658" gradientUnits="userSpaceOnUse">
<stop stop-color="#D5DAF3"/>
<stop offset="1" stop-color="#60B7FF"/>
</linearGradient>
<linearGradient id="paint36_linear_201_2741" x1="19.6873" y1="14.1881" x2="20.5855" y2="15.0863" gradientUnits="userSpaceOnUse">
<stop stop-color="#D5DAF3"/>
<stop offset="1" stop-color="#60B7FF"/>
</linearGradient>
<linearGradient id="paint37_linear_201_2741" x1="21.2953" y1="11.6792" x2="21.9828" y2="12.3667" gradientUnits="userSpaceOnUse">
<stop stop-color="#D5DAF3"/>
<stop offset="1" stop-color="#60B7FF"/>
</linearGradient>
<linearGradient id="paint38_linear_201_2741" x1="15.9171" y1="20.1471" x2="16.8152" y2="21.0453" gradientUnits="userSpaceOnUse">
<stop stop-color="#D5DAF3"/>
<stop offset="1" stop-color="#60B7FF"/>
</linearGradient>
<linearGradient id="paint39_linear_201_2741" x1="22.7419" y1="9.42837" x2="23.6401" y2="10.3265" gradientUnits="userSpaceOnUse">
<stop stop-color="#D5DAF3"/>
<stop offset="1" stop-color="#60B7FF"/>
</linearGradient>
<linearGradient id="paint40_linear_201_2741" x1="10.8881" y1="4.38534" x2="11.7862" y2="5.28352" gradientUnits="userSpaceOnUse">
<stop stop-color="#D5DAF3"/>
<stop offset="1" stop-color="#60B7FF"/>
</linearGradient>
<linearGradient id="paint41_linear_201_2741" x1="9.00305" y1="7.36489" x2="9.90123" y2="8.26307" gradientUnits="userSpaceOnUse">
<stop stop-color="#D5DAF3"/>
<stop offset="1" stop-color="#60B7FF"/>
</linearGradient>
<linearGradient id="paint42_linear_201_2741" x1="7.42048" y1="9.89987" x2="8.10795" y2="10.5873" gradientUnits="userSpaceOnUse">
<stop stop-color="#D5DAF3"/>
<stop offset="1" stop-color="#60B7FF"/>
</linearGradient>
<linearGradient id="paint43_linear_201_2741" x1="12.7733" y1="1.40591" x2="13.6715" y2="2.30409" gradientUnits="userSpaceOnUse">
<stop stop-color="#D5DAF3"/>
<stop offset="1" stop-color="#60B7FF"/>
</linearGradient>
<linearGradient id="paint44_linear_201_2741" x1="4.0634" y1="15.1041" x2="4.96153" y2="16.0023" gradientUnits="userSpaceOnUse">
<stop stop-color="#D5DAF3"/>
<stop offset="1" stop-color="#60B7FF"/>
</linearGradient>
<linearGradient id="paint45_linear_201_2741" x1="2.17809" y1="18.0846" x2="3.07628" y2="18.9828" gradientUnits="userSpaceOnUse">
<stop stop-color="#D5DAF3"/>
<stop offset="1" stop-color="#60B7FF"/>
</linearGradient>
<linearGradient id="paint46_linear_201_2741" x1="5.94849" y1="12.1246" x2="6.84667" y2="13.0228" gradientUnits="userSpaceOnUse">
<stop stop-color="#D5DAF3"/>
<stop offset="1" stop-color="#60B7FF"/>
</linearGradient>
<linearGradient id="paint47_linear_201_2741" x1="11.7845" y1="17.1676" x2="12.6827" y2="18.0658" gradientUnits="userSpaceOnUse">
<stop stop-color="#D5DAF3"/>
<stop offset="1" stop-color="#60B7FF"/>
</linearGradient>
<linearGradient id="paint48_linear_201_2741" x1="13.6696" y1="14.1881" x2="14.5678" y2="15.0863" gradientUnits="userSpaceOnUse">
<stop stop-color="#D5DAF3"/>
<stop offset="1" stop-color="#60B7FF"/>
</linearGradient>
<linearGradient id="paint49_linear_201_2741" x1="15.2776" y1="11.6792" x2="15.9652" y2="12.3667" gradientUnits="userSpaceOnUse">
<stop stop-color="#D5DAF3"/>
<stop offset="1" stop-color="#60B7FF"/>
</linearGradient>
<linearGradient id="paint50_linear_201_2741" x1="9.89929" y1="20.1471" x2="10.7975" y2="21.0453" gradientUnits="userSpaceOnUse">
<stop stop-color="#D5DAF3"/>
<stop offset="1" stop-color="#60B7FF"/>
</linearGradient>
<linearGradient id="paint51_linear_201_2741" x1="18.6093" y1="6.44883" x2="19.5075" y2="7.34701" gradientUnits="userSpaceOnUse">
<stop stop-color="#D5DAF3"/>
<stop offset="1" stop-color="#60B7FF"/>
</linearGradient>
<linearGradient id="paint52_linear_201_2741" x1="20.4945" y1="3.46938" x2="21.3926" y2="4.36752" gradientUnits="userSpaceOnUse">
<stop stop-color="#D5DAF3"/>
<stop offset="1" stop-color="#60B7FF"/>
</linearGradient>
<linearGradient id="paint53_linear_201_2741" x1="22.1025" y1="0.96041" x2="22.79" y2="1.64793" gradientUnits="userSpaceOnUse">
<stop stop-color="#D5DAF3"/>
<stop offset="1" stop-color="#60B7FF"/>
</linearGradient>
<linearGradient id="paint54_linear_201_2741" x1="16.7242" y1="9.42837" x2="17.6224" y2="10.3265" gradientUnits="userSpaceOnUse">
<stop stop-color="#D5DAF3"/>
<stop offset="1" stop-color="#60B7FF"/>
</linearGradient>
<linearGradient id="paint55_linear_201_2741" x1="16.9059" y1="4.38534" x2="17.8041" y2="5.28352" gradientUnits="userSpaceOnUse">
<stop stop-color="#D5DAF3"/>
<stop offset="1" stop-color="#60B7FF"/>
</linearGradient>
<linearGradient id="paint56_linear_201_2741" x1="15.0206" y1="7.36489" x2="15.9188" y2="8.26307" gradientUnits="userSpaceOnUse">
<stop stop-color="#D5DAF3"/>
<stop offset="1" stop-color="#60B7FF"/>
</linearGradient>
<linearGradient id="paint57_linear_201_2741" x1="13.4383" y1="9.89987" x2="14.1258" y2="10.5873" gradientUnits="userSpaceOnUse">
<stop stop-color="#D5DAF3"/>
<stop offset="1" stop-color="#60B7FF"/>
</linearGradient>
<linearGradient id="paint58_linear_201_2741" x1="18.791" y1="1.40591" x2="19.6891" y2="2.30409" gradientUnits="userSpaceOnUse">
<stop stop-color="#D5DAF3"/>
<stop offset="1" stop-color="#60B7FF"/>
</linearGradient>
<linearGradient id="paint59_linear_201_2741" x1="10.081" y1="15.1041" x2="10.9791" y2="16.0023" gradientUnits="userSpaceOnUse">
<stop stop-color="#D5DAF3"/>
<stop offset="1" stop-color="#60B7FF"/>
</linearGradient>
<linearGradient id="paint60_linear_201_2741" x1="8.19592" y1="18.0846" x2="9.0941" y2="18.9828" gradientUnits="userSpaceOnUse">
<stop stop-color="#D5DAF3"/>
<stop offset="1" stop-color="#60B7FF"/>
</linearGradient>
<linearGradient id="paint61_linear_201_2741" x1="6.61339" y1="20.6186" x2="7.30091" y2="21.3061" gradientUnits="userSpaceOnUse">
<stop stop-color="#D5DAF3"/>
<stop offset="1" stop-color="#60B7FF"/>
</linearGradient>
<linearGradient id="paint62_linear_201_2741" x1="11.9661" y1="12.1247" x2="12.8643" y2="13.0228" gradientUnits="userSpaceOnUse">
<stop stop-color="#D5DAF3"/>
<stop offset="1" stop-color="#60B7FF"/>
</linearGradient>
<linearGradient id="paint63_linear_201_2741" x1="5.76688" y1="17.1676" x2="6.66501" y2="18.0658" gradientUnits="userSpaceOnUse">
<stop stop-color="#D5DAF3"/>
<stop offset="1" stop-color="#60B7FF"/>
</linearGradient>
<linearGradient id="paint64_linear_201_2741" x1="7.652" y1="14.1881" x2="8.55018" y2="15.0863" gradientUnits="userSpaceOnUse">
<stop stop-color="#D5DAF3"/>
<stop offset="1" stop-color="#60B7FF"/>
</linearGradient>
<linearGradient id="paint65_linear_201_2741" x1="9.25998" y1="11.6792" x2="9.9475" y2="12.3667" gradientUnits="userSpaceOnUse">
<stop stop-color="#D5DAF3"/>
<stop offset="1" stop-color="#60B7FF"/>
</linearGradient>
<linearGradient id="paint66_linear_201_2741" x1="3.88171" y1="20.1471" x2="4.77989" y2="21.0453" gradientUnits="userSpaceOnUse">
<stop stop-color="#D5DAF3"/>
<stop offset="1" stop-color="#60B7FF"/>
</linearGradient>
<linearGradient id="paint67_linear_201_2741" x1="12.5917" y1="6.44883" x2="13.4899" y2="7.34701" gradientUnits="userSpaceOnUse">
<stop stop-color="#D5DAF3"/>
<stop offset="1" stop-color="#60B7FF"/>
</linearGradient>
<linearGradient id="paint68_linear_201_2741" x1="14.4768" y1="3.46938" x2="15.375" y2="4.36752" gradientUnits="userSpaceOnUse">
<stop stop-color="#D5DAF3"/>
<stop offset="1" stop-color="#60B7FF"/>
</linearGradient>
<linearGradient id="paint69_linear_201_2741" x1="16.0848" y1="0.96041" x2="16.7723" y2="1.64793" gradientUnits="userSpaceOnUse">
<stop stop-color="#D5DAF3"/>
<stop offset="1" stop-color="#60B7FF"/>
</linearGradient>
<linearGradient id="paint70_linear_201_2741" x1="10.7066" y1="9.42837" x2="11.6047" y2="10.3265" gradientUnits="userSpaceOnUse">
<stop stop-color="#D5DAF3"/>
<stop offset="1" stop-color="#60B7FF"/>
</linearGradient>
<linearGradient id="paint71_linear_201_2741" x1="22.9235" y1="4.38534" x2="23.8217" y2="5.28352" gradientUnits="userSpaceOnUse">
<stop stop-color="#D5DAF3"/>
<stop offset="1" stop-color="#60B7FF"/>
</linearGradient>
<linearGradient id="paint72_linear_201_2741" x1="21.0384" y1="7.36489" x2="21.9366" y2="8.26307" gradientUnits="userSpaceOnUse">
<stop stop-color="#D5DAF3"/>
<stop offset="1" stop-color="#60B7FF"/>
</linearGradient>
<linearGradient id="paint73_linear_201_2741" x1="19.4559" y1="9.89987" x2="20.1434" y2="10.5873" gradientUnits="userSpaceOnUse">
<stop stop-color="#D5DAF3"/>
<stop offset="1" stop-color="#60B7FF"/>
</linearGradient>
<linearGradient id="paint74_linear_201_2741" x1="16.0986" y1="15.1041" x2="16.9967" y2="16.0023" gradientUnits="userSpaceOnUse">
<stop stop-color="#D5DAF3"/>
<stop offset="1" stop-color="#60B7FF"/>
</linearGradient>
<linearGradient id="paint75_linear_201_2741" x1="14.2135" y1="18.0846" x2="15.1117" y2="18.9828" gradientUnits="userSpaceOnUse">
<stop stop-color="#D5DAF3"/>
<stop offset="1" stop-color="#60B7FF"/>
</linearGradient>
<linearGradient id="paint76_linear_201_2741" x1="12.631" y1="20.6186" x2="13.3186" y2="21.3061" gradientUnits="userSpaceOnUse">
<stop stop-color="#D5DAF3"/>
<stop offset="1" stop-color="#60B7FF"/>
</linearGradient>
<linearGradient id="paint77_linear_201_2741" x1="17.9838" y1="12.1247" x2="18.882" y2="13.0228" gradientUnits="userSpaceOnUse">
<stop stop-color="#D5DAF3"/>
<stop offset="1" stop-color="#60B7FF"/>
</linearGradient>
<linearGradient id="paint78_linear_201_2741" x1="1.63435" y1="14.1881" x2="2.53253" y2="15.0863" gradientUnits="userSpaceOnUse">
<stop stop-color="#D5DAF3"/>
<stop offset="1" stop-color="#60B7FF"/>
</linearGradient>
<linearGradient id="paint79_linear_201_2741" x1="3.24233" y1="11.6792" x2="3.92985" y2="12.3667" gradientUnits="userSpaceOnUse">
<stop stop-color="#D5DAF3"/>
<stop offset="1" stop-color="#60B7FF"/>
</linearGradient>
<linearGradient id="paint80_linear_201_2741" x1="6.57404" y1="6.44883" x2="7.47222" y2="7.34701" gradientUnits="userSpaceOnUse">
<stop stop-color="#D5DAF3"/>
<stop offset="1" stop-color="#60B7FF"/>
</linearGradient>
<linearGradient id="paint81_linear_201_2741" x1="8.45917" y1="3.46938" x2="9.35735" y2="4.36752" gradientUnits="userSpaceOnUse">
<stop stop-color="#D5DAF3"/>
<stop offset="1" stop-color="#60B7FF"/>
</linearGradient>
<linearGradient id="paint82_linear_201_2741" x1="10.0672" y1="0.96041" x2="10.7547" y2="1.64793" gradientUnits="userSpaceOnUse">
<stop stop-color="#D5DAF3"/>
<stop offset="1" stop-color="#60B7FF"/>
</linearGradient>
<linearGradient id="paint83_linear_201_2741" x1="4.68892" y1="9.42837" x2="5.5871" y2="10.3265" gradientUnits="userSpaceOnUse">
<stop stop-color="#D5DAF3"/>
<stop offset="1" stop-color="#60B7FF"/>
</linearGradient>
<linearGradient id="paint84_linear_201_2741" x1="22.1164" y1="15.1041" x2="23.0145" y2="16.0023" gradientUnits="userSpaceOnUse">
<stop stop-color="#D5DAF3"/>
<stop offset="1" stop-color="#60B7FF"/>
</linearGradient>
<linearGradient id="paint85_linear_201_2741" x1="20.2311" y1="18.0846" x2="21.1293" y2="18.9828" gradientUnits="userSpaceOnUse">
<stop stop-color="#D5DAF3"/>
<stop offset="1" stop-color="#60B7FF"/>
</linearGradient>
<linearGradient id="paint86_linear_201_2741" x1="18.6487" y1="20.6186" x2="19.3362" y2="21.3061" gradientUnits="userSpaceOnUse">
<stop stop-color="#D5DAF3"/>
<stop offset="1" stop-color="#60B7FF"/>
</linearGradient>
<clipPath id="clip0_201_2741">
<rect width="24" height="24" fill="white" transform="translate(0.333359 0.5)"/>
</clipPath>
</defs>
</svg>
