<svg width="24" height="24" viewBox="0 0 24 24" fill="none" xmlns="http://www.w3.org/2000/svg">
<g clip-path="url(#clip0_29_35279)">
<path d="M20.5993 17.1508C21.4265 17.1508 22.097 16.4802 22.097 15.653C22.097 14.8258 21.4265 14.1553 20.5993 14.1553C19.7721 14.1553 19.1016 14.8258 19.1016 15.653C19.1016 16.4802 19.7721 17.1508 20.5993 17.1508Z" fill="url(#paint0_linear_29_35279)"/>
<path d="M19.0213 3.82979C18.5414 3.82979 18.0775 3.89788 17.6384 4.02457C17.356 2.91878 16.3533 2.10118 15.1596 2.10118C14.8234 2.10118 14.5027 2.16668 14.2086 2.28452C13.3224 0.910118 11.7782 0 10.0213 0C7.66555 0 5.69219 1.63614 5.17501 3.83398C5.10988 3.83144 5.04447 3.82979 4.97873 3.82979C2.22904 3.82979 0 6.05882 0 8.80852C0 11.5582 2.22904 13.7872 4.97873 13.7872H19.0213C21.771 13.7872 24 11.5582 24 8.80852C24 6.05882 21.771 3.82979 19.0213 3.82979Z" fill="url(#paint1_linear_29_35279)"/>
<path d="M14.5102 7.13459C13.7065 8.80471 11.9982 9.95765 10.0208 9.95765C7.27117 9.95765 5.04199 7.72847 5.04199 4.97882C5.04199 2.22918 7.27117 0 10.0208 0C11.7775 0 13.3215 0.909647 14.2076 2.28424C13.266 2.66165 12.6006 3.58306 12.6006 4.65977C12.6006 5.84847 13.4114 6.84753 14.5102 7.13459Z" fill="url(#paint2_linear_29_35279)"/>
<path d="M17.6382 4.02486C16.1149 4.46392 14.8919 5.61121 14.3479 7.08697C13.3328 6.74768 12.6006 5.78909 12.6006 4.66015C12.6006 3.24697 13.7465 2.10156 15.1592 2.10156C16.3531 2.10156 17.3559 2.91897 17.6382 4.02486Z" fill="url(#paint3_linear_29_35279)"/>
<path d="M0 8.80908C0 11.5588 2.22904 13.7878 4.97873 13.7878H19.0213C19.0213 13.7878 24 11.5588 24 8.80908C24 8.24202 23.905 7.69722 23.7304 7.18945H0.2696C0.0950118 7.69722 0 8.24202 0 8.80908Z" fill="url(#paint4_linear_29_35279)"/>
<path d="M7.57289 11.3328L7.3014 11.8272L6.5846 11.1104L5.42578 12.9649L6.05171 13.5909L6.03957 13.752L6.07529 13.7877H10.0277L7.57289 11.3328Z" fill="url(#paint5_linear_29_35279)"/>
<path d="M9.845 9.81738L8.66406 11.4214L11.0303 13.7876H13.8153L9.845 9.81738Z" fill="url(#paint6_linear_29_35279)"/>
<path d="M18.2816 13.7871L13.0121 8.51758H12V13.7871H18.2816Z" fill="url(#paint7_linear_29_35279)"/>
<path d="M21.0782 13.3443L15.9975 8.26367L13.4932 12.9753L14.3056 13.7878H19.0216C19.755 13.7877 20.4513 13.6291 21.0782 13.3443Z" fill="url(#paint8_linear_29_35279)"/>
<path d="M19.0211 13.7875C19.6818 13.7875 20.3122 13.6584 20.889 13.4247L18.9223 11.458L15.1943 13.7875H19.0211Z" fill="url(#paint9_linear_29_35279)"/>
<path d="M12.0002 10.9083C11.8677 10.9083 11.7351 10.8578 11.6342 10.7569L10.6221 9.7448C10.5283 9.65105 10.5283 9.49901 10.6221 9.40527C10.7158 9.31153 10.8679 9.31153 10.9616 9.40527L11.9738 10.4174C11.9884 10.4319 12.012 10.4319 12.0266 10.4174L13.0387 9.40527C13.1325 9.31153 13.2845 9.31153 13.3782 9.40527C13.472 9.49901 13.472 9.65105 13.3782 9.7448L12.3661 10.7569C12.2652 10.8578 12.1327 10.9083 12.0002 10.9083Z" fill="url(#paint10_linear_29_35279)"/>
<path d="M12.3659 10.7569L13.3781 9.7448C13.4719 9.65105 13.4719 9.49901 13.3781 9.40527C13.2843 9.31153 13.1323 9.31153 13.0385 9.40527L12.0264 10.4174C12.0191 10.4247 12.0096 10.4283 12 10.4283V10.9083C12.1325 10.9083 12.265 10.8578 12.3659 10.7569Z" fill="url(#paint11_linear_29_35279)"/>
<path d="M12.24 8.64244V15.7477H11.7598V8.64244C11.7598 8.50992 11.867 8.40234 11.9999 8.40234C12.1324 8.40234 12.24 8.50987 12.24 8.64244Z" fill="url(#paint12_linear_29_35279)"/>
<path d="M11.9999 8.40234C11.867 8.40234 11.7598 8.50992 11.7598 8.64244V10.5538H12.24V8.64244C12.24 8.50987 12.1324 8.40234 11.9999 8.40234Z" fill="url(#paint13_linear_29_35279)"/>
<path d="M13.0127 8.51829L12.1968 7.70234C12.0884 7.59401 11.9128 7.59401 11.8044 7.70234L10.9885 8.51829C10.8801 8.62662 10.8801 8.80229 10.9885 8.91062L11.8044 9.72658C11.9128 9.83491 12.0884 9.83491 12.1968 9.72658L13.0127 8.91062C13.1211 8.80229 13.1211 8.62662 13.0127 8.51829Z" fill="url(#paint14_linear_29_35279)"/>
<path d="M13.0127 8.51829L12.1968 7.70234C12.0884 7.59401 11.9128 7.59401 11.8044 7.70234L10.9885 8.51829C10.8801 8.62662 10.8801 8.80229 10.9885 8.91062L11.8044 9.72658C11.9128 9.83491 12.0884 9.83491 12.1968 9.72658L13.0127 8.91062C13.1211 8.80229 13.1211 8.62662 13.0127 8.51829Z" fill="url(#paint15_linear_29_35279)"/>
<path d="M10.9885 8.51829L11.8045 7.70234C11.9128 7.59401 12.0885 7.59401 12.1968 7.70234L13.0127 8.51829C13.1211 8.62662 13.1211 8.80229 13.0127 8.91062L12.1968 9.72658C12.0885 9.83491 11.9128 9.83491 11.8045 9.72658L10.9885 8.91062C10.8801 8.80229 10.8801 8.62662 10.9885 8.51829Z" fill="url(#paint16_linear_29_35279)"/>
<path d="M13.0945 8.71484C13.0945 8.7859 13.0673 8.85696 13.0132 8.91108L12.1972 9.72703C12.1431 9.78115 12.072 9.80802 12.001 9.80802V8.84877C12.001 8.7748 12.0609 8.71484 12.1349 8.71484H13.0945Z" fill="url(#paint17_linear_29_35279)"/>
<path d="M12.0002 20.6592C12.1327 20.6592 12.2652 20.7096 12.3661 20.8105L13.3782 21.8227C13.472 21.9164 13.472 22.0685 13.3782 22.1622C13.2845 22.2559 13.1325 22.2559 13.0387 22.1622L12.0266 21.1501C12.012 21.1355 11.9884 21.1355 11.9738 21.1501L10.9616 22.1622C10.8679 22.2559 10.7158 22.2559 10.6221 22.1622C10.5283 22.0685 10.5283 21.9164 10.6221 21.8227L11.6342 20.8105C11.7351 20.7096 11.8677 20.6592 12.0002 20.6592Z" fill="url(#paint18_linear_29_35279)"/>
<path d="M11.6342 20.8105L10.6221 21.8227C10.5283 21.9164 10.5283 22.0685 10.6221 22.1622C10.7158 22.2559 10.8679 22.2559 10.9616 22.1622L11.9738 21.1501C11.9811 21.1428 11.9906 21.1391 12.0002 21.1391V20.6592C11.8677 20.6592 11.7351 20.7096 11.6342 20.8105Z" fill="url(#paint19_linear_29_35279)"/>
<path d="M11.7598 22.9255V15.8203H12.24V22.9255C12.24 23.0581 12.1327 23.1656 11.9999 23.1656C11.8673 23.1656 11.7598 23.0581 11.7598 22.9255Z" fill="url(#paint20_linear_29_35279)"/>
<path d="M11.9999 23.1652C12.1327 23.1652 12.24 23.0576 12.24 22.9251V21.0137H11.7598V22.9251C11.7598 23.0576 11.8673 23.1652 11.9999 23.1652Z" fill="url(#paint21_linear_29_35279)"/>
<path d="M10.9875 23.0493L11.8035 23.8652C11.9118 23.9736 12.0875 23.9736 12.1958 23.8652L13.0118 23.0493C13.1201 22.941 13.1201 22.7653 13.0118 22.657L12.1958 21.841C12.0875 21.7327 11.9118 21.7327 11.8035 21.841L10.9875 22.657C10.8792 22.7653 10.8792 22.941 10.9875 23.0493Z" fill="url(#paint22_linear_29_35279)"/>
<path d="M10.9875 23.0493L11.8035 23.8652C11.9118 23.9736 12.0875 23.9736 12.1958 23.8652L13.0118 23.0493C13.1201 22.941 13.1201 22.7653 13.0118 22.657L12.1958 21.841C12.0875 21.7327 11.9118 21.7327 11.8035 21.841L10.9875 22.657C10.8792 22.7653 10.8792 22.941 10.9875 23.0493Z" fill="url(#paint23_linear_29_35279)"/>
<path d="M13.0117 23.0493L12.1958 23.8652C12.0874 23.9736 11.9118 23.9736 11.8034 23.8652L10.9875 23.0493C10.8792 22.941 10.8792 22.7653 10.9875 22.657L11.8034 21.841C11.9118 21.7327 12.0874 21.7327 12.1958 21.841L13.0117 22.657C13.1201 22.7653 13.1201 22.941 13.0117 23.0493Z" fill="url(#paint24_linear_29_35279)"/>
<path d="M10.9062 22.8529C10.9062 22.7819 10.9334 22.7108 10.9876 22.6567L11.8035 21.8408C11.8576 21.7866 11.9287 21.7598 11.9998 21.7598V22.719C11.9998 22.793 11.9398 22.8529 11.8658 22.8529H10.9062Z" fill="url(#paint25_linear_29_35279)"/>
<path d="M16.1346 13.1998C16.0644 13.0874 16.0369 12.9483 16.069 12.8093L16.391 11.4146C16.4208 11.2855 16.5497 11.2049 16.6789 11.2347C16.8081 11.2646 16.8887 11.3935 16.8588 11.5227L16.5369 12.9174C16.5323 12.9374 16.5448 12.9575 16.5649 12.9622L17.9596 13.2841C18.0887 13.314 18.1693 13.4429 18.1395 13.5721C18.1096 13.7013 17.9807 13.7818 17.8515 13.752L16.4568 13.43C16.3178 13.3979 16.2048 13.3122 16.1346 13.1998Z" fill="url(#paint26_linear_29_35279)"/>
<path d="M16.457 13.4308L17.8517 13.7527C17.9808 13.7826 18.1098 13.702 18.1396 13.5728C18.1694 13.4437 18.0889 13.3147 17.9597 13.2849L16.565 12.9629C16.555 12.9606 16.5469 12.9544 16.5418 12.9463L16.1348 13.2006C16.205 13.313 16.318 13.3987 16.457 13.4308Z" fill="url(#paint27_linear_29_35279)"/>
<path d="M18.1833 12.2035L12.1578 15.9687L11.9033 15.5615L17.9289 11.7963C18.0412 11.7261 18.1893 11.76 18.2597 11.8727C18.33 11.9851 18.2957 12.1332 18.1833 12.2035Z" fill="url(#paint28_linear_29_35279)"/>
<path d="M18.2594 11.8727C18.189 11.76 18.0409 11.7261 17.9286 11.7963L16.3076 12.8092L16.5621 13.2164L18.183 12.2035C18.2954 12.1332 18.3296 11.9851 18.2594 11.8727Z" fill="url(#paint29_linear_29_35279)"/>
<path d="M18.6975 12.7922L18.9571 11.6678C18.9916 11.5185 18.8985 11.3695 18.7492 11.3351L17.6248 11.0755C17.4756 11.0411 17.3266 11.1342 17.2921 11.2834L17.0326 12.4078C16.9981 12.5571 17.0911 12.7061 17.2405 12.7405L18.3648 13.0001C18.5141 13.0346 18.6631 12.9415 18.6975 12.7922Z" fill="url(#paint30_linear_29_35279)"/>
<path d="M18.6975 12.7922L18.9571 11.6678C18.9916 11.5185 18.8985 11.3695 18.7492 11.3351L17.6248 11.0755C17.4756 11.0411 17.3266 11.1342 17.2921 11.2834L17.0326 12.4078C16.9981 12.5571 17.0911 12.7061 17.2405 12.7405L18.3648 13.0001C18.5141 13.0346 18.6631 12.9415 18.6975 12.7922Z" fill="url(#paint31_linear_29_35279)"/>
<path d="M17.6248 11.0755L18.7492 11.3351C18.8985 11.3696 18.9916 11.5186 18.9571 11.6678L18.6975 12.7922C18.6631 12.9415 18.5141 13.0346 18.3648 13.0001L17.2405 12.7405C17.0912 12.7061 16.9981 12.5571 17.0326 12.4078L17.2921 11.2834C17.3266 11.1341 17.4756 11.041 17.6248 11.0755Z" fill="url(#paint32_linear_29_35279)"/>
<path d="M18.5739 12.9656C18.5136 13.0033 18.439 13.0179 18.3644 13.0006L17.24 12.7411C17.1655 12.7238 17.105 12.6778 17.0674 12.6176L17.8809 12.1092C17.9436 12.07 18.0262 12.0891 18.0654 12.1518L18.5739 12.9656Z" fill="url(#paint33_linear_29_35279)"/>
<path d="M7.86462 18.368C7.93483 18.4803 7.96231 18.6194 7.93017 18.7585L7.6082 20.1531C7.57836 20.2824 7.44947 20.3629 7.32024 20.333C7.19107 20.3032 7.1105 20.1743 7.14034 20.0451L7.46231 18.6504C7.46692 18.6304 7.45436 18.6103 7.43431 18.6056L6.03963 18.2836C5.91045 18.2538 5.82989 18.1249 5.85972 17.9957C5.88956 17.8665 6.01845 17.7859 6.14768 17.8158L7.54236 18.1378C7.68137 18.1699 7.79436 18.2556 7.86462 18.368Z" fill="url(#paint34_linear_29_35279)"/>
<path d="M7.54236 18.1378L6.14768 17.8158C6.0185 17.7859 5.88956 17.8665 5.85972 17.9957C5.82989 18.1249 5.91045 18.2538 6.03963 18.2836L7.43431 18.6056C7.44434 18.6079 7.45248 18.6141 7.45756 18.6222L7.86457 18.3679C7.79436 18.2555 7.68137 18.1699 7.54236 18.1378Z" fill="url(#paint35_linear_29_35279)"/>
<path d="M5.81601 19.3648L11.8416 15.5996L12.096 16.0068L6.07045 19.772C5.95808 19.8422 5.81003 19.8083 5.73963 19.6956C5.66937 19.5832 5.70358 19.435 5.81601 19.3648Z" fill="url(#paint36_linear_29_35279)"/>
<path d="M5.73963 19.6953C5.81003 19.8079 5.95808 19.8419 6.07045 19.7717L7.6914 18.7588L7.43695 18.3516L5.81601 19.3645C5.70358 19.4347 5.66937 19.5829 5.73963 19.6953Z" fill="url(#paint37_linear_29_35279)"/>
<path d="M5.3019 18.7756L5.04232 19.9C5.00788 20.0493 5.10091 20.1983 5.25023 20.2327L6.37461 20.4923C6.52388 20.5267 6.67287 20.4336 6.70731 20.2844L6.96689 19.16C7.00134 19.0107 6.9083 18.8617 6.75898 18.8273L5.63461 18.5677C5.48534 18.5333 5.33639 18.6263 5.3019 18.7756Z" fill="url(#paint38_linear_29_35279)"/>
<path d="M5.3019 18.7756L5.04232 19.9C5.00788 20.0493 5.10091 20.1983 5.25023 20.2327L6.37461 20.4923C6.52388 20.5267 6.67287 20.4336 6.70731 20.2844L6.96689 19.16C7.00134 19.0107 6.9083 18.8617 6.75898 18.8273L5.63461 18.5677C5.48534 18.5333 5.33639 18.6263 5.3019 18.7756Z" fill="url(#paint39_linear_29_35279)"/>
<path d="M6.3746 20.4923L5.25023 20.2327C5.10096 20.1983 5.00787 20.0493 5.04232 19.9L5.3019 18.7756C5.33634 18.6263 5.48533 18.5333 5.6346 18.5677L6.75898 18.8273C6.90825 18.8617 7.00133 19.0107 6.96689 19.16L6.70731 20.2844C6.67282 20.4337 6.52387 20.5268 6.3746 20.4923Z" fill="url(#paint40_linear_29_35279)"/>
<path d="M5.4248 18.6027C5.48509 18.5651 5.55977 18.5505 5.63431 18.5677L6.75869 18.8273C6.83323 18.8445 6.8937 18.8905 6.93135 18.9508L6.11784 19.4591C6.05511 19.4983 5.97252 19.4793 5.93332 19.4165L5.4248 18.6027Z" fill="url(#paint41_linear_29_35279)"/>
<path d="M7.86462 13.1998C7.93483 13.0874 7.96231 12.9483 7.93017 12.8093L7.6082 11.4146C7.57836 11.2855 7.44947 11.2049 7.32024 11.2347C7.19107 11.2646 7.1105 11.3935 7.14034 11.5227L7.46231 12.9174C7.46692 12.9374 7.45436 12.9575 7.43431 12.9622L6.03963 13.2841C5.91045 13.314 5.82989 13.4429 5.85972 13.5721C5.88956 13.7013 6.01845 13.7818 6.14768 13.752L7.54236 13.43C7.68137 13.3979 7.79436 13.3122 7.86462 13.1998Z" fill="url(#paint42_linear_29_35279)"/>
<path d="M7.54236 13.4308L6.14768 13.7527C6.0185 13.7826 5.88956 13.702 5.85972 13.5728C5.82989 13.4437 5.91045 13.3147 6.03963 13.2849L7.43431 12.9629C7.44434 12.9606 7.45248 12.9544 7.45756 12.9463L7.86457 13.2006C7.79436 13.313 7.68137 13.3987 7.54236 13.4308Z" fill="url(#paint43_linear_29_35279)"/>
<path d="M5.81601 12.2035L11.8416 15.9687L12.096 15.5615L6.07045 11.7963C5.95808 11.7261 5.81003 11.76 5.73963 11.8727C5.66937 11.9851 5.70358 12.1332 5.81601 12.2035Z" fill="url(#paint44_linear_29_35279)"/>
<path d="M5.73963 11.8727C5.81003 11.76 5.95808 11.7261 6.07045 11.7963L7.6914 12.8092L7.43695 13.2164L5.81601 12.2035C5.70358 12.1332 5.66937 11.9851 5.73963 11.8727Z" fill="url(#paint45_linear_29_35279)"/>
<path d="M5.3019 12.7922L5.04232 11.6678C5.00788 11.5185 5.10091 11.3695 5.25023 11.3351L6.37461 11.0755C6.52388 11.0411 6.67287 11.1342 6.70731 11.2834L6.96689 12.4078C7.00134 12.5571 6.9083 12.7061 6.75898 12.7405L5.63461 13.0001C5.48534 13.0346 5.33639 12.9415 5.3019 12.7922Z" fill="url(#paint46_linear_29_35279)"/>
<path d="M5.3019 12.7922L5.04232 11.6678C5.00788 11.5185 5.10091 11.3695 5.25023 11.3351L6.37461 11.0755C6.52388 11.0411 6.67287 11.1342 6.70731 11.2834L6.96689 12.4078C7.00134 12.5571 6.9083 12.7061 6.75898 12.7405L5.63461 13.0001C5.48534 13.0346 5.33639 12.9415 5.3019 12.7922Z" fill="url(#paint47_linear_29_35279)"/>
<path d="M6.3746 11.0755L5.25023 11.3351C5.10096 11.3696 5.00787 11.5186 5.04232 11.6678L5.3019 12.7922C5.33634 12.9415 5.48533 13.0346 5.6346 13.0001L6.75898 12.7405C6.90825 12.7061 7.00133 12.5571 6.96689 12.4078L6.70731 11.2834C6.67282 11.1341 6.52387 11.041 6.3746 11.0755Z" fill="url(#paint48_linear_29_35279)"/>
<path d="M5.42578 12.9656C5.48606 13.0033 5.56075 13.0179 5.63529 13.0006L6.75966 12.7411C6.8342 12.7238 6.89468 12.6778 6.93232 12.6176L6.11882 12.1092C6.05609 12.07 5.9735 12.0891 5.9343 12.1518L5.42578 12.9656Z" fill="url(#paint49_linear_29_35279)"/>
<path d="M16.1346 18.368C16.0644 18.4803 16.0369 18.6194 16.069 18.7585L16.391 20.1531C16.4208 20.2824 16.5497 20.3629 16.6789 20.333C16.8081 20.3032 16.8887 20.1743 16.8588 20.0451L16.5369 18.6504C16.5323 18.6304 16.5448 18.6103 16.5649 18.6056L17.9596 18.2836C18.0887 18.2538 18.1693 18.1249 18.1395 17.9957C18.1096 17.8665 17.9807 17.7859 17.8515 17.8158L16.4568 18.1378C16.3178 18.1699 16.2048 18.2556 16.1346 18.368Z" fill="url(#paint50_linear_29_35279)"/>
<path d="M16.457 18.1378L17.8517 17.8158C17.9808 17.7859 18.1098 17.8665 18.1396 17.9957C18.1694 18.1249 18.0889 18.2538 17.9597 18.2836L16.565 18.6056C16.555 18.6079 16.5469 18.6141 16.5418 18.6222L16.1348 18.3679C16.205 18.2555 16.318 18.1699 16.457 18.1378Z" fill="url(#paint51_linear_29_35279)"/>
<path d="M18.1833 19.3648L12.1578 15.5996L11.9033 16.0068L17.9289 19.772C18.0412 19.8422 18.1893 19.8083 18.2597 19.6956C18.33 19.5832 18.2957 19.435 18.1833 19.3648Z" fill="url(#paint52_linear_29_35279)"/>
<path d="M18.2594 19.6953C18.189 19.8079 18.0409 19.8419 17.9286 19.7717L16.3076 18.7588L16.5621 18.3516L18.183 19.3645C18.2954 19.4347 18.3296 19.5829 18.2594 19.6953Z" fill="url(#paint53_linear_29_35279)"/>
<path d="M18.6975 18.7756L18.9571 19.9C18.9916 20.0493 18.8985 20.1983 18.7492 20.2327L17.6248 20.4923C17.4756 20.5267 17.3266 20.4336 17.2921 20.2844L17.0326 19.16C16.9981 19.0107 17.0911 18.8617 17.2405 18.8273L18.3648 18.5677C18.5141 18.5333 18.6631 18.6263 18.6975 18.7756Z" fill="url(#paint54_linear_29_35279)"/>
<path d="M18.6975 18.7756L18.9571 19.9C18.9916 20.0493 18.8985 20.1983 18.7492 20.2327L17.6248 20.4923C17.4756 20.5267 17.3266 20.4336 17.2921 20.2844L17.0326 19.16C16.9981 19.0107 17.0911 18.8617 17.2405 18.8273L18.3648 18.5677C18.5141 18.5333 18.6631 18.6263 18.6975 18.7756Z" fill="url(#paint55_linear_29_35279)"/>
<path d="M17.6248 20.4923L18.7492 20.2327C18.8985 20.1983 18.9916 20.0493 18.9571 19.9L18.6975 18.7756C18.6631 18.6263 18.5141 18.5333 18.3648 18.5677L17.2405 18.8273C17.0912 18.8617 16.9981 19.0107 17.0326 19.16L17.2921 20.2844C17.3266 20.4337 17.4756 20.5268 17.6248 20.4923Z" fill="url(#paint56_linear_29_35279)"/>
<path d="M18.5739 18.6027C18.5136 18.5651 18.439 18.5505 18.3644 18.5677L17.24 18.8273C17.1655 18.8445 17.105 18.8905 17.0674 18.9508L17.8809 19.4591C17.9436 19.4983 18.0262 19.4793 18.0654 19.4165L18.5739 18.6027Z" fill="url(#paint57_linear_29_35279)"/>
<path d="M11.8234 11.5939L11.291 13.0696C11.2038 13.3114 11.2038 13.576 11.291 13.8177L12.0002 15.7835L12.7093 13.8177C12.7965 13.576 12.7965 13.3114 12.7093 13.0696L12.1769 11.5939C12.1172 11.4284 11.8831 11.4284 11.8234 11.5939Z" fill="url(#paint58_linear_29_35279)"/>
<path d="M12.7092 13.0696L12.1768 11.5939C12.1469 11.5111 12.0735 11.4697 12 11.4697V15.7835L12.7092 13.8177C12.7964 13.576 12.7964 13.3114 12.7092 13.0696Z" fill="url(#paint59_linear_29_35279)"/>
<path d="M11.2909 13.8173L12 15.783L12.7092 13.8173C12.7535 13.6946 12.7752 13.566 12.7745 13.4375H11.2256C11.2249 13.566 11.2466 13.6946 11.2909 13.8173Z" fill="url(#paint60_linear_29_35279)"/>
<path d="M12.1769 19.9728L12.7093 18.497C12.7965 18.2553 12.7965 17.9906 12.7093 17.7489L12.0002 15.7832L11.291 17.7489C11.2038 17.9907 11.2038 18.2553 11.291 18.497L11.8234 19.9728C11.8831 20.1383 12.1172 20.1383 12.1769 19.9728Z" fill="url(#paint61_linear_29_35279)"/>
<path d="M11.291 18.497L11.8234 19.9728C11.8532 20.0556 11.9267 20.0969 12.0002 20.0969V15.7832L11.291 17.7489C11.2038 17.9907 11.2038 18.2553 11.291 18.497Z" fill="url(#paint62_linear_29_35279)"/>
<path d="M12.7092 17.7489L12 15.7832L11.2909 17.7489C11.2466 17.8716 11.2249 18.0002 11.2256 18.1287H12.7745C12.7752 18.0002 12.7535 17.8716 12.7092 17.7489Z" fill="url(#paint63_linear_29_35279)"/>
<path d="M15.4593 13.4137L13.9256 13.7442C13.6744 13.7984 13.45 13.9386 13.2912 14.1407L12 15.7838L14.0428 15.3435C14.294 15.2894 14.5184 15.1491 14.6772 14.9471L15.6466 13.7135C15.7554 13.5752 15.6313 13.3767 15.4593 13.4137Z" fill="url(#paint64_linear_29_35279)"/>
<path d="M14.6773 14.9473L15.6466 13.7137C15.701 13.6445 15.6972 13.5603 15.6583 13.498L12 15.784L14.0428 15.3437C14.2941 15.2896 14.5184 15.1493 14.6773 14.9473Z" fill="url(#paint65_linear_29_35279)"/>
<path d="M13.2912 14.1404L12 15.7835L14.0428 15.3432C14.1704 15.3157 14.2909 15.266 14.3995 15.1973L13.5787 13.8838C13.4694 13.9513 13.3718 14.0379 13.2912 14.1404Z" fill="url(#paint66_linear_29_35279)"/>
<path d="M8.54068 18.1532L10.0743 17.8227C10.3255 17.7685 10.5499 17.6283 10.7087 17.4263L12 15.7832L9.95715 16.2235C9.70595 16.2777 9.48153 16.4178 9.32275 16.6199L8.35338 17.8535C8.24458 17.9918 8.36868 18.1903 8.54068 18.1532Z" fill="url(#paint67_linear_29_35279)"/>
<path d="M9.32271 16.6199L8.35335 17.8535C8.299 17.9226 8.30281 18.0069 8.34173 18.0692L12 15.7832L9.95716 16.2235C9.70591 16.2776 9.48154 16.4178 9.32271 16.6199Z" fill="url(#paint68_linear_29_35279)"/>
<path d="M10.7088 17.4263L12.0001 15.7832L9.95724 16.2235C9.82972 16.251 9.7092 16.3007 9.60059 16.3694L10.4214 17.6829C10.5307 17.6154 10.6283 17.5289 10.7088 17.4263Z" fill="url(#paint69_linear_29_35279)"/>
<path d="M8.54068 13.4137L10.0743 13.7442C10.3255 13.7984 10.5499 13.9386 10.7087 14.1407L12 15.7838L9.95715 15.3435C9.70595 15.2894 9.48153 15.1491 9.32275 14.9471L8.35338 13.7135C8.24458 13.5752 8.36868 13.3767 8.54068 13.4137Z" fill="url(#paint70_linear_29_35279)"/>
<path d="M9.32271 14.9473L8.35335 13.7137C8.299 13.6445 8.30281 13.5603 8.34173 13.498L12 15.784L9.95716 15.3437C9.70591 15.2896 9.48154 15.1493 9.32271 14.9473Z" fill="url(#paint71_linear_29_35279)"/>
<path d="M10.7088 14.1404L12.0001 15.7835L9.95724 15.3432C9.82972 15.3157 9.7092 15.266 9.60059 15.1973L10.4214 13.8838C10.5307 13.9513 10.6283 14.0379 10.7088 14.1404Z" fill="url(#paint72_linear_29_35279)"/>
<path d="M15.4593 18.1532L13.9256 17.8227C13.6744 17.7685 13.45 17.6283 13.2912 17.4263L12 15.7832L14.0428 16.2235C14.294 16.2777 14.5184 16.4178 14.6772 16.6199L15.6466 17.8535C15.7554 17.9918 15.6313 18.1903 15.4593 18.1532Z" fill="url(#paint73_linear_29_35279)"/>
<path d="M14.6773 16.6199L15.6466 17.8535C15.701 17.9226 15.6972 18.0069 15.6583 18.0692L12 15.7832L14.0428 16.2235C14.2941 16.2776 14.5184 16.4178 14.6773 16.6199Z" fill="url(#paint74_linear_29_35279)"/>
<path d="M13.2912 17.4263L12 15.7832L14.0428 16.2235C14.1704 16.251 14.2909 16.3007 14.3995 16.3694L13.5787 17.6829C13.4694 17.6154 13.3718 17.5289 13.2912 17.4263Z" fill="url(#paint75_linear_29_35279)"/>
<path d="M13.2916 14.7456L12.3 14.1731C12.1145 14.066 11.886 14.066 11.7005 14.1731L10.7089 14.7456C10.5234 14.8526 10.4092 15.0506 10.4092 15.2647V16.4098C10.4092 16.6239 10.5234 16.8218 10.7089 16.9289L11.7005 17.5014C11.886 17.6085 12.1145 17.6085 12.3 17.5014L13.2916 16.9289C13.477 16.8218 13.5913 16.6239 13.5913 16.4098V15.2647C13.5913 15.0506 13.477 14.8527 13.2916 14.7456Z" fill="url(#paint76_linear_29_35279)"/>
<path d="M20.4311 15.6621L18.2797 14.8859C18.0011 14.7854 17.6961 14.7854 17.4175 14.8859L15.2661 15.6621C15.1522 15.7032 15.1522 15.8643 15.2661 15.9054L17.4175 16.6816C17.6961 16.7821 18.0011 16.7821 18.2797 16.6816L20.4311 15.9054C20.545 15.8643 20.545 15.7032 20.4311 15.6621Z" fill="url(#paint77_linear_29_35279)"/>
<path d="M15.2661 15.9058L17.4175 16.682C17.6961 16.7825 18.001 16.7825 18.2796 16.682L20.4311 15.9058C20.488 15.8853 20.5165 15.8347 20.5165 15.7842H15.1807C15.1807 15.8347 15.2091 15.8853 15.2661 15.9058Z" fill="url(#paint78_linear_29_35279)"/>
<path d="M17.4175 14.8857L15.2661 15.6619C15.1522 15.703 15.1522 15.8641 15.2661 15.9052L17.4175 16.6814C17.5591 16.7325 17.7075 16.7574 17.8558 16.7566V14.8106C17.7075 14.8097 17.5591 14.8347 17.4175 14.8857Z" fill="url(#paint79_linear_29_35279)"/>
<path d="M15.2661 15.6621C15.1522 15.7032 15.1522 15.8643 15.2661 15.9054L17.4175 16.6816C17.5568 16.7318 17.7027 16.7569 17.8486 16.7569V14.8105C17.7027 14.8105 17.5568 14.8357 17.4175 14.8859L15.2661 15.6621Z" fill="url(#paint80_linear_29_35279)"/>
<path d="M3.56885 15.9054L5.72028 16.6816C5.99887 16.7821 6.30381 16.7821 6.5824 16.6816L8.73383 15.9054C8.84776 15.8643 8.84776 15.7032 8.73383 15.6621L6.5824 14.8859C6.30381 14.7854 5.99887 14.7854 5.72028 14.8859L3.56885 15.6621C3.45492 15.7032 3.45492 15.8643 3.56885 15.9054Z" fill="url(#paint81_linear_29_35279)"/>
<path d="M8.73375 15.6621L6.58232 14.8859C6.30373 14.7854 5.99879 14.7854 5.7202 14.8859L3.56881 15.6621C3.51187 15.6827 3.4834 15.7332 3.4834 15.7838H8.81916C8.81916 15.7332 8.79069 15.6827 8.73375 15.6621Z" fill="url(#paint82_linear_29_35279)"/>
<path d="M6.58274 16.6815L8.73418 15.9053C8.84811 15.8642 8.84811 15.7031 8.73418 15.662L6.58274 14.8858C6.44119 14.8348 6.29281 14.8098 6.14453 14.8106V16.7566C6.29281 16.7575 6.44119 16.7325 6.58274 16.6815Z" fill="url(#paint83_linear_29_35279)"/>
<path d="M8.73386 15.9054C8.84779 15.8643 8.84779 15.7032 8.73386 15.6621L6.58243 14.8859C6.44313 14.8357 6.29725 14.8105 6.15137 14.8105V16.7569C6.29725 16.7569 6.44313 16.7318 6.58243 16.6816L8.73386 15.9054Z" fill="url(#paint84_linear_29_35279)"/>
<path d="M15.8493 8.28194L14.1542 9.81738C13.9348 10.0162 13.7916 10.2855 13.7496 10.5787L13.4253 12.8427C13.4081 12.9626 13.5503 13.0382 13.6401 12.9569L15.3352 11.4215C15.5547 11.2227 15.6978 10.9534 15.7398 10.6602L16.0642 8.39616C16.0814 8.27625 15.9391 8.20063 15.8493 8.28194Z" fill="url(#paint85_linear_29_35279)"/>
<path d="M13.6398 12.9569L15.3349 11.4215C15.5544 11.2227 15.6975 10.9534 15.7395 10.6602L16.0639 8.39619C16.0725 8.33624 16.0412 8.28739 15.9965 8.26367L13.4922 12.9753C13.5369 12.999 13.5949 12.9976 13.6398 12.9569Z" fill="url(#paint86_linear_29_35279)"/>
<path d="M13.7496 10.5785L13.4253 12.8425C13.4081 12.9624 13.5503 13.038 13.6401 12.9567L15.3352 11.4213C15.4467 11.3203 15.5384 11.201 15.6073 11.0696L13.8889 10.1562C13.8185 10.2867 13.7709 10.4295 13.7496 10.5785Z" fill="url(#paint87_linear_29_35279)"/>
<path d="M13.4253 12.8431C13.4081 12.9629 13.5503 13.0386 13.6401 12.9573L15.3352 11.4219C15.4449 11.3224 15.5356 11.2054 15.6041 11.0766L13.8854 10.1631C13.8169 10.2919 13.7707 10.4325 13.7496 10.5791L13.4253 12.8431Z" fill="url(#paint88_linear_29_35279)"/>
<path d="M8.14985 23.286L9.84495 21.7505C10.0644 21.5517 10.2076 21.2825 10.2496 20.9893L10.5739 18.7252C10.5911 18.6054 10.4489 18.5297 10.3591 18.611L8.66401 20.1465C8.44453 20.3454 8.30138 20.6146 8.2594 20.9078L7.93502 23.1719C7.9178 23.2917 8.06006 23.3673 8.14985 23.286Z" fill="url(#paint89_linear_29_35279)"/>
<path d="M10.3592 18.611L8.664 20.1465C8.44452 20.3453 8.30136 20.6146 8.25939 20.9078L7.93501 23.1718C7.92645 23.2318 7.95769 23.2806 8.00235 23.3044L10.5067 18.5927C10.462 18.569 10.404 18.5704 10.3592 18.611Z" fill="url(#paint90_linear_29_35279)"/>
<path d="M10.2492 20.9893L10.5736 18.7252C10.5908 18.6054 10.4485 18.5297 10.3588 18.611L8.6637 20.1465C8.55217 20.2476 8.46045 20.3669 8.3916 20.4982L10.11 21.4116C10.1804 21.281 10.2279 21.1383 10.2492 20.9893Z" fill="url(#paint91_linear_29_35279)"/>
<path d="M10.5744 18.7252C10.5916 18.6054 10.4493 18.5297 10.3596 18.611L8.6644 20.1465C8.55466 20.2459 8.46398 20.3629 8.39551 20.4918L10.1142 21.4053C10.1827 21.2765 10.2289 21.1359 10.25 20.9893L10.5744 18.7252Z" fill="url(#paint92_linear_29_35279)"/>
<path d="M8.14985 8.28194L9.84495 9.81738C10.0644 10.0162 10.2076 10.2855 10.2496 10.5787L10.5739 12.8427C10.5911 12.9626 10.4489 13.0382 10.3591 12.9569L8.66401 11.4215C8.44453 11.2227 8.30138 10.9534 8.2594 10.6602L7.93502 8.39616C7.9178 8.27625 8.06006 8.20063 8.14985 8.28194Z" fill="url(#paint93_linear_29_35279)"/>
<path d="M10.3591 12.9569L8.664 11.4215C8.44452 11.2227 8.30136 10.9534 8.25939 10.6602L7.93501 8.39619C7.92645 8.33624 7.95769 8.28739 8.00235 8.26367L10.5067 12.9753C10.462 12.999 10.404 12.9976 10.3591 12.9569Z" fill="url(#paint94_linear_29_35279)"/>
<path d="M10.2492 10.5785L10.5736 12.8425C10.5908 12.9624 10.4485 13.038 10.3588 12.9567L8.6637 11.4213C8.55217 11.3203 8.46045 11.201 8.3916 11.0696L10.11 10.1562C10.1804 10.2867 10.2279 10.4295 10.2492 10.5785Z" fill="url(#paint95_linear_29_35279)"/>
<path d="M10.5743 12.8431C10.5915 12.9629 10.4492 13.0386 10.3595 12.9573L8.6644 11.4219C8.55466 11.3224 8.46398 11.2054 8.39551 11.0766L10.1142 10.1631C10.1827 10.2919 10.2289 10.4325 10.25 10.5791L10.5743 12.8431Z" fill="url(#paint96_linear_29_35279)"/>
<path d="M15.8493 23.286L14.1542 21.7505C13.9348 21.5517 13.7916 21.2825 13.7496 20.9893L13.4253 18.7252C13.4081 18.6054 13.5503 18.5297 13.6401 18.611L15.3352 20.1465C15.5547 20.3453 15.6978 20.6145 15.7398 20.9077L16.0642 23.1718C16.0814 23.2917 15.9391 23.3673 15.8493 23.286Z" fill="url(#paint97_linear_29_35279)"/>
<path d="M13.6398 18.611L15.3349 20.1465C15.5544 20.3453 15.6975 20.6146 15.7395 20.9077L16.0639 23.1718C16.0725 23.2317 16.0412 23.2806 15.9965 23.3043L13.4922 18.5927C13.5369 18.569 13.5949 18.5704 13.6398 18.611Z" fill="url(#paint98_linear_29_35279)"/>
<path d="M13.7496 20.9893L13.4253 18.7252C13.4081 18.6054 13.5503 18.5297 13.6401 18.611L15.3352 20.1465C15.4467 20.2475 15.5384 20.3668 15.6073 20.4981L13.8889 21.4115C13.8185 21.281 13.7709 21.1383 13.7496 20.9893Z" fill="url(#paint99_linear_29_35279)"/>
<path d="M13.4253 18.7252C13.4081 18.6054 13.5503 18.5297 13.6401 18.611L15.3352 20.1465C15.4449 20.2458 15.5356 20.3629 15.6041 20.4917L13.8854 21.4052C13.8169 21.2764 13.7707 21.1358 13.7496 20.9892L13.4253 18.7252Z" fill="url(#paint100_linear_29_35279)"/>
<path d="M1.49774 21.0814C2.32492 21.0814 2.99548 20.4109 2.99548 19.5837C2.99548 18.7565 2.32492 18.0859 1.49774 18.0859C0.670562 18.0859 0 18.7565 0 19.5837C0 20.4109 0.670562 21.0814 1.49774 21.0814Z" fill="url(#paint101_linear_29_35279)"/>
<path d="M3.16773 16.2935C3.74577 16.2935 4.21436 15.8249 4.21436 15.2468C4.21436 14.6688 3.74577 14.2002 3.16773 14.2002C2.58969 14.2002 2.12109 14.6688 2.12109 15.2468C2.12109 15.8249 2.58969 16.2935 3.16773 16.2935Z" fill="url(#paint102_linear_29_35279)"/>
<path d="M22.7654 20.1196C23.3434 20.1196 23.812 19.651 23.812 19.073C23.812 18.495 23.3434 18.0264 22.7654 18.0264C22.1873 18.0264 21.7188 18.495 21.7188 19.073C21.7188 19.651 22.1873 20.1196 22.7654 20.1196Z" fill="url(#paint103_linear_29_35279)"/>
<path d="M19.1013 23.9995C19.6794 23.9995 20.148 23.5309 20.148 22.9529C20.148 22.3748 19.6794 21.9062 19.1013 21.9062C18.5233 21.9062 18.0547 22.3748 18.0547 22.9529C18.0547 23.5309 18.5233 23.9995 19.1013 23.9995Z" fill="url(#paint104_linear_29_35279)"/>
<path d="M6.14429 23.439C6.72233 23.439 7.19093 22.9704 7.19093 22.3923C7.19093 21.8143 6.72233 21.3457 6.14429 21.3457C5.56625 21.3457 5.09766 21.8143 5.09766 22.3923C5.09766 22.9704 5.56625 23.439 6.14429 23.439Z" fill="url(#paint105_linear_29_35279)"/>
</g>
<defs>
<linearGradient id="paint0_linear_29_35279" x1="19.8571" y1="14.9108" x2="21.1121" y2="16.1658" gradientUnits="userSpaceOnUse">
<stop stop-color="#EAF9FA"/>
<stop offset="1" stop-color="#B3DAFE"/>
</linearGradient>
<linearGradient id="paint1_linear_29_35279" x1="9.21153" y1="3.36927" x2="16.8351" y2="18.2399" gradientUnits="userSpaceOnUse">
<stop stop-color="#EAF9FA"/>
<stop offset="1" stop-color="#B3DAFE"/>
</linearGradient>
<linearGradient id="paint2_linear_29_35279" x1="11.6109" y1="4.04922" x2="14.6698" y2="2.26099" gradientUnits="userSpaceOnUse">
<stop stop-color="#B3DAFE" stop-opacity="0"/>
<stop offset="0.2438" stop-color="#ACD5FA" stop-opacity="0.244"/>
<stop offset="0.589" stop-color="#9AC5F0" stop-opacity="0.589"/>
<stop offset="0.9932" stop-color="#7CACDF" stop-opacity="0.993"/>
<stop offset="1" stop-color="#7BACDF"/>
</linearGradient>
<linearGradient id="paint3_linear_29_35279" x1="15.5643" y1="4.09949" x2="18.1525" y2="2.92302" gradientUnits="userSpaceOnUse">
<stop stop-color="#B3DAFE" stop-opacity="0"/>
<stop offset="0.2438" stop-color="#ACD5FA" stop-opacity="0.244"/>
<stop offset="0.589" stop-color="#9AC5F0" stop-opacity="0.589"/>
<stop offset="0.9932" stop-color="#7CACDF" stop-opacity="0.993"/>
<stop offset="1" stop-color="#7BACDF"/>
</linearGradient>
<linearGradient id="paint4_linear_29_35279" x1="12" y1="10.2527" x2="12" y2="14.1657" gradientUnits="userSpaceOnUse">
<stop stop-color="#B3DAFE" stop-opacity="0"/>
<stop offset="0.2438" stop-color="#ACD5FA" stop-opacity="0.244"/>
<stop offset="0.589" stop-color="#9AC5F0" stop-opacity="0.589"/>
<stop offset="0.9932" stop-color="#7CACDF" stop-opacity="0.993"/>
<stop offset="1" stop-color="#7BACDF"/>
</linearGradient>
<linearGradient id="paint5_linear_29_35279" x1="8.93101" y1="14.1024" x2="6.1663" y2="12.0788" gradientUnits="userSpaceOnUse">
<stop stop-color="#B3DAFE" stop-opacity="0"/>
<stop offset="0.2438" stop-color="#ACD5FA" stop-opacity="0.244"/>
<stop offset="0.589" stop-color="#9AC5F0" stop-opacity="0.589"/>
<stop offset="0.9932" stop-color="#7CACDF" stop-opacity="0.993"/>
<stop offset="1" stop-color="#7BACDF"/>
</linearGradient>
<linearGradient id="paint6_linear_29_35279" x1="11.8303" y1="11.8025" x2="10.0421" y2="11.8809" gradientUnits="userSpaceOnUse">
<stop stop-color="#B3DAFE" stop-opacity="0"/>
<stop offset="0.2438" stop-color="#ACD5FA" stop-opacity="0.244"/>
<stop offset="0.589" stop-color="#9AC5F0" stop-opacity="0.589"/>
<stop offset="0.9932" stop-color="#7CACDF" stop-opacity="0.993"/>
<stop offset="1" stop-color="#7BACDF"/>
</linearGradient>
<linearGradient id="paint7_linear_29_35279" x1="15.188" y1="11.9531" x2="11.8782" y2="10.9649" gradientUnits="userSpaceOnUse">
<stop stop-color="#B3DAFE" stop-opacity="0"/>
<stop offset="0.2438" stop-color="#ACD5FA" stop-opacity="0.244"/>
<stop offset="0.589" stop-color="#9AC5F0" stop-opacity="0.589"/>
<stop offset="0.9932" stop-color="#7CACDF" stop-opacity="0.993"/>
<stop offset="1" stop-color="#7BACDF"/>
</linearGradient>
<linearGradient id="paint8_linear_29_35279" x1="17.2743" y1="12.0974" x2="14.8508" y2="10.8739" gradientUnits="userSpaceOnUse">
<stop stop-color="#B3DAFE" stop-opacity="0"/>
<stop offset="0.2438" stop-color="#ACD5FA" stop-opacity="0.244"/>
<stop offset="0.589" stop-color="#9AC5F0" stop-opacity="0.589"/>
<stop offset="0.9932" stop-color="#7CACDF" stop-opacity="0.993"/>
<stop offset="1" stop-color="#7BACDF"/>
</linearGradient>
<linearGradient id="paint9_linear_29_35279" x1="18.7795" y1="14.6996" x2="17.4618" y2="12.7467" gradientUnits="userSpaceOnUse">
<stop stop-color="#B3DAFE" stop-opacity="0"/>
<stop offset="0.2438" stop-color="#ACD5FA" stop-opacity="0.244"/>
<stop offset="0.589" stop-color="#9AC5F0" stop-opacity="0.589"/>
<stop offset="0.9932" stop-color="#7CACDF" stop-opacity="0.993"/>
<stop offset="1" stop-color="#7BACDF"/>
</linearGradient>
<linearGradient id="paint10_linear_29_35279" x1="12.0002" y1="9.68141" x2="12.0002" y2="10.8583" gradientUnits="userSpaceOnUse">
<stop stop-color="#D5DAF3"/>
<stop offset="1" stop-color="#60B7FF"/>
</linearGradient>
<linearGradient id="paint11_linear_29_35279" x1="12.6927" y1="10.0989" x2="12.1245" y2="10.299" gradientUnits="userSpaceOnUse">
<stop stop-color="#6C7FD8" stop-opacity="0"/>
<stop offset="0.9666" stop-color="#6C7FD8" stop-opacity="0.967"/>
<stop offset="1" stop-color="#6C7FD8"/>
</linearGradient>
<linearGradient id="paint12_linear_29_35279" x1="11.7439" y1="12.075" x2="12.2813" y2="12.075" gradientUnits="userSpaceOnUse">
<stop stop-color="#D5DAF3"/>
<stop offset="1" stop-color="#60B7FF"/>
</linearGradient>
<linearGradient id="paint13_linear_29_35279" x1="11.9999" y1="10.2177" x2="11.9999" y2="9.66973" gradientUnits="userSpaceOnUse">
<stop stop-color="#6C7FD8" stop-opacity="0"/>
<stop offset="0.9666" stop-color="#6C7FD8" stop-opacity="0.967"/>
<stop offset="1" stop-color="#6C7FD8"/>
</linearGradient>
<linearGradient id="paint14_linear_29_35279" x1="11.5797" y1="8.29354" x2="12.5892" y2="9.30305" gradientUnits="userSpaceOnUse">
<stop stop-color="#EAF9FA"/>
<stop offset="1" stop-color="#B3DAFE"/>
</linearGradient>
<linearGradient id="paint15_linear_29_35279" x1="11.7843" y1="8.92375" x2="11.2882" y2="9.40389" gradientUnits="userSpaceOnUse">
<stop stop-color="#B3DAFE" stop-opacity="0"/>
<stop offset="0.2769" stop-color="#AFD7FC" stop-opacity="0.277"/>
<stop offset="0.5367" stop-color="#A4CEF6" stop-opacity="0.537"/>
<stop offset="0.7888" stop-color="#91BEEB" stop-opacity="0.789"/>
<stop offset="1" stop-color="#7BACDF"/>
</linearGradient>
<linearGradient id="paint16_linear_29_35279" x1="12.2169" y1="8.92375" x2="12.713" y2="9.40389" gradientUnits="userSpaceOnUse">
<stop stop-color="#B3DAFE" stop-opacity="0"/>
<stop offset="0.2769" stop-color="#AFD7FC" stop-opacity="0.277"/>
<stop offset="0.5367" stop-color="#A4CEF6" stop-opacity="0.537"/>
<stop offset="0.7888" stop-color="#91BEEB" stop-opacity="0.789"/>
<stop offset="1" stop-color="#7BACDF"/>
</linearGradient>
<linearGradient id="paint17_linear_29_35279" x1="12.4093" y1="9.22802" x2="11.731" y2="9.0643" gradientUnits="userSpaceOnUse">
<stop stop-color="#B3DAFE" stop-opacity="0"/>
<stop offset="0.2769" stop-color="#AFD7FC" stop-opacity="0.277"/>
<stop offset="0.5367" stop-color="#A4CEF6" stop-opacity="0.537"/>
<stop offset="0.7888" stop-color="#91BEEB" stop-opacity="0.789"/>
<stop offset="1" stop-color="#7BACDF"/>
</linearGradient>
<linearGradient id="paint18_linear_29_35279" x1="12.0002" y1="21.8861" x2="12.0002" y2="20.7092" gradientUnits="userSpaceOnUse">
<stop stop-color="#D5DAF3"/>
<stop offset="1" stop-color="#60B7FF"/>
</linearGradient>
<linearGradient id="paint19_linear_29_35279" x1="11.3075" y1="21.4686" x2="11.8757" y2="21.2685" gradientUnits="userSpaceOnUse">
<stop stop-color="#6C7FD8" stop-opacity="0"/>
<stop offset="0.9666" stop-color="#6C7FD8" stop-opacity="0.967"/>
<stop offset="1" stop-color="#6C7FD8"/>
</linearGradient>
<linearGradient id="paint20_linear_29_35279" x1="12.2558" y1="19.493" x2="11.7184" y2="19.493" gradientUnits="userSpaceOnUse">
<stop stop-color="#D5DAF3"/>
<stop offset="1" stop-color="#60B7FF"/>
</linearGradient>
<linearGradient id="paint21_linear_29_35279" x1="11.9999" y1="21.3498" x2="11.9999" y2="21.8978" gradientUnits="userSpaceOnUse">
<stop stop-color="#6C7FD8" stop-opacity="0"/>
<stop offset="0.9666" stop-color="#6C7FD8" stop-opacity="0.967"/>
<stop offset="1" stop-color="#6C7FD8"/>
</linearGradient>
<linearGradient id="paint22_linear_29_35279" x1="12.4205" y1="23.274" x2="11.4111" y2="22.2646" gradientUnits="userSpaceOnUse">
<stop stop-color="#EAF9FA"/>
<stop offset="1" stop-color="#B3DAFE"/>
</linearGradient>
<linearGradient id="paint23_linear_29_35279" x1="12.2159" y1="22.6439" x2="12.712" y2="22.1637" gradientUnits="userSpaceOnUse">
<stop stop-color="#B3DAFE" stop-opacity="0"/>
<stop offset="0.2769" stop-color="#AFD7FC" stop-opacity="0.277"/>
<stop offset="0.5367" stop-color="#A4CEF6" stop-opacity="0.537"/>
<stop offset="0.7888" stop-color="#91BEEB" stop-opacity="0.789"/>
<stop offset="1" stop-color="#7BACDF"/>
</linearGradient>
<linearGradient id="paint24_linear_29_35279" x1="11.7834" y1="22.6439" x2="11.2872" y2="22.1637" gradientUnits="userSpaceOnUse">
<stop stop-color="#B3DAFE" stop-opacity="0"/>
<stop offset="0.2769" stop-color="#AFD7FC" stop-opacity="0.277"/>
<stop offset="0.5367" stop-color="#A4CEF6" stop-opacity="0.537"/>
<stop offset="0.7888" stop-color="#91BEEB" stop-opacity="0.789"/>
<stop offset="1" stop-color="#7BACDF"/>
</linearGradient>
<linearGradient id="paint25_linear_29_35279" x1="11.5915" y1="22.3398" x2="12.2698" y2="22.5035" gradientUnits="userSpaceOnUse">
<stop stop-color="#B3DAFE" stop-opacity="0"/>
<stop offset="0.2769" stop-color="#AFD7FC" stop-opacity="0.277"/>
<stop offset="0.5367" stop-color="#A4CEF6" stop-opacity="0.537"/>
<stop offset="0.7888" stop-color="#91BEEB" stop-opacity="0.789"/>
<stop offset="1" stop-color="#7BACDF"/>
</linearGradient>
<linearGradient id="paint26_linear_29_35279" x1="17.1727" y1="12.5473" x2="16.1747" y2="13.171" gradientUnits="userSpaceOnUse">
<stop stop-color="#D5DAF3"/>
<stop offset="1" stop-color="#60B7FF"/>
</linearGradient>
<linearGradient id="paint27_linear_29_35279" x1="17.1859" y1="13.3568" x2="16.7151" y2="12.981" gradientUnits="userSpaceOnUse">
<stop stop-color="#6C7FD8" stop-opacity="0"/>
<stop offset="0.9666" stop-color="#6C7FD8" stop-opacity="0.967"/>
<stop offset="1" stop-color="#6C7FD8"/>
</linearGradient>
<linearGradient id="paint28_linear_29_35279" x1="15.0073" y1="13.5996" x2="15.2921" y2="14.0553" gradientUnits="userSpaceOnUse">
<stop stop-color="#D5DAF3"/>
<stop offset="1" stop-color="#60B7FF"/>
</linearGradient>
<linearGradient id="paint29_linear_29_35279" x1="16.7176" y1="12.8323" x2="17.1822" y2="12.5419" gradientUnits="userSpaceOnUse">
<stop stop-color="#6C7FD8" stop-opacity="0"/>
<stop offset="0.9666" stop-color="#6C7FD8" stop-opacity="0.967"/>
<stop offset="1" stop-color="#6C7FD8"/>
</linearGradient>
<linearGradient id="paint30_linear_29_35279" x1="18.1263" y1="11.4554" x2="17.8053" y2="12.8465" gradientUnits="userSpaceOnUse">
<stop stop-color="#EAF9FA"/>
<stop offset="1" stop-color="#B3DAFE"/>
</linearGradient>
<linearGradient id="paint31_linear_29_35279" x1="17.7004" y1="11.9629" x2="17.0302" y2="11.7966" gradientUnits="userSpaceOnUse">
<stop stop-color="#B3DAFE" stop-opacity="0"/>
<stop offset="0.2769" stop-color="#AFD7FC" stop-opacity="0.277"/>
<stop offset="0.5367" stop-color="#A4CEF6" stop-opacity="0.537"/>
<stop offset="0.7888" stop-color="#91BEEB" stop-opacity="0.789"/>
<stop offset="1" stop-color="#7BACDF"/>
</linearGradient>
<linearGradient id="paint32_linear_29_35279" x1="17.9358" y1="12.326" x2="17.7916" y2="13.0013" gradientUnits="userSpaceOnUse">
<stop stop-color="#B3DAFE" stop-opacity="0"/>
<stop offset="0.2769" stop-color="#AFD7FC" stop-opacity="0.277"/>
<stop offset="0.5367" stop-color="#A4CEF6" stop-opacity="0.537"/>
<stop offset="0.7888" stop-color="#91BEEB" stop-opacity="0.789"/>
<stop offset="1" stop-color="#7BACDF"/>
</linearGradient>
<linearGradient id="paint33_linear_29_35279" x1="17.7733" y1="12.654" x2="17.5527" y2="11.9921" gradientUnits="userSpaceOnUse">
<stop stop-color="#B3DAFE" stop-opacity="0"/>
<stop offset="0.2769" stop-color="#AFD7FC" stop-opacity="0.277"/>
<stop offset="0.5367" stop-color="#A4CEF6" stop-opacity="0.537"/>
<stop offset="0.7888" stop-color="#91BEEB" stop-opacity="0.789"/>
<stop offset="1" stop-color="#7BACDF"/>
</linearGradient>
<linearGradient id="paint34_linear_29_35279" x1="6.82681" y1="19.01" x2="7.82477" y2="18.3863" gradientUnits="userSpaceOnUse">
<stop stop-color="#D5DAF3"/>
<stop offset="1" stop-color="#60B7FF"/>
</linearGradient>
<linearGradient id="paint35_linear_29_35279" x1="6.81373" y1="18.2014" x2="7.28451" y2="18.5772" gradientUnits="userSpaceOnUse">
<stop stop-color="#6C7FD8" stop-opacity="0"/>
<stop offset="0.9666" stop-color="#6C7FD8" stop-opacity="0.967"/>
<stop offset="1" stop-color="#6C7FD8"/>
</linearGradient>
<linearGradient id="paint36_linear_29_35279" x1="8.99235" y1="17.9582" x2="8.70757" y2="17.5026" gradientUnits="userSpaceOnUse">
<stop stop-color="#D5DAF3"/>
<stop offset="1" stop-color="#60B7FF"/>
</linearGradient>
<linearGradient id="paint37_linear_29_35279" x1="7.28173" y1="18.7252" x2="6.81707" y2="19.0156" gradientUnits="userSpaceOnUse">
<stop stop-color="#6C7FD8" stop-opacity="0"/>
<stop offset="0.9666" stop-color="#6C7FD8" stop-opacity="0.967"/>
<stop offset="1" stop-color="#6C7FD8"/>
</linearGradient>
<linearGradient id="paint38_linear_29_35279" x1="5.87346" y1="20.1021" x2="6.19448" y2="18.711" gradientUnits="userSpaceOnUse">
<stop stop-color="#EAF9FA"/>
<stop offset="1" stop-color="#B3DAFE"/>
</linearGradient>
<linearGradient id="paint39_linear_29_35279" x1="6.29941" y1="19.5945" x2="6.96955" y2="19.7608" gradientUnits="userSpaceOnUse">
<stop stop-color="#B3DAFE" stop-opacity="0"/>
<stop offset="0.2769" stop-color="#AFD7FC" stop-opacity="0.277"/>
<stop offset="0.5367" stop-color="#A4CEF6" stop-opacity="0.537"/>
<stop offset="0.7888" stop-color="#91BEEB" stop-opacity="0.789"/>
<stop offset="1" stop-color="#7BACDF"/>
</linearGradient>
<linearGradient id="paint40_linear_29_35279" x1="6.06401" y1="19.2314" x2="6.20819" y2="18.5562" gradientUnits="userSpaceOnUse">
<stop stop-color="#B3DAFE" stop-opacity="0"/>
<stop offset="0.2769" stop-color="#AFD7FC" stop-opacity="0.277"/>
<stop offset="0.5367" stop-color="#A4CEF6" stop-opacity="0.537"/>
<stop offset="0.7888" stop-color="#91BEEB" stop-opacity="0.789"/>
<stop offset="1" stop-color="#7BACDF"/>
</linearGradient>
<linearGradient id="paint41_linear_29_35279" x1="6.22574" y1="18.904" x2="6.44638" y2="19.5659" gradientUnits="userSpaceOnUse">
<stop stop-color="#B3DAFE" stop-opacity="0"/>
<stop offset="0.2769" stop-color="#AFD7FC" stop-opacity="0.277"/>
<stop offset="0.5367" stop-color="#A4CEF6" stop-opacity="0.537"/>
<stop offset="0.7888" stop-color="#91BEEB" stop-opacity="0.789"/>
<stop offset="1" stop-color="#7BACDF"/>
</linearGradient>
<linearGradient id="paint42_linear_29_35279" x1="6.8267" y1="12.5567" x2="7.82466" y2="13.1805" gradientUnits="userSpaceOnUse">
<stop stop-color="#D5DAF3"/>
<stop offset="1" stop-color="#60B7FF"/>
</linearGradient>
<linearGradient id="paint43_linear_29_35279" x1="6.81359" y1="13.3662" x2="7.28441" y2="12.9904" gradientUnits="userSpaceOnUse">
<stop stop-color="#6C7FD8" stop-opacity="0"/>
<stop offset="0.9666" stop-color="#6C7FD8" stop-opacity="0.967"/>
<stop offset="1" stop-color="#6C7FD8"/>
</linearGradient>
<linearGradient id="paint44_linear_29_35279" x1="8.99228" y1="13.6091" x2="8.70748" y2="14.0647" gradientUnits="userSpaceOnUse">
<stop stop-color="#D5DAF3"/>
<stop offset="1" stop-color="#60B7FF"/>
</linearGradient>
<linearGradient id="paint45_linear_29_35279" x1="7.28162" y1="12.8417" x2="6.817" y2="12.5513" gradientUnits="userSpaceOnUse">
<stop stop-color="#6C7FD8" stop-opacity="0"/>
<stop offset="0.9666" stop-color="#6C7FD8" stop-opacity="0.967"/>
<stop offset="1" stop-color="#6C7FD8"/>
</linearGradient>
<linearGradient id="paint46_linear_29_35279" x1="5.87333" y1="11.4648" x2="6.19437" y2="12.8558" gradientUnits="userSpaceOnUse">
<stop stop-color="#EAF9FA"/>
<stop offset="1" stop-color="#B3DAFE"/>
</linearGradient>
<linearGradient id="paint47_linear_29_35279" x1="6.2993" y1="11.9723" x2="6.96942" y2="11.8061" gradientUnits="userSpaceOnUse">
<stop stop-color="#B3DAFE" stop-opacity="0"/>
<stop offset="0.2769" stop-color="#AFD7FC" stop-opacity="0.277"/>
<stop offset="0.5367" stop-color="#A4CEF6" stop-opacity="0.537"/>
<stop offset="0.7888" stop-color="#91BEEB" stop-opacity="0.789"/>
<stop offset="1" stop-color="#7BACDF"/>
</linearGradient>
<linearGradient id="paint48_linear_29_35279" x1="6.06388" y1="12.3354" x2="6.20808" y2="13.0106" gradientUnits="userSpaceOnUse">
<stop stop-color="#B3DAFE" stop-opacity="0"/>
<stop offset="0.2769" stop-color="#AFD7FC" stop-opacity="0.277"/>
<stop offset="0.5367" stop-color="#A4CEF6" stop-opacity="0.537"/>
<stop offset="0.7888" stop-color="#91BEEB" stop-opacity="0.789"/>
<stop offset="1" stop-color="#7BACDF"/>
</linearGradient>
<linearGradient id="paint49_linear_29_35279" x1="6.22662" y1="12.6634" x2="6.44727" y2="12.0015" gradientUnits="userSpaceOnUse">
<stop stop-color="#B3DAFE" stop-opacity="0"/>
<stop offset="0.2769" stop-color="#AFD7FC" stop-opacity="0.277"/>
<stop offset="0.5367" stop-color="#A4CEF6" stop-opacity="0.537"/>
<stop offset="0.7888" stop-color="#91BEEB" stop-opacity="0.789"/>
<stop offset="1" stop-color="#7BACDF"/>
</linearGradient>
<linearGradient id="paint50_linear_29_35279" x1="17.1726" y1="19.0194" x2="16.1746" y2="18.3957" gradientUnits="userSpaceOnUse">
<stop stop-color="#D5DAF3"/>
<stop offset="1" stop-color="#60B7FF"/>
</linearGradient>
<linearGradient id="paint51_linear_29_35279" x1="17.1858" y1="18.2108" x2="16.715" y2="18.5866" gradientUnits="userSpaceOnUse">
<stop stop-color="#6C7FD8" stop-opacity="0"/>
<stop offset="0.9666" stop-color="#6C7FD8" stop-opacity="0.967"/>
<stop offset="1" stop-color="#6C7FD8"/>
</linearGradient>
<linearGradient id="paint52_linear_29_35279" x1="15.0072" y1="17.9676" x2="15.292" y2="17.512" gradientUnits="userSpaceOnUse">
<stop stop-color="#D5DAF3"/>
<stop offset="1" stop-color="#60B7FF"/>
</linearGradient>
<linearGradient id="paint53_linear_29_35279" x1="16.7175" y1="18.7346" x2="17.1821" y2="19.025" gradientUnits="userSpaceOnUse">
<stop stop-color="#6C7FD8" stop-opacity="0"/>
<stop offset="0.9666" stop-color="#6C7FD8" stop-opacity="0.967"/>
<stop offset="1" stop-color="#6C7FD8"/>
</linearGradient>
<linearGradient id="paint54_linear_29_35279" x1="18.1262" y1="20.1115" x2="17.8052" y2="18.7204" gradientUnits="userSpaceOnUse">
<stop stop-color="#EAF9FA"/>
<stop offset="1" stop-color="#B3DAFE"/>
</linearGradient>
<linearGradient id="paint55_linear_29_35279" x1="17.7003" y1="19.6039" x2="17.0301" y2="19.7702" gradientUnits="userSpaceOnUse">
<stop stop-color="#B3DAFE" stop-opacity="0"/>
<stop offset="0.2769" stop-color="#AFD7FC" stop-opacity="0.277"/>
<stop offset="0.5367" stop-color="#A4CEF6" stop-opacity="0.537"/>
<stop offset="0.7888" stop-color="#91BEEB" stop-opacity="0.789"/>
<stop offset="1" stop-color="#7BACDF"/>
</linearGradient>
<linearGradient id="paint56_linear_29_35279" x1="17.9357" y1="19.2408" x2="17.7914" y2="18.5656" gradientUnits="userSpaceOnUse">
<stop stop-color="#B3DAFE" stop-opacity="0"/>
<stop offset="0.2769" stop-color="#AFD7FC" stop-opacity="0.277"/>
<stop offset="0.5367" stop-color="#A4CEF6" stop-opacity="0.537"/>
<stop offset="0.7888" stop-color="#91BEEB" stop-opacity="0.789"/>
<stop offset="1" stop-color="#7BACDF"/>
</linearGradient>
<linearGradient id="paint57_linear_29_35279" x1="17.7732" y1="18.9134" x2="17.5525" y2="19.5753" gradientUnits="userSpaceOnUse">
<stop stop-color="#B3DAFE" stop-opacity="0"/>
<stop offset="0.2769" stop-color="#AFD7FC" stop-opacity="0.277"/>
<stop offset="0.5367" stop-color="#A4CEF6" stop-opacity="0.537"/>
<stop offset="0.7888" stop-color="#91BEEB" stop-opacity="0.789"/>
<stop offset="1" stop-color="#7BACDF"/>
</linearGradient>
<linearGradient id="paint58_linear_29_35279" x1="11.3353" y1="13.0876" x2="12.735" y2="14.1692" gradientUnits="userSpaceOnUse">
<stop stop-color="#EAF9FA"/>
<stop offset="1" stop-color="#B3DAFE"/>
</linearGradient>
<linearGradient id="paint59_linear_29_35279" x1="12.3644" y1="13.6723" x2="11.6168" y2="13.5769" gradientUnits="userSpaceOnUse">
<stop stop-color="#B3DAFE" stop-opacity="0"/>
<stop offset="0.2769" stop-color="#AFD7FC" stop-opacity="0.277"/>
<stop offset="0.5367" stop-color="#A4CEF6" stop-opacity="0.537"/>
<stop offset="0.7888" stop-color="#91BEEB" stop-opacity="0.789"/>
<stop offset="1" stop-color="#7BACDF"/>
</linearGradient>
<linearGradient id="paint60_linear_29_35279" x1="12" y1="14.05" x2="12" y2="15.1779" gradientUnits="userSpaceOnUse">
<stop stop-color="#6C7FD8" stop-opacity="0"/>
<stop offset="0.9666" stop-color="#6C7FD8" stop-opacity="0.967"/>
<stop offset="1" stop-color="#6C7FD8"/>
</linearGradient>
<linearGradient id="paint61_linear_29_35279" x1="12.665" y1="18.4791" x2="11.2653" y2="17.3975" gradientUnits="userSpaceOnUse">
<stop stop-color="#EAF9FA"/>
<stop offset="1" stop-color="#B3DAFE"/>
</linearGradient>
<linearGradient id="paint62_linear_29_35279" x1="11.6358" y1="17.8944" x2="12.3834" y2="17.9898" gradientUnits="userSpaceOnUse">
<stop stop-color="#B3DAFE" stop-opacity="0"/>
<stop offset="0.2769" stop-color="#AFD7FC" stop-opacity="0.277"/>
<stop offset="0.5367" stop-color="#A4CEF6" stop-opacity="0.537"/>
<stop offset="0.7888" stop-color="#91BEEB" stop-opacity="0.789"/>
<stop offset="1" stop-color="#7BACDF"/>
</linearGradient>
<linearGradient id="paint63_linear_29_35279" x1="12" y1="17.5162" x2="12" y2="16.3883" gradientUnits="userSpaceOnUse">
<stop stop-color="#6C7FD8" stop-opacity="0"/>
<stop offset="0.9666" stop-color="#6C7FD8" stop-opacity="0.967"/>
<stop offset="1" stop-color="#6C7FD8"/>
</linearGradient>
<linearGradient id="paint64_linear_29_35279" x1="13.9317" y1="13.7893" x2="13.7563" y2="15.5495" gradientUnits="userSpaceOnUse">
<stop stop-color="#EAF9FA"/>
<stop offset="1" stop-color="#B3DAFE"/>
</linearGradient>
<linearGradient id="paint65_linear_29_35279" x1="13.9813" y1="14.9722" x2="13.666" y2="14.2876" gradientUnits="userSpaceOnUse">
<stop stop-color="#B3DAFE" stop-opacity="0"/>
<stop offset="0.2769" stop-color="#AFD7FC" stop-opacity="0.277"/>
<stop offset="0.5367" stop-color="#A4CEF6" stop-opacity="0.537"/>
<stop offset="0.7888" stop-color="#91BEEB" stop-opacity="0.789"/>
<stop offset="1" stop-color="#7BACDF"/>
</linearGradient>
<linearGradient id="paint66_linear_29_35279" x1="13.4675" y1="14.8631" x2="12.5111" y2="15.4609" gradientUnits="userSpaceOnUse">
<stop stop-color="#6C7FD8" stop-opacity="0"/>
<stop offset="0.9666" stop-color="#6C7FD8" stop-opacity="0.967"/>
<stop offset="1" stop-color="#6C7FD8"/>
</linearGradient>
<linearGradient id="paint67_linear_29_35279" x1="10.0686" y1="17.7673" x2="10.2439" y2="16.007" gradientUnits="userSpaceOnUse">
<stop stop-color="#EAF9FA"/>
<stop offset="1" stop-color="#B3DAFE"/>
</linearGradient>
<linearGradient id="paint68_linear_29_35279" x1="10.019" y1="16.5846" x2="10.3343" y2="17.2691" gradientUnits="userSpaceOnUse">
<stop stop-color="#B3DAFE" stop-opacity="0"/>
<stop offset="0.2769" stop-color="#AFD7FC" stop-opacity="0.277"/>
<stop offset="0.5367" stop-color="#A4CEF6" stop-opacity="0.537"/>
<stop offset="0.7888" stop-color="#91BEEB" stop-opacity="0.789"/>
<stop offset="1" stop-color="#7BACDF"/>
</linearGradient>
<linearGradient id="paint69_linear_29_35279" x1="10.5328" y1="16.6931" x2="11.4893" y2="16.0953" gradientUnits="userSpaceOnUse">
<stop stop-color="#6C7FD8" stop-opacity="0"/>
<stop offset="0.9666" stop-color="#6C7FD8" stop-opacity="0.967"/>
<stop offset="1" stop-color="#6C7FD8"/>
</linearGradient>
<linearGradient id="paint70_linear_29_35279" x1="10.0685" y1="13.7987" x2="10.2438" y2="15.5589" gradientUnits="userSpaceOnUse">
<stop stop-color="#EAF9FA"/>
<stop offset="1" stop-color="#B3DAFE"/>
</linearGradient>
<linearGradient id="paint71_linear_29_35279" x1="10.0188" y1="14.9816" x2="10.3341" y2="14.2971" gradientUnits="userSpaceOnUse">
<stop stop-color="#B3DAFE" stop-opacity="0"/>
<stop offset="0.2769" stop-color="#AFD7FC" stop-opacity="0.277"/>
<stop offset="0.5367" stop-color="#A4CEF6" stop-opacity="0.537"/>
<stop offset="0.7888" stop-color="#91BEEB" stop-opacity="0.789"/>
<stop offset="1" stop-color="#7BACDF"/>
</linearGradient>
<linearGradient id="paint72_linear_29_35279" x1="10.5327" y1="14.8725" x2="11.4892" y2="15.4704" gradientUnits="userSpaceOnUse">
<stop stop-color="#6C7FD8" stop-opacity="0"/>
<stop offset="0.9666" stop-color="#6C7FD8" stop-opacity="0.967"/>
<stop offset="1" stop-color="#6C7FD8"/>
</linearGradient>
<linearGradient id="paint73_linear_29_35279" x1="13.9316" y1="17.7767" x2="13.7562" y2="16.0164" gradientUnits="userSpaceOnUse">
<stop stop-color="#EAF9FA"/>
<stop offset="1" stop-color="#B3DAFE"/>
</linearGradient>
<linearGradient id="paint74_linear_29_35279" x1="13.9812" y1="16.594" x2="13.6659" y2="17.2785" gradientUnits="userSpaceOnUse">
<stop stop-color="#B3DAFE" stop-opacity="0"/>
<stop offset="0.2769" stop-color="#AFD7FC" stop-opacity="0.277"/>
<stop offset="0.5367" stop-color="#A4CEF6" stop-opacity="0.537"/>
<stop offset="0.7888" stop-color="#91BEEB" stop-opacity="0.789"/>
<stop offset="1" stop-color="#7BACDF"/>
</linearGradient>
<linearGradient id="paint75_linear_29_35279" x1="13.4675" y1="16.7026" x2="12.5109" y2="16.1048" gradientUnits="userSpaceOnUse">
<stop stop-color="#6C7FD8" stop-opacity="0"/>
<stop offset="0.9666" stop-color="#6C7FD8" stop-opacity="0.967"/>
<stop offset="1" stop-color="#6C7FD8"/>
</linearGradient>
<linearGradient id="paint76_linear_29_35279" x1="11.5429" y1="15.3799" x2="13.5911" y2="17.4281" gradientUnits="userSpaceOnUse">
<stop stop-color="#D5DAF3"/>
<stop offset="1" stop-color="#60B7FF"/>
</linearGradient>
<linearGradient id="paint77_linear_29_35279" x1="18.4721" y1="14.9255" x2="17.4532" y2="16.3281" gradientUnits="userSpaceOnUse">
<stop stop-color="#D5DAF3"/>
<stop offset="1" stop-color="#60B7FF"/>
</linearGradient>
<linearGradient id="paint78_linear_29_35279" x1="17.7881" y1="16.2613" x2="17.9102" y2="15.3054" gradientUnits="userSpaceOnUse">
<stop stop-color="#6C7FD8" stop-opacity="0"/>
<stop offset="0.9666" stop-color="#6C7FD8" stop-opacity="0.967"/>
<stop offset="1" stop-color="#6C7FD8"/>
</linearGradient>
<linearGradient id="paint79_linear_29_35279" x1="17.0101" y1="15.6973" x2="16.3088" y2="16.4781" gradientUnits="userSpaceOnUse">
<stop stop-color="#6C7FD8" stop-opacity="0"/>
<stop offset="0.9666" stop-color="#6C7FD8" stop-opacity="0.967"/>
<stop offset="1" stop-color="#6C7FD8"/>
</linearGradient>
<linearGradient id="paint80_linear_29_35279" x1="17.5626" y1="15.7339" x2="18.1845" y2="15.8795" gradientUnits="userSpaceOnUse">
<stop stop-color="#6C7FD8" stop-opacity="0"/>
<stop offset="0.9666" stop-color="#6C7FD8" stop-opacity="0.967"/>
<stop offset="1" stop-color="#6C7FD8"/>
</linearGradient>
<linearGradient id="paint81_linear_29_35279" x1="5.52781" y1="16.6421" x2="6.54673" y2="15.2395" gradientUnits="userSpaceOnUse">
<stop stop-color="#D5DAF3"/>
<stop offset="1" stop-color="#60B7FF"/>
</linearGradient>
<linearGradient id="paint82_linear_29_35279" x1="6.21163" y1="15.3066" x2="6.08961" y2="16.2625" gradientUnits="userSpaceOnUse">
<stop stop-color="#6C7FD8" stop-opacity="0"/>
<stop offset="0.9666" stop-color="#6C7FD8" stop-opacity="0.967"/>
<stop offset="1" stop-color="#6C7FD8"/>
</linearGradient>
<linearGradient id="paint83_linear_29_35279" x1="6.99018" y1="15.8699" x2="7.6915" y2="15.0892" gradientUnits="userSpaceOnUse">
<stop stop-color="#6C7FD8" stop-opacity="0"/>
<stop offset="0.9666" stop-color="#6C7FD8" stop-opacity="0.967"/>
<stop offset="1" stop-color="#6C7FD8"/>
</linearGradient>
<linearGradient id="paint84_linear_29_35279" x1="6.43739" y1="15.8336" x2="5.81546" y2="15.688" gradientUnits="userSpaceOnUse">
<stop stop-color="#6C7FD8" stop-opacity="0"/>
<stop offset="0.9666" stop-color="#6C7FD8" stop-opacity="0.967"/>
<stop offset="1" stop-color="#6C7FD8"/>
</linearGradient>
<linearGradient id="paint85_linear_29_35279" x1="14.2772" y1="9.66038" x2="15.0379" y2="11.2179" gradientUnits="userSpaceOnUse">
<stop stop-color="#D5DAF3"/>
<stop offset="1" stop-color="#60B7FF"/>
</linearGradient>
<linearGradient id="paint86_linear_29_35279" x1="15.1354" y1="10.8906" x2="14.3486" y2="10.3345" gradientUnits="userSpaceOnUse">
<stop stop-color="#6C7FD8" stop-opacity="0"/>
<stop offset="0.9666" stop-color="#6C7FD8" stop-opacity="0.967"/>
<stop offset="1" stop-color="#6C7FD8"/>
</linearGradient>
<linearGradient id="paint87_linear_29_35279" x1="14.2733" y1="11.3132" x2="14.6338" y2="12.2986" gradientUnits="userSpaceOnUse">
<stop stop-color="#6C7FD8" stop-opacity="0"/>
<stop offset="0.9666" stop-color="#6C7FD8" stop-opacity="0.967"/>
<stop offset="1" stop-color="#6C7FD8"/>
</linearGradient>
<linearGradient id="paint88_linear_29_35279" x1="14.5647" y1="10.8431" x2="14.9849" y2="10.3622" gradientUnits="userSpaceOnUse">
<stop stop-color="#6C7FD8" stop-opacity="0"/>
<stop offset="0.9666" stop-color="#6C7FD8" stop-opacity="0.967"/>
<stop offset="1" stop-color="#6C7FD8"/>
</linearGradient>
<linearGradient id="paint89_linear_29_35279" x1="9.7027" y1="21.8765" x2="8.94202" y2="20.319" gradientUnits="userSpaceOnUse">
<stop stop-color="#D5DAF3"/>
<stop offset="1" stop-color="#60B7FF"/>
</linearGradient>
<linearGradient id="paint90_linear_29_35279" x1="8.84419" y1="20.6463" x2="9.631" y2="21.2024" gradientUnits="userSpaceOnUse">
<stop stop-color="#6C7FD8" stop-opacity="0"/>
<stop offset="0.9666" stop-color="#6C7FD8" stop-opacity="0.967"/>
<stop offset="1" stop-color="#6C7FD8"/>
</linearGradient>
<linearGradient id="paint91_linear_29_35279" x1="9.70629" y1="20.2235" x2="9.34582" y2="19.2381" gradientUnits="userSpaceOnUse">
<stop stop-color="#6C7FD8" stop-opacity="0"/>
<stop offset="0.9666" stop-color="#6C7FD8" stop-opacity="0.967"/>
<stop offset="1" stop-color="#6C7FD8"/>
</linearGradient>
<linearGradient id="paint92_linear_29_35279" x1="9.41566" y1="20.6942" x2="8.99546" y2="21.1751" gradientUnits="userSpaceOnUse">
<stop stop-color="#6C7FD8" stop-opacity="0"/>
<stop offset="0.9666" stop-color="#6C7FD8" stop-opacity="0.967"/>
<stop offset="1" stop-color="#6C7FD8"/>
</linearGradient>
<linearGradient id="paint93_linear_29_35279" x1="9.70446" y1="9.69024" x2="8.94378" y2="11.2477" gradientUnits="userSpaceOnUse">
<stop stop-color="#D5DAF3"/>
<stop offset="1" stop-color="#60B7FF"/>
</linearGradient>
<linearGradient id="paint94_linear_29_35279" x1="8.8459" y1="10.9205" x2="9.63278" y2="10.3644" gradientUnits="userSpaceOnUse">
<stop stop-color="#6C7FD8" stop-opacity="0"/>
<stop offset="0.9666" stop-color="#6C7FD8" stop-opacity="0.967"/>
<stop offset="1" stop-color="#6C7FD8"/>
</linearGradient>
<linearGradient id="paint95_linear_29_35279" x1="9.70805" y1="11.3431" x2="9.34761" y2="12.3285" gradientUnits="userSpaceOnUse">
<stop stop-color="#6C7FD8" stop-opacity="0"/>
<stop offset="0.9666" stop-color="#6C7FD8" stop-opacity="0.967"/>
<stop offset="1" stop-color="#6C7FD8"/>
</linearGradient>
<linearGradient id="paint96_linear_29_35279" x1="9.41738" y1="10.8729" x2="8.99717" y2="10.392" gradientUnits="userSpaceOnUse">
<stop stop-color="#6C7FD8" stop-opacity="0"/>
<stop offset="0.9666" stop-color="#6C7FD8" stop-opacity="0.967"/>
<stop offset="1" stop-color="#6C7FD8"/>
</linearGradient>
<linearGradient id="paint97_linear_29_35279" x1="14.279" y1="21.9064" x2="15.0396" y2="20.3489" gradientUnits="userSpaceOnUse">
<stop stop-color="#D5DAF3"/>
<stop offset="1" stop-color="#60B7FF"/>
</linearGradient>
<linearGradient id="paint98_linear_29_35279" x1="15.1372" y1="20.6762" x2="14.3504" y2="21.2323" gradientUnits="userSpaceOnUse">
<stop stop-color="#6C7FD8" stop-opacity="0"/>
<stop offset="0.9666" stop-color="#6C7FD8" stop-opacity="0.967"/>
<stop offset="1" stop-color="#6C7FD8"/>
</linearGradient>
<linearGradient id="paint99_linear_29_35279" x1="14.2751" y1="20.2534" x2="14.6356" y2="19.268" gradientUnits="userSpaceOnUse">
<stop stop-color="#6C7FD8" stop-opacity="0"/>
<stop offset="0.9666" stop-color="#6C7FD8" stop-opacity="0.967"/>
<stop offset="1" stop-color="#6C7FD8"/>
</linearGradient>
<linearGradient id="paint100_linear_29_35279" x1="14.5664" y1="20.7241" x2="14.9866" y2="21.205" gradientUnits="userSpaceOnUse">
<stop stop-color="#6C7FD8" stop-opacity="0"/>
<stop offset="0.9666" stop-color="#6C7FD8" stop-opacity="0.967"/>
<stop offset="1" stop-color="#6C7FD8"/>
</linearGradient>
<linearGradient id="paint101_linear_29_35279" x1="0.755577" y1="18.8416" x2="2.01049" y2="20.0965" gradientUnits="userSpaceOnUse">
<stop stop-color="#EAF9FA"/>
<stop offset="1" stop-color="#B3DAFE"/>
</linearGradient>
<linearGradient id="paint102_linear_29_35279" x1="2.64909" y1="14.7282" x2="3.52608" y2="15.6052" gradientUnits="userSpaceOnUse">
<stop stop-color="#EAF9FA"/>
<stop offset="1" stop-color="#B3DAFE"/>
</linearGradient>
<linearGradient id="paint103_linear_29_35279" x1="22.2468" y1="18.5544" x2="23.1237" y2="19.4313" gradientUnits="userSpaceOnUse">
<stop stop-color="#EAF9FA"/>
<stop offset="1" stop-color="#B3DAFE"/>
</linearGradient>
<linearGradient id="paint104_linear_29_35279" x1="18.5827" y1="22.4343" x2="19.4597" y2="23.3112" gradientUnits="userSpaceOnUse">
<stop stop-color="#EAF9FA"/>
<stop offset="1" stop-color="#B3DAFE"/>
</linearGradient>
<linearGradient id="paint105_linear_29_35279" x1="5.62566" y1="21.8737" x2="6.50265" y2="22.7507" gradientUnits="userSpaceOnUse">
<stop stop-color="#EAF9FA"/>
<stop offset="1" stop-color="#B3DAFE"/>
</linearGradient>
<clipPath id="clip0_29_35279">
<rect width="24" height="24" fill="white"/>
</clipPath>
</defs>
</svg>
