<svg width="24" height="24" viewBox="0 0 24 24" fill="none" xmlns="http://www.w3.org/2000/svg">
<g clip-path="url(#clip0_29_35274)">
<path d="M23.4286 22.543C21.0114 21.5513 16.7962 20.8945 12 20.8945C7.20381 20.8945 2.98856 21.5513 0.571432 22.543C-0.460756 22.9665 -0.00395625 24.0004 1.21741 24.0004H22.7826C24.004 24.0004 24.4608 22.9665 23.4286 22.543Z" fill="url(#paint0_linear_29_35274)"/>
<path d="M23.4286 22.543C21.0114 21.5513 16.7962 20.8945 12 20.8945C7.20381 20.8945 2.98856 21.5513 0.571432 22.543C-0.460756 22.9665 -0.00395625 24.0004 1.21741 24.0004H22.7826C24.004 24.0004 24.4608 22.9665 23.4286 22.543Z" fill="url(#paint1_linear_29_35274)"/>
<path d="M23.4296 22.5426C21.6443 21.8102 18.8775 21.2608 15.6208 21.0234L14.903 21.7412H11.0234V22.0998L12.9237 24H22.7836C24.0049 24 24.4617 22.9661 23.4296 22.5426Z" fill="url(#paint2_linear_29_35274)"/>
<path d="M22.7851 17.3952C22.7835 15.6968 21.4061 14.3203 19.7073 14.3203C18.2112 14.3203 16.9649 15.388 16.6876 16.8029C16.4696 16.716 16.232 16.6678 15.9831 16.6678C14.9429 16.6681 14.0836 17.5241 14.0795 18.5643C14.0794 18.5752 14.0795 18.5862 14.0796 18.5971C14.0938 19.6888 13.417 20.6696 12.3859 21.0283L10.9275 21.5356C10.6187 21.643 10.6959 22.0997 11.0228 22.0997H17.751L17.7498 22.0965C18.2977 22.1261 18.8553 21.9388 19.2829 21.5344C19.8945 22.0035 20.7732 21.9597 21.3331 21.3998C21.592 21.1409 21.7397 20.8135 21.7785 20.476H22.4085C23.2834 20.476 24.0171 19.7601 24.0001 18.8854C23.986 18.1561 23.471 17.5499 22.7851 17.3952Z" fill="url(#paint3_linear_29_35274)"/>
<path d="M22.7858 17.3947C22.7086 17.3824 22.6291 17.3763 22.5486 17.3763C21.694 17.3763 21.0013 18.069 21.0013 18.9236C21.0013 19.3213 21.1515 19.6841 21.3985 19.9584C20.9439 20.206 20.4225 20.3467 19.8682 20.3467C18.0964 20.3467 16.6602 18.9109 16.6602 17.1391C16.6602 17.0243 16.6663 16.9109 16.678 16.7989C16.6818 16.8003 16.6851 16.8013 16.6884 16.8027C16.966 15.3881 18.2122 14.3203 19.7082 14.3203C21.407 14.3203 22.7839 15.6963 22.7858 17.3947Z" fill="url(#paint4_linear_29_35274)"/>
<path d="M16.6594 17.1395C16.6594 17.0247 16.6655 16.9113 16.6773 16.7993C16.4622 16.715 16.2283 16.668 15.9831 16.668C14.9431 16.6684 14.0839 17.5244 14.0796 18.5644V18.5974C14.0886 19.2595 13.8424 19.8807 13.418 20.347H19.7224V20.3437C18.018 20.268 16.6594 18.8628 16.6594 17.1395Z" fill="url(#paint5_linear_29_35274)"/>
<path d="M12.3859 21.0281L10.9275 21.5354C10.6187 21.6428 10.6959 22.0995 11.0228 22.0995H17.751L17.7498 22.0963C18.2977 22.1259 18.8553 21.9385 19.2829 21.5342C19.8945 22.0033 20.7732 21.9594 21.3331 21.3996C21.592 21.1407 21.7397 20.8133 21.7785 20.4758H22.4086C23.2834 20.4758 24.0171 19.7599 24.0001 18.8852C23.9995 18.8565 23.9979 18.8281 23.9958 18.7998H14.0742C14.0079 19.8085 13.3527 20.6918 12.3859 21.0281Z" fill="url(#paint6_linear_29_35274)"/>
<path d="M8.9314 11.4182H8.47125C8.44274 11.1704 8.33427 10.93 8.1442 10.7399C7.77916 10.3749 7.2298 10.3094 6.79676 10.5404C6.6514 9.71887 5.93445 9.09473 5.07121 9.09473C4.60994 9.09473 4.19041 9.27294 3.87751 9.56428C3.42664 9.98404 2.83907 10.226 2.22302 10.226H0.574548C0.334501 10.226 0.277842 10.5613 0.504571 10.6402L1.57525 11.0126C2.33234 11.276 2.82918 11.9961 2.81878 12.7976C2.81874 12.8005 2.81874 12.8034 2.81869 12.8064C2.81403 13.4918 3.31384 14.0889 3.99078 14.1961C4.25563 14.2381 4.50876 14.2045 4.73351 14.1149C4.93714 15.1537 5.85215 15.9376 6.95055 15.9376C8.1978 15.9376 9.209 14.927 9.21017 13.68C9.72678 13.5636 10.1113 13.0983 10.1024 12.5444C10.0922 11.9151 9.56085 11.4182 8.9314 11.4182Z" fill="url(#paint7_linear_29_35274)"/>
<path d="M10.1014 12.5445C10.1104 13.0984 9.72589 13.5638 9.20918 13.6801C9.20918 12.8377 8.74518 12.1041 8.05859 11.7205V10.6641C8.08777 10.6881 8.11601 10.713 8.1433 10.7403C8.33342 10.9299 8.44165 11.1704 8.47036 11.4184H8.93059C9.55977 11.4184 10.0915 11.9154 10.1014 12.5445Z" fill="url(#paint8_linear_29_35274)"/>
<path d="M6.19428 11.5601C6.19428 11.8006 6.26723 12.0237 6.3924 12.2091C5.90629 12.7366 5.20981 13.067 4.43617 13.067C3.81876 13.067 3.25123 12.8561 2.79993 12.5027C2.71758 11.9352 2.38017 11.4364 1.88417 11.1536C1.81499 10.9168 1.77734 10.667 1.77734 10.4081C1.77734 10.347 1.78017 10.2863 1.7844 10.226H2.22346C2.83946 10.226 3.42676 9.98414 3.87758 9.56437C4.19052 9.27308 4.61029 9.09473 5.07146 9.09473C5.93452 9.09473 6.6517 9.7192 6.79711 10.5404C6.43758 10.7385 6.19428 11.1211 6.19428 11.5601Z" fill="url(#paint9_linear_29_35274)"/>
<path d="M2.81924 12.7976C2.8192 12.8005 2.8192 12.8034 2.81915 12.8064C2.81449 13.4917 3.3143 14.0889 3.99124 14.1961C4.25609 14.238 4.50922 14.2044 4.73397 14.1149C4.9376 15.1537 5.85261 15.9375 6.95101 15.9375C8.19826 15.9375 9.20946 14.927 9.21063 13.68C9.72724 13.5635 10.1117 13.0982 10.1028 12.5444C10.1007 12.4133 10.0757 12.2882 10.0322 12.1719H2.7207C2.78739 12.3695 2.82207 12.5805 2.81924 12.7976Z" fill="url(#paint10_linear_29_35274)"/>
<path d="M19.4373 8.21175C19.4373 10.5845 17.507 12.5148 15.1343 12.5148C13.1691 12.5148 11.57 10.9158 11.57 8.9501C11.57 7.69825 12.3475 6.62446 13.4454 6.18672C13.8476 6.02634 14.2853 6.31928 14.2853 6.75232C14.2853 7.00446 14.1291 7.22775 13.8949 7.3213C13.2483 7.57966 12.7903 8.21232 12.7903 8.95006C12.7903 10.2428 13.842 11.2941 15.1343 11.2941C16.834 11.2941 18.2171 9.911 18.2171 8.2117C18.2171 6.00276 16.4199 4.20606 14.211 4.20606C12.7809 4.20606 11.4364 4.76276 10.4251 5.77406L9.28156 6.91759C6.87168 9.32747 2.95027 9.32747 0.539916 6.91759C0.301799 6.679 0.301799 6.29265 0.539916 6.05453C0.778505 5.81594 1.16486 5.81594 1.40298 6.05453C3.33709 7.98865 6.48439 7.98865 8.4185 6.05453L9.56203 4.911C10.8039 3.66912 12.4552 2.98535 14.211 2.98535C17.0929 2.9854 19.4373 5.32987 19.4373 8.21175Z" fill="url(#paint11_linear_29_35274)"/>
<path d="M8.2762 2.72094C8.2762 4.51247 6.81879 5.96988 5.02726 5.96988C3.95385 5.96988 2.94444 5.55153 2.18538 4.79247L1.53173 4.13882C1.22679 3.83388 0.848907 3.60941 0.438554 3.48894C0.115259 3.39435 -0.0701523 3.05506 0.0249065 2.73177C0.119495 2.40847 0.458318 2.22306 0.782083 2.31765C1.3882 2.49553 1.94585 2.82682 2.39479 3.27576L3.04844 3.92941C3.57691 4.45788 4.27997 4.74918 5.02726 4.74918C6.14585 4.74918 7.0555 3.83953 7.0555 2.72094C7.0555 1.89365 6.38255 1.22071 5.55526 1.22071C5.2323 1.22071 4.94175 1.36344 4.74406 1.58918C4.62961 1.71981 4.46312 1.79294 4.28942 1.79294C3.76345 1.79294 3.48439 1.17205 3.83272 0.777977C4.25422 0.301129 4.87013 0 5.55526 0C7.0555 0 8.2762 1.22071 8.2762 2.72094Z" fill="url(#paint12_linear_29_35274)"/>
<path d="M21.1103 13.0819C21.7235 13.0819 22.2206 12.5848 22.2206 11.9716C22.2206 11.3584 21.7235 10.8613 21.1103 10.8613C20.4971 10.8613 20 11.3584 20 11.9716C20 12.5848 20.4971 13.0819 21.1103 13.0819Z" fill="url(#paint13_linear_29_35274)"/>
<path d="M11.0087 15.7851C11.6219 15.7851 12.119 15.288 12.119 14.6748C12.119 14.0616 11.6219 13.5645 11.0087 13.5645C10.3955 13.5645 9.89844 14.0616 9.89844 14.6748C9.89844 15.288 10.3955 15.7851 11.0087 15.7851Z" fill="url(#paint14_linear_29_35274)"/>
<path d="M10.4834 2.98526C11.0966 2.98526 11.5937 2.48816 11.5937 1.87495C11.5937 1.26175 11.0966 0.764648 10.4834 0.764648C9.87015 0.764648 9.37305 1.26175 9.37305 1.87495C9.37305 2.48816 9.87015 2.98526 10.4834 2.98526Z" fill="url(#paint15_linear_29_35274)"/>
<path d="M22.4661 9.78176C22.8454 9.78176 23.1528 9.47428 23.1528 9.09498C23.1528 8.71568 22.8454 8.4082 22.4661 8.4082C22.0868 8.4082 21.7793 8.71568 21.7793 9.09498C21.7793 9.47428 22.0868 9.78176 22.4661 9.78176Z" fill="url(#paint16_linear_29_35274)"/>
<path d="M9.37428 10.7339C9.75357 10.7339 10.0611 10.4264 10.0611 10.0471C10.0611 9.66783 9.75357 9.36035 9.37428 9.36035C8.99498 9.36035 8.6875 9.66783 8.6875 10.0471C8.6875 10.4264 8.99498 10.7339 9.37428 10.7339Z" fill="url(#paint17_linear_29_35274)"/>
<path d="M15.6946 6.72414C16.0739 6.72414 16.3814 6.41666 16.3814 6.03736C16.3814 5.65807 16.0739 5.35059 15.6946 5.35059C15.3153 5.35059 15.0078 5.65807 15.0078 6.03736C15.0078 6.41666 15.3153 6.72414 15.6946 6.72414Z" fill="url(#paint18_linear_29_35274)"/>
<path d="M10.6988 16.2775C9.65974 16.3406 8.64397 16.6525 7.72543 17.203L6.33833 18.0344C4.83785 18.9338 3.0484 18.9449 1.58543 18.2225C1.18068 18.0226 0.707031 18.3185 0.707031 18.7699C0.707031 19.0006 0.836302 19.2131 1.04308 19.3152C2.86614 20.2157 5.09602 20.202 6.96576 19.0813L8.35287 18.2499C9.09993 17.8022 9.92595 17.5481 10.771 17.4963C11.0925 17.4766 11.3427 17.2095 11.3427 16.8873C11.3428 16.537 11.0485 16.2563 10.6988 16.2775Z" fill="url(#paint19_linear_29_35274)"/>
</g>
<defs>
<linearGradient id="paint0_linear_29_35274" x1="11.9018" y1="21.372" x2="12.043" y2="24.0073" gradientUnits="userSpaceOnUse">
<stop stop-color="#FFDFCF"/>
<stop offset="1" stop-color="#FFA78F"/>
</linearGradient>
<linearGradient id="paint1_linear_29_35274" x1="12" y1="22.4004" x2="12" y2="23.9541" gradientUnits="userSpaceOnUse">
<stop stop-color="#F89580" stop-opacity="0"/>
<stop offset="0.2599" stop-color="#F2917C" stop-opacity="0.261"/>
<stop offset="0.5954" stop-color="#E2856F" stop-opacity="0.597"/>
<stop offset="0.9709" stop-color="#C8725B" stop-opacity="0.974"/>
<stop offset="0.9972" stop-color="#C5715A"/>
</linearGradient>
<linearGradient id="paint2_linear_29_35274" x1="17.6033" y1="24.4477" x2="17.4464" y2="21.3418" gradientUnits="userSpaceOnUse">
<stop stop-color="#F89580" stop-opacity="0"/>
<stop offset="0.2599" stop-color="#F2917C" stop-opacity="0.261"/>
<stop offset="0.5954" stop-color="#E2856F" stop-opacity="0.597"/>
<stop offset="0.9709" stop-color="#C8725B" stop-opacity="0.974"/>
<stop offset="0.9972" stop-color="#C5715A"/>
</linearGradient>
<linearGradient id="paint3_linear_29_35274" x1="15.7143" y1="16.7357" x2="18.3025" y2="22.1945" gradientUnits="userSpaceOnUse">
<stop stop-color="#FFDFCF"/>
<stop offset="1" stop-color="#FFA78F"/>
</linearGradient>
<linearGradient id="paint4_linear_29_35274" x1="20.7159" y1="17.1247" x2="23.759" y2="16.4345" gradientUnits="userSpaceOnUse">
<stop stop-color="#F89580" stop-opacity="0"/>
<stop offset="0.2599" stop-color="#F2917C" stop-opacity="0.261"/>
<stop offset="0.5954" stop-color="#E2856F" stop-opacity="0.597"/>
<stop offset="0.9709" stop-color="#C8725B" stop-opacity="0.974"/>
<stop offset="0.9972" stop-color="#C5715A"/>
</linearGradient>
<linearGradient id="paint5_linear_29_35274" x1="17.1803" y1="18.5803" x2="17.9333" y2="16.698" gradientUnits="userSpaceOnUse">
<stop stop-color="#F89580" stop-opacity="0"/>
<stop offset="0.2599" stop-color="#F2917C" stop-opacity="0.261"/>
<stop offset="0.5954" stop-color="#E2856F" stop-opacity="0.597"/>
<stop offset="0.9709" stop-color="#C8725B" stop-opacity="0.974"/>
<stop offset="0.9972" stop-color="#C5715A"/>
</linearGradient>
<linearGradient id="paint6_linear_29_35274" x1="17.3664" y1="20.8468" x2="17.3664" y2="22.6189" gradientUnits="userSpaceOnUse">
<stop stop-color="#F89580" stop-opacity="0"/>
<stop offset="0.2599" stop-color="#F2917C" stop-opacity="0.261"/>
<stop offset="0.5954" stop-color="#E2856F" stop-opacity="0.597"/>
<stop offset="0.9709" stop-color="#C8725B" stop-opacity="0.974"/>
<stop offset="0.9972" stop-color="#C5715A"/>
</linearGradient>
<linearGradient id="paint7_linear_29_35274" x1="4.62372" y1="9.50903" x2="6.64725" y2="15.909" gradientUnits="userSpaceOnUse">
<stop stop-color="#FFDFCF"/>
<stop offset="1" stop-color="#FFA78F"/>
</linearGradient>
<linearGradient id="paint8_linear_29_35274" x1="9.32834" y1="12.4596" x2="10.0225" y2="13.5067" gradientUnits="userSpaceOnUse">
<stop stop-color="#F89580" stop-opacity="0"/>
<stop offset="0.2599" stop-color="#F2917C" stop-opacity="0.261"/>
<stop offset="0.5954" stop-color="#E2856F" stop-opacity="0.597"/>
<stop offset="0.9709" stop-color="#C8725B" stop-opacity="0.974"/>
<stop offset="0.9972" stop-color="#C5715A"/>
</linearGradient>
<linearGradient id="paint9_linear_29_35274" x1="5.40332" y1="10.6395" x2="7.08567" y2="9.78066" gradientUnits="userSpaceOnUse">
<stop stop-color="#F89580" stop-opacity="0"/>
<stop offset="0.2599" stop-color="#F2917C" stop-opacity="0.261"/>
<stop offset="0.5954" stop-color="#E2856F" stop-opacity="0.597"/>
<stop offset="0.9709" stop-color="#C8725B" stop-opacity="0.974"/>
<stop offset="0.9972" stop-color="#C5715A"/>
</linearGradient>
<linearGradient id="paint10_linear_29_35274" x1="6.41186" y1="14.0935" x2="6.41186" y2="16.07" gradientUnits="userSpaceOnUse">
<stop stop-color="#F89580" stop-opacity="0"/>
<stop offset="0.2599" stop-color="#F2917C" stop-opacity="0.261"/>
<stop offset="0.5954" stop-color="#E2856F" stop-opacity="0.597"/>
<stop offset="0.9709" stop-color="#C8725B" stop-opacity="0.974"/>
<stop offset="0.9972" stop-color="#C5715A"/>
</linearGradient>
<linearGradient id="paint11_linear_29_35274" x1="8.50218" y1="2.85905" x2="12.0314" y2="13.235" gradientUnits="userSpaceOnUse">
<stop stop-color="#F89580"/>
<stop offset="1" stop-color="#C4573A"/>
</linearGradient>
<linearGradient id="paint12_linear_29_35274" x1="3.26561" y1="0.718165" x2="6.51253" y2="7.63548" gradientUnits="userSpaceOnUse">
<stop stop-color="#F89580"/>
<stop offset="1" stop-color="#C4573A"/>
</linearGradient>
<linearGradient id="paint13_linear_29_35274" x1="20.0515" y1="10.9128" x2="21.9268" y2="12.7881" gradientUnits="userSpaceOnUse">
<stop stop-color="#FFDFCF"/>
<stop offset="1" stop-color="#FFA78F"/>
</linearGradient>
<linearGradient id="paint14_linear_29_35274" x1="9.94992" y1="13.6159" x2="11.8252" y2="15.4912" gradientUnits="userSpaceOnUse">
<stop stop-color="#FFDFCF"/>
<stop offset="1" stop-color="#FFA78F"/>
</linearGradient>
<linearGradient id="paint15_linear_29_35274" x1="9.42453" y1="0.816131" x2="11.2998" y2="2.69138" gradientUnits="userSpaceOnUse">
<stop stop-color="#FFDFCF"/>
<stop offset="1" stop-color="#FFA78F"/>
</linearGradient>
<linearGradient id="paint16_linear_29_35274" x1="21.8111" y1="8.44001" x2="22.9711" y2="9.60001" gradientUnits="userSpaceOnUse">
<stop stop-color="#FFDFCF"/>
<stop offset="1" stop-color="#FFA78F"/>
</linearGradient>
<linearGradient id="paint17_linear_29_35274" x1="8.71936" y1="9.39221" x2="9.87931" y2="10.5522" gradientUnits="userSpaceOnUse">
<stop stop-color="#FFDFCF"/>
<stop offset="1" stop-color="#FFA78F"/>
</linearGradient>
<linearGradient id="paint18_linear_29_35274" x1="15.0397" y1="5.3824" x2="16.1996" y2="6.54235" gradientUnits="userSpaceOnUse">
<stop stop-color="#FFDFCF"/>
<stop offset="1" stop-color="#FFA78F"/>
</linearGradient>
<linearGradient id="paint19_linear_29_35274" x1="5.98736" y1="17.7033" x2="6.55207" y2="19.5857" gradientUnits="userSpaceOnUse">
<stop stop-color="#F89580"/>
<stop offset="1" stop-color="#C4573A"/>
</linearGradient>
<clipPath id="clip0_29_35274">
<rect width="24" height="24" fill="white"/>
</clipPath>
</defs>
</svg>
