<svg width="24" height="24" viewBox="0 0 24 24" fill="none" xmlns="http://www.w3.org/2000/svg">
<g clip-path="url(#clip0_29_35272)">
<path d="M18.123 10.9206V12.6454C18.123 12.9016 18.2598 13.1384 18.4817 13.2666L19.9754 14.129C20.1974 14.2571 20.4708 14.2571 20.6927 14.129L22.1865 13.2666C22.4084 13.1384 22.5451 12.9016 22.5451 12.6454V10.9206C22.5451 10.6643 22.4084 10.4275 22.1865 10.2993L20.6927 9.43693C20.4708 9.30879 20.1974 9.30879 19.9754 9.43693L18.4817 10.2993C18.2598 10.4275 18.123 10.6643 18.123 10.9206Z" fill="url(#paint0_linear_29_35272)"/>
<path d="M22.1864 10.2993L20.6926 9.43691C20.5817 9.37287 20.4578 9.34082 20.334 9.34082V14.2251C20.4578 14.2251 20.5817 14.193 20.6926 14.129L22.1864 13.2666C22.4083 13.1384 22.545 12.9016 22.545 12.6453V10.9205C22.545 10.6643 22.4083 10.4275 22.1864 10.2993Z" fill="url(#paint1_linear_29_35272)"/>
<path d="M20.3343 11.8829L22.4878 10.6396C22.4279 10.4988 22.3235 10.3784 22.1866 10.2993L20.6929 9.43693C20.471 9.30879 20.1975 9.30879 19.9756 9.43693L18.4818 10.2993C18.3449 10.3784 18.2407 10.4988 18.1807 10.6396L20.3343 11.8829Z" fill="url(#paint2_linear_29_35272)"/>
<path d="M18.123 10.9206V12.6454C18.123 12.9016 18.2598 13.1384 18.4817 13.2666L19.9754 14.129C20.1974 14.2571 20.4708 14.2571 20.6927 14.129L22.1865 13.2666C22.4084 13.1384 22.5451 12.9016 22.5451 12.6454V10.9206C22.5451 10.6643 22.4084 10.4275 22.1865 10.2993L20.6927 9.43693C20.4708 9.30879 20.1974 9.30879 19.9754 9.43693L18.4817 10.2993C18.2598 10.4275 18.123 10.6643 18.123 10.9206Z" fill="url(#paint3_linear_29_35272)"/>
<path d="M0 15.3342V16.5564C0 16.738 0.0968941 16.9058 0.254165 16.9966L1.31266 17.6077C1.46993 17.6985 1.66367 17.6985 1.82094 17.6077L2.87944 16.9966C3.03671 16.9058 3.1336 16.738 3.1336 16.5564V15.3342C3.1336 15.1526 3.03671 14.9848 2.87944 14.894L1.82094 14.2829C1.66367 14.1921 1.46993 14.1921 1.31266 14.2829L0.254165 14.894C0.0968941 14.9849 0 15.1526 0 15.3342Z" fill="url(#paint4_linear_29_35272)"/>
<path d="M2.87907 14.894L1.82057 14.2829C1.74194 14.2375 1.65417 14.2148 1.56641 14.2148V17.6759C1.65417 17.6759 1.74194 17.6532 1.82057 17.6078L2.87907 16.9967C3.03634 16.9059 3.13323 16.7381 3.13323 16.5565V15.3343C3.13318 15.1526 3.03634 14.9849 2.87907 14.894Z" fill="url(#paint5_linear_29_35272)"/>
<path d="M1.56704 16.0162L3.09311 15.1352C3.05062 15.0354 2.97669 14.95 2.8797 14.894L1.8212 14.2829C1.66393 14.1921 1.47019 14.1921 1.31292 14.2829L0.254427 14.8941C0.157439 14.9501 0.0835097 15.0354 0.0410156 15.1352L1.56704 16.0162Z" fill="url(#paint6_linear_29_35272)"/>
<path d="M20.8662 19.5383V20.7605C20.8662 20.9421 20.9631 21.1099 21.1204 21.2007L22.1789 21.8118C22.3361 21.9026 22.5299 21.9026 22.6872 21.8118L23.7456 21.2007C23.9029 21.1099 23.9998 20.9421 23.9998 20.7605V19.5383C23.9998 19.3567 23.9029 19.1889 23.7456 19.0981L22.6872 18.487C22.5299 18.3963 22.3361 18.3963 22.1789 18.487L21.1204 19.0981C20.9631 19.1889 20.8662 19.3567 20.8662 19.5383Z" fill="url(#paint7_linear_29_35272)"/>
<path d="M23.7453 19.0981L22.6868 18.487C22.6081 18.4416 22.5204 18.4189 22.4326 18.4189V21.88C22.5204 21.88 22.6081 21.8573 22.6868 21.8119L23.7453 21.2008C23.9025 21.1101 23.9994 20.9422 23.9994 20.7606V19.5384C23.9994 19.3568 23.9025 19.189 23.7453 19.0981Z" fill="url(#paint8_linear_29_35272)"/>
<path d="M22.4332 20.2203L23.9593 19.3393C23.9168 19.2395 23.8429 19.1541 23.7459 19.0981L22.6874 18.487C22.5301 18.3963 22.3364 18.3963 22.1791 18.487L21.1206 19.0981C21.0236 19.1541 20.9497 19.2395 20.9072 19.3393L22.4332 20.2203Z" fill="url(#paint9_linear_29_35272)"/>
<path d="M12.4102 19.2708V20.493C12.4102 20.6746 12.5071 20.8424 12.6643 20.9332L13.7228 21.5443C13.8801 21.6351 14.0738 21.6351 14.2311 21.5443L15.2896 20.9332C15.4469 20.8424 15.5438 20.6746 15.5438 20.493V19.2708C15.5438 19.0892 15.4469 18.9214 15.2896 18.8306L14.2311 18.2195C14.0738 18.1287 13.8801 18.1287 13.7228 18.2195L12.6643 18.8306C12.5071 18.9214 12.4102 19.0892 12.4102 19.2708Z" fill="url(#paint10_linear_29_35272)"/>
<path d="M15.2892 18.8306L14.2307 18.2195C14.1521 18.174 14.0643 18.1514 13.9766 18.1514V21.6125C14.0643 21.6125 14.1521 21.5898 14.2307 21.5444L15.2892 20.9332C15.4465 20.8425 15.5434 20.6747 15.5434 20.4931V19.2708C15.5433 19.0892 15.4464 18.9213 15.2892 18.8306Z" fill="url(#paint11_linear_29_35272)"/>
<path d="M13.9772 19.9528L15.5033 19.0717C15.4608 18.9719 15.3868 18.8866 15.2899 18.8306L14.2314 18.2194C14.0741 18.1287 13.8803 18.1287 13.7231 18.2194L12.6646 18.8306C12.5676 18.8866 12.4937 18.9719 12.4512 19.0717L13.9772 19.9528Z" fill="url(#paint12_linear_29_35272)"/>
<path d="M3.55078 21.6585V22.8807C3.55078 23.0623 3.64768 23.2301 3.80495 23.3209L4.86344 23.932C5.02071 24.0228 5.21445 24.0228 5.37172 23.932L6.43022 23.3209C6.58749 23.2301 6.68438 23.0623 6.68438 22.8807V21.6585C6.68438 21.4769 6.58749 21.3091 6.43022 21.2183L5.37172 20.6072C5.21445 20.5164 5.02071 20.5164 4.86344 20.6072L3.80495 21.2183C3.64768 21.3091 3.55078 21.4769 3.55078 21.6585Z" fill="url(#paint13_linear_29_35272)"/>
<path d="M6.42985 21.2183L5.37135 20.6072C5.29272 20.5617 5.20495 20.5391 5.11719 20.5391V24.0001C5.20495 24.0001 5.29272 23.9774 5.37135 23.932L6.42985 23.3209C6.58712 23.2301 6.68401 23.0623 6.68401 22.8807V21.6585C6.68396 21.4769 6.58712 21.309 6.42985 21.2183Z" fill="url(#paint14_linear_29_35272)"/>
<path d="M5.11782 22.3405L6.64389 21.4594C6.6014 21.3596 6.52747 21.2743 6.43048 21.2183L5.37199 20.6071C5.21471 20.5164 5.02097 20.5164 4.8637 20.6071L3.80521 21.2183C3.70822 21.2743 3.63429 21.3596 3.5918 21.4594L5.11782 22.3405Z" fill="url(#paint15_linear_29_35272)"/>
<path d="M18.1884 4.32941C17.7938 4.32941 17.4146 4.39379 17.0593 4.51106C17.0741 4.3976 17.0825 4.28216 17.0825 4.16471C17.0825 2.69628 15.8921 1.50588 14.4237 1.50588C13.7588 1.50588 13.1514 1.75049 12.6852 2.15393C12.1282 0.885929 10.8621 0 9.38839 0C7.461 0 5.88749 1.51468 5.79295 3.41859C3.77582 3.66052 2.21191 5.37647 2.21191 7.45882C2.21191 9.70696 4.03436 11.5294 6.2825 11.5294C8.53064 11.5294 16.2002 11.5294 18.1884 11.5294C20.1766 11.5294 21.7884 9.91765 21.7884 7.92941C21.7884 5.94118 20.1766 4.32941 18.1884 4.32941Z" fill="url(#paint16_linear_29_35272)"/>
<path d="M2.21191 7.45923C2.21191 9.70737 4.03436 11.5298 6.2825 11.5298C8.53064 11.5298 16.2002 11.5298 18.1884 11.5298C20.1766 11.5298 21.7884 9.91805 21.7884 7.92981C21.7884 7.06341 21.4822 6.26868 20.9723 5.64746H2.63657C2.36481 6.19301 2.21191 6.80821 2.21191 7.45923Z" fill="url(#paint17_linear_29_35272)"/>
<path d="M18.1885 4.32939C17.794 4.32939 17.4147 4.39377 17.0594 4.51104C17.0742 4.39758 17.0826 4.28214 17.0826 4.16468C17.0826 2.69626 15.8922 1.50586 14.4238 1.50586C14.2549 1.50586 14.0898 1.52181 13.9297 1.55198V11.5294H18.1885C20.1767 11.5294 21.7885 9.91762 21.7885 7.92939C21.7885 5.94115 20.1767 4.32939 18.1885 4.32939Z" fill="url(#paint18_linear_29_35272)"/>
<path d="M17.0823 4.16468C17.0823 4.28186 17.0748 4.39715 17.0602 4.51009C15.9792 4.86586 15.1246 5.72045 14.7689 6.80139C14.6559 6.81598 14.5406 6.82351 14.4235 6.82351C12.9552 6.82351 11.7646 5.63292 11.7646 4.16468C11.7646 2.69645 12.9552 1.50586 14.4235 1.50586C15.8917 1.50586 17.0823 2.69645 17.0823 4.16468Z" fill="url(#paint19_linear_29_35272)"/>
<path d="M11.7646 4.16471C11.7646 4.75482 11.957 5.30024 12.2822 5.74118C11.6262 6.62635 10.5744 7.2 9.38809 7.2C7.39985 7.2 5.78809 5.58824 5.78809 3.6C5.78809 1.61176 7.39985 0 9.38809 0C10.8615 0 12.1283 0.885176 12.685 2.15294C12.1213 2.64047 11.7646 3.36094 11.7646 4.16471Z" fill="url(#paint20_linear_29_35272)"/>
<path d="M11.7647 4.16471C11.7647 4.75482 11.9572 5.30024 12.2824 5.74118C11.8076 6.38212 11.1252 6.85929 10.3346 7.07388C10.1407 5.00612 8.4005 3.38824 6.28238 3.38824C6.11673 3.38824 5.95344 3.39812 5.79297 3.41741C5.88803 1.51388 7.4612 0 9.38826 0C10.8617 0 12.1285 0.885176 12.6852 2.15294C12.1214 2.64047 11.7647 3.36094 11.7647 4.16471Z" fill="url(#paint21_linear_29_35272)"/>
<path d="M13.976 17.6978C13.781 17.6978 13.623 17.5398 13.623 17.3449V15.9331C13.623 15.7382 13.781 15.5802 13.976 15.5802C14.171 15.5802 14.3289 15.7382 14.3289 15.9331V17.3449C14.3289 17.5398 14.171 17.6978 13.976 17.6978ZM13.976 14.1684C13.781 14.1684 13.623 14.0104 13.623 13.8155V12.4037C13.623 12.2088 13.781 12.0508 13.976 12.0508C14.171 12.0508 14.3289 12.2088 14.3289 12.4037V13.8155C14.3289 14.0104 14.171 14.1684 13.976 14.1684Z" fill="url(#paint22_linear_29_35272)"/>
<path d="M13.976 12.0508C13.781 12.0508 13.623 12.2088 13.623 12.4037V13.8155C13.623 14.0104 13.781 14.1684 13.976 14.1684C14.171 14.1684 14.3289 14.0104 14.3289 13.8155V12.4037C14.3289 12.2088 14.171 12.0508 13.976 12.0508Z" fill="url(#paint23_linear_29_35272)"/>
<path d="M8.1999 10.1645C8.31167 10.1645 8.4208 10.1757 8.52644 10.1966C8.67157 9.12878 9.5864 8.30563 10.694 8.30563C10.9632 8.30563 11.2208 8.35452 11.4589 8.44356C11.5596 8.48125 11.6641 8.40568 11.6599 8.2982C11.6592 8.27725 11.6587 8.25617 11.6587 8.23504C11.6587 7.31241 12.4067 6.56445 13.3293 6.56445C14.2386 6.56445 14.9777 7.29109 14.9989 8.19528C16.3858 8.29184 17.4799 9.45128 17.4704 10.8649C17.4607 12.3327 16.2404 13.5056 14.7726 13.5056H8.23289C7.29614 13.5056 6.51171 12.739 6.5296 11.8025C6.54696 10.8949 7.28814 10.1645 8.1999 10.1645Z" fill="url(#paint24_linear_29_35272)"/>
<path d="M12.8826 10.4939C12.8826 11.7024 11.9028 12.6821 10.6944 12.6821C10.3551 12.6821 10.0337 12.605 9.74707 12.4671C9.82707 12.2723 9.87084 12.0586 9.87084 11.8351C9.87084 11.0238 9.29296 10.348 8.52637 10.1965C8.67131 9.12872 9.5866 8.30566 10.6944 8.30566C11.9028 8.30566 12.8826 9.28543 12.8826 10.4939Z" fill="url(#paint25_linear_29_35272)"/>
<path d="M14.9999 8.19457C14.9378 8.19034 14.8752 8.18798 14.8121 8.18798C13.7749 8.18798 12.8766 8.78187 12.4385 9.64822C11.9702 9.35222 11.6592 8.82986 11.6592 8.23504C11.6592 7.31222 12.4069 6.56445 13.3298 6.56445C14.2389 6.56445 14.9787 7.29057 14.9999 8.19457Z" fill="url(#paint26_linear_29_35272)"/>
<path d="M8.5264 10.1967C8.42075 10.1758 8.31162 10.1646 8.19986 10.1646C7.28809 10.1646 6.54692 10.895 6.5296 11.8026C6.51167 12.7392 7.29614 13.5057 8.23289 13.5057H14.7725C16.2403 13.5057 17.4606 12.3328 17.4704 10.8651C17.4724 10.571 17.4259 10.2882 17.3397 10.0234H8.5575C8.54503 10.0804 8.53435 10.1381 8.5264 10.1967Z" fill="url(#paint27_linear_29_35272)"/>
<path d="M14.999 8.19495C14.9834 7.5326 14.5824 6.96591 14.0117 6.70996V13.5053H14.7726C16.2404 13.5053 17.4607 12.3324 17.4705 10.8646C17.4799 9.451 16.3858 8.29156 14.999 8.19495Z" fill="url(#paint28_linear_29_35272)"/>
<path d="M14.6611 11.7423C14.6021 11.7423 14.5445 11.7482 14.4888 11.7592C14.4122 11.1958 13.9295 10.7615 13.3451 10.7615C13.2031 10.7615 13.0672 10.7872 12.9415 10.8343C12.8884 10.8541 12.8332 10.8143 12.8354 10.7575C12.8358 10.7465 12.8361 10.7354 12.8361 10.7242C12.8361 10.2374 12.4414 9.84277 11.9546 9.84277C11.4748 9.84277 11.0848 10.2262 11.0737 10.7033C10.3418 10.7543 9.76458 11.366 9.76956 12.112C9.77474 12.8864 10.4186 13.5053 11.1931 13.5053H14.6437C15.138 13.5053 15.5519 13.1008 15.5425 12.6066C15.5332 12.1277 15.1422 11.7423 14.6611 11.7423Z" fill="url(#paint29_linear_29_35272)"/>
<path d="M14.6611 11.7423C14.6021 11.7423 14.5445 11.7482 14.4888 11.7592C14.4122 11.1958 13.9295 10.7615 13.3451 10.7615C13.2031 10.7615 13.0672 10.7872 12.9415 10.8343C12.8884 10.8541 12.8332 10.8143 12.8354 10.7575C12.8358 10.7465 12.8361 10.7354 12.8361 10.7242C12.8361 10.2374 12.4414 9.84277 11.9546 9.84277C11.4748 9.84277 11.0848 10.2262 11.0737 10.7033C10.3418 10.7543 9.76458 11.366 9.76956 12.112C9.77474 12.8864 10.4186 13.5053 11.1931 13.5053H14.6437C15.138 13.5053 15.5519 13.1008 15.5425 12.6066C15.5332 12.1277 15.1422 11.7423 14.6611 11.7423Z" fill="url(#paint30_linear_29_35272)"/>
<path d="M8.49357 23.9997C8.29865 23.9997 8.14062 23.8417 8.14062 23.6468V22.235C8.14062 22.0401 8.29865 21.8821 8.49357 21.8821C8.68848 21.8821 8.84651 22.0401 8.84651 22.235V23.6468C8.84651 23.8417 8.68848 23.9997 8.49357 23.9997ZM8.49357 20.4703C8.29865 20.4703 8.14062 20.3123 8.14062 20.1174V18.7056C8.14062 18.5107 8.29865 18.3527 8.49357 18.3527C8.68848 18.3527 8.84651 18.5107 8.84651 18.7056V20.1174C8.84651 20.3123 8.68848 20.4703 8.49357 20.4703ZM8.49357 16.9409C8.29865 16.9409 8.14062 16.7829 8.14062 16.5879V15.1762C8.14062 14.9813 8.29865 14.8232 8.49357 14.8232C8.68848 14.8232 8.84651 14.9813 8.84651 15.1762V16.5879C8.84651 16.7829 8.68848 16.9409 8.49357 16.9409Z" fill="url(#paint31_linear_29_35272)"/>
<path d="M8.49357 16.9409C8.29865 16.9409 8.14062 16.7829 8.14062 16.5879V15.1762C8.14062 14.9813 8.29865 14.8232 8.49357 14.8232C8.68848 14.8232 8.84651 14.9813 8.84651 15.1762V16.5879C8.84651 16.7829 8.68848 16.9409 8.49357 16.9409Z" fill="url(#paint32_linear_29_35272)"/>
<path d="M6.28223 13.0973V14.8221C6.28223 15.0784 6.41893 15.3152 6.64086 15.4433L8.1346 16.3057C8.35653 16.4339 8.62999 16.4339 8.85192 16.3057L10.3457 15.4433C10.5676 15.3152 10.7043 15.0784 10.7043 14.8221V13.0973C10.7043 12.841 10.5676 12.6042 10.3457 12.4761L8.85192 11.6137C8.62999 11.4855 8.35653 11.4855 8.1346 11.6137L6.64086 12.4761C6.41893 12.6042 6.28223 12.841 6.28223 13.0973Z" fill="url(#paint33_linear_29_35272)"/>
<path d="M10.3455 12.4761L8.8518 11.6137C8.74083 11.5496 8.61698 11.5176 8.49316 11.5176V16.4018C8.61702 16.4018 8.74083 16.3698 8.8518 16.3057L10.3455 15.4433C10.5675 15.3152 10.7042 15.0784 10.7042 14.8221V13.0973C10.7042 12.841 10.5675 12.6042 10.3455 12.4761Z" fill="url(#paint34_linear_29_35272)"/>
<path d="M8.49344 14.0597L10.647 12.8164C10.587 12.6756 10.4827 12.5551 10.3458 12.4761L8.85208 11.6137C8.63015 11.4855 8.35669 11.4855 8.13476 11.6137L6.64102 12.4761C6.50413 12.5551 6.39984 12.6756 6.33984 12.8164L8.49344 14.0597Z" fill="url(#paint35_linear_29_35272)"/>
<path d="M5.11759 20.0985C4.92267 20.0985 4.76465 19.9405 4.76465 19.7456V19.4625C4.76465 19.2676 4.92267 19.1096 5.11759 19.1096C5.31251 19.1096 5.47053 19.2676 5.47053 19.4625V19.7456C5.47053 19.9405 5.31251 20.0985 5.11759 20.0985ZM5.11759 17.6978C4.92267 17.6978 4.76465 17.5398 4.76465 17.3449V15.9331C4.76465 15.7382 4.92267 15.5802 5.11759 15.5802C5.31251 15.5802 5.47053 15.7382 5.47053 15.9331V17.3449C5.47053 17.5398 5.31251 17.6978 5.11759 17.6978ZM5.11759 14.1684C4.92267 14.1684 4.76465 14.0104 4.76465 13.8155V12.4037C4.76465 12.2088 4.92267 12.0508 5.11759 12.0508C5.31251 12.0508 5.47053 12.2088 5.47053 12.4037V13.8155C5.47053 14.0104 5.31251 14.1684 5.11759 14.1684Z" fill="url(#paint36_linear_29_35272)"/>
<path d="M19.393 23.9997C19.198 23.9997 19.04 23.8417 19.04 23.6468V22.235C19.04 22.0401 19.198 21.8821 19.393 21.8821C19.5879 21.8821 19.7459 22.0401 19.7459 22.235V23.6468C19.7459 23.8417 19.5879 23.9997 19.393 23.9997ZM19.393 20.4703C19.198 20.4703 19.04 20.3123 19.04 20.1174V18.7056C19.04 18.5107 19.198 18.3527 19.393 18.3527C19.5879 18.3527 19.7459 18.5107 19.7459 18.7056V20.1174C19.7459 20.3123 19.5879 20.4703 19.393 20.4703ZM19.393 16.9409C19.198 16.9409 19.04 16.7829 19.04 16.5879V15.1762C19.04 14.9813 19.198 14.8232 19.393 14.8232C19.5879 14.8232 19.7459 14.9813 19.7459 15.1762V16.5879C19.7459 16.7829 19.5879 16.9409 19.393 16.9409Z" fill="url(#paint37_linear_29_35272)"/>
</g>
<defs>
<linearGradient id="paint0_linear_29_35272" x1="19.0716" y1="10.5205" x2="21.2557" y2="12.7045" gradientUnits="userSpaceOnUse">
<stop stop-color="#D5DAF3"/>
<stop offset="1" stop-color="#60B7FF"/>
</linearGradient>
<linearGradient id="paint1_linear_29_35272" x1="22.3935" y1="11.7829" x2="19.7552" y2="11.7829" gradientUnits="userSpaceOnUse">
<stop stop-color="#D5DAF3"/>
<stop offset="1" stop-color="#60B7FF"/>
</linearGradient>
<linearGradient id="paint2_linear_29_35272" x1="19.6" y1="10.0761" x2="21.6297" y2="11.4404" gradientUnits="userSpaceOnUse">
<stop stop-color="#D5DAF3"/>
<stop offset="1" stop-color="#60B7FF"/>
</linearGradient>
<linearGradient id="paint3_linear_29_35272" x1="21.2487" y1="13.3445" x2="19.3193" y2="10.0504" gradientUnits="userSpaceOnUse">
<stop stop-color="#1F3596" stop-opacity="0"/>
<stop offset="0.4068" stop-color="#1D3290" stop-opacity="0.407"/>
<stop offset="0.9508" stop-color="#192B7F" stop-opacity="0.951"/>
<stop offset="1" stop-color="#192A7D"/>
</linearGradient>
<linearGradient id="paint4_linear_29_35272" x1="0.672141" y1="15.0507" x2="2.21981" y2="16.5984" gradientUnits="userSpaceOnUse">
<stop stop-color="#D5DAF3"/>
<stop offset="1" stop-color="#60B7FF"/>
</linearGradient>
<linearGradient id="paint5_linear_29_35272" x1="3.02579" y1="15.9454" x2="1.15629" y2="15.9454" gradientUnits="userSpaceOnUse">
<stop stop-color="#D5DAF3"/>
<stop offset="1" stop-color="#60B7FF"/>
</linearGradient>
<linearGradient id="paint6_linear_29_35272" x1="1.04671" y1="14.7359" x2="2.48506" y2="15.7026" gradientUnits="userSpaceOnUse">
<stop stop-color="#D5DAF3"/>
<stop offset="1" stop-color="#60B7FF"/>
</linearGradient>
<linearGradient id="paint7_linear_29_35272" x1="21.5384" y1="19.2548" x2="23.086" y2="20.8025" gradientUnits="userSpaceOnUse">
<stop stop-color="#D5DAF3"/>
<stop offset="1" stop-color="#60B7FF"/>
</linearGradient>
<linearGradient id="paint8_linear_29_35272" x1="23.8921" y1="20.1495" x2="22.0225" y2="20.1495" gradientUnits="userSpaceOnUse">
<stop stop-color="#D5DAF3"/>
<stop offset="1" stop-color="#60B7FF"/>
</linearGradient>
<linearGradient id="paint9_linear_29_35272" x1="21.9129" y1="18.94" x2="23.3512" y2="19.9067" gradientUnits="userSpaceOnUse">
<stop stop-color="#D5DAF3"/>
<stop offset="1" stop-color="#60B7FF"/>
</linearGradient>
<linearGradient id="paint10_linear_29_35272" x1="13.0823" y1="18.9872" x2="14.63" y2="20.535" gradientUnits="userSpaceOnUse">
<stop stop-color="#D5DAF3"/>
<stop offset="1" stop-color="#60B7FF"/>
</linearGradient>
<linearGradient id="paint11_linear_29_35272" x1="15.436" y1="19.8819" x2="13.5664" y2="19.8819" gradientUnits="userSpaceOnUse">
<stop stop-color="#D5DAF3"/>
<stop offset="1" stop-color="#60B7FF"/>
</linearGradient>
<linearGradient id="paint12_linear_29_35272" x1="13.4569" y1="18.6724" x2="14.8952" y2="19.6392" gradientUnits="userSpaceOnUse">
<stop stop-color="#D5DAF3"/>
<stop offset="1" stop-color="#60B7FF"/>
</linearGradient>
<linearGradient id="paint13_linear_29_35272" x1="4.22292" y1="21.3749" x2="5.77059" y2="22.9226" gradientUnits="userSpaceOnUse">
<stop stop-color="#D5DAF3"/>
<stop offset="1" stop-color="#60B7FF"/>
</linearGradient>
<linearGradient id="paint14_linear_29_35272" x1="6.57658" y1="22.2696" x2="4.70707" y2="22.2696" gradientUnits="userSpaceOnUse">
<stop stop-color="#D5DAF3"/>
<stop offset="1" stop-color="#60B7FF"/>
</linearGradient>
<linearGradient id="paint15_linear_29_35272" x1="4.59749" y1="21.0601" x2="6.03584" y2="22.0269" gradientUnits="userSpaceOnUse">
<stop stop-color="#D5DAF3"/>
<stop offset="1" stop-color="#60B7FF"/>
</linearGradient>
<linearGradient id="paint16_linear_29_35272" x1="7.05841" y1="2.84988" x2="17.0044" y2="12.7958" gradientUnits="userSpaceOnUse">
<stop stop-color="#E1D3CE"/>
<stop offset="1" stop-color="#9E9797"/>
</linearGradient>
<linearGradient id="paint17_linear_29_35272" x1="12.0002" y1="8.61217" x2="12.0002" y2="12.3875" gradientUnits="userSpaceOnUse">
<stop stop-color="#433F43" stop-opacity="0"/>
<stop offset="0.3174" stop-color="#3B373B" stop-opacity="0.317"/>
<stop offset="0.8224" stop-color="#242324" stop-opacity="0.822"/>
<stop offset="1" stop-color="#1A1A1A"/>
</linearGradient>
<linearGradient id="paint18_linear_29_35272" x1="18.9172" y1="7.43913" x2="22.9172" y2="8.23913" gradientUnits="userSpaceOnUse">
<stop stop-color="#433F43" stop-opacity="0"/>
<stop offset="0.3174" stop-color="#3B373B" stop-opacity="0.317"/>
<stop offset="0.8224" stop-color="#242324" stop-opacity="0.822"/>
<stop offset="1" stop-color="#1A1A1A"/>
</linearGradient>
<linearGradient id="paint19_linear_29_35272" x1="14.674" y1="4.08238" x2="17.921" y2="3.18826" gradientUnits="userSpaceOnUse">
<stop stop-color="#433F43" stop-opacity="0"/>
<stop offset="0.3174" stop-color="#3B373B" stop-opacity="0.317"/>
<stop offset="0.8224" stop-color="#242324" stop-opacity="0.822"/>
<stop offset="1" stop-color="#1A1A1A"/>
</linearGradient>
<linearGradient id="paint20_linear_29_35272" x1="10.8434" y1="2.37816" x2="13.3846" y2="0.244847" gradientUnits="userSpaceOnUse">
<stop stop-color="#433F43" stop-opacity="0"/>
<stop offset="0.3174" stop-color="#3B373B" stop-opacity="0.317"/>
<stop offset="0.8224" stop-color="#242324" stop-opacity="0.822"/>
<stop offset="1" stop-color="#1A1A1A"/>
</linearGradient>
<linearGradient id="paint21_linear_29_35272" x1="8.21302" y1="4.02937" x2="5.1228" y2="5.15878" gradientUnits="userSpaceOnUse">
<stop stop-color="#433F43" stop-opacity="0"/>
<stop offset="0.3174" stop-color="#3B373B" stop-opacity="0.317"/>
<stop offset="0.8224" stop-color="#242324" stop-opacity="0.822"/>
<stop offset="1" stop-color="#1A1A1A"/>
</linearGradient>
<linearGradient id="paint22_linear_29_35272" x1="13.623" y1="14.8743" x2="14.3289" y2="14.8743" gradientUnits="userSpaceOnUse">
<stop stop-color="#EAF9FA"/>
<stop offset="1" stop-color="#B3DAFE"/>
</linearGradient>
<linearGradient id="paint23_linear_29_35272" x1="13.6348" y1="14.0613" x2="13.9329" y2="13.2299" gradientUnits="userSpaceOnUse">
<stop stop-color="#1F3596" stop-opacity="0"/>
<stop offset="0.4068" stop-color="#1D3290" stop-opacity="0.407"/>
<stop offset="0.9508" stop-color="#192B7F" stop-opacity="0.951"/>
<stop offset="1" stop-color="#192A7D"/>
</linearGradient>
<linearGradient id="paint24_linear_29_35272" x1="11.0924" y1="8.62657" x2="12.5649" y2="12.8875" gradientUnits="userSpaceOnUse">
<stop stop-color="#E1D3CE"/>
<stop offset="1" stop-color="#9E9797"/>
</linearGradient>
<linearGradient id="paint25_linear_29_35272" x1="9.61987" y1="10.4939" x2="7.56886" y2="10.4939" gradientUnits="userSpaceOnUse">
<stop stop-color="#433F43" stop-opacity="0"/>
<stop offset="0.3174" stop-color="#3B373B" stop-opacity="0.317"/>
<stop offset="0.8224" stop-color="#242324" stop-opacity="0.822"/>
<stop offset="1" stop-color="#1A1A1A"/>
</linearGradient>
<linearGradient id="paint26_linear_29_35272" x1="13.3268" y1="7.75245" x2="15.4445" y2="6.60737" gradientUnits="userSpaceOnUse">
<stop stop-color="#433F43" stop-opacity="0"/>
<stop offset="0.3174" stop-color="#3B373B" stop-opacity="0.317"/>
<stop offset="0.8224" stop-color="#242324" stop-opacity="0.822"/>
<stop offset="1" stop-color="#1A1A1A"/>
</linearGradient>
<linearGradient id="paint27_linear_29_35272" x1="11.9999" y1="12.6116" x2="11.9999" y2="13.8245" gradientUnits="userSpaceOnUse">
<stop stop-color="#433F43" stop-opacity="0"/>
<stop offset="0.3174" stop-color="#3B373B" stop-opacity="0.317"/>
<stop offset="0.8224" stop-color="#242324" stop-opacity="0.822"/>
<stop offset="1" stop-color="#1A1A1A"/>
</linearGradient>
<linearGradient id="paint28_linear_29_35272" x1="15.6064" y1="10.6205" x2="18.2887" y2="11.4833" gradientUnits="userSpaceOnUse">
<stop stop-color="#433F43" stop-opacity="0"/>
<stop offset="0.3174" stop-color="#3B373B" stop-opacity="0.317"/>
<stop offset="0.8224" stop-color="#242324" stop-opacity="0.822"/>
<stop offset="1" stop-color="#1A1A1A"/>
</linearGradient>
<linearGradient id="paint29_linear_29_35272" x1="13.1431" y1="11.8012" x2="15.5666" y2="9.87176" gradientUnits="userSpaceOnUse">
<stop stop-color="#433F43" stop-opacity="0"/>
<stop offset="0.3174" stop-color="#3B373B" stop-opacity="0.317"/>
<stop offset="0.8224" stop-color="#242324" stop-opacity="0.822"/>
<stop offset="1" stop-color="#1A1A1A"/>
</linearGradient>
<linearGradient id="paint30_linear_29_35272" x1="13.3761" y1="12.235" x2="16.6231" y2="13.2232" gradientUnits="userSpaceOnUse">
<stop stop-color="#433F43" stop-opacity="0"/>
<stop offset="0.3174" stop-color="#3B373B" stop-opacity="0.317"/>
<stop offset="0.8224" stop-color="#242324" stop-opacity="0.822"/>
<stop offset="1" stop-color="#1A1A1A"/>
</linearGradient>
<linearGradient id="paint31_linear_29_35272" x1="8.14062" y1="19.4115" x2="8.84651" y2="19.4115" gradientUnits="userSpaceOnUse">
<stop stop-color="#EAF9FA"/>
<stop offset="1" stop-color="#B3DAFE"/>
</linearGradient>
<linearGradient id="paint32_linear_29_35272" x1="7.87032" y1="16.765" x2="8.43503" y2="15.965" gradientUnits="userSpaceOnUse">
<stop stop-color="#1F3596" stop-opacity="0"/>
<stop offset="0.4068" stop-color="#1D3290" stop-opacity="0.407"/>
<stop offset="0.9508" stop-color="#192B7F" stop-opacity="0.951"/>
<stop offset="1" stop-color="#192A7D"/>
</linearGradient>
<linearGradient id="paint33_linear_29_35272" x1="7.23074" y1="12.6972" x2="9.41484" y2="14.8813" gradientUnits="userSpaceOnUse">
<stop stop-color="#D5DAF3"/>
<stop offset="1" stop-color="#60B7FF"/>
</linearGradient>
<linearGradient id="paint34_linear_29_35272" x1="10.5527" y1="13.9597" x2="7.91443" y2="13.9597" gradientUnits="userSpaceOnUse">
<stop stop-color="#D5DAF3"/>
<stop offset="1" stop-color="#60B7FF"/>
</linearGradient>
<linearGradient id="paint35_linear_29_35272" x1="7.75914" y1="12.2529" x2="9.78893" y2="13.6172" gradientUnits="userSpaceOnUse">
<stop stop-color="#D5DAF3"/>
<stop offset="1" stop-color="#60B7FF"/>
</linearGradient>
<linearGradient id="paint36_linear_29_35272" x1="4.76465" y1="16.0746" x2="5.47053" y2="16.0746" gradientUnits="userSpaceOnUse">
<stop stop-color="#EAF9FA"/>
<stop offset="1" stop-color="#B3DAFE"/>
</linearGradient>
<linearGradient id="paint37_linear_29_35272" x1="19.04" y1="19.4115" x2="19.7459" y2="19.4115" gradientUnits="userSpaceOnUse">
<stop stop-color="#EAF9FA"/>
<stop offset="1" stop-color="#B3DAFE"/>
</linearGradient>
<clipPath id="clip0_29_35272">
<rect width="24" height="24" fill="white"/>
</clipPath>
</defs>
</svg>
