<svg width="24" height="24" viewBox="0 0 24 24" fill="none" xmlns="http://www.w3.org/2000/svg">
<g clip-path="url(#clip0_29_35285)">
<path d="M23.4965 8.29561H22.4288L22.7326 7.99184C22.8106 7.91383 22.8536 7.8102 22.8536 7.69978C22.8536 7.58955 22.8106 7.48573 22.7326 7.40773C22.6546 7.32973 22.5509 7.2867 22.4405 7.2867C22.3301 7.2867 22.2265 7.32973 22.1485 7.40773L21.2606 8.29561H20.35L21.2511 7.39455C21.3293 7.31636 21.3721 7.21272 21.3721 7.10231C21.3721 6.99208 21.3293 6.88826 21.2513 6.81026C21.1732 6.73225 21.0694 6.68922 20.959 6.68922C20.8488 6.68922 20.745 6.73225 20.6671 6.81026L19.2638 8.2134C19.0496 8.04567 18.7064 7.92299 18.239 7.84682L18.4776 7.74538C18.6872 7.6562 18.7854 7.41322 18.6964 7.20375C18.6532 7.10213 18.5731 7.02339 18.4706 6.98201C18.3684 6.94063 18.256 6.94191 18.1546 6.98494L18.007 7.04774C18.2447 6.70094 18.3796 6.40156 18.4102 6.15291H20.3947C20.6225 6.15291 20.8078 5.9676 20.8078 5.73982C20.8078 5.51203 20.6225 5.32673 20.3947 5.32673H19.1203L19.7641 4.68293H21.0198C21.2476 4.68293 21.4329 4.49763 21.4329 4.26985C21.4329 4.04206 21.2476 3.85658 21.0198 3.85658H20.5902L21.345 3.10181C21.4232 3.02381 21.466 2.91999 21.466 2.80976C21.466 2.69935 21.4232 2.59553 21.3452 2.51771C21.2672 2.43952 21.1634 2.39667 21.0529 2.39667C20.9427 2.39667 20.8389 2.43952 20.7609 2.51771L20.0061 3.27247V2.8429C20.0061 2.61512 19.8208 2.42981 19.5929 2.42981C19.3651 2.42981 19.1798 2.61512 19.1798 2.8429V4.09882L18.536 4.74262V3.46802C18.536 3.24024 18.3507 3.05494 18.1229 3.05494C17.8951 3.05494 17.7098 3.24024 17.7098 3.46802V5.45234C17.4397 5.4853 17.1103 5.64112 16.726 5.91761L16.823 5.67738C16.9082 5.46608 16.8056 5.22493 16.5943 5.1396C16.3832 5.05464 16.142 5.15699 16.0569 5.36811L15.9968 5.5168C15.9198 5.10353 15.8035 4.79627 15.6493 4.59889L17.0525 3.19575C17.1305 3.11774 17.1735 3.01411 17.1735 2.90369C17.1735 2.79328 17.1305 2.68964 17.0526 2.61164C16.9744 2.53364 16.8708 2.49061 16.7604 2.49061C16.65 2.49061 16.5463 2.53364 16.4683 2.61164L15.5671 3.51289V2.6023L16.455 1.71442C16.533 1.63642 16.576 1.5326 16.576 1.42218C16.576 1.31195 16.533 1.20813 16.4552 1.13013C16.3772 1.05213 16.2733 1.0091 16.1629 1.0091C16.0525 1.0091 15.9489 1.05213 15.8709 1.13013L15.5671 1.4339V0.366212C15.5671 0.138428 15.3818 -0.046875 15.154 -0.046875C14.9262 -0.046875 14.7409 0.138428 14.7409 0.366212V1.4339L14.4373 1.13013C14.3591 1.05213 14.2555 1.0091 14.1451 1.0091C14.0347 1.0091 13.931 1.05213 13.853 1.13013C13.775 1.20813 13.732 1.31177 13.732 1.42218C13.732 1.5326 13.775 1.63623 13.853 1.71424L14.7409 2.60212V3.5127L13.8399 2.61164C13.7619 2.53345 13.658 2.49061 13.5476 2.49061C13.4372 2.49061 13.3336 2.53345 13.2556 2.61146C13.1776 2.68964 13.1345 2.79328 13.1345 2.90369C13.1345 3.01392 13.1776 3.11774 13.2556 3.19575L14.6587 4.59889C14.491 4.81312 14.3683 5.15626 14.2921 5.62373L14.1907 5.38514C14.1475 5.28352 14.0673 5.20478 13.9651 5.16358C13.8627 5.1222 13.7503 5.1233 13.6489 5.16651C13.5474 5.20973 13.4687 5.28974 13.4275 5.3921C13.3861 5.49427 13.3872 5.6067 13.4303 5.70814L13.4929 5.85554C13.1461 5.61787 12.8469 5.48292 12.5982 5.45253V3.46802C12.5982 3.24024 12.4129 3.05494 12.1851 3.05494C11.9573 3.05494 11.772 3.24024 11.772 3.46802V4.74262L11.1282 4.09882V2.8429C11.1282 2.61512 10.9428 2.42981 10.7152 2.42981C10.4872 2.42981 10.3019 2.61512 10.3019 2.8429V3.27247L9.54713 2.51771C9.46912 2.4397 9.3653 2.39667 9.25507 2.39667C9.14466 2.39667 9.04084 2.4397 8.96302 2.51771C8.88483 2.59571 8.84198 2.69935 8.84198 2.80976C8.84198 2.92017 8.88483 3.02381 8.96302 3.10181L9.71778 3.85676H9.28821C9.06043 3.85676 8.87513 4.04206 8.87513 4.26985C8.87513 4.49763 9.06043 4.68293 9.28821 4.68293H10.544L11.1878 5.32673H9.91334C9.68555 5.32673 9.50025 5.51203 9.50025 5.73982C9.50025 5.9676 9.68555 6.15291 9.91334 6.15291H11.8977C11.9306 6.42317 12.0863 6.75239 12.3629 7.13673L12.1225 7.03969C11.9112 6.95454 11.6701 7.05727 11.5849 7.2682C11.5437 7.37056 11.5446 7.48299 11.5878 7.58443C11.6311 7.68605 11.7111 7.7646 11.8134 7.80598L11.9619 7.86586C11.5487 7.94295 11.2416 8.05922 11.0442 8.2134L9.64106 6.81026C9.56306 6.73225 9.45923 6.68922 9.34882 6.68922C9.23859 6.68922 9.13477 6.73225 9.05695 6.81026C8.97876 6.88826 8.93592 6.99208 8.93592 7.10231C8.93592 7.21272 8.97876 7.31636 9.05695 7.39436L9.95801 8.29561H9.04743L8.15955 7.40773C8.08155 7.32973 7.97791 7.2867 7.8675 7.2867C7.75708 7.2867 7.65344 7.32973 7.57544 7.40773C7.49744 7.48573 7.45441 7.58955 7.45441 7.69978C7.45441 7.8102 7.49744 7.91402 7.57544 7.99184L7.87921 8.29561H6.81152C6.58374 8.29561 6.39844 8.48091 6.39844 8.7087C6.39844 8.93648 6.58374 9.12178 6.81152 9.12178H7.87921L7.57544 9.42556C7.49744 9.50356 7.45441 9.60738 7.45441 9.71761C7.45441 9.82802 7.49744 9.93166 7.57544 10.0097C7.65344 10.0878 7.75727 10.1307 7.8675 10.1307C7.97791 10.1307 8.08173 10.0878 8.15955 10.0097L9.04743 9.12178H9.95801L9.05695 10.023C8.97876 10.101 8.93592 10.2049 8.93592 10.3151C8.93592 10.4255 8.97876 10.5291 9.05695 10.6071C9.13495 10.6853 9.23859 10.7282 9.349 10.7282C9.45923 10.7282 9.56306 10.6853 9.64106 10.6071L11.0442 9.204C11.2584 9.37172 11.6016 9.49459 12.069 9.57076L11.8305 9.6722C11.6208 9.76119 11.5228 10.0042 11.6118 10.2138C11.6766 10.3667 11.8259 10.4654 11.9921 10.4654C12.0478 10.4654 12.1022 10.4542 12.1535 10.4325L12.301 10.3698C12.0634 10.7166 11.9284 11.0158 11.8978 11.2645H9.91334C9.68555 11.2645 9.50025 11.4498 9.50025 11.6776C9.50025 11.9054 9.68555 12.0907 9.91334 12.0907H11.1879L10.5441 12.7346H9.28821C9.06043 12.7346 8.87513 12.9199 8.87513 13.1477C8.87513 13.3755 9.06043 13.5608 9.28821 13.5608H9.71778L8.96302 14.3156C8.88501 14.3936 8.84198 14.4974 8.84198 14.6078C8.84198 14.718 8.88483 14.8219 8.96283 14.8997C9.04084 14.9779 9.14466 15.0209 9.25507 15.0209C9.36548 15.0209 9.46912 14.9779 9.54713 14.8999L10.3021 14.1449V14.5745C10.3021 14.8023 10.4874 14.9876 10.7152 14.9876C10.9429 14.9876 11.1282 14.8023 11.1282 14.5745V13.3188L11.772 12.675V13.9494C11.772 14.1772 11.9573 14.3625 12.1851 14.3625C12.4129 14.3625 12.5982 14.1772 12.5982 13.9494V11.966C12.8681 11.9328 13.1975 11.7766 13.582 11.5L13.4852 11.7402C13.3999 11.9513 13.5024 12.1927 13.7137 12.2778C13.7631 12.2978 13.815 12.308 13.8681 12.308C14.0374 12.308 14.1878 12.2064 14.2513 12.0493L14.3112 11.9008C14.3883 12.3141 14.5045 12.6211 14.6589 12.8185L13.2556 14.2218C13.1776 14.2998 13.1345 14.4035 13.1345 14.5139C13.1345 14.6243 13.1776 14.7279 13.2556 14.8059C13.3336 14.8839 13.4372 14.927 13.5476 14.927C13.658 14.927 13.7619 14.8839 13.8397 14.8059L14.7409 13.9047V14.8153L13.853 15.7032C13.775 15.7812 13.732 15.885 13.732 15.9952C13.732 16.1056 13.775 16.2094 13.853 16.2873C13.931 16.3654 14.0347 16.4083 14.1451 16.4083C14.2555 16.4083 14.3591 16.3654 14.4372 16.2874L14.7409 15.9837V17.0512C14.7409 17.279 14.9262 17.4643 15.154 17.4643C15.3818 17.4643 15.5671 17.279 15.5671 17.0512V15.9837L15.8709 16.2873C15.9489 16.3653 16.0525 16.4083 16.1629 16.4083C16.2733 16.4083 16.3772 16.3653 16.455 16.2873C16.533 16.2093 16.576 16.1056 16.576 15.9952C16.576 15.8848 16.533 15.7812 16.455 15.7032L15.5671 14.8153V13.9047L16.4683 14.8059C16.5462 14.8839 16.65 14.927 16.7604 14.927C16.8708 14.927 16.9746 14.8839 17.0525 14.8059C17.1305 14.7279 17.1735 14.6243 17.1735 14.5139C17.1735 14.4035 17.1305 14.2998 17.0525 14.2218L15.6493 12.8187C15.817 12.6043 15.9397 12.2613 16.0161 11.7938L16.1173 12.0324C16.1823 12.1851 16.3316 12.284 16.4976 12.284C16.5535 12.284 16.6077 12.2729 16.6591 12.2511C16.7608 12.2078 16.8393 12.1276 16.8807 12.0255C16.9219 11.9231 16.921 11.8109 16.8778 11.7093L16.8151 11.562C17.1621 11.7999 17.4615 11.9352 17.7098 11.966V13.9494C17.7098 14.1772 17.8951 14.3625 18.1231 14.3625C18.3509 14.3625 18.5362 14.1772 18.5362 13.9494V12.675L19.18 13.3188V14.5745C19.18 14.8023 19.3653 14.9876 19.593 14.9876C19.8208 14.9876 20.0061 14.8023 20.0061 14.5745V14.1449L20.7609 14.8997C20.8389 14.9779 20.9427 15.0209 21.0531 15.0209C21.1635 15.0209 21.2672 14.9779 21.3452 14.8999C21.4232 14.8217 21.4662 14.718 21.4662 14.6076C21.4662 14.4974 21.4232 14.3936 21.3452 14.3156L20.5902 13.5608H21.0198C21.2476 13.5608 21.4329 13.3753 21.4329 13.1475C21.4329 12.9198 21.2476 12.7345 21.0198 12.7345H19.7641L19.1203 12.0907H20.3947C20.6225 12.0907 20.8078 11.9054 20.8078 11.6776C20.8078 11.4498 20.6225 11.2645 20.3947 11.2645H18.4104C18.3774 10.9942 18.2218 10.665 17.9451 10.2807L18.1855 10.3777C18.2349 10.3975 18.2868 10.4077 18.3399 10.4077C18.5092 10.4077 18.6596 10.3063 18.7231 10.1492C18.7643 10.0468 18.7634 9.93459 18.7202 9.83297C18.677 9.73153 18.5969 9.65279 18.4946 9.61159L18.3461 9.55153C18.7594 9.47445 19.0664 9.35817 19.2638 9.204L20.667 10.6071C20.745 10.6853 20.8488 10.7282 20.959 10.7282C21.0694 10.7282 21.1732 10.6853 21.2511 10.6071C21.3293 10.5291 21.3721 10.4255 21.3721 10.3151C21.3721 10.2049 21.3293 10.101 21.2511 10.023L20.35 9.12178H21.2606L22.1485 10.0097C22.2265 10.0877 22.3301 10.1307 22.4405 10.1307C22.5509 10.1307 22.6546 10.0877 22.7326 10.0097C22.8106 9.93166 22.8536 9.82784 22.8536 9.71761C22.8536 9.6072 22.8106 9.50356 22.7326 9.42556L22.4288 9.12178H23.4965C23.7243 9.12178 23.9096 8.93648 23.9096 8.7087C23.9096 8.48091 23.7243 8.29561 23.4965 8.29561ZM18.3509 8.7087C18.0654 8.77663 17.6521 8.83138 17.1352 8.83138C16.9131 8.83138 16.6972 8.82112 16.4931 8.8008C16.4508 8.76894 16.4088 8.73818 16.3675 8.7087C16.4087 8.6794 16.4506 8.64864 16.4927 8.61678C16.697 8.59645 16.9131 8.5862 17.1352 8.5862C17.6521 8.58602 18.0654 8.64095 18.3509 8.7087ZM16.4682 10.1964C16.3111 10.0393 16.1657 9.87948 16.0357 9.72072C16.0283 9.66817 16.0205 9.6169 16.012 9.56691C16.062 9.57534 16.1135 9.58321 16.166 9.59053C16.3246 9.72054 16.4846 9.86574 16.6417 10.0228C17.007 10.3883 17.2605 10.7194 17.4145 10.9691C17.1645 10.8153 16.8335 10.5619 16.4682 10.1964ZM17.4145 6.44826C17.2605 6.69819 17.007 7.02925 16.6417 7.39455C16.4846 7.55165 16.3246 7.69704 16.166 7.82704C16.1135 7.83437 16.062 7.84224 16.012 7.85066C16.0205 7.80067 16.0283 7.74922 16.0357 7.69667C16.1657 7.5381 16.3111 7.37807 16.4682 7.22096C16.8335 6.85567 17.1645 6.60225 17.4145 6.44826ZM15.2461 7.36964C15.2141 7.41194 15.1835 7.45387 15.154 7.49525C15.1245 7.45387 15.0938 7.41194 15.0619 7.36964C15.0416 7.16548 15.0313 6.94978 15.0313 6.72749C15.0313 6.21058 15.0861 5.7975 15.154 5.51185C15.2218 5.7975 15.2767 6.21058 15.2767 6.72749C15.2767 6.94978 15.2663 7.16548 15.2461 7.36964ZM15.0619 10.0477C15.0938 10.0056 15.1245 9.9637 15.154 9.92232C15.1835 9.9637 15.2141 10.0056 15.2461 10.0477C15.2663 10.2521 15.2767 10.4678 15.2767 10.6901C15.2767 11.207 15.2218 11.6201 15.154 11.9055C15.0861 11.6201 15.0313 11.2068 15.0313 10.6901C15.0313 10.4678 15.0416 10.2521 15.0619 10.0477ZM14.2958 9.56691C14.2874 9.6169 14.2795 9.66835 14.2722 9.72091C14.1422 9.87948 13.997 10.0393 13.8399 10.1966C13.4744 10.5619 13.1433 10.8153 12.8936 10.9693C13.0474 10.7194 13.3008 10.3883 13.6663 10.023C13.8234 9.86593 13.9832 9.72054 14.142 9.59053C14.1945 9.58321 14.2458 9.57534 14.2958 9.56691ZM13.8399 7.22096C13.997 7.37825 14.1422 7.5381 14.2722 7.69685C14.2795 7.74922 14.2874 7.80067 14.2958 7.85066C14.2458 7.84224 14.1944 7.83437 14.142 7.82704C13.9832 7.69704 13.8234 7.55165 13.6663 7.39473C13.3008 7.02925 13.0474 6.69819 12.8934 6.44826C13.1433 6.60225 13.4744 6.85567 13.8399 7.22096ZM13.9406 8.7087C13.899 8.73818 13.8571 8.76894 13.8148 8.8008C13.6106 8.82112 13.3947 8.83138 13.1728 8.83138C12.6557 8.83138 12.2426 8.77663 11.9572 8.7087C12.2426 8.64095 12.6559 8.58602 13.1728 8.58602C13.3949 8.58602 13.6108 8.59645 13.8151 8.61659C13.8573 8.64864 13.8992 8.67922 13.9406 8.7087Z" fill="url(#paint0_linear_29_35285)"/>
<path d="M15.1551 17.1375C15.1077 17.1375 15.069 17.0989 15.069 17.0515V15.1944L14.207 16.0563C14.185 16.0783 14.1594 16.0814 14.1462 16.0814C14.1328 16.0814 14.1072 16.0783 14.0854 16.0563C14.0632 16.0343 14.0601 16.0087 14.0601 15.9955C14.0601 15.9821 14.0632 15.9565 14.0852 15.9347L15.069 14.9509V13.1153L13.6093 14.5748C13.5875 14.5968 13.5619 14.6001 13.5485 14.6001C13.5352 14.6001 13.5097 14.5968 13.4877 14.5748C13.4658 14.5528 13.4625 14.5272 13.4625 14.514C13.4625 14.5006 13.4658 14.475 13.4877 14.4532L15.1273 12.8137L14.9812 12.6859C14.779 12.5086 14.6268 12.0111 14.5637 11.3208L14.2143 11.2694L13.9488 11.9271C13.9356 11.9599 13.9043 11.9809 13.869 11.9809C13.858 11.9809 13.8472 11.9789 13.8369 11.9747C13.8082 11.963 13.7952 11.9408 13.7899 11.9285C13.7847 11.9163 13.7776 11.8914 13.7893 11.8626L14.0918 11.1132L13.8051 10.9074C13.2576 11.3767 12.7795 11.6458 12.4933 11.6458C12.484 11.6458 12.4748 11.6453 12.4655 11.6447L12.2721 11.6321V13.9497C12.2721 13.9971 12.2335 14.0355 12.186 14.0355C12.1386 14.0355 12.1 13.9971 12.1 13.9497V11.8855L10.8019 13.1834V14.5746C10.8019 14.622 10.7635 14.6607 10.7161 14.6607C10.6685 14.6607 10.6298 14.6222 10.6298 14.5746V13.3555L9.31678 14.6687C9.2948 14.6907 9.26917 14.694 9.2558 14.694C9.24244 14.694 9.21698 14.6907 9.1952 14.6687C9.17304 14.6468 9.16974 14.6213 9.16974 14.6079C9.16974 14.5946 9.17304 14.5691 9.19501 14.5471L10.5082 13.2339H9.28913C9.2417 13.2339 9.20307 13.1953 9.20307 13.1479C9.20307 13.1004 9.24152 13.0618 9.28913 13.0618H10.6804L11.9782 11.7639H9.91407C9.86664 11.7639 9.82819 11.7253 9.82819 11.6779C9.82819 11.6305 9.86664 11.5918 9.91407 11.5918H12.2329L12.2201 11.3981C12.2023 11.1297 12.4466 10.6704 12.8901 10.1378L12.6793 9.85414L12.0266 10.1315C12.0158 10.1361 12.0046 10.1385 11.9931 10.1385C11.9584 10.1385 11.9273 10.118 11.9138 10.0861C11.8953 10.0424 11.9156 9.99184 11.9594 9.97316L12.7031 9.65712L12.646 9.30886C11.9002 9.25154 11.3652 9.09609 11.178 8.88258L11.0502 8.73665L9.41071 10.3762C9.38874 10.398 9.3631 10.4013 9.34992 10.4013C9.33655 10.4013 9.31092 10.398 9.28913 10.3762C9.26716 10.354 9.26386 10.3286 9.26386 10.3152C9.26386 10.3018 9.26716 10.2764 9.28895 10.2544L10.7485 8.79488H8.91285L7.9292 9.77852C7.90741 9.80049 7.88178 9.80379 7.86841 9.80379C7.85523 9.80379 7.82959 9.80049 7.80762 9.77852C7.78565 9.75655 7.78235 9.7311 7.78235 9.71773C7.78235 9.70436 7.78565 9.67873 7.80762 9.65694L8.6695 8.79488H6.81244C6.76501 8.79488 6.72656 8.75624 6.72656 8.70882C6.72656 8.66139 6.76501 8.62276 6.81244 8.62276H8.6695L7.80762 7.7607C7.78565 7.73872 7.78253 7.71309 7.78253 7.6999C7.78253 7.68654 7.78565 7.6609 7.80762 7.63911C7.82959 7.61714 7.85523 7.61384 7.86841 7.61384C7.88178 7.61384 7.90741 7.61714 7.9292 7.63893L8.91303 8.62276H10.7487L9.28913 7.16322C9.26716 7.14125 9.26386 7.11561 9.26386 7.10243C9.26386 7.08906 9.26716 7.06343 9.28913 7.04146C9.3111 7.01948 9.33655 7.01637 9.34992 7.01637C9.36329 7.01637 9.38892 7.01948 9.41071 7.04146L11.0502 8.68099L11.1782 8.53505C11.3553 8.33272 11.8528 8.18056 12.5431 8.11757L12.5946 7.76802L11.937 7.5027C11.8929 7.48494 11.8717 7.43458 11.8892 7.39064C11.9026 7.35805 11.9339 7.33681 11.9692 7.33681C11.9801 7.33681 11.991 7.33882 12.0015 7.34303L12.7507 7.64552L12.9567 7.35878C12.4699 6.79097 12.2014 6.30281 12.2201 6.01954L12.2329 5.82582H9.91443C9.86701 5.82582 9.82838 5.78736 9.82838 5.73976C9.82838 5.69233 9.86701 5.6537 9.91443 5.6537H11.9784L10.6805 4.35584H9.28931C9.24189 4.35584 9.20325 4.31721 9.20325 4.26978C9.20325 4.22236 9.24189 4.18372 9.28931 4.18372H10.5084L9.1952 2.87049C9.17322 2.84852 9.17011 2.82288 9.17011 2.8097C9.17011 2.79633 9.17322 2.7707 9.1952 2.74891C9.21717 2.72693 9.2428 2.72364 9.25617 2.72364C9.26935 2.72364 9.29499 2.72693 9.31678 2.74891L10.6302 4.06214V2.84302C10.6302 2.7956 10.6686 2.75696 10.7163 2.75696C10.7637 2.75696 10.8021 2.7956 10.8021 2.84302V4.23426L12.1002 5.5323V3.46815C12.1002 3.42072 12.1388 3.38209 12.1862 3.38209C12.2337 3.38209 12.2723 3.42072 12.2723 3.46815V5.78663L12.466 5.77381C12.4752 5.77326 12.4847 5.7729 12.494 5.7729C12.7692 5.7729 13.2069 6.01112 13.7263 6.44362L14.0098 6.23304L13.7324 5.58045C13.7203 5.55189 13.7269 5.52699 13.7318 5.51454C13.7368 5.50227 13.7494 5.47975 13.778 5.46748C13.7888 5.4629 13.8001 5.46052 13.8115 5.46052C13.8461 5.46052 13.8772 5.48121 13.8908 5.51307L14.2068 6.25685L14.5553 6.19972C14.6124 5.45393 14.7678 4.91889 14.9813 4.73194L15.1275 4.60395L13.4877 2.9646C13.466 2.94263 13.4627 2.917 13.4627 2.90363C13.4627 2.89045 13.466 2.86481 13.4877 2.84302C13.5097 2.82087 13.5354 2.81775 13.5487 2.81775C13.5619 2.81775 13.5875 2.82087 13.6093 2.84284L15.069 4.30238V2.46674L14.0854 1.4831C14.0634 1.46112 14.0601 1.43549 14.0601 1.4223C14.0601 1.40894 14.0634 1.3833 14.0854 1.36151C14.1074 1.33954 14.1328 1.33624 14.1462 1.33624C14.1596 1.33624 14.185 1.33954 14.207 1.36151L15.069 2.22339V0.366333C15.069 0.318909 15.1077 0.280273 15.1551 0.280273C15.2025 0.280273 15.2412 0.318909 15.2412 0.366333V2.22339L16.1032 1.36151C16.1252 1.33954 16.1507 1.33624 16.164 1.33624C16.1774 1.33624 16.203 1.33954 16.2248 1.36151C16.2468 1.38349 16.2501 1.40912 16.2501 1.4223C16.2501 1.43567 16.2468 1.46112 16.2248 1.4831L15.2412 2.46674V4.30238L16.7007 2.84302C16.7227 2.82105 16.7483 2.81775 16.7617 2.81775C16.7749 2.81775 16.8005 2.82105 16.8223 2.84302C16.8444 2.865 16.8476 2.89045 16.8476 2.90381C16.8476 2.91718 16.8444 2.94263 16.8225 2.9646L15.1829 4.60413L15.3289 4.73194C15.5312 4.90919 15.6834 5.40669 15.7464 6.09681L16.0959 6.14845L16.3614 5.49073C16.3746 5.45796 16.4059 5.4369 16.4412 5.4369C16.4522 5.4369 16.463 5.43891 16.4735 5.44313C16.502 5.45466 16.515 5.477 16.5203 5.48927C16.5255 5.50154 16.5324 5.52626 16.5209 5.555L16.2184 6.30464L16.5051 6.51045C17.0519 6.0417 17.5298 5.7729 17.8164 5.7729C17.8259 5.7729 17.8352 5.77326 17.8444 5.774L18.0381 5.78663V3.46815C18.0381 3.42072 18.0767 3.38209 18.1242 3.38209C18.1716 3.38209 18.2102 3.42072 18.2102 3.46815V5.5323L19.5081 4.23426V2.84302C19.5081 2.7956 19.5467 2.75696 19.5941 2.75696C19.6416 2.75696 19.6802 2.7956 19.6802 2.84302V4.06232L20.9934 2.74909C21.0154 2.72712 21.041 2.72382 21.0542 2.72382C21.0676 2.72382 21.0932 2.72712 21.115 2.74909C21.1372 2.77106 21.1403 2.79651 21.1403 2.80988C21.1403 2.82306 21.1372 2.8487 21.1152 2.87067L19.8018 4.18391H21.0209C21.0683 4.18391 21.107 4.22236 21.107 4.26997C21.107 4.31739 21.0683 4.35603 21.0209 4.35603H19.6297L18.3316 5.65388H20.3958C20.4432 5.65388 20.4818 5.69252 20.4818 5.73994C20.4818 5.78736 20.4432 5.826 20.3958 5.826H18.0773L18.0901 6.01973C18.1077 6.28798 17.8636 6.74739 17.4201 7.28004L17.6307 7.56349L18.2835 7.28609C18.2945 7.28151 18.3056 7.27913 18.3172 7.27913C18.3516 7.27913 18.3827 7.29982 18.3963 7.33168C18.4148 7.37526 18.3944 7.42598 18.3507 7.44447L17.6071 7.76051L17.6642 8.10896C18.4098 8.16628 18.9448 8.32155 19.132 8.53505L19.2598 8.68117L20.8993 7.04164C20.9213 7.01967 20.9467 7.01637 20.9601 7.01637C20.9735 7.01637 20.9991 7.01967 21.0209 7.04164C21.0429 7.06361 21.0462 7.08925 21.0462 7.10243C21.0462 7.1158 21.0429 7.14143 21.0211 7.16322L19.5615 8.62294H21.397L22.3808 7.63911C22.4026 7.61714 22.4283 7.61403 22.4416 7.61403C22.4548 7.61403 22.4804 7.61714 22.5022 7.63911C22.5244 7.66109 22.5275 7.68672 22.5275 7.6999C22.5275 7.71327 22.5244 7.73891 22.5024 7.7607L21.6403 8.62294H23.4976C23.545 8.62294 23.5835 8.66158 23.5835 8.709C23.5835 8.75642 23.545 8.79488 23.4976 8.79488H21.6403L22.5022 9.65694C22.5244 9.67891 22.5275 9.70455 22.5275 9.71791C22.5275 9.7311 22.5244 9.75673 22.5024 9.7787C22.4804 9.80068 22.4548 9.80397 22.4414 9.80397C22.4283 9.80397 22.4026 9.80068 22.3808 9.7787L21.397 8.79488H19.5614L21.0209 10.2546C21.0429 10.2764 21.046 10.302 21.046 10.3154C21.046 10.3286 21.0429 10.3542 21.0209 10.3762C20.9989 10.3982 20.9733 10.4014 20.9601 10.4014C20.9467 10.4014 20.9211 10.3982 20.8993 10.3762L19.2598 8.73665L19.1318 8.88277C18.9547 9.08492 18.4572 9.23708 17.7669 9.30025L17.7155 9.64962L18.373 9.91512C18.4019 9.92665 18.4149 9.94899 18.4201 9.96126C18.4254 9.97353 18.4323 9.99825 18.4208 10.027C18.4074 10.0598 18.3761 10.081 18.3408 10.081C18.3298 10.081 18.319 10.0788 18.3087 10.0746L17.5593 9.7723L17.3533 10.059C17.8402 10.6269 18.1086 11.1148 18.0899 11.3983L18.0771 11.5918H20.3956C20.443 11.5918 20.4817 11.6305 20.4817 11.6781C20.4817 11.7255 20.443 11.7639 20.3956 11.7639H18.3314L19.6295 13.062H21.0207C21.0681 13.062 21.1068 13.1004 21.1068 13.148C21.1068 13.1955 21.0681 13.2341 21.0207 13.2341H19.8016L21.1148 14.5473C21.1366 14.5693 21.1399 14.5948 21.1399 14.6081C21.1399 14.6215 21.1366 14.6469 21.1148 14.6689C21.0927 14.6909 21.0672 14.6942 21.0539 14.6942C21.0407 14.6942 21.015 14.6909 20.9933 14.6689L19.6798 13.3557V14.5748C19.6798 14.6222 19.6414 14.6609 19.5938 14.6609C19.5464 14.6609 19.5079 14.6222 19.5079 14.5748V13.1836L18.2099 11.8857V13.9497C18.2099 13.9971 18.1712 14.0357 18.1238 14.0357C18.0764 14.0357 18.0377 13.9971 18.0377 13.9497V11.6321L17.8442 11.6447C17.835 11.6455 17.8259 11.646 17.8165 11.646C17.5419 11.646 17.1041 11.4072 16.5837 10.9742L16.3003 11.1848L16.5777 11.8375C16.5897 11.8661 16.5831 11.891 16.5782 11.9033C16.5733 11.9157 16.5606 11.9383 16.5321 11.9503C16.5213 11.9549 16.5101 11.9571 16.4986 11.9571C16.4639 11.9571 16.4328 11.9366 16.4193 11.9047L16.1032 11.161L15.7548 11.2181C15.6975 11.9639 15.5422 12.4989 15.3287 12.6859L15.1826 12.8139L16.8221 14.4532C16.8441 14.4752 16.8474 14.5008 16.8474 14.5142C16.8474 14.5274 16.8441 14.553 16.8221 14.5748C16.8001 14.597 16.7747 14.6001 16.7613 14.6001C16.7479 14.6001 16.7223 14.597 16.7005 14.575L15.2408 13.1154V14.9511L16.2246 15.9347C16.2466 15.9567 16.2497 15.9823 16.2497 15.9955C16.2497 16.0089 16.2466 16.0345 16.2246 16.0563C16.2027 16.0783 16.177 16.0816 16.1638 16.0816C16.1505 16.0816 16.1248 16.0783 16.103 16.0565L15.2408 15.1944V17.0515C15.2412 17.0989 15.2025 17.1375 15.1551 17.1375ZM15.2923 12.4887L15.3465 12.3709C15.4713 12.1001 15.6048 11.5162 15.6048 10.6902C15.6048 10.4419 15.5925 10.2006 15.5682 9.97316L15.5629 9.92244L15.5318 9.88198C15.4481 9.77266 15.3728 9.66609 15.308 9.5652L15.1551 9.32698L15.002 9.5652C14.9374 9.66609 14.8621 9.77266 14.7783 9.88198L14.7473 9.92244L14.7418 9.97316C14.7177 10.2006 14.7054 10.4419 14.7054 10.6902C14.7054 11.5162 14.8387 12.1001 14.9636 12.3709L15.018 12.4887C15.018 12.4887 15.1524 12.4751 15.1551 12.4748C15.158 12.4751 15.2923 12.4887 15.2923 12.4887ZM15.6526 9.42256C15.6781 9.5392 15.7 9.66774 15.7182 9.80471L15.7249 9.85543L15.757 9.89498C15.9005 10.073 16.0624 10.2522 16.238 10.4278C16.8219 11.0117 17.3293 11.3303 17.6093 11.4336L17.7307 11.4785C17.7307 11.4785 17.8164 11.3739 17.818 11.3717C17.8204 11.3699 17.9248 11.2844 17.9248 11.2844L17.8799 11.163C17.7764 10.883 17.458 10.3758 16.8741 9.79189C16.6985 9.61611 16.5192 9.45442 16.3413 9.31069L16.3015 9.27864L16.251 9.27187C16.114 9.25374 15.9853 9.23177 15.8687 9.20632L15.5922 9.14589L15.6526 9.42256ZM12.5795 11.4787L12.7009 11.4338C12.9809 11.3303 13.4881 11.0117 14.0722 10.4278C14.2478 10.2524 14.4097 10.073 14.5532 9.89498L14.5853 9.85543L14.5921 9.80471C14.6102 9.66774 14.6322 9.5392 14.6576 9.42256L14.718 9.14589L14.4414 9.20632C14.3247 9.23177 14.1962 9.25392 14.0592 9.27205L14.0087 9.27864L13.9689 9.31069C13.791 9.45442 13.6117 9.61629 13.4361 9.79189C12.8522 10.3758 12.5336 10.883 12.4303 11.163L12.3854 11.2846C12.3854 11.2846 12.49 11.3701 12.4922 11.3717C12.494 11.3743 12.5795 11.4787 12.5795 11.4787ZM17.1363 8.25911C16.888 8.25911 16.6467 8.27156 16.4191 8.29573L16.3684 8.30122L16.3279 8.33217C16.2182 8.41621 16.1117 8.49147 16.0113 8.55592L15.7731 8.709L16.0113 8.86189C16.112 8.92653 16.2186 9.00179 16.3281 9.08565L16.3685 9.11678L16.4193 9.12209C16.6467 9.14644 16.888 9.15871 17.1363 9.15871C17.9623 9.15871 18.5462 9.02522 18.817 8.90035L18.9348 8.84615C18.9348 8.84615 18.9212 8.71175 18.9209 8.709C18.9212 8.70607 18.9348 8.57185 18.9348 8.57185L18.817 8.51765C18.5462 8.39259 17.9623 8.25911 17.1363 8.25911ZM11.3753 8.84596L11.493 8.90035C11.764 9.02522 12.3477 9.15871 13.1737 9.15871C13.4218 9.15871 13.6632 9.14626 13.8908 9.12209L13.9415 9.11659L13.9819 9.08547C14.0914 9.0016 14.198 8.92616 14.2987 8.86171L14.5371 8.70863L14.2987 8.55574C14.1982 8.49129 14.0916 8.41603 13.9823 8.33217L13.9417 8.30104L13.8909 8.29573C13.6635 8.27138 13.4222 8.25911 13.1737 8.25911C12.3477 8.25911 11.7638 8.39259 11.493 8.51747L11.3753 8.57167C11.3753 8.57167 11.3888 8.70607 11.3892 8.70882C11.3888 8.71193 11.3753 8.84596 11.3753 8.84596ZM17.6091 5.98402C17.3291 6.08747 16.8219 6.40608 16.238 6.99C16.0624 7.16542 15.9005 7.34486 15.757 7.52284L15.7249 7.56239L15.7182 7.61311C15.7 7.75008 15.6779 7.87862 15.6524 7.99525L15.5922 8.27193L15.8687 8.2115C15.9853 8.18605 16.1138 8.16389 16.251 8.14577L16.3015 8.13917L16.3413 8.10713C16.5191 7.96339 16.6985 7.80171 16.8741 7.62593C17.4578 7.04201 17.7764 6.5348 17.8799 6.25483L17.9248 6.13325C17.9248 6.13325 17.8202 6.04774 17.818 6.04609C17.816 6.04353 17.7307 5.93916 17.7307 5.93916L17.6091 5.98402ZM12.3854 6.13325L12.4303 6.25483C12.5338 6.5348 12.8522 7.04201 13.4361 7.62593C13.6117 7.80153 13.791 7.96339 13.9689 8.10713L14.0087 8.13917L14.0592 8.14577C14.1962 8.16389 14.3247 8.18605 14.4414 8.2115L14.718 8.27193L14.6576 7.99525C14.6322 7.87862 14.6102 7.75008 14.5921 7.61311L14.5853 7.56239L14.5532 7.52284C14.4097 7.34486 14.2478 7.16542 14.0722 6.99C13.4883 6.40608 12.9809 6.08747 12.7009 5.98402L12.5795 5.93916C12.5795 5.93916 12.4938 6.04371 12.4922 6.04609C12.4898 6.04792 12.3854 6.13325 12.3854 6.13325ZM14.9636 5.04688C14.8387 5.3177 14.7054 5.90162 14.7054 6.72761C14.7054 6.9759 14.7177 7.21724 14.7418 7.44465L14.7473 7.49538L14.7783 7.53584C14.8621 7.64516 14.9374 7.75172 15.002 7.85261L15.1551 8.09084L15.308 7.85261C15.3728 7.75172 15.4481 7.64516 15.5318 7.53584L15.5629 7.49538L15.5682 7.44465C15.5925 7.21724 15.6048 6.9759 15.6048 6.72761C15.6048 5.90162 15.4713 5.3177 15.3465 5.04688L15.2923 4.92915C15.2923 4.92915 15.1577 4.9427 15.1551 4.94306C15.1522 4.9427 15.018 4.92915 15.018 4.92915L14.9636 5.04688Z" fill="url(#paint1_linear_29_35285)"/>
<path d="M8.49062 12.9865H7.96639L8.11543 12.8374C8.1537 12.799 8.17494 12.7481 8.17494 12.6939C8.17494 12.6397 8.1537 12.5888 8.11543 12.5505C8.07716 12.512 8.02626 12.491 7.97206 12.491C7.91786 12.491 7.86678 12.512 7.82851 12.5505L7.39253 12.9865H6.94539L7.38777 12.5439C7.42622 12.5056 7.44728 12.4547 7.44728 12.4005C7.44728 12.3463 7.42622 12.2954 7.38795 12.2571C7.34968 12.2187 7.2986 12.1976 7.2444 12.1976C7.1902 12.1976 7.1393 12.2187 7.10103 12.2571L6.41182 12.9462C6.30671 12.8638 6.13807 12.8035 5.90864 12.766L6.02583 12.7162C6.12874 12.6724 6.17689 12.5532 6.13313 12.4503C6.11207 12.4003 6.0727 12.3617 6.02235 12.3414C5.97218 12.3211 5.91706 12.3216 5.86708 12.3428L5.79475 12.3736C5.91139 12.2033 5.97767 12.0563 5.99269 11.9341H6.96718C7.07905 11.9341 7.17006 11.8431 7.17006 11.7313C7.17006 11.6194 7.07905 11.5284 6.96718 11.5284H6.34132L6.65754 11.2122H7.27425C7.38612 11.2122 7.47713 11.1212 7.47713 11.0093C7.47713 10.8974 7.38612 10.8064 7.27425 10.8064H7.06331L7.4341 10.4358C7.47237 10.3975 7.49342 10.3464 7.49342 10.2922C7.49342 10.238 7.47237 10.1871 7.4341 10.1489C7.39583 10.1106 7.34474 10.0894 7.29054 10.0894C7.23634 10.0894 7.18544 10.1106 7.14717 10.1489L6.77638 10.5197V10.3087C6.77638 10.1968 6.68538 10.1058 6.5735 10.1058C6.46162 10.1058 6.37062 10.1968 6.37062 10.3087V10.9254L6.05458 11.2415V10.6156C6.05458 10.5037 5.96339 10.4127 5.8517 10.4127C5.73982 10.4127 5.64881 10.5037 5.64881 10.6156V11.5901C5.51606 11.6062 5.35438 11.6827 5.1656 11.8186L5.21321 11.7007C5.25514 11.5969 5.20478 11.4784 5.10096 11.4367C4.99732 11.3947 4.87885 11.4451 4.83692 11.5489L4.80744 11.6218C4.76972 11.4189 4.71259 11.268 4.63679 11.171L5.32582 10.4819C5.36427 10.4437 5.38533 10.3928 5.38533 10.3386C5.38533 10.2844 5.36427 10.2335 5.326 10.195C5.28755 10.1567 5.23664 10.1357 5.18244 10.1357C5.12824 10.1357 5.07734 10.1567 5.03907 10.195L4.59651 10.6378V10.1904L5.03248 9.75446C5.07075 9.71619 5.09199 9.66528 5.09199 9.61109C5.09199 9.55689 5.07075 9.50598 5.03248 9.46753C4.99421 9.42926 4.94331 9.4082 4.88911 9.4082C4.83491 9.4082 4.78382 9.42926 4.74555 9.46753L4.59651 9.61676V9.09253C4.59651 8.98065 4.50532 8.88965 4.39362 8.88965C4.28175 8.88965 4.19074 8.98065 4.19074 9.09253V9.61676L4.04151 9.46771C4.00324 9.42926 3.95234 9.4082 3.89814 9.4082C3.84394 9.4082 3.79285 9.42926 3.75459 9.46771C3.71632 9.50598 3.69526 9.55689 3.69526 9.61109C3.69526 9.66528 3.71632 9.71619 3.75459 9.75446L4.19074 10.1906V10.6378L3.74818 10.1952C3.70972 10.1569 3.65882 10.1359 3.60462 10.1359C3.55042 10.1359 3.49952 10.1569 3.46125 10.1952C3.4228 10.2335 3.40174 10.2845 3.40174 10.3387C3.40174 10.3928 3.4228 10.4439 3.46125 10.4821L4.15028 11.1711C4.06788 11.2764 4.00764 11.4449 3.9701 11.6745L3.9203 11.5573C3.89924 11.5073 3.85987 11.4687 3.80952 11.4486C3.75935 11.4282 3.70405 11.4288 3.65424 11.4498C3.60444 11.4711 3.5658 11.5104 3.54548 11.5606C3.52515 11.611 3.5257 11.6661 3.54694 11.7159L3.5777 11.7884C3.40742 11.6716 3.26038 11.6053 3.13825 11.5905V10.6158C3.13825 10.5039 3.04725 10.4129 2.93537 10.4129C2.82349 10.4129 2.73249 10.5039 2.73249 10.6158V11.2416L2.41645 10.9256V10.3089C2.41645 10.197 2.32544 10.106 2.21357 10.106C2.10169 10.106 2.01068 10.197 2.01068 10.3089V10.5198L1.6399 10.1491C1.60163 10.1108 1.55072 10.0897 1.49652 10.0897C1.44232 10.0897 1.39124 10.1108 1.35297 10.1491C1.3147 10.1873 1.29364 10.2384 1.29364 10.2924C1.29364 10.3466 1.3147 10.3977 1.35297 10.436L1.72376 10.8066H1.51282C1.40094 10.8066 1.30994 10.8976 1.30994 11.0095C1.30994 11.1213 1.40094 11.2123 1.51282 11.2123H2.12952L2.44574 11.5286H1.81989C1.70801 11.5286 1.61701 11.6196 1.61701 11.7315C1.61701 11.8433 1.70801 11.9343 1.81989 11.9343H2.79438C2.81049 12.0671 2.88703 12.2288 3.02289 12.4175L2.90479 12.3699C2.80097 12.328 2.6825 12.3784 2.64075 12.4822C2.62043 12.5324 2.62098 12.5875 2.64222 12.6373C2.66327 12.6873 2.70264 12.7259 2.753 12.746L2.82587 12.7755C2.62299 12.8134 2.47211 12.8706 2.37507 12.9464L1.68604 12.2571C1.64777 12.2189 1.59687 12.1978 1.54267 12.1978C1.48828 12.1978 1.43738 12.2189 1.39911 12.2571C1.36084 12.2956 1.33979 12.3465 1.33979 12.4007C1.33979 12.4549 1.36084 12.5058 1.39911 12.5441L1.84168 12.9866H1.39453L0.958559 12.5507C0.92029 12.5122 0.869203 12.4912 0.815004 12.4912C0.760805 12.4912 0.709901 12.5122 0.671632 12.5507C0.633363 12.5889 0.612123 12.6398 0.612123 12.694C0.612123 12.7482 0.63318 12.7991 0.671632 12.8374L0.820863 12.9866H0.296631C0.184754 12.9866 0.09375 13.0776 0.09375 13.1895C0.09375 13.3014 0.184754 13.3924 0.296631 13.3924H0.820863L0.671815 13.5416C0.633363 13.5799 0.612306 13.6308 0.612306 13.685C0.612306 13.7392 0.633363 13.7901 0.671815 13.8284C0.710084 13.8668 0.760988 13.8879 0.815187 13.8879C0.869386 13.8879 0.92029 13.8668 0.958559 13.8284L1.39472 13.3924H1.84186L1.39929 13.835C1.36103 13.8732 1.33997 13.9243 1.33997 13.9783C1.33997 14.0325 1.36103 14.0836 1.39929 14.1219C1.43756 14.1602 1.48865 14.1812 1.54285 14.1812C1.59705 14.1812 1.64795 14.1602 1.68622 14.1219L2.37525 13.4329C2.48053 13.5153 2.64899 13.5755 2.87861 13.6129L2.76142 13.6627C2.65833 13.7064 2.61017 13.8258 2.65394 13.9287C2.6858 14.0038 2.75922 14.0523 2.8407 14.0523C2.86817 14.0523 2.8949 14.0468 2.91999 14.036L2.9925 14.0053C2.87568 14.1755 2.80939 14.3226 2.79456 14.4447H1.81989C1.70801 14.4447 1.61701 14.5357 1.61701 14.6476C1.61701 14.7595 1.70801 14.8505 1.81989 14.8505H2.44574L2.12952 15.1667H1.513C1.40113 15.1667 1.31012 15.2577 1.31012 15.3696C1.31012 15.4815 1.40113 15.5725 1.513 15.5725H1.72394L1.35315 15.9431C1.31488 15.9815 1.29364 16.0324 1.29364 16.0866C1.29364 16.1408 1.31488 16.1917 1.35315 16.23C1.39142 16.2683 1.44232 16.2895 1.49652 16.2895C1.55072 16.2895 1.60181 16.2683 1.64008 16.23L2.01068 15.8592V16.0703C2.01068 16.182 2.10169 16.2732 2.21357 16.2732C2.32544 16.2732 2.41645 16.182 2.41645 16.0703V15.4536L2.73267 15.1374V15.7633C2.73267 15.8751 2.82367 15.9661 2.93555 15.9661C3.04743 15.9661 3.13843 15.8751 3.13843 15.7633V14.7891C3.271 14.7728 3.43268 14.6963 3.62165 14.5603L3.57404 14.6782C3.53211 14.782 3.58247 14.9005 3.68629 14.9422C3.71046 14.9521 3.73591 14.957 3.76209 14.957C3.84522 14.957 3.91901 14.9072 3.95033 14.8302L3.97962 14.7571C4.01752 14.9602 4.07465 15.111 4.15046 15.2079L3.46125 15.8967C3.42298 15.9352 3.40174 15.9861 3.40174 16.0403C3.40174 16.0945 3.42298 16.1454 3.46125 16.1837C3.49952 16.2221 3.55042 16.2432 3.60462 16.2432C3.65882 16.2432 3.70991 16.2221 3.74818 16.1837L4.19074 15.7411V16.1882L3.75459 16.6244C3.71632 16.6627 3.69526 16.7136 3.69526 16.7678C3.69526 16.822 3.71632 16.8729 3.75459 16.9111C3.79285 16.9496 3.84394 16.9707 3.89814 16.9707C3.95234 16.9707 4.00324 16.9496 4.04151 16.9111L4.19074 16.7621V17.2863C4.19074 17.3982 4.28175 17.4892 4.39362 17.4892C4.5055 17.4892 4.59651 17.3982 4.59651 17.2863V16.7621L4.74555 16.9111C4.78382 16.9494 4.83491 16.9707 4.88911 16.9707C4.94331 16.9707 4.99421 16.9494 5.03248 16.9111C5.07093 16.8729 5.09199 16.822 5.09199 16.7678C5.09199 16.7136 5.07093 16.6627 5.03248 16.6244L4.59651 16.1882V15.7411L5.03907 16.1837C5.07734 16.2219 5.12824 16.2432 5.18263 16.2432C5.23683 16.2432 5.28773 16.2219 5.326 16.1837C5.36427 16.1454 5.38533 16.0943 5.38533 16.0403C5.38533 15.9861 5.36427 15.935 5.326 15.8967L4.63697 15.2077C4.71937 15.1024 4.77961 14.934 4.81697 14.7045L4.86677 14.8215C4.89863 14.8966 4.97187 14.9451 5.05354 14.9451C5.08082 14.9451 5.10755 14.9396 5.13282 14.929C5.18281 14.9078 5.22145 14.8684 5.24159 14.8182C5.26191 14.7679 5.26136 14.7128 5.24031 14.663L5.20954 14.5906C5.37983 14.7075 5.52705 14.7739 5.64881 14.789V15.7631C5.64881 15.875 5.73982 15.966 5.8517 15.966C5.96357 15.966 6.05458 15.875 6.05458 15.7631V15.1372L6.3708 15.4533V16.0701C6.3708 16.1818 6.4618 16.2728 6.57368 16.2728C6.68556 16.2728 6.77656 16.1818 6.77656 16.0701V15.859L7.14717 16.2298C7.18562 16.2681 7.23653 16.2893 7.29072 16.2893C7.34492 16.2893 7.39583 16.2681 7.4341 16.2298C7.47255 16.1915 7.49361 16.1406 7.49361 16.0864C7.49361 16.0322 7.47255 15.9813 7.4341 15.9429L7.06349 15.5723H7.27443C7.38631 15.5723 7.47731 15.4813 7.47731 15.3694C7.47731 15.2575 7.38631 15.1665 7.27443 15.1665H6.65773L6.3415 14.8503H6.96736C7.07924 14.8503 7.17024 14.7593 7.17024 14.6474C7.17024 14.5355 7.07924 14.4445 6.96736 14.4445H5.99287C5.97676 14.3118 5.90022 14.1501 5.76435 13.9613L5.88246 14.0091C5.90681 14.0188 5.93226 14.0238 5.95826 14.0238C6.04158 14.0238 6.11537 13.9739 6.1465 13.8969C6.16682 13.8465 6.16627 13.7914 6.14503 13.7416C6.12397 13.6918 6.08442 13.6531 6.03425 13.6328L5.96138 13.6033C6.16426 13.5654 6.31514 13.5085 6.41218 13.4327L7.10121 14.1217C7.13948 14.1602 7.19038 14.1812 7.24458 14.1812C7.29878 14.1812 7.34968 14.1602 7.38814 14.1217C7.42641 14.0834 7.44746 14.0325 7.44746 13.9783C7.44746 13.9241 7.42641 13.8732 7.38814 13.8348L6.94539 13.3922H7.39271L7.82869 13.8284C7.86696 13.8666 7.91786 13.8877 7.97206 13.8877C8.02626 13.8877 8.07716 13.8666 8.11562 13.8284C8.15389 13.7899 8.17494 13.739 8.17494 13.6848C8.17494 13.6306 8.15389 13.5797 8.11562 13.5415L7.96639 13.3922H8.49062C8.6025 13.3922 8.6935 13.3012 8.6935 13.1893C8.6935 13.0775 8.6025 12.9865 8.49062 12.9865ZM5.96357 13.1893C5.82331 13.2227 5.62043 13.2496 5.36665 13.2496C5.25752 13.2496 5.1515 13.2446 5.05116 13.2346C5.03047 13.219 5.00978 13.2038 4.98945 13.1893C5.00978 13.1749 5.03028 13.1599 5.05097 13.1441C5.15132 13.1342 5.25733 13.1291 5.36647 13.1291C5.62043 13.1291 5.82331 13.156 5.96357 13.1893ZM5.03889 13.9199C4.9618 13.8428 4.89039 13.7643 4.82667 13.6863C4.82301 13.6605 4.81916 13.6354 4.81495 13.6108C4.83949 13.6149 4.86476 13.6187 4.89057 13.6224C4.96858 13.6861 5.04713 13.7575 5.12422 13.8348C5.30366 14.0142 5.42799 14.1766 5.50361 14.2995C5.38093 14.2239 5.21833 14.0994 5.03889 13.9199ZM5.5038 12.0794C5.42817 12.202 5.30366 12.3646 5.12422 12.5441C5.04713 12.6212 4.96858 12.6926 4.89057 12.7563C4.86476 12.76 4.83967 12.7638 4.81513 12.768C4.81916 12.7435 4.82301 12.7182 4.82667 12.6924C4.89057 12.6144 4.9618 12.536 5.03907 12.4587C5.21833 12.2793 5.38093 12.155 5.5038 12.0794ZM4.43885 12.5318C4.4231 12.5525 4.40809 12.573 4.39362 12.5933C4.37916 12.573 4.36396 12.5525 4.3484 12.5318C4.33833 12.4315 4.33338 12.3254 4.33338 12.2163C4.33338 11.9625 4.3603 11.7596 4.39362 11.6194C4.42695 11.7596 4.45387 11.9625 4.45387 12.2163C4.45387 12.3254 4.44874 12.4315 4.43885 12.5318ZM4.3484 13.8471C4.36396 13.8262 4.37916 13.8057 4.39362 13.7853C4.40809 13.8057 4.4231 13.8262 4.43885 13.8471C4.44874 13.9472 4.45387 14.0532 4.45387 14.1624C4.45387 14.4161 4.42695 14.619 4.39362 14.7593C4.3603 14.619 4.33338 14.4161 4.33338 14.1624C4.33338 14.0532 4.33833 13.9472 4.3484 13.8471ZM3.97211 13.6108C3.96809 13.6354 3.96424 13.6607 3.96058 13.6865C3.89668 13.7643 3.82545 13.8428 3.74818 13.9201C3.56873 14.0994 3.40613 14.2239 3.28345 14.2995C3.35908 14.1768 3.48359 14.0142 3.66303 13.8348C3.74012 13.7575 3.81867 13.6863 3.89649 13.6224C3.92231 13.6187 3.94758 13.6149 3.97211 13.6108ZM3.74818 12.4587C3.82545 12.536 3.89668 12.6144 3.96058 12.6924C3.96406 12.7182 3.9679 12.7435 3.97211 12.768C3.94758 12.7638 3.92231 12.76 3.89649 12.7563C3.81867 12.6926 3.74012 12.6212 3.66303 12.5441C3.48359 12.3646 3.35908 12.202 3.28345 12.0794C3.40613 12.155 3.56873 12.2793 3.74818 12.4587ZM3.79761 13.1893C3.77729 13.2038 3.75678 13.2188 3.73591 13.2346C3.63557 13.2446 3.52955 13.2496 3.4206 13.2496C3.16682 13.2496 2.96393 13.2227 2.82367 13.1893C2.96393 13.156 3.16682 13.1291 3.4206 13.1291C3.52973 13.1291 3.63575 13.1342 3.73609 13.1441C3.75678 13.1599 3.77729 13.1749 3.79761 13.1893Z" fill="url(#paint2_linear_29_35285)"/>
<path d="M4.3932 17.3294C4.36994 17.3294 4.3509 17.3103 4.3509 17.2871V16.375L3.92756 16.7984C3.91676 16.8092 3.9043 16.8108 3.89771 16.8108C3.89112 16.8108 3.87849 16.8092 3.86787 16.7984C3.85706 16.7876 3.85541 16.7751 3.85541 16.7685C3.85541 16.7619 3.85706 16.7495 3.86787 16.7387L4.3509 16.2556V15.3542L3.63404 16.0709C3.62342 16.0817 3.61079 16.0833 3.60419 16.0833C3.5976 16.0833 3.58515 16.0817 3.57435 16.0709C3.56354 16.0601 3.5619 16.0476 3.5619 16.041C3.5619 16.0344 3.56354 16.022 3.57435 16.0112L4.37946 15.2061L4.30787 15.1431C4.20844 15.0561 4.13374 14.8118 4.10279 14.4729L3.93122 14.4476L3.80085 14.7706C3.79426 14.7866 3.77888 14.797 3.76166 14.797C3.75617 14.797 3.75104 14.7961 3.74573 14.7939C3.73164 14.7882 3.72523 14.7772 3.72285 14.7714C3.72028 14.7653 3.7168 14.7531 3.72248 14.739L3.87098 14.3709L3.73017 14.2698C3.46137 14.5002 3.22663 14.6324 3.086 14.6324C3.08143 14.6324 3.07685 14.6322 3.07245 14.6318L2.97742 14.6256V15.7638C2.97742 15.7871 2.95838 15.8061 2.93512 15.8061C2.91187 15.8061 2.89283 15.7871 2.89283 15.7638V14.7501L2.25544 15.3875V16.0709C2.25544 16.0941 2.23639 16.1132 2.21314 16.1132C2.18988 16.1132 2.17084 16.0941 2.17084 16.0709V15.4721L1.52594 16.117C1.51532 16.1278 1.50269 16.1295 1.4961 16.1295C1.4895 16.1295 1.47705 16.1278 1.46625 16.117C1.45545 16.1062 1.4538 16.0936 1.4538 16.0872C1.4538 16.0806 1.45545 16.0679 1.46625 16.0573L2.11115 15.4124H1.51258C1.48914 15.4124 1.47028 15.3934 1.47028 15.3701C1.47028 15.3469 1.48914 15.3278 1.51258 15.3278H2.19574L2.83313 14.6904H1.81946C1.79621 14.6904 1.77735 14.6714 1.77735 14.6481C1.77735 14.6249 1.79621 14.6058 1.81946 14.6058H2.9582L2.95179 14.5108C2.94318 14.379 3.06312 14.1534 3.28083 13.8917L3.17737 13.7526L2.85676 13.8888C2.85145 13.8912 2.84595 13.8923 2.84028 13.8923C2.82325 13.8923 2.80805 13.8822 2.80146 13.8665C2.7923 13.845 2.80237 13.8201 2.8238 13.811L3.18891 13.6559L3.16089 13.4847C2.79468 13.4567 2.53193 13.3803 2.44001 13.2754L2.3772 13.2038L1.57209 14.0089C1.56128 14.0197 1.54883 14.0212 1.54224 14.0212C1.53565 14.0212 1.5232 14.0197 1.51239 14.0089C1.50159 13.9981 1.49994 13.9855 1.49994 13.9791C1.49994 13.9725 1.50159 13.9598 1.51239 13.9492L2.22907 13.2324H1.32764L0.844606 13.7154C0.833802 13.7262 0.821168 13.7279 0.814759 13.7279C0.808351 13.7279 0.795716 13.7262 0.784913 13.7154C0.77411 13.7046 0.772462 13.692 0.772462 13.6856C0.772462 13.679 0.77411 13.6665 0.784913 13.6557L1.20825 13.2324H0.296204C0.272949 13.2324 0.253906 13.2133 0.253906 13.1901C0.253906 13.1668 0.272949 13.1478 0.296204 13.1478H1.20825L0.784913 12.7244C0.77411 12.7136 0.772462 12.7012 0.772462 12.6946C0.772462 12.688 0.77411 12.6755 0.784913 12.6647C0.795716 12.6539 0.808168 12.6525 0.814759 12.6525C0.821351 12.6525 0.833802 12.6539 0.844606 12.6647L1.32764 13.148H2.22925L1.51239 12.4311C1.50159 12.4203 1.49994 12.4077 1.49994 12.4013C1.49994 12.3947 1.50159 12.382 1.51239 12.3714C1.5232 12.3606 1.53583 12.359 1.54224 12.359C1.54883 12.359 1.56147 12.3606 1.57209 12.3714L2.37738 13.1765L2.44019 13.1047C2.52717 13.0055 2.77143 12.9308 3.11036 12.8998L3.13563 12.7283L2.81281 12.5979C2.79102 12.5891 2.78058 12.5644 2.78937 12.5428C2.79578 12.5269 2.81116 12.5164 2.82856 12.5164C2.83405 12.5164 2.83936 12.5175 2.84449 12.5195L3.21235 12.668L3.3136 12.5272C3.07447 12.2484 2.94263 12.0087 2.95179 11.8695L2.95801 11.7745H1.81946C1.79621 11.7745 1.77716 11.7554 1.77716 11.7322C1.77716 11.7089 1.79621 11.6899 1.81946 11.6899H2.83313L2.19574 11.0523H1.51258C1.48914 11.0523 1.47028 11.0335 1.47028 11.0102C1.47028 10.9868 1.48914 10.9679 1.51258 10.9679H2.11115L1.46625 10.323C1.45545 10.3122 1.45398 10.2996 1.45398 10.2932C1.45398 10.2866 1.45545 10.2739 1.46625 10.2633C1.47705 10.2525 1.48969 10.2509 1.4961 10.2509C1.50269 10.2509 1.51532 10.2525 1.52594 10.2631L2.17102 10.9082V10.3095C2.17102 10.2862 2.18988 10.2672 2.21314 10.2672C2.23658 10.2672 2.25544 10.2862 2.25544 10.3095V10.9926L2.89283 11.63V10.6163C2.89283 10.5931 2.91187 10.5742 2.93512 10.5742C2.95838 10.5742 2.97742 10.5931 2.97742 10.6163V11.7551L3.07264 11.7488C3.07703 11.7485 3.08161 11.7483 3.08637 11.7483C3.2215 11.7483 3.43629 11.8653 3.69154 12.0777L3.8307 11.9742L3.69446 11.6538C3.68842 11.6397 3.69172 11.6274 3.69428 11.6214C3.69666 11.6154 3.70289 11.6044 3.7168 11.5983C3.72211 11.5961 3.72779 11.5949 3.73328 11.5949C3.75031 11.5949 3.76569 11.6051 3.77228 11.6207L3.92756 11.986L4.09858 11.958C4.12678 11.5917 4.20295 11.329 4.30787 11.2371L4.37965 11.1743L3.57435 10.3691C3.56354 10.3583 3.56208 10.3457 3.56208 10.3391C3.56208 10.3327 3.56354 10.3201 3.57435 10.3095C3.58515 10.2985 3.59778 10.297 3.60419 10.297C3.61079 10.297 3.62342 10.2985 3.63404 10.3093L4.3509 11.0261V10.1247L3.86787 9.64148C3.85706 9.63086 3.85541 9.61823 3.85541 9.61163C3.85541 9.60523 3.85706 9.59259 3.86787 9.58197C3.87849 9.57098 3.89112 9.56952 3.89771 9.56952C3.9043 9.56952 3.91676 9.57098 3.92756 9.58179L4.3509 10.0051V9.09308C4.3509 9.06982 4.36994 9.05078 4.3932 9.05078C4.41645 9.05078 4.43549 9.06982 4.43549 9.09308V10.0051L4.85883 9.58179C4.86945 9.57098 4.88209 9.56952 4.88868 9.56952C4.89527 9.56952 4.90772 9.57098 4.91853 9.58179C4.92933 9.59259 4.93098 9.60523 4.93098 9.61163C4.93098 9.61823 4.92933 9.63086 4.91853 9.64148L4.43549 10.1247V11.0261L5.15217 10.3093C5.16297 10.2985 5.17561 10.297 5.1822 10.297C5.18861 10.297 5.20124 10.2985 5.21186 10.3093C5.22285 10.3201 5.22431 10.3327 5.22431 10.3391C5.22431 10.3457 5.22285 10.3583 5.21205 10.369L4.40675 11.1743L4.47852 11.2371C4.57795 11.324 4.65266 11.5683 4.6836 11.9074L4.85517 11.9327L4.98554 11.6097C4.99195 11.5936 5.00733 11.5831 5.02473 11.5831C5.03004 11.5831 5.03535 11.5842 5.04048 11.5862C5.05457 11.5919 5.06098 11.6029 5.06355 11.609C5.06611 11.615 5.06959 11.6271 5.06391 11.6412L4.91523 12.0092L5.05604 12.1105C5.32466 11.8803 5.55921 11.7481 5.70002 11.7481C5.70478 11.7481 5.70918 11.7483 5.71376 11.7487L5.80897 11.7549V10.6163C5.80897 10.5931 5.82783 10.574 5.85127 10.574C5.87452 10.574 5.89338 10.5931 5.89338 10.6163V11.63L6.53077 10.9926V10.3095C6.53077 10.286 6.54982 10.2672 6.57307 10.2672C6.59651 10.2672 6.61537 10.286 6.61537 10.3095V10.908L7.26027 10.2631C7.27107 10.2523 7.28371 10.2509 7.29011 10.2509C7.29671 10.2509 7.30934 10.2523 7.31996 10.2631C7.33076 10.2739 7.33241 10.2866 7.33241 10.293C7.33241 10.2996 7.33076 10.3122 7.31996 10.3228L6.67506 10.9679H7.27382C7.29707 10.9679 7.31611 10.9868 7.31611 11.01C7.31611 11.0335 7.29707 11.0523 7.27382 11.0523H6.59065L5.95326 11.6897H6.96675C6.99019 11.6897 7.00905 11.7087 7.00905 11.732C7.00905 11.7553 6.99019 11.7743 6.96675 11.7743H5.8282L5.83442 11.8693C5.84321 12.0012 5.72328 12.2268 5.50538 12.4884L5.60902 12.6276L5.92945 12.4913C5.93495 12.489 5.94044 12.4879 5.94612 12.4879C5.96296 12.4879 5.97834 12.4979 5.98494 12.5137C5.99409 12.5351 5.98402 12.5598 5.9626 12.569L5.5973 12.7243L5.62532 12.8953C5.99153 12.9235 6.25447 12.9998 6.3462 13.1046L6.40901 13.1763L7.21413 12.3712C7.22493 12.3604 7.23756 12.3588 7.24415 12.3588C7.25056 12.3588 7.2632 12.3604 7.274 12.3712C7.2848 12.382 7.28627 12.3947 7.28627 12.4011C7.28627 12.4077 7.2848 12.4201 7.274 12.4309L6.55714 13.1478H7.45875L7.94179 12.6646C7.95259 12.6538 7.96504 12.6523 7.97163 12.6523C7.97804 12.6523 7.99068 12.6538 8.00148 12.6646C8.01228 12.6754 8.01375 12.688 8.01375 12.6946C8.01375 12.701 8.01228 12.7136 8.00148 12.7243L7.57814 13.1478H8.49019C8.51344 13.1478 8.53249 13.1666 8.53249 13.1901C8.53249 13.2133 8.51344 13.2322 8.49019 13.2322H7.57814L8.00148 13.6555C8.01228 13.6663 8.01375 13.679 8.01375 13.6856C8.01375 13.692 8.01228 13.7046 8.00148 13.7152C7.99068 13.726 7.97804 13.7277 7.97163 13.7277C7.96504 13.7277 7.95241 13.726 7.94179 13.7152L7.45857 13.2322H6.55714L7.274 13.949C7.28462 13.9598 7.28627 13.9723 7.28627 13.9789C7.28627 13.9855 7.28462 13.9979 7.274 14.0087C7.2632 14.0195 7.25056 14.021 7.24397 14.021C7.23756 14.021 7.22493 14.0195 7.21413 14.0087L6.40901 13.2036L6.3462 13.2752C6.25923 13.3746 6.01478 13.4493 5.67585 13.4803L5.65058 13.6519L5.97358 13.7822C5.98768 13.7879 5.99409 13.7989 5.99665 13.8049C5.99922 13.8108 6.0027 13.8231 5.99702 13.8372C5.99043 13.8533 5.97505 13.8637 5.95765 13.8637C5.95234 13.8637 5.94703 13.8626 5.94191 13.8606L5.57386 13.7119L5.47279 13.8529C5.71193 14.1318 5.84376 14.3715 5.83461 14.5106L5.8282 14.6057H6.96675C6.99019 14.6057 7.00905 14.6247 7.00905 14.648C7.00905 14.6712 6.99019 14.6903 6.96675 14.6903H5.95326L6.59065 15.3276H7.27382C7.29707 15.3276 7.31611 15.3465 7.31611 15.3698C7.31611 15.3932 7.29707 15.4121 7.27382 15.4121H6.67506L7.31996 16.057C7.33076 16.0678 7.33241 16.0804 7.33241 16.0868C7.33241 16.0934 7.33076 16.106 7.31996 16.1167C7.30916 16.1275 7.29671 16.1291 7.29011 16.1291C7.28371 16.1291 7.27107 16.1275 7.26027 16.1168L6.61537 15.4718V16.0705C6.61537 16.0938 6.59651 16.1128 6.57307 16.1128C6.54982 16.1128 6.53077 16.0938 6.53077 16.0705V15.3873L5.89338 14.7501V15.7638C5.89338 15.7871 5.87452 15.8061 5.85127 15.8061C5.82783 15.8061 5.80897 15.7871 5.80897 15.7638V14.6256L5.71394 14.6318C5.70936 14.632 5.70497 14.6324 5.70021 14.6324C5.56544 14.6324 5.35047 14.5152 5.09486 14.3024L4.9557 14.4059L5.09193 14.7265C5.09779 14.7404 5.09449 14.7527 5.09211 14.7587C5.08973 14.7648 5.08351 14.776 5.06941 14.7818C5.0641 14.7842 5.0586 14.7853 5.05293 14.7853C5.03608 14.7853 5.0207 14.7752 5.01411 14.7595L4.85883 14.3942L4.68763 14.4222C4.65962 14.7884 4.58326 15.0513 4.47852 15.1431L4.40675 15.2059L5.21186 16.011C5.22267 16.0218 5.22431 16.0344 5.22431 16.041C5.22431 16.0474 5.22267 16.0601 5.21186 16.0709C5.20106 16.0817 5.18843 16.0831 5.18202 16.0831C5.17543 16.0831 5.16279 16.0817 5.15217 16.0709L4.43531 15.354V16.2556L4.91834 16.7387C4.92915 16.7495 4.9308 16.7619 4.9308 16.7685C4.9308 16.7749 4.92915 16.7876 4.91834 16.7984C4.90754 16.8092 4.89509 16.8106 4.8885 16.8106C4.88191 16.8106 4.86945 16.8092 4.85865 16.7984L4.43531 16.375V17.2871C4.43531 17.3105 4.41645 17.3294 4.3932 17.3294ZM4.46058 15.0464L4.48713 14.9885C4.54847 14.8554 4.61402 14.5687 4.61402 14.1631C4.61402 14.0411 4.60798 13.9227 4.59608 13.811L4.59333 13.7861L4.57813 13.7661C4.53693 13.7125 4.49995 13.6601 4.46827 13.6107L4.3932 13.4937L4.31794 13.6107C4.28626 13.6601 4.24928 13.7125 4.20808 13.7661L4.19288 13.7861L4.19013 13.811C4.17823 13.9227 4.17219 14.0411 4.17219 14.1631C4.17219 14.5687 4.23774 14.8554 4.29908 14.9885L4.32581 15.0464C4.32581 15.0464 4.39173 15.0396 4.39301 15.0394C4.39466 15.0396 4.46058 15.0464 4.46058 15.0464ZM4.63746 13.5405C4.64991 13.5978 4.66071 13.661 4.66969 13.7282L4.67298 13.7531L4.68873 13.7725C4.75923 13.8601 4.83869 13.9481 4.92494 14.0344C5.21168 14.3211 5.4607 14.4775 5.59822 14.5282L5.65791 14.5504C5.65791 14.5504 5.70002 14.4989 5.70076 14.4978C5.70204 14.4969 5.75331 14.455 5.75331 14.455L5.73115 14.3953C5.68043 14.2578 5.52406 14.0087 5.23731 13.722C5.15107 13.6358 5.063 13.5563 4.97566 13.4858L4.95606 13.47L4.93116 13.4667C4.86396 13.4578 4.80079 13.447 4.74348 13.4345L4.6078 13.4049L4.63746 13.5405ZM3.1283 14.5502L3.18799 14.5282C3.32551 14.4775 3.57453 14.3211 3.86127 14.0342C3.94752 13.9481 4.02699 13.8601 4.09766 13.7725L4.11323 13.7531L4.11652 13.7282C4.1255 13.661 4.1363 13.5978 4.14875 13.5405L4.17841 13.4047L4.04273 13.4343C3.98542 13.447 3.92225 13.4578 3.85487 13.4666L3.83015 13.4699L3.81055 13.4856C3.72321 13.5561 3.63514 13.6356 3.5489 13.7218C3.26215 14.0086 3.10578 14.2578 3.05488 14.3953L3.0329 14.455C3.0329 14.455 3.08436 14.4969 3.08527 14.4978C3.08637 14.4991 3.1283 14.5502 3.1283 14.5502ZM5.36604 12.9692C5.24409 12.9692 5.12562 12.9753 5.01393 12.9872L4.98902 12.9898L4.96906 13.0051C4.91523 13.0463 4.86286 13.0833 4.81361 13.115L4.6966 13.1901L4.81361 13.2651C4.86305 13.297 4.91541 13.334 4.96906 13.3752L4.98902 13.3904L5.01393 13.393C5.12562 13.4049 5.24409 13.4109 5.36604 13.4109C5.7718 13.4109 6.05854 13.3453 6.19148 13.2842L6.24934 13.2575C6.24934 13.2575 6.24275 13.1914 6.24257 13.1901C6.24275 13.1886 6.24934 13.1229 6.24934 13.1229L6.19148 13.0961C6.05854 13.0348 5.7718 12.9692 5.36604 12.9692ZM2.53687 13.2575L2.59473 13.2842C2.72785 13.3453 3.01459 13.4109 3.42017 13.4109C3.54194 13.4109 3.66041 13.405 3.77228 13.393L3.79719 13.3904L3.81715 13.3752C3.8708 13.334 3.92316 13.297 3.9726 13.2651L4.08961 13.1901L3.9726 13.115C3.92316 13.0833 3.87098 13.0463 3.81715 13.0053L3.79737 12.9899L3.77228 12.9874C3.66059 12.9755 3.54212 12.9692 3.42017 12.9692C3.01441 12.9692 2.72767 13.0348 2.59473 13.0961L2.53687 13.1229C2.53687 13.1229 2.54346 13.1888 2.54364 13.1903C2.54364 13.1915 2.53687 13.2575 2.53687 13.2575ZM5.5984 11.8519C5.46089 11.9027 5.21168 12.0592 4.92494 12.346C4.83869 12.4322 4.75923 12.5203 4.68873 12.6076L4.67298 12.627L4.66969 12.6519C4.6609 12.7193 4.64991 12.7825 4.63746 12.8396L4.6078 12.9755L4.74366 12.9458C4.80097 12.9334 4.86414 12.9226 4.93134 12.9136L4.95625 12.9103L4.97566 12.8945C5.06318 12.824 5.15107 12.7446 5.23731 12.6583C5.52424 12.3716 5.68061 12.1224 5.73133 11.9849L5.75349 11.9254C5.75349 11.9254 5.70204 11.8832 5.70094 11.8823C5.70002 11.8812 5.65809 11.83 5.65809 11.83L5.5984 11.8519ZM3.0329 11.9252L3.05506 11.9849C3.10578 12.1224 3.26215 12.3716 3.5489 12.6583C3.63514 12.7446 3.72321 12.824 3.81074 12.8945L3.83015 12.9103L3.85505 12.9136C3.92225 12.9224 3.98542 12.9334 4.04273 12.9458L4.1786 12.9755L4.14893 12.8396C4.1363 12.7823 4.1255 12.7191 4.11671 12.6519L4.11341 12.627L4.09766 12.6076C4.02717 12.5203 3.9477 12.4322 3.86127 12.346C3.57453 12.059 3.32551 11.9027 3.18799 11.8519L3.1283 11.83C3.1283 11.83 3.08637 11.8812 3.08545 11.8823C3.08417 11.8832 3.0329 11.9252 3.0329 11.9252ZM4.29908 11.3916C4.23774 11.5247 4.17219 11.8115 4.17219 12.217C4.17219 12.339 4.17841 12.4575 4.19032 12.5692L4.19288 12.5942L4.20826 12.614C4.24928 12.6677 4.28626 12.72 4.31812 12.7697L4.3932 12.8867L4.46827 12.7697C4.50013 12.72 4.53693 12.6677 4.57813 12.614L4.59333 12.5942L4.59608 12.5692C4.60798 12.4575 4.61402 12.339 4.61402 12.217C4.61402 11.8115 4.54847 11.5247 4.48713 11.3916L4.46058 11.3339C4.46058 11.3339 4.39448 11.3405 4.3932 11.3407C4.39173 11.3405 4.32581 11.3339 4.32581 11.3339L4.29908 11.3916Z" fill="url(#paint3_linear_29_35285)"/>
<path d="M14.7525 19.4505H14.2281L14.3773 19.3013C14.4156 19.263 14.4367 19.2121 14.4367 19.1579C14.4367 19.1037 14.4156 19.0528 14.3773 19.0145C14.3391 18.9761 14.288 18.955 14.2338 18.955C14.1796 18.955 14.1287 18.9761 14.0904 19.0145L13.6543 19.4505H13.2071L13.6497 19.0079C13.6879 18.9697 13.7092 18.9186 13.7092 18.8646C13.7092 18.8104 13.6879 18.7593 13.6497 18.721C13.6114 18.6827 13.5605 18.6617 13.5063 18.6617C13.4521 18.6617 13.401 18.6827 13.3627 18.721L12.6737 19.4102C12.5684 19.3278 12.4 19.2674 12.1705 19.23L12.2875 19.1802C12.3906 19.1365 12.4388 19.0171 12.395 18.9142C12.3738 18.8644 12.3344 18.8258 12.2843 18.8054C12.2339 18.7851 12.1788 18.7857 12.129 18.8069L12.0565 18.8377C12.1733 18.6674 12.2396 18.5203 12.2546 18.3982H13.2291C13.341 18.3982 13.432 18.3072 13.432 18.1953C13.432 18.0834 13.341 17.9924 13.2291 17.9924H12.6032L12.9194 17.6762H13.5361C13.648 17.6762 13.739 17.5852 13.739 17.4733C13.739 17.3615 13.648 17.2705 13.5361 17.2705H13.3252L13.6958 16.8997C13.7343 16.8614 13.7553 16.8105 13.7553 16.7563C13.7553 16.7021 13.7343 16.6512 13.696 16.6129C13.6575 16.5745 13.6066 16.5534 13.5524 16.5534C13.4982 16.5534 13.4473 16.5745 13.4091 16.6129L13.0383 16.9835V16.7726C13.0383 16.6607 12.9473 16.5697 12.8354 16.5697C12.7235 16.5697 12.6325 16.6607 12.6325 16.7726V17.3893L12.3163 17.7055V17.0797C12.3163 16.9678 12.2253 16.8768 12.1134 16.8768C12.0015 16.8768 11.9105 16.9678 11.9105 17.0797V18.0541C11.778 18.0703 11.6163 18.1468 11.4273 18.2827L11.4751 18.1646C11.517 18.0609 11.4667 17.9424 11.3629 17.9005C11.259 17.8588 11.1408 17.9091 11.0988 18.0128L11.0693 18.0858C11.0314 17.8828 10.9745 17.7321 10.8987 17.635L11.5877 16.946C11.6262 16.9077 11.6472 16.8566 11.6472 16.8024C11.6472 16.7484 11.6262 16.6973 11.5877 16.6591C11.5494 16.6208 11.4985 16.5997 11.4443 16.5997C11.3901 16.5997 11.3391 16.6208 11.3008 16.6591L10.8582 17.1016V16.6545L11.2944 16.2185C11.3327 16.1802 11.3537 16.1292 11.3537 16.075C11.3537 16.0208 11.3327 15.9698 11.2944 15.9316C11.2561 15.8933 11.205 15.8723 11.1508 15.8723C11.0966 15.8723 11.0457 15.8933 11.0075 15.9316L10.8582 16.0808V15.5564C10.8582 15.4445 10.7672 15.3535 10.6553 15.3535C10.5435 15.3535 10.4525 15.4445 10.4525 15.5564V16.0808L10.3034 15.9316C10.2651 15.8933 10.2141 15.8723 10.1599 15.8723C10.1057 15.8723 10.0548 15.8933 10.0165 15.9316C9.97822 15.97 9.95698 16.0209 9.95698 16.0751C9.95698 16.1293 9.97822 16.1802 10.0165 16.2185L10.4525 16.6545V17.1018L10.0099 16.6592C9.97163 16.6208 9.92072 16.5997 9.86652 16.5997C9.81232 16.5997 9.76124 16.6208 9.72297 16.6592C9.6847 16.6975 9.66364 16.7484 9.66364 16.8026C9.66364 16.8568 9.6847 16.9077 9.72297 16.9462L10.4122 17.6352C10.3298 17.7405 10.2694 17.9089 10.232 18.1384L10.1822 18.0214C10.161 17.9714 10.1216 17.9327 10.0714 17.9124C10.0211 17.8923 9.96595 17.8926 9.91614 17.9139C9.86634 17.9351 9.8277 17.9745 9.80738 18.0247C9.78706 18.075 9.7876 18.1301 9.80884 18.1799L9.83961 18.2523C9.66932 18.1356 9.52228 18.0693 9.40015 18.0543V17.0798C9.40015 16.968 9.30915 16.877 9.19727 16.877C9.08539 16.877 8.99439 16.968 8.99439 17.0798V17.7057L8.67817 17.3895V16.7728C8.67817 16.6609 8.58716 16.5699 8.47529 16.5699C8.36341 16.5699 8.2724 16.6609 8.2724 16.7728V16.9837L7.9018 16.6131C7.86353 16.5748 7.81244 16.5536 7.75824 16.5536C7.70404 16.5536 7.65314 16.5748 7.61487 16.6131C7.5766 16.6514 7.55536 16.7025 7.55536 16.7565C7.55536 16.8107 7.5766 16.8618 7.61487 16.9L7.98566 17.2706H7.77472C7.66284 17.2706 7.57184 17.3616 7.57184 17.4735C7.57184 17.5854 7.66284 17.6764 7.77472 17.6764H8.39142L8.70746 17.9926H8.08161C7.96973 17.9926 7.87873 18.0836 7.87873 18.1955C7.87873 18.3074 7.96973 18.3984 8.08161 18.3984H9.0561C9.07221 18.5311 9.14875 18.6928 9.28461 18.8816L9.16651 18.8338C9.06287 18.7921 8.9444 18.8424 8.90265 18.9461C8.88233 18.9964 8.88288 19.0515 8.90394 19.1013C8.92518 19.1513 8.96454 19.1899 9.01471 19.2101L9.08777 19.2396C8.88471 19.2775 8.73401 19.3346 8.63697 19.4102L7.94794 18.7212C7.90967 18.6829 7.85858 18.6617 7.80439 18.6617C7.75019 18.6617 7.69928 18.6829 7.66101 18.7212C7.62274 18.7595 7.6015 18.8106 7.6015 18.8646C7.6015 18.9188 7.62274 18.9699 7.66101 19.0081L8.10358 19.4507H7.65644L7.22046 19.0145C7.18201 18.9763 7.13111 18.9552 7.07691 18.9552C7.02271 18.9552 6.9718 18.9763 6.93353 19.0145C6.89508 19.053 6.87402 19.1039 6.87402 19.1581C6.87402 19.2123 6.89508 19.2632 6.93353 19.3015L7.08258 19.4507H6.55835C6.44647 19.4507 6.35547 19.5417 6.35547 19.6536C6.35547 19.7655 6.44647 19.8565 6.55835 19.8565H7.08258L6.93353 20.0055C6.89508 20.044 6.87402 20.0949 6.87402 20.1491C6.87402 20.2033 6.89508 20.2542 6.93353 20.2924C6.9718 20.3309 7.02271 20.3519 7.07691 20.3519C7.13111 20.3519 7.18201 20.3309 7.22046 20.2924L7.65644 19.8565H8.10358L7.66101 20.299C7.62274 20.3373 7.60169 20.3882 7.60169 20.4424C7.60169 20.4966 7.62274 20.5475 7.66101 20.5859C7.69947 20.6242 7.75037 20.6453 7.80457 20.6453C7.85877 20.6453 7.90967 20.6242 7.94794 20.5859L8.63697 19.8967C8.74225 19.9791 8.91071 20.0394 9.14033 20.0769L9.02314 20.1267C8.92023 20.1705 8.87208 20.2899 8.91565 20.3928C8.94752 20.4677 9.02094 20.5162 9.10242 20.5162C9.12989 20.5162 9.15662 20.5109 9.18171 20.5001L9.25422 20.4693C9.1374 20.6396 9.07129 20.7866 9.05628 20.9088H8.08179C7.96991 20.9088 7.87891 20.9998 7.87891 21.1116C7.87891 21.2235 7.96991 21.3145 8.08179 21.3145H8.70765L8.39142 21.6307H7.77472C7.66284 21.6307 7.57184 21.7218 7.57184 21.8336C7.57184 21.9453 7.66284 22.0363 7.77472 22.0363H7.98566L7.61487 22.4071C7.5766 22.4454 7.55554 22.4965 7.55554 22.5505C7.55554 22.6049 7.5766 22.6558 7.61487 22.694C7.65314 22.7323 7.70423 22.7534 7.75843 22.7534C7.81262 22.7534 7.86353 22.7323 7.9018 22.694L8.27259 22.3233V22.5342C8.27259 22.6461 8.36359 22.7371 8.47547 22.7371C8.58735 22.7371 8.67835 22.6461 8.67835 22.5342V21.9175L8.99439 21.6013V22.2273C8.99439 22.3392 9.08539 22.4302 9.19727 22.4302C9.30915 22.4302 9.40015 22.3392 9.40015 22.2273V21.253C9.53272 21.2367 9.69459 21.1602 9.88337 21.0241L9.83576 21.142C9.79383 21.2459 9.84418 21.3643 9.94801 21.4061C9.97218 21.416 9.99781 21.4209 10.0238 21.4209C10.1069 21.4209 10.1809 21.3711 10.212 21.294L10.2415 21.221C10.2794 21.424 10.3364 21.5749 10.4122 21.6718L9.72315 22.3608C9.6847 22.3991 9.66364 22.4501 9.66364 22.5043C9.66364 22.5585 9.68488 22.6095 9.72315 22.6477C9.76142 22.686 9.81232 22.7072 9.86652 22.7072C9.92072 22.7072 9.97181 22.686 10.0101 22.6477L10.4526 22.2052V22.6523L10.0165 23.0883C9.97822 23.1265 9.95716 23.1776 9.95716 23.2318C9.95716 23.286 9.97822 23.3369 10.0165 23.3752C10.0548 23.4135 10.1058 23.4347 10.16 23.4347C10.2142 23.4347 10.2651 23.4135 10.3034 23.3752L10.4526 23.226V23.7504C10.4526 23.8623 10.5436 23.9533 10.6555 23.9533C10.7672 23.9533 10.8584 23.8623 10.8584 23.7504V23.226L11.0075 23.3752C11.0457 23.4135 11.0966 23.4347 11.151 23.4347C11.2052 23.4347 11.2561 23.4135 11.2944 23.3752C11.3327 23.3369 11.3539 23.2858 11.3539 23.2318C11.3539 23.1776 11.3327 23.1265 11.2944 23.0883L10.8584 22.6523V22.2052L11.301 22.6475C11.3392 22.686 11.3901 22.707 11.4443 22.707C11.4987 22.707 11.5496 22.686 11.5879 22.6477C11.6262 22.6093 11.6472 22.5584 11.6472 22.5042C11.6472 22.45 11.6262 22.3991 11.5879 22.3608L10.8987 21.6718C10.9811 21.5665 11.0415 21.398 11.0789 21.1684L11.1287 21.2856C11.1605 21.3607 11.2338 21.4092 11.3154 21.4092C11.3427 21.4092 11.3695 21.4037 11.3947 21.3929C11.4445 21.3718 11.4832 21.3325 11.5035 21.2821C11.5238 21.2319 11.5233 21.1768 11.502 21.127L11.4714 21.0547C11.6417 21.1715 11.7888 21.238 11.9107 21.253V22.2271C11.9107 22.3388 12.0017 22.43 12.1136 22.43C12.2255 22.43 12.3165 22.3388 12.3165 22.2271V21.6011L12.6327 21.9173V22.534C12.6327 22.6459 12.7237 22.7369 12.8356 22.7369C12.9475 22.7369 13.0385 22.6459 13.0385 22.534V22.3231L13.4091 22.6939C13.4473 22.7321 13.4984 22.7532 13.5526 22.7532C13.6068 22.7532 13.6577 22.7321 13.696 22.6939C13.7345 22.6556 13.7555 22.6045 13.7555 22.5503C13.7555 22.4963 13.7345 22.4452 13.696 22.4069L13.3252 22.0361H13.5363C13.648 22.0361 13.7392 21.9451 13.7392 21.8333C13.7392 21.7216 13.648 21.6306 13.5363 21.6306H12.9196L12.6034 21.3143H13.2293C13.3411 21.3143 13.4321 21.2233 13.4321 21.1115C13.4321 20.9996 13.3411 20.9086 13.2293 20.9086H12.2548C12.2387 20.7758 12.1621 20.6141 12.0263 20.4254L12.1444 20.4732C12.1685 20.4829 12.1942 20.4878 12.2202 20.4878C12.3033 20.4878 12.3773 20.438 12.4084 20.3609C12.4285 20.3106 12.4282 20.2554 12.4069 20.2056C12.3857 20.1556 12.3463 20.117 12.2962 20.0969L12.2233 20.0674C12.4262 20.0295 12.577 19.9724 12.6739 19.8966L13.3631 20.5858C13.4014 20.624 13.4523 20.6451 13.5065 20.6451C13.5607 20.6451 13.6116 20.624 13.6499 20.5858C13.6881 20.5475 13.7094 20.4964 13.7094 20.4422C13.7094 20.388 13.6883 20.3371 13.6499 20.2988L13.2073 19.8563H13.6544L14.0906 20.2922C14.1289 20.3307 14.1798 20.3518 14.234 20.3518C14.2882 20.3518 14.3391 20.3307 14.3773 20.2922C14.4156 20.254 14.4368 20.2031 14.4368 20.1489C14.4368 20.0947 14.4158 20.0438 14.3773 20.0055L14.2283 19.8563H14.7525C14.8644 19.8563 14.9554 19.7653 14.9554 19.6534C14.9554 19.5415 14.8642 19.4505 14.7525 19.4505ZM12.2255 19.6534C12.0852 19.6867 11.8823 19.7136 11.6284 19.7136C11.5194 19.7136 11.4134 19.7087 11.3131 19.6986C11.2922 19.6829 11.2717 19.6679 11.2514 19.6534C11.2717 19.6389 11.2922 19.6239 11.3129 19.6082C11.4132 19.5983 11.5192 19.5931 11.6284 19.5931C11.8823 19.5931 12.0852 19.6201 12.2255 19.6534ZM11.3008 20.384C11.2237 20.3069 11.1523 20.2283 11.0886 20.1505C11.0849 20.1247 11.0811 20.0994 11.0769 20.0749C11.1014 20.0789 11.1267 20.0828 11.1525 20.0864C11.2303 20.1503 11.3088 20.2218 11.3861 20.2988C11.5656 20.4783 11.6899 20.6409 11.7655 20.7636C11.6428 20.6879 11.4802 20.5634 11.3008 20.384ZM11.7655 18.5432C11.6899 18.6661 11.5656 18.8285 11.3861 19.0079C11.3088 19.0852 11.2305 19.1566 11.1525 19.2203C11.1267 19.224 11.1014 19.2279 11.0769 19.2321C11.0811 19.2073 11.0849 19.1823 11.0886 19.1564C11.1523 19.0784 11.2237 18.9999 11.3008 18.9228C11.4802 18.7434 11.6428 18.6188 11.7655 18.5432ZM10.7008 18.9959C10.685 19.0165 10.6698 19.0371 10.6555 19.0574C10.6411 19.0371 10.6259 19.0165 10.6103 18.9959C10.6002 18.8955 10.5953 18.7895 10.5953 18.6804C10.5953 18.4266 10.6222 18.2237 10.6555 18.0834C10.6889 18.2237 10.7158 18.4266 10.7158 18.6804C10.7158 18.7895 10.7106 18.8955 10.7008 18.9959ZM10.6103 20.3109C10.6259 20.2902 10.6411 20.2697 10.6555 20.2494C10.6698 20.2697 10.685 20.2902 10.7008 20.3109C10.7106 20.4113 10.7158 20.5173 10.7158 20.6264C10.7158 20.8802 10.6887 21.0831 10.6555 21.2233C10.6222 21.0831 10.5953 20.8802 10.5953 20.6264C10.5953 20.5173 10.6002 20.4113 10.6103 20.3109ZM10.234 20.0749C10.2298 20.0994 10.226 20.1245 10.2225 20.1503C10.1586 20.2283 10.0872 20.3069 10.0101 20.384C9.83063 20.5634 9.66804 20.6878 9.54536 20.7636C9.62098 20.6407 9.74531 20.4783 9.92475 20.2987C10.002 20.2216 10.0806 20.1502 10.1584 20.0864C10.1842 20.0828 10.2095 20.0789 10.234 20.0749ZM10.0101 18.9228C10.0873 19.0001 10.1586 19.0784 10.2225 19.1564C10.226 19.1823 10.2298 19.2073 10.234 19.2321C10.2095 19.2279 10.1842 19.224 10.1584 19.2203C10.0806 19.1566 10.002 19.0852 9.92493 19.0079C9.74549 18.8287 9.62098 18.6661 9.54536 18.5432C9.66804 18.6188 9.83063 18.7434 10.0101 18.9228ZM10.0595 19.6534C10.0392 19.6679 10.0187 19.6829 9.99781 19.6986C9.89747 19.7087 9.79145 19.7136 9.6825 19.7136C9.42872 19.7136 9.22584 19.6867 9.08558 19.6534C9.22584 19.6201 9.42872 19.5931 9.6825 19.5931C9.79163 19.5931 9.89765 19.5983 9.99799 19.6082C10.0187 19.6239 10.0392 19.6389 10.0595 19.6534Z" fill="url(#paint4_linear_29_35285)"/>
<path d="M10.6549 23.7929C10.6315 23.7929 10.6126 23.7738 10.6126 23.7506V22.8385L10.1893 23.2619C10.1785 23.2727 10.1658 23.2743 10.1594 23.2743C10.1528 23.2743 10.1402 23.2727 10.1296 23.2619C10.1188 23.2511 10.1171 23.2386 10.1171 23.232C10.1171 23.2254 10.1188 23.213 10.1294 23.2022L10.6126 22.7191V21.8177L9.89576 22.5344C9.88496 22.5452 9.8725 22.5468 9.86591 22.5468C9.85932 22.5468 9.84687 22.5452 9.83607 22.5344C9.82526 22.5236 9.82362 22.5111 9.82362 22.5045C9.82362 22.4979 9.82526 22.4855 9.83607 22.4747L10.6412 21.6696L10.5694 21.6066C10.4702 21.5196 10.3955 21.2753 10.3645 20.9364L10.1929 20.9111L10.0626 21.2341C10.056 21.2501 10.0406 21.2605 10.0232 21.2605C10.0179 21.2605 10.0126 21.2596 10.0075 21.2574C9.99335 21.2517 9.98695 21.2407 9.98438 21.2349C9.98182 21.2288 9.97852 21.2166 9.9842 21.2025L10.1327 20.8344L9.99189 20.7333C9.72309 20.9637 9.48817 21.0959 9.34772 21.0959C9.34315 21.0959 9.33857 21.0957 9.33417 21.0953L9.23914 21.0891V22.2273C9.23914 22.2506 9.2201 22.2696 9.19684 22.2696C9.17359 22.2696 9.15455 22.2506 9.15455 22.2273V21.2136L8.51715 21.851V22.5344C8.51715 22.5576 8.49811 22.5767 8.47486 22.5767C8.4516 22.5767 8.43256 22.5576 8.43256 22.5344V21.9356L7.78766 22.5805C7.77704 22.5913 7.76441 22.593 7.75782 22.593C7.75122 22.593 7.73877 22.5913 7.72797 22.5805C7.71717 22.5697 7.71552 22.5571 7.71552 22.5507C7.71552 22.5441 7.71717 22.5314 7.72797 22.5208L8.37287 21.8759H7.77411C7.75086 21.8759 7.732 21.8569 7.732 21.8336C7.732 21.8104 7.75086 21.7913 7.77411 21.7913H8.45746L9.09485 21.1539H8.08118C8.05793 21.1539 8.03888 21.1349 8.03888 21.1116C8.03888 21.0884 8.05793 21.0693 8.08118 21.0693H9.21973L9.21351 20.9743C9.2049 20.8425 9.32465 20.6169 9.54255 20.3552L9.43909 20.2161L9.11847 20.3523C9.11316 20.3547 9.10767 20.3558 9.10199 20.3558C9.08497 20.3558 9.06977 20.3457 9.06299 20.33C9.05402 20.3085 9.06409 20.2836 9.08533 20.2745L9.45063 20.1194L9.42261 19.9482C9.0564 19.9202 8.79364 19.8438 8.70173 19.7389L8.63892 19.6673L7.8338 20.4724C7.823 20.4832 7.81037 20.4847 7.80396 20.4847C7.79737 20.4847 7.78473 20.4832 7.77411 20.4724C7.76331 20.4616 7.76166 20.449 7.76166 20.4426C7.76166 20.436 7.76331 20.4233 7.77411 20.4127L8.49079 19.6959H7.58936L7.10632 20.1789C7.09552 20.1897 7.08289 20.1914 7.07648 20.1914C7.06989 20.1914 7.05725 20.1897 7.04663 20.1789C7.03583 20.1681 7.03418 20.1556 7.03418 20.1491C7.03418 20.1426 7.03583 20.13 7.04663 20.1192L7.46979 19.6959H6.55792C6.53448 19.6959 6.51562 19.677 6.51562 19.6536C6.51562 19.6303 6.53448 19.6115 6.55792 19.6115H7.46979L7.04663 19.1879C7.03583 19.1773 7.03418 19.1647 7.03418 19.1581C7.03418 19.1517 7.03583 19.139 7.04663 19.1282C7.05725 19.1176 7.06989 19.116 7.07648 19.116C7.08289 19.116 7.09552 19.1176 7.10632 19.1282L7.58936 19.6115H8.49079L7.77411 18.8946C7.76331 18.8838 7.76166 18.8713 7.76166 18.8648C7.76166 18.8582 7.76331 18.8457 7.77411 18.8349C7.78491 18.8241 7.79737 18.8225 7.80396 18.8225C7.81055 18.8225 7.823 18.8241 7.8338 18.8349L8.63892 19.64L8.70173 19.5684C8.78888 19.469 9.03315 19.3943 9.37208 19.3633L9.39734 19.1918L9.07435 19.0614C9.05274 19.0526 9.0423 19.0279 9.05109 19.0065C9.0575 18.9904 9.07288 18.9799 9.09028 18.9799C9.09559 18.9799 9.1009 18.981 9.10602 18.983L9.47407 19.1315L9.57514 18.9907C9.33619 18.7119 9.20435 18.4722 9.21351 18.333L9.21973 18.238H8.08118C8.05793 18.238 8.03888 18.2189 8.03888 18.1957C8.03888 18.1724 8.05793 18.1534 8.08118 18.1534H9.09485L8.45746 17.516H7.77411C7.75086 17.516 7.732 17.4971 7.732 17.4737C7.732 17.4504 7.75086 17.4316 7.77411 17.4316H8.37287L7.72797 16.7867C7.71717 16.7759 7.71552 16.7632 7.71552 16.7567C7.71552 16.7502 7.71717 16.7376 7.72797 16.7268C7.73877 16.716 7.75122 16.7145 7.75782 16.7145C7.76441 16.7145 7.77704 16.716 7.78766 16.7268L8.43256 17.3717V16.7731C8.43256 16.7497 8.4516 16.7308 8.47486 16.7308C8.49811 16.7308 8.51715 16.7497 8.51715 16.7731V17.4563L9.15455 18.0937V17.08C9.15455 17.0568 9.17359 17.0377 9.19684 17.0377C9.2201 17.0377 9.23914 17.0568 9.23914 17.08V18.2188L9.33417 18.2123C9.33875 18.212 9.34333 18.212 9.34809 18.212C9.48322 18.212 9.698 18.329 9.95307 18.5414L10.0924 18.4379L9.95618 18.1173C9.95014 18.1034 9.95344 18.0911 9.95582 18.0851C9.95838 18.079 9.96461 18.0679 9.97852 18.062C9.98383 18.0598 9.98951 18.0585 9.995 18.0585C10.012 18.0585 10.0272 18.0686 10.034 18.0844L10.1891 18.4497L10.3603 18.4216C10.3883 18.0554 10.4647 17.7927 10.5696 17.7007L10.6412 17.6379L9.83607 16.8328C9.82526 16.822 9.8238 16.8094 9.8238 16.803C9.8238 16.7964 9.82526 16.7838 9.83607 16.7731C9.84687 16.7621 9.8595 16.7607 9.86591 16.7607C9.8725 16.7607 9.88514 16.7621 9.89576 16.773L10.6126 17.4898V16.5884L10.1296 16.1052C10.1188 16.0945 10.1171 16.0819 10.1171 16.0753C10.1171 16.0689 10.1188 16.0563 10.1296 16.0457C10.1402 16.0347 10.1528 16.0332 10.1594 16.0332C10.166 16.0332 10.1785 16.0347 10.1893 16.0455L10.6126 16.4688V15.5568C10.6126 15.5335 10.6317 15.5146 10.6549 15.5146C10.6782 15.5146 10.6972 15.5335 10.6972 15.5568V16.4688L11.1206 16.0455C11.1312 16.0347 11.1438 16.0332 11.1504 16.0332C11.157 16.0332 11.1694 16.0347 11.1802 16.0455C11.191 16.0563 11.1927 16.0689 11.1927 16.0753C11.1927 16.0819 11.191 16.0945 11.1802 16.1052L10.6972 16.5884V17.4898L11.4139 16.773C11.4247 16.7621 11.4373 16.7607 11.4439 16.7607C11.4503 16.7607 11.463 16.7621 11.4736 16.773C11.4846 16.7838 11.486 16.7964 11.486 16.803C11.486 16.8094 11.4846 16.822 11.4738 16.8326L10.6685 17.6379L10.7402 17.7007C10.8397 17.7877 10.9144 18.032 10.9453 18.3711L11.1169 18.3964L11.2473 18.0734C11.2537 18.0573 11.2691 18.0468 11.2864 18.0468C11.2918 18.0468 11.2971 18.0479 11.3022 18.0499C11.3163 18.0556 11.3227 18.0666 11.3253 18.0726C11.3278 18.0787 11.3313 18.0908 11.3256 18.1049L11.1769 18.4729L11.3178 18.5742C11.5864 18.344 11.8209 18.2118 11.9617 18.2118C11.9665 18.2118 11.9709 18.212 11.9755 18.2123L12.0707 18.2186V17.08C12.0707 17.0568 12.0895 17.0377 12.113 17.0377C12.1362 17.0377 12.1551 17.0568 12.1551 17.08V18.0937L12.7925 17.4563V16.7731C12.7925 16.7497 12.8115 16.7308 12.8348 16.7308C12.858 16.7308 12.8771 16.7497 12.8771 16.7731V17.3717L13.522 16.7268C13.5328 16.716 13.5454 16.7145 13.5518 16.7145C13.5584 16.7145 13.5711 16.716 13.5817 16.7268C13.5925 16.7376 13.5941 16.7502 13.5941 16.7567C13.5941 16.7632 13.5925 16.7759 13.5817 16.7865L12.9368 17.4316H13.5355C13.5588 17.4316 13.5778 17.4504 13.5778 17.4737C13.5778 17.4971 13.5588 17.516 13.5355 17.516H12.8522L12.2148 18.1534H13.2285C13.2517 18.1534 13.2708 18.1724 13.2708 18.1957C13.2708 18.2189 13.2517 18.238 13.2285 18.238H12.0899L12.0961 18.333C12.1049 18.4648 11.985 18.6904 11.7671 18.9521L11.8706 19.0913L12.1912 18.955C12.1967 18.9526 12.2022 18.9515 12.2077 18.9515C12.2247 18.9515 12.2399 18.9616 12.2467 18.9774C12.2558 18.9988 12.2457 19.0237 12.2243 19.0327L11.859 19.1879L11.887 19.359C12.2532 19.3872 12.516 19.4635 12.6079 19.5682L12.6707 19.64L13.4758 18.8349C13.4866 18.8241 13.4993 18.8225 13.5057 18.8225C13.5123 18.8225 13.5249 18.8241 13.5355 18.8349C13.5463 18.8457 13.548 18.8583 13.548 18.8648C13.548 18.8713 13.5463 18.8838 13.5357 18.8946L12.8189 19.6115H13.7203L14.2033 19.1282C14.2141 19.1176 14.2268 19.116 14.2332 19.116C14.2398 19.116 14.2524 19.1176 14.263 19.1282C14.2738 19.139 14.2755 19.1517 14.2755 19.1583C14.2755 19.1647 14.2738 19.1773 14.2632 19.1879L13.8399 19.6115H14.7519C14.7752 19.6115 14.794 19.6303 14.794 19.6538C14.794 19.677 14.7752 19.6959 14.7519 19.6959H13.8399L14.2632 20.1192C14.2738 20.13 14.2755 20.1426 14.2755 20.1492C14.2755 20.1556 14.2738 20.1683 14.2632 20.1789C14.2524 20.1897 14.2398 20.1914 14.2332 20.1914C14.2268 20.1914 14.2141 20.1897 14.2033 20.1789L13.7203 19.6959H12.8189L13.5355 20.4127C13.5463 20.4235 13.548 20.436 13.548 20.4426C13.548 20.4492 13.5463 20.4616 13.5355 20.4724C13.5247 20.4832 13.5123 20.4847 13.5057 20.4847C13.4991 20.4847 13.4866 20.4832 13.4758 20.4724L12.6707 19.6673L12.6079 19.7389C12.5209 19.8383 12.2765 19.913 11.9376 19.944L11.9123 20.1155L12.2353 20.2459C12.2494 20.2516 12.2558 20.2626 12.2584 20.2686C12.2609 20.2745 12.2644 20.2868 12.2587 20.3009C12.2521 20.317 12.2368 20.3274 12.2194 20.3274C12.2141 20.3274 12.2088 20.3263 12.2036 20.3243L11.8356 20.1756L11.7345 20.3166C11.9735 20.5955 12.1053 20.8352 12.0961 20.9743L12.0899 21.0693H13.2285C13.2517 21.0693 13.2708 21.0884 13.2708 21.1116C13.2708 21.1349 13.2517 21.1539 13.2285 21.1539H12.2148L12.8522 21.7913H13.5355C13.5588 21.7913 13.5778 21.8102 13.5778 21.8334C13.5778 21.8569 13.5588 21.8757 13.5355 21.8757H12.9368L13.5817 22.5206C13.5925 22.5314 13.5941 22.5441 13.5941 22.5505C13.5941 22.5571 13.5925 22.5697 13.5817 22.5803C13.5709 22.5913 13.5584 22.5928 13.5518 22.5928C13.5452 22.5928 13.5328 22.5913 13.522 22.5805L12.8771 21.9354V22.5342C12.8771 22.5574 12.858 22.5765 12.8348 22.5765C12.8115 22.5765 12.7925 22.5574 12.7925 22.5342V21.851L12.1551 21.2136V22.2273C12.1551 22.2506 12.1362 22.2694 12.1128 22.2694C12.0895 22.2694 12.0707 22.2506 12.0707 22.2273V21.0891L11.9755 21.0953C11.9711 21.0955 11.9665 21.0959 11.9619 21.0959C11.8272 21.0959 11.612 20.9787 11.3566 20.7659L11.2174 20.8694L11.3535 21.1898C11.3595 21.2039 11.3562 21.2162 11.3538 21.2222C11.3513 21.2283 11.3452 21.2395 11.3311 21.2453C11.3258 21.2475 11.3203 21.2486 11.3146 21.2486C11.2976 21.2486 11.2824 21.2385 11.2756 21.223L11.1206 20.8577L10.9493 20.8857C10.9212 21.2519 10.845 21.5147 10.7401 21.6066L10.6685 21.6694L11.4736 22.4745C11.4844 22.4853 11.4858 22.4979 11.4858 22.5043C11.4858 22.5109 11.4844 22.5236 11.4736 22.5342C11.4628 22.545 11.4501 22.5466 11.4436 22.5466C11.4371 22.5466 11.4245 22.545 11.4139 22.5344L10.697 21.8175V22.7189L11.1801 23.202C11.1909 23.2128 11.1925 23.2254 11.1925 23.2318C11.1925 23.2384 11.1909 23.2511 11.1801 23.2617C11.1693 23.2725 11.1568 23.2741 11.1502 23.2741C11.1436 23.2741 11.131 23.2725 11.1204 23.2619L10.6968 22.8385V23.7506C10.697 23.7738 10.6782 23.7929 10.6549 23.7929ZM10.7221 21.5099L10.7488 21.452C10.8102 21.3189 10.8757 21.0322 10.8757 20.6266C10.8757 20.5046 10.8697 20.3862 10.8578 20.2745L10.8551 20.2496L10.8399 20.2296C10.7987 20.176 10.7617 20.1236 10.7298 20.0742L10.6547 19.9572L10.5797 20.0742C10.5478 20.1236 10.511 20.176 10.4698 20.2296L10.4546 20.2496L10.4519 20.2745C10.4399 20.3862 10.4339 20.5046 10.4339 20.6266C10.4339 21.0322 10.4995 21.3189 10.5608 21.452L10.5873 21.5099C10.5873 21.5099 10.6535 21.5031 10.6547 21.5029C10.6564 21.5031 10.7221 21.5099 10.7221 21.5099ZM10.8992 20.004C10.9116 20.0613 10.9224 20.1245 10.9314 20.1917L10.9347 20.2166L10.9504 20.236C11.0209 20.3236 11.1004 20.4116 11.1867 20.4979C11.4734 20.7846 11.7224 20.941 11.8599 20.9917L11.9196 21.0139C11.9196 21.0139 11.9617 20.9624 11.9625 20.9613C11.9638 20.9604 12.015 20.9185 12.015 20.9185L11.9929 20.8588C11.9421 20.7213 11.7858 20.4722 11.4989 20.1855C11.4128 20.0993 11.3247 20.0198 11.2372 19.9493L11.2178 19.9335L11.1929 19.9302C11.1257 19.9213 11.0625 19.9105 11.0052 19.898L10.8693 19.8684L10.8992 20.004ZM9.39002 21.0137L9.44971 20.9917C9.58723 20.941 9.83625 20.7846 10.123 20.4977C10.2092 20.4116 10.2887 20.3236 10.3594 20.236L10.3749 20.2166L10.3782 20.1917C10.3872 20.1245 10.398 20.0613 10.4105 20.004L10.4401 19.8682L10.3045 19.8978C10.2471 19.9103 10.184 19.9211 10.1166 19.9301L10.0919 19.9334L10.0723 19.9491C9.98493 20.0196 9.89686 20.0991 9.81061 20.1853C9.52387 20.4721 9.3675 20.7211 9.31659 20.8586L9.29462 20.9183C9.29462 20.9183 9.34608 20.9604 9.34699 20.9611C9.34809 20.9626 9.39002 21.0137 9.39002 21.0137ZM11.6278 19.4327C11.5058 19.4327 11.3873 19.4388 11.2756 19.4507L11.2507 19.4533L11.2308 19.4686C11.1769 19.5098 11.1246 19.5468 11.0753 19.5785L10.9583 19.6536L11.0753 19.7286C11.1248 19.7605 11.1771 19.7975 11.2308 19.8387L11.2507 19.8539L11.2756 19.8565C11.3873 19.8684 11.5058 19.8744 11.6278 19.8744C12.0335 19.8744 12.3203 19.8088 12.4532 19.7477L12.5111 19.721C12.5111 19.721 12.5045 19.6549 12.5043 19.6536C12.5045 19.6521 12.5111 19.5864 12.5111 19.5864L12.4532 19.5596C12.3203 19.4983 12.0335 19.4327 11.6278 19.4327ZM8.79859 19.721L8.85645 19.7475C8.98938 19.8088 9.27613 19.8744 9.68189 19.8744C9.80366 19.8744 9.92213 19.8684 10.0338 19.8565L10.0589 19.8539L10.0787 19.8387C10.1325 19.7973 10.1849 19.7603 10.2343 19.7286L10.3513 19.6536L10.2343 19.5785C10.1849 19.5468 10.1327 19.5098 10.0789 19.4686L10.0589 19.4534L10.034 19.4507C9.92231 19.4388 9.80384 19.4327 9.68189 19.4327C9.27613 19.4327 8.98938 19.4983 8.85627 19.5596L8.79859 19.5862C8.79859 19.5862 8.80518 19.6523 8.80536 19.6536C8.80518 19.655 8.79859 19.721 8.79859 19.721ZM11.8599 18.3154C11.7224 18.3662 11.4734 18.5227 11.1867 18.8095C11.1004 18.8957 11.0209 18.9838 10.9504 19.0711L10.9347 19.0905L10.9314 19.1154C10.9224 19.1828 10.9116 19.246 10.8992 19.3031L10.8695 19.439L11.0054 19.4093C11.0627 19.3969 11.1257 19.3861 11.1931 19.3771L11.218 19.3738L11.2374 19.3582C11.3247 19.2875 11.4128 19.2081 11.499 19.1218C11.7858 18.8351 11.9423 18.5861 11.9931 18.4486L12.015 18.3889C12.015 18.3889 11.9638 18.3467 11.9627 18.346C11.9617 18.3447 11.9198 18.2935 11.9198 18.2935L11.8599 18.3154ZM9.29462 18.3887L9.31659 18.4484C9.3675 18.5859 9.52387 18.8351 9.81061 19.1218C9.89686 19.2081 9.98493 19.2875 10.0723 19.358L10.0919 19.3738L10.1166 19.3771C10.184 19.3859 10.2471 19.3969 10.3045 19.4093L10.4401 19.439L10.4105 19.3031C10.398 19.2458 10.3872 19.1826 10.3782 19.1154L10.3749 19.0905L10.3594 19.0711C10.2887 18.9836 10.2092 18.8955 10.123 18.8093C9.83625 18.5225 9.58723 18.3662 9.44971 18.3154L9.39002 18.2933C9.39002 18.2933 9.34791 18.3447 9.34717 18.3458C9.34589 18.3467 9.29462 18.3887 9.29462 18.3887ZM10.5608 17.8551C10.4995 17.9882 10.4339 18.275 10.4339 18.6805C10.4339 18.8025 10.4401 18.921 10.452 19.0327L10.4546 19.0576L10.47 19.0775C10.511 19.1312 10.548 19.1835 10.5798 19.233L10.6549 19.35L10.73 19.233C10.7618 19.1835 10.7987 19.1312 10.8399 19.0775L10.8551 19.0576L10.8578 19.0327C10.8697 18.921 10.8757 18.8025 10.8757 18.6805C10.8757 18.275 10.8102 17.9882 10.7488 17.8551L10.7223 17.7972C10.7223 17.7972 10.6562 17.804 10.6549 17.8042C10.6535 17.804 10.5875 17.7972 10.5875 17.7972L10.5608 17.8551Z" fill="url(#paint5_linear_29_35285)"/>
</g>
<defs>
<linearGradient id="paint0_linear_29_35285" x1="12.1625" y1="3.25901" x2="17.6677" y2="13.2883" gradientUnits="userSpaceOnUse">
<stop stop-color="#ECF7FF"/>
<stop offset="1" stop-color="#C2E0FF"/>
</linearGradient>
<linearGradient id="paint1_linear_29_35285" x1="16.8534" y1="4.8929" x2="10.9663" y2="18.1206" gradientUnits="userSpaceOnUse">
<stop offset="0.0029" stop-color="#C2E0FF" stop-opacity="0"/>
<stop offset="0.0763" stop-color="#BFDCFD" stop-opacity="0.07451"/>
<stop offset="1" stop-color="#9EB2E7"/>
</linearGradient>
<linearGradient id="paint2_linear_29_35285" x1="2.9245" y1="10.513" x2="5.62809" y2="15.4384" gradientUnits="userSpaceOnUse">
<stop stop-color="#ECF7FF"/>
<stop offset="1" stop-color="#C2E0FF"/>
</linearGradient>
<linearGradient id="paint3_linear_29_35285" x1="5.22719" y1="11.3161" x2="2.33608" y2="17.8122" gradientUnits="userSpaceOnUse">
<stop offset="0.0029" stop-color="#C2E0FF" stop-opacity="0"/>
<stop offset="0.0763" stop-color="#BFDCFD" stop-opacity="0.07451"/>
<stop offset="1" stop-color="#9EB2E7"/>
</linearGradient>
<linearGradient id="paint4_linear_29_35285" x1="9.18636" y1="16.9771" x2="11.8899" y2="21.9024" gradientUnits="userSpaceOnUse">
<stop stop-color="#ECF7FF"/>
<stop offset="1" stop-color="#C2E0FF"/>
</linearGradient>
<linearGradient id="paint5_linear_29_35285" x1="11.4889" y1="17.7796" x2="8.59776" y2="24.2757" gradientUnits="userSpaceOnUse">
<stop offset="0.0029" stop-color="#C2E0FF" stop-opacity="0"/>
<stop offset="0.0763" stop-color="#BFDCFD" stop-opacity="0.07451"/>
<stop offset="1" stop-color="#9EB2E7"/>
</linearGradient>
<clipPath id="clip0_29_35285">
<rect width="24" height="24" fill="white"/>
</clipPath>
</defs>
</svg>
