<svg width="24" height="24" viewBox="0 0 24 24" fill="none" xmlns="http://www.w3.org/2000/svg">
<g clip-path="url(#clip0_29_35254)">
<path d="M18.1874 4.32941C17.7929 4.32941 17.4136 4.39379 17.0583 4.51106C17.0731 4.3976 17.0815 4.28216 17.0815 4.16471C17.0815 2.69628 15.8911 1.50588 14.4227 1.50588C13.7578 1.50588 13.1504 1.75049 12.6843 2.15393C12.1273 0.885929 10.8611 0 9.38741 0C7.46002 0 5.88651 1.51468 5.79197 3.41859C3.77484 3.66052 2.21094 5.37647 2.21094 7.45882C2.21094 9.70696 4.03338 11.5294 6.28153 11.5294C8.52967 11.5294 16.1992 11.5294 18.1874 11.5294C20.1756 11.5294 21.7874 9.91765 21.7874 7.92941C21.7874 5.94118 20.1756 4.32941 18.1874 4.32941Z" fill="url(#paint0_linear_29_35254)"/>
<path d="M2.21094 7.45923C2.21094 9.70737 4.03338 11.5298 6.28153 11.5298C8.52967 11.5298 16.1992 11.5298 18.1874 11.5298C20.1756 11.5298 21.7874 9.91805 21.7874 7.92981C21.7874 7.06341 21.4812 6.26868 20.9713 5.64746H2.6356C2.36383 6.19301 2.21094 6.80821 2.21094 7.45923Z" fill="url(#paint1_linear_29_35254)"/>
<path d="M18.1866 4.32939C17.792 4.32939 17.4127 4.39377 17.0575 4.51104C17.0723 4.39758 17.0807 4.28214 17.0807 4.16468C17.0807 2.69626 15.8903 1.50586 14.4219 1.50586C14.253 1.50586 14.0878 1.52181 13.9277 1.55198V11.5294H18.1866C20.1748 11.5294 21.7866 9.91762 21.7866 7.92939C21.7866 5.94115 20.1748 4.32939 18.1866 4.32939Z" fill="url(#paint2_linear_29_35254)"/>
<path d="M17.0813 4.16468C17.0813 4.28186 17.0738 4.39715 17.0592 4.51009C15.9783 4.86586 15.1237 5.72045 14.7679 6.80139C14.655 6.81598 14.5397 6.82351 14.4225 6.82351C12.9543 6.82351 11.7637 5.63292 11.7637 4.16468C11.7637 2.69645 12.9543 1.50586 14.4225 1.50586C15.8907 1.50586 17.0813 2.69645 17.0813 4.16468Z" fill="url(#paint3_linear_29_35254)"/>
<path d="M11.7636 4.16471C11.7636 4.75482 11.9561 5.30024 12.2812 5.74118C11.6252 6.62635 10.5735 7.2 9.38711 7.2C7.39887 7.2 5.78711 5.58824 5.78711 3.6C5.78711 1.61176 7.39887 0 9.38711 0C10.8605 0 12.1273 0.885176 12.6841 2.15294C12.1203 2.64047 11.7636 3.36094 11.7636 4.16471Z" fill="url(#paint4_linear_29_35254)"/>
<path d="M11.7647 4.16471C11.7647 4.75482 11.9572 5.30024 12.2824 5.74118C11.8076 6.38212 11.1252 6.85929 10.3346 7.07388C10.1407 5.00612 8.4005 3.38824 6.28238 3.38824C6.11673 3.38824 5.95344 3.39812 5.79297 3.41741C5.88803 1.51388 7.4612 0 9.38826 0C10.8617 0 12.1285 0.885176 12.6852 2.15294C12.1214 2.64047 11.7647 3.36094 11.7647 4.16471Z" fill="url(#paint5_linear_29_35254)"/>
<path d="M12.6149 21.6781C13.1454 21.6781 13.5755 21.248 13.5755 20.7174C13.5755 20.1869 13.1454 19.7568 12.6149 19.7568C12.0844 19.7568 11.6543 20.1869 11.6543 20.7174C11.6543 21.248 12.0844 21.6781 12.6149 21.6781Z" fill="url(#paint6_linear_29_35254)"/>
<path d="M11.6543 20.7178C11.6543 21.2484 12.0844 21.6784 12.6149 21.6784C13.1455 21.6784 13.5755 21.2484 13.5755 20.7178C13.5755 20.6029 13.5553 20.4928 13.5183 20.3906H11.7115C11.6745 20.4928 11.6543 20.603 11.6543 20.7178Z" fill="url(#paint7_linear_29_35254)"/>
<path d="M11.935 21.3971C12.3102 21.7722 12.9184 21.7722 13.2936 21.3971C13.6687 21.0219 13.6687 20.4137 13.2936 20.0385C13.2123 19.9573 13.1201 19.8937 13.0217 19.8477L11.7441 21.1253C11.7902 21.2236 11.8537 21.3158 11.935 21.3971Z" fill="url(#paint8_linear_29_35254)"/>
<path d="M10.2926 23.9993C10.8232 23.9993 11.2533 23.5693 11.2533 23.0387C11.2533 22.5082 10.8232 22.0781 10.2926 22.0781C9.76211 22.0781 9.33203 22.5082 9.33203 23.0387C9.33203 23.5693 9.76211 23.9993 10.2926 23.9993Z" fill="url(#paint9_linear_29_35254)"/>
<path d="M9.33203 23.0391C9.33203 23.5697 9.7621 23.9997 10.2926 23.9997C10.8232 23.9997 11.2533 23.5697 11.2533 23.0391C11.2533 22.9242 11.233 22.8141 11.196 22.7119H9.38925C9.35231 22.814 9.33203 22.9242 9.33203 23.0391Z" fill="url(#paint10_linear_29_35254)"/>
<path d="M9.61275 23.7184C9.9879 24.0935 10.5961 24.0935 10.9713 23.7184C11.3464 23.3432 11.3464 22.735 10.9713 22.3598C10.89 22.2785 10.7978 22.215 10.6995 22.1689L9.42188 23.4465C9.46795 23.5449 9.53152 23.6371 9.61275 23.7184Z" fill="url(#paint11_linear_29_35254)"/>
<path d="M14.9215 14.7132C15.4521 14.7132 15.8822 14.2831 15.8822 13.7526C15.8822 13.2221 15.4521 12.792 14.9215 12.792C14.391 12.792 13.9609 13.2221 13.9609 13.7526C13.9609 14.2831 14.391 14.7132 14.9215 14.7132Z" fill="url(#paint12_linear_29_35254)"/>
<path d="M13.9609 13.753C13.9609 14.2835 14.391 14.7136 14.9215 14.7136C15.4521 14.7136 15.8822 14.2835 15.8822 13.753C15.8822 13.6381 15.8619 13.5279 15.8249 13.4258H14.0182C13.9812 13.5279 13.9609 13.6381 13.9609 13.753Z" fill="url(#paint13_linear_29_35254)"/>
<path d="M14.2417 14.4322C14.6168 14.8074 15.225 14.8074 15.6002 14.4322C15.9753 14.0571 15.9753 13.4488 15.6002 13.0737C15.5189 12.9924 15.4267 12.9288 15.3284 12.8828L14.0508 14.1604C14.0968 14.2588 14.1604 14.351 14.2417 14.4322Z" fill="url(#paint14_linear_29_35254)"/>
<path d="M14.9215 14.7132C15.4521 14.7132 15.8822 14.2831 15.8822 13.7526C15.8822 13.2221 15.4521 12.792 14.9215 12.792C14.391 12.792 13.9609 13.2221 13.9609 13.7526C13.9609 14.2831 14.391 14.7132 14.9215 14.7132Z" fill="url(#paint15_linear_29_35254)"/>
<path d="M12.5993 17.0345C13.1298 17.0345 13.5599 16.6044 13.5599 16.0739C13.5599 15.5434 13.1298 15.1133 12.5993 15.1133C12.0688 15.1133 11.6387 15.5434 11.6387 16.0739C11.6387 16.6044 12.0688 17.0345 12.5993 17.0345Z" fill="url(#paint16_linear_29_35254)"/>
<path d="M11.6387 16.0743C11.6387 16.6048 12.0687 17.0349 12.5993 17.0349C13.1298 17.0349 13.5599 16.6048 13.5599 16.0743C13.5599 15.9594 13.5397 15.8492 13.5027 15.7471H11.6959C11.659 15.8492 11.6387 15.9594 11.6387 16.0743Z" fill="url(#paint17_linear_29_35254)"/>
<path d="M11.9194 16.7535C12.2945 17.1287 12.9028 17.1287 13.2779 16.7535C13.6531 16.3784 13.6531 15.7701 13.2779 15.395C13.1967 15.3137 13.1045 15.2501 13.0061 15.2041L11.7285 16.4817C11.7746 16.5801 11.8382 16.6723 11.9194 16.7535Z" fill="url(#paint18_linear_29_35254)"/>
<path d="M10.277 19.3568C10.8075 19.3568 11.2376 18.9267 11.2376 18.3962C11.2376 17.8656 10.8075 17.4355 10.277 17.4355C9.74649 17.4355 9.31641 17.8656 9.31641 18.3962C9.31641 18.9267 9.74649 19.3568 10.277 19.3568Z" fill="url(#paint19_linear_29_35254)"/>
<path d="M9.31641 18.3965C9.31641 18.9271 9.74648 19.3571 10.277 19.3571C10.8076 19.3571 11.2376 18.9271 11.2376 18.3965C11.2376 18.2816 11.2174 18.1715 11.1804 18.0693H9.37363C9.33664 18.1715 9.31641 18.2816 9.31641 18.3965Z" fill="url(#paint20_linear_29_35254)"/>
<path d="M9.59712 19.0758C9.97227 19.4509 10.5805 19.4509 10.9557 19.0758C11.3308 18.7006 11.3308 18.0924 10.9557 17.7172C10.8744 17.636 10.7822 17.5724 10.6839 17.5264L9.40625 18.804C9.45227 18.9024 9.51585 18.9946 9.59712 19.0758Z" fill="url(#paint21_linear_29_35254)"/>
<path d="M7.95671 21.6781C8.48724 21.6781 8.91732 21.248 8.91732 20.7174C8.91732 20.1869 8.48724 19.7568 7.95671 19.7568C7.42617 19.7568 6.99609 20.1869 6.99609 20.7174C6.99609 21.248 7.42617 21.6781 7.95671 21.6781Z" fill="url(#paint22_linear_29_35254)"/>
<path d="M6.99609 20.7178C6.99609 21.2484 7.42616 21.6784 7.95671 21.6784C8.48725 21.6784 8.91732 21.2484 8.91732 20.7178C8.91732 20.6029 8.89708 20.4928 8.86009 20.3906H7.05332C7.01633 20.4928 6.99609 20.603 6.99609 20.7178Z" fill="url(#paint23_linear_29_35254)"/>
<path d="M7.27681 21.3971C7.65196 21.7722 8.2602 21.7722 8.63535 21.3971C9.0105 21.0219 9.0105 20.4137 8.63535 20.0385C8.55408 19.9573 8.46189 19.8937 8.36354 19.8477L7.08594 21.1253C7.13196 21.2236 7.19554 21.3158 7.27681 21.3971Z" fill="url(#paint24_linear_29_35254)"/>
<path d="M5.63444 23.9993C6.16497 23.9993 6.59505 23.5693 6.59505 23.0387C6.59505 22.5082 6.16497 22.0781 5.63444 22.0781C5.10391 22.0781 4.67383 22.5082 4.67383 23.0387C4.67383 23.5693 5.10391 23.9993 5.63444 23.9993Z" fill="url(#paint25_linear_29_35254)"/>
<path d="M4.67383 23.0391C4.67383 23.5697 5.1039 23.9997 5.63444 23.9997C6.16498 23.9997 6.59505 23.5697 6.59505 23.0391C6.59505 22.9242 6.57482 22.8141 6.53783 22.7119H4.7311C4.69411 22.814 4.67383 22.9242 4.67383 23.0391Z" fill="url(#paint26_linear_29_35254)"/>
<path d="M4.95454 23.7184C5.3297 24.0935 5.93793 24.0935 6.31308 23.7184C6.68824 23.3432 6.68824 22.735 6.31308 22.3598C6.23181 22.2785 6.13963 22.215 6.04127 22.1689L4.76367 23.4465C4.80974 23.5449 4.87332 23.6371 4.95454 23.7184Z" fill="url(#paint27_linear_29_35254)"/>
<path d="M10.2633 14.7132C10.7939 14.7132 11.224 14.2831 11.224 13.7526C11.224 13.2221 10.7939 12.792 10.2633 12.792C9.73281 12.792 9.30273 13.2221 9.30273 13.7526C9.30273 14.2831 9.73281 14.7132 10.2633 14.7132Z" fill="url(#paint28_linear_29_35254)"/>
<path d="M9.30273 13.753C9.30273 14.2835 9.7328 14.7136 10.2633 14.7136C10.7939 14.7136 11.224 14.2835 11.224 13.753C11.224 13.6381 11.2037 13.5279 11.1667 13.4258H9.35996C9.32297 13.5279 9.30273 13.6381 9.30273 13.753Z" fill="url(#paint29_linear_29_35254)"/>
<path d="M9.30273 13.753C9.30273 14.2835 9.7328 14.7136 10.2633 14.7136C10.7939 14.7136 11.224 14.2835 11.224 13.753C11.224 13.6381 11.2037 13.5279 11.1667 13.4258H9.35996C9.32297 13.5279 9.30273 13.6381 9.30273 13.753Z" fill="url(#paint30_linear_29_35254)"/>
<path d="M9.58345 14.4322C9.9586 14.8074 10.5668 14.8074 10.942 14.4322C11.3171 14.0571 11.3171 13.4488 10.942 13.0737C10.8607 12.9924 10.7685 12.9288 10.6702 12.8828L9.39258 14.1604C9.4386 14.2588 9.50218 14.351 9.58345 14.4322Z" fill="url(#paint31_linear_29_35254)"/>
<path d="M7.94108 17.0345C8.47161 17.0345 8.90169 16.6044 8.90169 16.0739C8.90169 15.5434 8.47161 15.1133 7.94108 15.1133C7.41055 15.1133 6.98047 15.5434 6.98047 16.0739C6.98047 16.6044 7.41055 17.0345 7.94108 17.0345Z" fill="url(#paint32_linear_29_35254)"/>
<path d="M6.98047 16.0743C6.98047 16.6048 7.41054 17.0349 7.94108 17.0349C8.47162 17.0349 8.90169 16.6048 8.90169 16.0743C8.90169 15.9594 8.88146 15.8492 8.84447 15.7471H7.03769C7.00075 15.8492 6.98047 15.9594 6.98047 16.0743Z" fill="url(#paint33_linear_29_35254)"/>
<path d="M7.26118 16.7535C7.63634 17.1287 8.24457 17.1287 8.61972 16.7535C8.99488 16.3784 8.99488 15.7701 8.61972 15.395C8.53845 15.3137 8.44626 15.2501 8.34791 15.2041L7.07031 16.4817C7.11638 16.5801 7.17996 16.6723 7.26118 16.7535Z" fill="url(#paint34_linear_29_35254)"/>
<path d="M5.61881 19.3568C6.14935 19.3568 6.57943 18.9267 6.57943 18.3962C6.57943 17.8656 6.14935 17.4355 5.61881 17.4355C5.08828 17.4355 4.6582 17.8656 4.6582 18.3962C4.6582 18.9267 5.08828 19.3568 5.61881 19.3568Z" fill="url(#paint35_linear_29_35254)"/>
<path d="M4.6582 18.3965C4.6582 18.9271 5.08827 19.3571 5.61881 19.3571C6.14936 19.3571 6.57943 18.9271 6.57943 18.3965C6.57943 18.2816 6.55919 18.1715 6.5222 18.0693H4.71543C4.67844 18.1715 4.6582 18.2816 4.6582 18.3965Z" fill="url(#paint36_linear_29_35254)"/>
<path d="M4.93892 19.0758C5.31407 19.4509 5.92231 19.4509 6.29746 19.0758C6.67261 18.7006 6.67261 18.0924 6.29746 17.7172C6.21619 17.636 6.124 17.5724 6.02565 17.5264L4.74805 18.804C4.79407 18.9024 4.85765 18.9946 4.93892 19.0758Z" fill="url(#paint37_linear_29_35254)"/>
<path d="M3.2985 21.6781C3.82903 21.6781 4.25911 21.248 4.25911 20.7174C4.25911 20.1869 3.82903 19.7568 3.2985 19.7568C2.76797 19.7568 2.33789 20.1869 2.33789 20.7174C2.33789 21.248 2.76797 21.6781 3.2985 21.6781Z" fill="url(#paint38_linear_29_35254)"/>
<path d="M2.33789 20.7178C2.33789 21.2484 2.76796 21.6784 3.2985 21.6784C3.82904 21.6784 4.25911 21.2484 4.25911 20.7178C4.25911 20.6029 4.23888 20.4928 4.20189 20.3906H2.39511C2.35813 20.4928 2.33789 20.603 2.33789 20.7178Z" fill="url(#paint39_linear_29_35254)"/>
<path d="M2.6186 21.3971C2.99376 21.7722 3.60199 21.7722 3.97715 21.3971C4.3523 21.0219 4.3523 20.4137 3.97715 20.0385C3.89588 19.9573 3.80369 19.8937 3.70533 19.8477L2.42773 21.1253C2.47376 21.2236 2.53733 21.3158 2.6186 21.3971Z" fill="url(#paint40_linear_29_35254)"/>
<path d="M0.976237 23.9993C1.50677 23.9993 1.93685 23.5693 1.93685 23.0387C1.93685 22.5082 1.50677 22.0781 0.976237 22.0781C0.445706 22.0781 0.015625 22.5082 0.015625 23.0387C0.015625 23.5693 0.445706 23.9993 0.976237 23.9993Z" fill="url(#paint41_linear_29_35254)"/>
<path d="M0.015625 23.0391C0.015625 23.5697 0.445743 23.9997 0.976284 23.9997C1.50683 23.9997 1.9369 23.5697 1.9369 23.0391C1.9369 22.9242 1.91666 22.8141 1.87967 22.7119H0.0728956C0.0359074 22.814 0.015625 22.9242 0.015625 23.0391Z" fill="url(#paint42_linear_29_35254)"/>
<path d="M0.296339 23.7184C0.671492 24.0935 1.27973 24.0935 1.65488 23.7184C2.03003 23.3432 2.03003 22.735 1.65488 22.3598C1.57361 22.2785 1.48142 22.215 1.38307 22.1689L0.105469 23.4465C0.151539 23.5449 0.215116 23.6371 0.296339 23.7184Z" fill="url(#paint43_linear_29_35254)"/>
<path d="M5.60319 14.7132C6.13372 14.7132 6.5638 14.2831 6.5638 13.7526C6.5638 13.2221 6.13372 12.792 5.60319 12.792C5.07266 12.792 4.64258 13.2221 4.64258 13.7526C4.64258 14.2831 5.07266 14.7132 5.60319 14.7132Z" fill="url(#paint44_linear_29_35254)"/>
<path d="M4.64258 13.753C4.64258 14.2835 5.07265 14.7136 5.60319 14.7136C6.13373 14.7136 6.5638 14.2835 6.5638 13.753C6.5638 13.6381 6.54357 13.5279 6.50658 13.4258H4.6998C4.66281 13.5279 4.64258 13.6381 4.64258 13.753Z" fill="url(#paint45_linear_29_35254)"/>
<path d="M4.92329 14.4322C5.29845 14.8074 5.90668 14.8074 6.28183 14.4322C6.65699 14.0571 6.65699 13.4488 6.28183 13.0737C6.20056 12.9924 6.10838 12.9288 6.01002 12.8828L4.73242 14.1604C4.77845 14.2588 4.84202 14.351 4.92329 14.4322Z" fill="url(#paint46_linear_29_35254)"/>
<path d="M3.28288 17.0345C3.81341 17.0345 4.24349 16.6044 4.24349 16.0739C4.24349 15.5434 3.81341 15.1133 3.28288 15.1133C2.75235 15.1133 2.32227 15.5434 2.32227 16.0739C2.32227 16.6044 2.75235 17.0345 3.28288 17.0345Z" fill="url(#paint47_linear_29_35254)"/>
<path d="M2.32227 16.0743C2.32227 16.6048 2.75234 17.0349 3.28288 17.0349C3.81342 17.0349 4.24349 16.6048 4.24349 16.0743C4.24349 15.9594 4.22325 15.8492 4.18627 15.7471H2.37954C2.3425 15.8492 2.32227 15.9594 2.32227 16.0743Z" fill="url(#paint48_linear_29_35254)"/>
<path d="M2.60298 16.7535C2.97813 17.1287 3.58637 17.1287 3.96152 16.7535C4.33667 16.3784 4.33667 15.7701 3.96152 15.395C3.88025 15.3137 3.78806 15.2501 3.68971 15.2041L2.41211 16.4817C2.45818 16.5801 2.52176 16.6723 2.60298 16.7535Z" fill="url(#paint49_linear_29_35254)"/>
<path d="M0.960612 19.3568C1.49114 19.3568 1.92122 18.9267 1.92122 18.3962C1.92122 17.8656 1.49114 17.4355 0.960612 17.4355C0.430081 17.4355 0 17.8656 0 18.3962C0 18.9267 0.430081 19.3568 0.960612 19.3568Z" fill="url(#paint50_linear_29_35254)"/>
<path d="M0 18.3965C0 18.9271 0.430071 19.3571 0.960612 19.3571C1.49115 19.3571 1.92122 18.9271 1.92122 18.3965C1.92122 18.2816 1.90099 18.1715 1.864 18.0693H0.0572235C0.0202353 18.1715 0 18.2816 0 18.3965Z" fill="url(#paint51_linear_29_35254)"/>
<path d="M0.280714 19.0758C0.655867 19.4509 1.2641 19.4509 1.63926 19.0758C2.01441 18.7006 2.01441 18.0924 1.63926 17.7172C1.55799 17.636 1.4658 17.5724 1.36744 17.5264L0.0898438 18.804C0.135867 18.9024 0.199444 18.9946 0.280714 19.0758Z" fill="url(#paint52_linear_29_35254)"/>
<path d="M8.1999 10.1645C8.31167 10.1645 8.4208 10.1757 8.52644 10.1966C8.67157 9.12878 9.5864 8.30563 10.694 8.30563C10.9632 8.30563 11.2208 8.35452 11.4589 8.44356C11.5596 8.48125 11.6641 8.40568 11.6599 8.2982C11.6592 8.27725 11.6587 8.25617 11.6587 8.23504C11.6587 7.31241 12.4067 6.56445 13.3293 6.56445C14.2386 6.56445 14.9777 7.29109 14.9989 8.19528C16.3858 8.29184 17.4799 9.45128 17.4704 10.8649C17.4607 12.3327 16.2404 13.5056 14.7726 13.5056H8.23289C7.29614 13.5056 6.51171 12.739 6.5296 11.8025C6.54696 10.8949 7.28814 10.1645 8.1999 10.1645Z" fill="url(#paint53_linear_29_35254)"/>
<path d="M12.8816 10.4939C12.8816 11.7024 11.9019 12.6821 10.6934 12.6821C10.3541 12.6821 10.0327 12.605 9.7461 12.4671C9.8261 12.2723 9.86986 12.0586 9.86986 11.8351C9.86986 11.0238 9.29198 10.348 8.52539 10.1965C8.67033 9.12872 9.58563 8.30566 10.6934 8.30566C11.9019 8.30566 12.8816 9.28543 12.8816 10.4939Z" fill="url(#paint54_linear_29_35254)"/>
<path d="M14.9989 8.19457C14.9368 8.19034 14.8742 8.18798 14.8111 8.18798C13.774 8.18798 12.8756 8.78187 12.4375 9.64822C11.9693 9.35222 11.6582 8.82986 11.6582 8.23504C11.6582 7.31222 12.406 6.56445 13.3288 6.56445C14.238 6.56445 14.9777 7.29057 14.9989 8.19457Z" fill="url(#paint55_linear_29_35254)"/>
<path d="M8.5264 10.1967C8.42075 10.1758 8.31162 10.1646 8.19986 10.1646C7.28809 10.1646 6.54692 10.895 6.5296 11.8026C6.51167 12.7392 7.29614 13.5057 8.23289 13.5057H14.7725C16.2403 13.5057 17.4606 12.3328 17.4704 10.8651C17.4724 10.571 17.4259 10.2882 17.3397 10.0234H8.5575C8.54503 10.0804 8.53435 10.1381 8.5264 10.1967Z" fill="url(#paint56_linear_29_35254)"/>
<path d="M14.999 8.19495C14.9834 7.5326 14.5824 6.96591 14.0117 6.70996V13.5053H14.7726C16.2404 13.5053 17.4607 12.3324 17.4705 10.8646C17.4799 9.451 16.3858 8.29156 14.999 8.19495Z" fill="url(#paint57_linear_29_35254)"/>
<path d="M14.6611 11.7423C14.6021 11.7423 14.5445 11.7482 14.4888 11.7592C14.4122 11.1958 13.9295 10.7615 13.3451 10.7615C13.2031 10.7615 13.0672 10.7872 12.9415 10.8343C12.8884 10.8541 12.8332 10.8143 12.8354 10.7575C12.8358 10.7465 12.8361 10.7354 12.8361 10.7242C12.8361 10.2374 12.4414 9.84277 11.9546 9.84277C11.4748 9.84277 11.0848 10.2262 11.0737 10.7033C10.3418 10.7543 9.76458 11.366 9.76956 12.112C9.77474 12.8864 10.4186 13.5053 11.1931 13.5053H14.6437C15.138 13.5053 15.5519 13.1008 15.5425 12.6066C15.5332 12.1277 15.1422 11.7423 14.6611 11.7423Z" fill="url(#paint58_linear_29_35254)"/>
<path d="M14.6611 11.7423C14.6021 11.7423 14.5445 11.7482 14.4888 11.7592C14.4122 11.1958 13.9295 10.7615 13.3451 10.7615C13.2031 10.7615 13.0672 10.7872 12.9415 10.8343C12.8884 10.8541 12.8332 10.8143 12.8354 10.7575C12.8358 10.7465 12.8361 10.7354 12.8361 10.7242C12.8361 10.2374 12.4414 9.84277 11.9546 9.84277C11.4748 9.84277 11.0848 10.2262 11.0737 10.7033C10.3418 10.7543 9.76458 11.366 9.76956 12.112C9.77474 12.8864 10.4186 13.5053 11.1931 13.5053H14.6437C15.138 13.5053 15.5519 13.1008 15.5425 12.6066C15.5332 12.1277 15.1422 11.7423 14.6611 11.7423Z" fill="url(#paint59_linear_29_35254)"/>
<path d="M16.3052 20.2832L16.3075 20.2855C16.4312 20.4089 16.4342 20.608 16.3106 20.7316L15.4817 21.5605C15.3567 21.686 15.1533 21.686 15.0278 21.5605C14.9648 21.4976 14.9336 21.4153 14.9336 21.3336C14.9336 21.2513 14.9648 21.1691 15.0278 21.1066L15.8567 20.2777C15.9803 20.1541 16.1794 20.1571 16.3029 20.2808C16.3036 20.2816 16.3044 20.2824 16.3052 20.2832Z" fill="url(#paint60_linear_29_35254)"/>
<path d="M21.6557 15.2537C21.6557 15.3359 21.6245 15.4181 21.5615 15.4806L20.7326 16.3095C20.609 16.4331 20.4099 16.4301 20.2864 16.3064C20.2857 16.3056 20.2849 16.3048 20.2841 16.3041C20.2834 16.3033 20.2826 16.3025 20.2818 16.3018C20.1581 16.1783 20.1551 15.9792 20.2787 15.8556L21.1076 15.0267C21.2326 14.9013 21.436 14.9013 21.5615 15.0267C21.6245 15.0897 21.6557 15.1719 21.6557 15.2537Z" fill="url(#paint61_linear_29_35254)"/>
<path d="M15.4816 15.0268L16.3105 15.8557C16.4341 15.9793 16.4311 16.1785 16.3074 16.3019C16.3066 16.3026 16.3058 16.3034 16.3051 16.3042C16.3043 16.3049 16.3035 16.3057 16.3027 16.3065C16.1793 16.4302 15.9802 16.4332 15.8566 16.3097L15.0277 15.4808C14.9022 15.3557 14.9022 15.1523 15.0277 15.0268C15.0907 14.9639 15.1729 14.9326 15.2547 14.9326C15.3369 14.9327 15.4191 14.9639 15.4816 15.0268Z" fill="url(#paint62_linear_29_35254)"/>
<path d="M21.5615 21.5605C21.4985 21.6235 21.4163 21.6547 21.3345 21.6547C21.2523 21.6547 21.1701 21.6235 21.1076 21.5605L20.2787 20.7316C20.1551 20.608 20.1581 20.4089 20.2818 20.2855L20.2841 20.2832L20.2864 20.2808C20.4099 20.1571 20.609 20.1541 20.7326 20.2777L21.5615 21.1066C21.687 21.2316 21.687 21.435 21.5615 21.5605Z" fill="url(#paint63_linear_29_35254)"/>
<path d="M18.2929 16.9844C18.1156 16.9844 17.9384 16.917 17.8034 16.782L16.4495 15.4281C16.3241 15.3027 16.3241 15.0994 16.4495 14.9739C16.5749 14.8485 16.7783 14.8485 16.9037 14.9739L18.2576 16.3278C18.2771 16.3473 18.3087 16.3473 18.3282 16.3278L19.6821 14.9739C19.8075 14.8485 20.0108 14.8485 20.1363 14.9739C20.2617 15.0994 20.2617 15.3027 20.1363 15.4281L18.7824 16.782C18.6475 16.917 18.4702 16.9844 18.2929 16.9844Z" fill="url(#paint64_linear_29_35254)"/>
<path d="M18.7824 16.783L20.1363 15.4291C20.2617 15.3037 20.2617 15.1003 20.1363 14.9749C20.0109 14.8495 19.8076 14.8495 19.6821 14.9749L18.3283 16.3288C18.3185 16.3385 18.3057 16.3434 18.293 16.3434V16.9854C18.4702 16.9854 18.6475 16.9179 18.7824 16.783Z" fill="url(#paint65_linear_29_35254)"/>
<path d="M18.615 13.954V19.2682H17.9727V13.954C17.9727 13.7767 18.1161 13.6328 18.2938 13.6328C18.4711 13.6329 18.615 13.7767 18.615 13.954Z" fill="url(#paint66_linear_29_35254)"/>
<path d="M18.2938 13.6328C18.1161 13.6328 17.9727 13.7767 17.9727 13.954V16.5108H18.615V13.954C18.615 13.7767 18.4711 13.6328 18.2938 13.6328Z" fill="url(#paint67_linear_29_35254)"/>
<path d="M19.6465 13.7881L18.555 12.6966C18.4101 12.5517 18.1752 12.5517 18.0302 12.6966L16.9387 13.7881C16.7939 13.933 16.7939 14.1679 16.9387 14.3129L18.0302 15.4044C18.1752 15.5493 18.4101 15.5493 18.555 15.4044L19.6465 14.3129C19.7915 14.1679 19.7915 13.933 19.6465 13.7881Z" fill="url(#paint68_linear_29_35254)"/>
<path d="M19.6465 13.7881L18.555 12.6966C18.4101 12.5517 18.1752 12.5517 18.0302 12.6966L16.9387 13.7881C16.7939 13.933 16.7939 14.1679 16.9387 14.3129L18.0302 15.4044C18.1752 15.5493 18.4101 15.5493 18.555 15.4044L19.6465 14.3129C19.7915 14.1679 19.7915 13.933 19.6465 13.7881Z" fill="url(#paint69_linear_29_35254)"/>
<path d="M16.9388 13.7881L18.0303 12.6966C18.1752 12.5517 18.4101 12.5517 18.5551 12.6966L19.6465 13.7881C19.7914 13.933 19.7914 14.1679 19.6465 14.3129L18.5551 15.4044C18.4101 15.5493 18.1752 15.5493 18.0303 15.4044L16.9388 14.3129C16.7938 14.1679 16.7938 13.933 16.9388 13.7881Z" fill="url(#paint70_linear_29_35254)"/>
<path d="M19.7557 14.0508C19.7557 14.1459 19.7193 14.2409 19.6469 14.3133L18.5555 15.4048C18.4831 15.4772 18.388 15.5131 18.293 15.5131V14.2299C18.293 14.131 18.3732 14.0508 18.4721 14.0508H19.7557V14.0508Z" fill="url(#paint71_linear_29_35254)"/>
<path d="M18.2929 19.6025C18.1156 19.6025 17.9384 19.67 17.8034 19.805L16.4495 21.1589C16.3241 21.2843 16.3241 21.4876 16.4495 21.613C16.5749 21.7384 16.7783 21.7384 16.9037 21.613L18.2576 20.2592C18.2771 20.2397 18.3087 20.2397 18.3282 20.2592L19.6821 21.613C19.8075 21.7384 20.0108 21.7384 20.1363 21.613C20.2617 21.4876 20.2617 21.2843 20.1363 21.1589L18.7824 19.805C18.6475 19.67 18.4702 19.6025 18.2929 19.6025Z" fill="url(#paint72_linear_29_35254)"/>
<path d="M18.7824 19.805L20.1363 21.1589C20.2617 21.2843 20.2617 21.4876 20.1363 21.613C20.0109 21.7384 19.8076 21.7384 19.6821 21.613L18.3283 20.2592C18.3185 20.2494 18.3057 20.2446 18.293 20.2446V19.6025C18.4702 19.6026 18.6475 19.67 18.7824 19.805Z" fill="url(#paint73_linear_29_35254)"/>
<path d="M18.615 22.6335V17.3193H17.9727V22.6335C17.9727 22.8108 18.1161 22.9547 18.2938 22.9547C18.4711 22.9546 18.615 22.8108 18.615 22.6335Z" fill="url(#paint74_linear_29_35254)"/>
<path d="M18.2938 22.9542C18.1161 22.9542 17.9727 22.8103 17.9727 22.633V20.0762H18.615V22.633C18.615 22.8103 18.4711 22.9542 18.2938 22.9542Z" fill="url(#paint75_linear_29_35254)"/>
<path d="M19.6465 22.7992L18.555 23.8907C18.4101 24.0356 18.1752 24.0356 18.0302 23.8907L16.9387 22.7992C16.7939 22.6543 16.7939 22.4193 16.9387 22.2744L18.0302 21.1829C18.1752 21.038 18.4101 21.038 18.555 21.1829L19.6465 22.2744C19.7915 22.4193 19.7915 22.6543 19.6465 22.7992Z" fill="url(#paint76_linear_29_35254)"/>
<path d="M19.6465 22.7992L18.555 23.8907C18.4101 24.0356 18.1752 24.0356 18.0302 23.8907L16.9387 22.7992C16.7939 22.6543 16.7939 22.4193 16.9387 22.2744L18.0302 21.1829C18.1752 21.038 18.4101 21.038 18.555 21.1829L19.6465 22.2744C19.7915 22.4193 19.7915 22.6543 19.6465 22.7992Z" fill="url(#paint77_linear_29_35254)"/>
<path d="M16.9388 22.7992L18.0303 23.8907C18.1752 24.0356 18.4101 24.0356 18.5551 23.8907L19.6465 22.7992C19.7914 22.6543 19.7914 22.4193 19.6465 22.2744L18.5551 21.1829C18.4101 21.038 18.1752 21.038 18.0303 21.1829L16.9388 22.2744C16.7938 22.4193 16.7938 22.6543 16.9388 22.7992Z" fill="url(#paint78_linear_29_35254)"/>
<path d="M19.7557 22.5365C19.7557 22.4415 19.7193 22.3464 19.6469 22.274L18.5555 21.1825C18.4831 21.1102 18.388 21.0742 18.293 21.0742V22.3574C18.293 22.4563 18.3732 22.5366 18.4721 22.5366H19.7557V22.5365Z" fill="url(#paint79_linear_29_35254)"/>
<path d="M19.6035 18.2939C19.6035 18.1166 19.671 17.9394 19.806 17.8044L21.1598 16.4505C21.2853 16.3251 21.4886 16.3251 21.614 16.4505C21.7394 16.5759 21.7394 16.7793 21.614 16.9047L20.2601 18.2586C20.2407 18.2781 20.2407 18.3098 20.2601 18.3292L21.614 19.6831C21.7394 19.8085 21.7394 20.0119 21.614 20.1373C21.4886 20.2627 21.2853 20.2627 21.1598 20.1373L19.806 18.7834C19.671 18.6484 19.6035 18.4712 19.6035 18.2939Z" fill="url(#paint80_linear_29_35254)"/>
<path d="M19.806 18.7834L21.1598 20.1373C21.2853 20.2627 21.4886 20.2627 21.614 20.1373C21.7394 20.0119 21.7394 19.8085 21.614 19.6831L20.2601 18.3292C20.2504 18.3195 20.2455 18.3067 20.2455 18.2939H19.6035C19.6036 18.4712 19.671 18.6484 19.806 18.7834Z" fill="url(#paint81_linear_29_35254)"/>
<path d="M22.6345 18.615H17.3203V17.9727H22.6345C22.8117 17.9727 22.9557 18.1161 22.9557 18.2938C22.9556 18.4711 22.8117 18.615 22.6345 18.615Z" fill="url(#paint82_linear_29_35254)"/>
<path d="M22.9561 18.2938C22.9561 18.1161 22.8123 17.9727 22.635 17.9727H20.0781V18.615H22.635C22.8123 18.615 22.9561 18.4711 22.9561 18.2938Z" fill="url(#paint83_linear_29_35254)"/>
<path d="M22.7992 19.6475L23.8907 18.556C24.0356 18.4111 24.0356 18.1761 23.8907 18.0312L22.7992 16.9397C22.6543 16.7948 22.4193 16.7948 22.2744 16.9397L21.1829 18.0312C21.038 18.1761 21.038 18.4111 21.1829 18.556L22.2744 19.6475C22.4193 19.7924 22.6543 19.7924 22.7992 19.6475Z" fill="url(#paint84_linear_29_35254)"/>
<path d="M22.7992 19.6475L23.8907 18.556C24.0356 18.4111 24.0356 18.1761 23.8907 18.0312L22.7992 16.9397C22.6543 16.7948 22.4193 16.7948 22.2744 16.9397L21.1829 18.0312C21.038 18.1761 21.038 18.4111 21.1829 18.556L22.2744 19.6475C22.4193 19.7924 22.6543 19.7924 22.7992 19.6475Z" fill="url(#paint85_linear_29_35254)"/>
<path d="M22.7992 16.9398L23.8907 18.0312C24.0356 18.1761 24.0356 18.4111 23.8907 18.556L22.7992 19.6475C22.6543 19.7924 22.4193 19.7924 22.2744 19.6475L21.1829 18.556C21.038 18.4111 21.038 18.1762 21.1829 18.0312L22.2744 16.9398C22.4193 16.7948 22.6543 16.7948 22.7992 16.9398Z" fill="url(#paint86_linear_29_35254)"/>
<path d="M22.5365 19.7567C22.4415 19.7567 22.3464 19.7203 22.274 19.6479L21.1825 18.5564C21.1102 18.4841 21.0742 18.389 21.0742 18.2939H22.3574C22.4563 18.2939 22.5366 18.3741 22.5366 18.4731V19.7567H22.5365Z" fill="url(#paint87_linear_29_35254)"/>
<path d="M16.9854 18.2939C16.9854 18.1166 16.9179 17.9394 16.783 17.8044L15.4291 16.4505C15.3037 16.3251 15.1003 16.3251 14.9749 16.4505C14.8495 16.5759 14.8495 16.7793 14.9749 16.9047L16.3288 18.2586C16.3482 18.278 16.3482 18.3097 16.3288 18.3292L14.9749 19.6831C14.8495 19.8085 14.8495 20.0118 14.9749 20.1372C15.1003 20.2626 15.3037 20.2626 15.4291 20.1372L16.783 18.7834C16.918 18.6484 16.9854 18.4712 16.9854 18.2939Z" fill="url(#paint88_linear_29_35254)"/>
<path d="M16.783 18.7834L15.4291 20.1373C15.3037 20.2627 15.1003 20.2627 14.9749 20.1373C14.8495 20.0119 14.8495 19.8085 14.9749 19.6831L16.3288 18.3292C16.3385 18.3195 16.3434 18.3067 16.3434 18.2939H16.9854C16.9854 18.4712 16.9179 18.6484 16.783 18.7834Z" fill="url(#paint89_linear_29_35254)"/>
<path d="M13.954 18.615H19.2682V17.9727H13.954C13.7767 17.9727 13.6328 18.1161 13.6328 18.2938C13.6329 18.4711 13.7767 18.615 13.954 18.615Z" fill="url(#paint90_linear_29_35254)"/>
<path d="M13.6328 18.2938C13.6328 18.1161 13.7767 17.9727 13.954 17.9727H16.5108V18.615H13.954C13.7767 18.615 13.6328 18.4711 13.6328 18.2938Z" fill="url(#paint91_linear_29_35254)"/>
<path d="M13.7881 19.6475L12.6966 18.556C12.5517 18.4111 12.5517 18.1761 12.6966 18.0312L13.7881 16.9397C13.933 16.7948 14.1679 16.7948 14.3129 16.9397L15.4044 18.0312C15.5493 18.1761 15.5493 18.4111 15.4044 18.556L14.3129 19.6475C14.1679 19.7924 13.933 19.7924 13.7881 19.6475Z" fill="url(#paint92_linear_29_35254)"/>
<path d="M13.7881 19.6475L12.6966 18.556C12.5517 18.4111 12.5517 18.1761 12.6966 18.0312L13.7881 16.9397C13.933 16.7948 14.1679 16.7948 14.3129 16.9397L15.4044 18.0312C15.5493 18.1761 15.5493 18.4111 15.4044 18.556L14.3129 19.6475C14.1679 19.7924 13.933 19.7924 13.7881 19.6475Z" fill="url(#paint93_linear_29_35254)"/>
<path d="M13.7881 16.9398L12.6966 18.0312C12.5517 18.1761 12.5517 18.4111 12.6966 18.556L13.7881 19.6475C13.933 19.7924 14.1679 19.7924 14.3129 19.6475L15.4044 18.556C15.5493 18.4111 15.5493 18.1762 15.4044 18.0312L14.3129 16.9398C14.1679 16.7948 13.933 16.7948 13.7881 16.9398Z" fill="url(#paint94_linear_29_35254)"/>
<path d="M14.0508 19.7567C14.1459 19.7567 14.2409 19.7203 14.3133 19.6479L15.4048 18.5564C15.4772 18.4841 15.5131 18.389 15.5131 18.2939H14.2299C14.131 18.2939 14.0508 18.3741 14.0508 18.4731V19.7567H14.0508Z" fill="url(#paint95_linear_29_35254)"/>
<path d="M18.2928 20.4108C19.462 20.4108 20.4099 19.463 20.4099 18.2938C20.4099 17.1246 19.462 16.1768 18.2928 16.1768C17.1236 16.1768 16.1758 17.1246 16.1758 18.2938C16.1758 19.463 17.1236 20.4108 18.2928 20.4108Z" fill="url(#paint96_linear_29_35254)"/>
<path d="M16.1758 18.2943C16.1758 19.4635 17.1236 20.4113 18.2928 20.4113C19.462 20.4113 20.4099 19.4635 20.4099 18.2943C20.4099 18.0411 20.3652 17.7983 20.2837 17.5732H16.3019C16.2204 17.7983 16.1758 18.0411 16.1758 18.2943Z" fill="url(#paint97_linear_29_35254)"/>
<path d="M16.7957 19.7906C17.6224 20.6173 18.9628 20.6173 19.7896 19.7906C20.6163 18.9638 20.6163 17.6234 19.7896 16.7966C19.6105 16.6176 19.4073 16.4775 19.1905 16.376L16.375 19.1915C16.4765 19.4084 16.6166 19.6115 16.7957 19.7906Z" fill="url(#paint98_linear_29_35254)"/>
</g>
<defs>
<linearGradient id="paint0_linear_29_35254" x1="7.05743" y1="2.84988" x2="17.0034" y2="12.7958" gradientUnits="userSpaceOnUse">
<stop stop-color="#E1D3CE"/>
<stop offset="1" stop-color="#9E9797"/>
</linearGradient>
<linearGradient id="paint1_linear_29_35254" x1="11.9992" y1="8.61217" x2="11.9992" y2="12.3875" gradientUnits="userSpaceOnUse">
<stop stop-color="#433F43" stop-opacity="0"/>
<stop offset="0.3174" stop-color="#3B373B" stop-opacity="0.317"/>
<stop offset="0.8224" stop-color="#242324" stop-opacity="0.822"/>
<stop offset="1" stop-color="#1A1A1A"/>
</linearGradient>
<linearGradient id="paint2_linear_29_35254" x1="18.9152" y1="7.43913" x2="22.9152" y2="8.23913" gradientUnits="userSpaceOnUse">
<stop stop-color="#433F43" stop-opacity="0"/>
<stop offset="0.3174" stop-color="#3B373B" stop-opacity="0.317"/>
<stop offset="0.8224" stop-color="#242324" stop-opacity="0.822"/>
<stop offset="1" stop-color="#1A1A1A"/>
</linearGradient>
<linearGradient id="paint3_linear_29_35254" x1="14.673" y1="4.08238" x2="17.92" y2="3.18826" gradientUnits="userSpaceOnUse">
<stop stop-color="#433F43" stop-opacity="0"/>
<stop offset="0.3174" stop-color="#3B373B" stop-opacity="0.317"/>
<stop offset="0.8224" stop-color="#242324" stop-opacity="0.822"/>
<stop offset="1" stop-color="#1A1A1A"/>
</linearGradient>
<linearGradient id="paint4_linear_29_35254" x1="10.8425" y1="2.37816" x2="13.3836" y2="0.244847" gradientUnits="userSpaceOnUse">
<stop stop-color="#433F43" stop-opacity="0"/>
<stop offset="0.3174" stop-color="#3B373B" stop-opacity="0.317"/>
<stop offset="0.8224" stop-color="#242324" stop-opacity="0.822"/>
<stop offset="1" stop-color="#1A1A1A"/>
</linearGradient>
<linearGradient id="paint5_linear_29_35254" x1="8.21302" y1="4.02937" x2="5.1228" y2="5.15878" gradientUnits="userSpaceOnUse">
<stop stop-color="#433F43" stop-opacity="0"/>
<stop offset="0.3174" stop-color="#3B373B" stop-opacity="0.317"/>
<stop offset="0.8224" stop-color="#242324" stop-opacity="0.822"/>
<stop offset="1" stop-color="#1A1A1A"/>
</linearGradient>
<linearGradient id="paint6_linear_29_35254" x1="12.0979" y1="20.2005" x2="12.8705" y2="20.973" gradientUnits="userSpaceOnUse">
<stop stop-color="#EAF9FA"/>
<stop offset="1" stop-color="#B3DAFE"/>
</linearGradient>
<linearGradient id="paint7_linear_29_35254" x1="12.6149" y1="20.73" x2="12.6149" y2="21.86" gradientUnits="userSpaceOnUse">
<stop stop-color="#B3DAFE" stop-opacity="0"/>
<stop offset="0.2769" stop-color="#AFD7FC" stop-opacity="0.277"/>
<stop offset="0.5367" stop-color="#A4CEF6" stop-opacity="0.537"/>
<stop offset="0.7888" stop-color="#91BEEB" stop-opacity="0.789"/>
<stop offset="1" stop-color="#7BACDF"/>
</linearGradient>
<linearGradient id="paint8_linear_29_35254" x1="12.6203" y1="20.7192" x2="13.4612" y2="21.5602" gradientUnits="userSpaceOnUse">
<stop stop-color="#B3DAFE" stop-opacity="0"/>
<stop offset="0.2769" stop-color="#AFD7FC" stop-opacity="0.277"/>
<stop offset="0.5367" stop-color="#A4CEF6" stop-opacity="0.537"/>
<stop offset="0.7888" stop-color="#91BEEB" stop-opacity="0.789"/>
<stop offset="1" stop-color="#7BACDF"/>
</linearGradient>
<linearGradient id="paint9_linear_29_35254" x1="9.77565" y1="22.5217" x2="10.5482" y2="23.2943" gradientUnits="userSpaceOnUse">
<stop stop-color="#EAF9FA"/>
<stop offset="1" stop-color="#B3DAFE"/>
</linearGradient>
<linearGradient id="paint10_linear_29_35254" x1="10.2927" y1="23.0513" x2="10.2927" y2="24.1813" gradientUnits="userSpaceOnUse">
<stop stop-color="#B3DAFE" stop-opacity="0"/>
<stop offset="0.2769" stop-color="#AFD7FC" stop-opacity="0.277"/>
<stop offset="0.5367" stop-color="#A4CEF6" stop-opacity="0.537"/>
<stop offset="0.7888" stop-color="#91BEEB" stop-opacity="0.789"/>
<stop offset="1" stop-color="#7BACDF"/>
</linearGradient>
<linearGradient id="paint11_linear_29_35254" x1="10.2984" y1="23.0401" x2="11.1394" y2="23.8811" gradientUnits="userSpaceOnUse">
<stop stop-color="#B3DAFE" stop-opacity="0"/>
<stop offset="0.2769" stop-color="#AFD7FC" stop-opacity="0.277"/>
<stop offset="0.5367" stop-color="#A4CEF6" stop-opacity="0.537"/>
<stop offset="0.7888" stop-color="#91BEEB" stop-opacity="0.789"/>
<stop offset="1" stop-color="#7BACDF"/>
</linearGradient>
<linearGradient id="paint12_linear_29_35254" x1="14.4046" y1="13.2357" x2="15.1771" y2="14.0082" gradientUnits="userSpaceOnUse">
<stop stop-color="#EAF9FA"/>
<stop offset="1" stop-color="#B3DAFE"/>
</linearGradient>
<linearGradient id="paint13_linear_29_35254" x1="14.9215" y1="13.7652" x2="14.9215" y2="14.8952" gradientUnits="userSpaceOnUse">
<stop stop-color="#B3DAFE" stop-opacity="0"/>
<stop offset="0.2769" stop-color="#AFD7FC" stop-opacity="0.277"/>
<stop offset="0.5367" stop-color="#A4CEF6" stop-opacity="0.537"/>
<stop offset="0.7888" stop-color="#91BEEB" stop-opacity="0.789"/>
<stop offset="1" stop-color="#7BACDF"/>
</linearGradient>
<linearGradient id="paint14_linear_29_35254" x1="14.9265" y1="13.7554" x2="15.7675" y2="14.5964" gradientUnits="userSpaceOnUse">
<stop stop-color="#B3DAFE" stop-opacity="0"/>
<stop offset="0.2769" stop-color="#AFD7FC" stop-opacity="0.277"/>
<stop offset="0.5367" stop-color="#A4CEF6" stop-opacity="0.537"/>
<stop offset="0.7888" stop-color="#91BEEB" stop-opacity="0.789"/>
<stop offset="1" stop-color="#7BACDF"/>
</linearGradient>
<linearGradient id="paint15_linear_29_35254" x1="15.0036" y1="14.3678" x2="14.8859" y2="13.4854" gradientUnits="userSpaceOnUse">
<stop stop-color="#B3DAFE" stop-opacity="0"/>
<stop offset="0.2769" stop-color="#AFD7FC" stop-opacity="0.277"/>
<stop offset="0.5367" stop-color="#A4CEF6" stop-opacity="0.537"/>
<stop offset="0.7888" stop-color="#91BEEB" stop-opacity="0.789"/>
<stop offset="1" stop-color="#7BACDF"/>
</linearGradient>
<linearGradient id="paint16_linear_29_35254" x1="12.0823" y1="15.5569" x2="12.8549" y2="16.3295" gradientUnits="userSpaceOnUse">
<stop stop-color="#EAF9FA"/>
<stop offset="1" stop-color="#B3DAFE"/>
</linearGradient>
<linearGradient id="paint17_linear_29_35254" x1="12.5993" y1="16.0864" x2="12.5993" y2="17.2165" gradientUnits="userSpaceOnUse">
<stop stop-color="#B3DAFE" stop-opacity="0"/>
<stop offset="0.2769" stop-color="#AFD7FC" stop-opacity="0.277"/>
<stop offset="0.5367" stop-color="#A4CEF6" stop-opacity="0.537"/>
<stop offset="0.7888" stop-color="#91BEEB" stop-opacity="0.789"/>
<stop offset="1" stop-color="#7BACDF"/>
</linearGradient>
<linearGradient id="paint18_linear_29_35254" x1="12.6046" y1="16.0764" x2="13.4456" y2="16.9174" gradientUnits="userSpaceOnUse">
<stop stop-color="#B3DAFE" stop-opacity="0"/>
<stop offset="0.2769" stop-color="#AFD7FC" stop-opacity="0.277"/>
<stop offset="0.5367" stop-color="#A4CEF6" stop-opacity="0.537"/>
<stop offset="0.7888" stop-color="#91BEEB" stop-opacity="0.789"/>
<stop offset="1" stop-color="#7BACDF"/>
</linearGradient>
<linearGradient id="paint19_linear_29_35254" x1="9.76008" y1="17.8792" x2="10.5326" y2="18.6517" gradientUnits="userSpaceOnUse">
<stop stop-color="#EAF9FA"/>
<stop offset="1" stop-color="#B3DAFE"/>
</linearGradient>
<linearGradient id="paint20_linear_29_35254" x1="10.277" y1="18.4087" x2="10.277" y2="19.5387" gradientUnits="userSpaceOnUse">
<stop stop-color="#B3DAFE" stop-opacity="0"/>
<stop offset="0.2769" stop-color="#AFD7FC" stop-opacity="0.277"/>
<stop offset="0.5367" stop-color="#A4CEF6" stop-opacity="0.537"/>
<stop offset="0.7888" stop-color="#91BEEB" stop-opacity="0.789"/>
<stop offset="1" stop-color="#7BACDF"/>
</linearGradient>
<linearGradient id="paint21_linear_29_35254" x1="10.2827" y1="18.3983" x2="11.1237" y2="19.2393" gradientUnits="userSpaceOnUse">
<stop stop-color="#B3DAFE" stop-opacity="0"/>
<stop offset="0.2769" stop-color="#AFD7FC" stop-opacity="0.277"/>
<stop offset="0.5367" stop-color="#A4CEF6" stop-opacity="0.537"/>
<stop offset="0.7888" stop-color="#91BEEB" stop-opacity="0.789"/>
<stop offset="1" stop-color="#7BACDF"/>
</linearGradient>
<linearGradient id="paint22_linear_29_35254" x1="7.43972" y1="20.2005" x2="8.21228" y2="20.973" gradientUnits="userSpaceOnUse">
<stop stop-color="#EAF9FA"/>
<stop offset="1" stop-color="#B3DAFE"/>
</linearGradient>
<linearGradient id="paint23_linear_29_35254" x1="7.95671" y1="20.73" x2="7.95671" y2="21.86" gradientUnits="userSpaceOnUse">
<stop stop-color="#B3DAFE" stop-opacity="0"/>
<stop offset="0.2769" stop-color="#AFD7FC" stop-opacity="0.277"/>
<stop offset="0.5367" stop-color="#A4CEF6" stop-opacity="0.537"/>
<stop offset="0.7888" stop-color="#91BEEB" stop-opacity="0.789"/>
<stop offset="1" stop-color="#7BACDF"/>
</linearGradient>
<linearGradient id="paint24_linear_29_35254" x1="7.96276" y1="20.7192" x2="8.80374" y2="21.5602" gradientUnits="userSpaceOnUse">
<stop stop-color="#B3DAFE" stop-opacity="0"/>
<stop offset="0.2769" stop-color="#AFD7FC" stop-opacity="0.277"/>
<stop offset="0.5367" stop-color="#A4CEF6" stop-opacity="0.537"/>
<stop offset="0.7888" stop-color="#91BEEB" stop-opacity="0.789"/>
<stop offset="1" stop-color="#7BACDF"/>
</linearGradient>
<linearGradient id="paint25_linear_29_35254" x1="5.11745" y1="22.5217" x2="5.89002" y2="23.2943" gradientUnits="userSpaceOnUse">
<stop stop-color="#EAF9FA"/>
<stop offset="1" stop-color="#B3DAFE"/>
</linearGradient>
<linearGradient id="paint26_linear_29_35254" x1="5.63449" y1="23.0513" x2="5.63449" y2="24.1813" gradientUnits="userSpaceOnUse">
<stop stop-color="#B3DAFE" stop-opacity="0"/>
<stop offset="0.2769" stop-color="#AFD7FC" stop-opacity="0.277"/>
<stop offset="0.5367" stop-color="#A4CEF6" stop-opacity="0.537"/>
<stop offset="0.7888" stop-color="#91BEEB" stop-opacity="0.789"/>
<stop offset="1" stop-color="#7BACDF"/>
</linearGradient>
<linearGradient id="paint27_linear_29_35254" x1="5.64087" y1="23.0401" x2="6.48185" y2="23.8811" gradientUnits="userSpaceOnUse">
<stop stop-color="#B3DAFE" stop-opacity="0"/>
<stop offset="0.2769" stop-color="#AFD7FC" stop-opacity="0.277"/>
<stop offset="0.5367" stop-color="#A4CEF6" stop-opacity="0.537"/>
<stop offset="0.7888" stop-color="#91BEEB" stop-opacity="0.789"/>
<stop offset="1" stop-color="#7BACDF"/>
</linearGradient>
<linearGradient id="paint28_linear_29_35254" x1="9.74636" y1="13.2357" x2="10.5189" y2="14.0082" gradientUnits="userSpaceOnUse">
<stop stop-color="#EAF9FA"/>
<stop offset="1" stop-color="#B3DAFE"/>
</linearGradient>
<linearGradient id="paint29_linear_29_35254" x1="10.2633" y1="13.7652" x2="10.2633" y2="14.8952" gradientUnits="userSpaceOnUse">
<stop stop-color="#B3DAFE" stop-opacity="0"/>
<stop offset="0.2769" stop-color="#AFD7FC" stop-opacity="0.277"/>
<stop offset="0.5367" stop-color="#A4CEF6" stop-opacity="0.537"/>
<stop offset="0.7888" stop-color="#91BEEB" stop-opacity="0.789"/>
<stop offset="1" stop-color="#7BACDF"/>
</linearGradient>
<linearGradient id="paint30_linear_29_35254" x1="10.2633" y1="14.1803" x2="10.2633" y2="13.5511" gradientUnits="userSpaceOnUse">
<stop stop-color="#B3DAFE" stop-opacity="0"/>
<stop offset="0.2769" stop-color="#AFD7FC" stop-opacity="0.277"/>
<stop offset="0.5367" stop-color="#A4CEF6" stop-opacity="0.537"/>
<stop offset="0.7888" stop-color="#91BEEB" stop-opacity="0.789"/>
<stop offset="1" stop-color="#7BACDF"/>
</linearGradient>
<linearGradient id="paint31_linear_29_35254" x1="10.269" y1="13.7554" x2="11.11" y2="14.5964" gradientUnits="userSpaceOnUse">
<stop stop-color="#B3DAFE" stop-opacity="0"/>
<stop offset="0.2769" stop-color="#AFD7FC" stop-opacity="0.277"/>
<stop offset="0.5367" stop-color="#A4CEF6" stop-opacity="0.537"/>
<stop offset="0.7888" stop-color="#91BEEB" stop-opacity="0.789"/>
<stop offset="1" stop-color="#7BACDF"/>
</linearGradient>
<linearGradient id="paint32_linear_29_35254" x1="7.42409" y1="15.5569" x2="8.19666" y2="16.3295" gradientUnits="userSpaceOnUse">
<stop stop-color="#EAF9FA"/>
<stop offset="1" stop-color="#B3DAFE"/>
</linearGradient>
<linearGradient id="paint33_linear_29_35254" x1="7.94113" y1="16.0864" x2="7.94113" y2="17.2165" gradientUnits="userSpaceOnUse">
<stop stop-color="#B3DAFE" stop-opacity="0"/>
<stop offset="0.2769" stop-color="#AFD7FC" stop-opacity="0.277"/>
<stop offset="0.5367" stop-color="#A4CEF6" stop-opacity="0.537"/>
<stop offset="0.7888" stop-color="#91BEEB" stop-opacity="0.789"/>
<stop offset="1" stop-color="#7BACDF"/>
</linearGradient>
<linearGradient id="paint34_linear_29_35254" x1="7.94715" y1="16.0764" x2="8.78813" y2="16.9174" gradientUnits="userSpaceOnUse">
<stop stop-color="#B3DAFE" stop-opacity="0"/>
<stop offset="0.2769" stop-color="#AFD7FC" stop-opacity="0.277"/>
<stop offset="0.5367" stop-color="#A4CEF6" stop-opacity="0.537"/>
<stop offset="0.7888" stop-color="#91BEEB" stop-opacity="0.789"/>
<stop offset="1" stop-color="#7BACDF"/>
</linearGradient>
<linearGradient id="paint35_linear_29_35254" x1="5.10187" y1="17.8792" x2="5.87439" y2="18.6517" gradientUnits="userSpaceOnUse">
<stop stop-color="#EAF9FA"/>
<stop offset="1" stop-color="#B3DAFE"/>
</linearGradient>
<linearGradient id="paint36_linear_29_35254" x1="5.61881" y1="18.4087" x2="5.61881" y2="19.5387" gradientUnits="userSpaceOnUse">
<stop stop-color="#B3DAFE" stop-opacity="0"/>
<stop offset="0.2769" stop-color="#AFD7FC" stop-opacity="0.277"/>
<stop offset="0.5367" stop-color="#A4CEF6" stop-opacity="0.537"/>
<stop offset="0.7888" stop-color="#91BEEB" stop-opacity="0.789"/>
<stop offset="1" stop-color="#7BACDF"/>
</linearGradient>
<linearGradient id="paint37_linear_29_35254" x1="5.62525" y1="18.3983" x2="6.46623" y2="19.2393" gradientUnits="userSpaceOnUse">
<stop stop-color="#B3DAFE" stop-opacity="0"/>
<stop offset="0.2769" stop-color="#AFD7FC" stop-opacity="0.277"/>
<stop offset="0.5367" stop-color="#A4CEF6" stop-opacity="0.537"/>
<stop offset="0.7888" stop-color="#91BEEB" stop-opacity="0.789"/>
<stop offset="1" stop-color="#7BACDF"/>
</linearGradient>
<linearGradient id="paint38_linear_29_35254" x1="2.78151" y1="20.2005" x2="3.55408" y2="20.973" gradientUnits="userSpaceOnUse">
<stop stop-color="#EAF9FA"/>
<stop offset="1" stop-color="#B3DAFE"/>
</linearGradient>
<linearGradient id="paint39_linear_29_35254" x1="3.2985" y1="20.73" x2="3.2985" y2="21.86" gradientUnits="userSpaceOnUse">
<stop stop-color="#B3DAFE" stop-opacity="0"/>
<stop offset="0.2769" stop-color="#AFD7FC" stop-opacity="0.277"/>
<stop offset="0.5367" stop-color="#A4CEF6" stop-opacity="0.537"/>
<stop offset="0.7888" stop-color="#91BEEB" stop-opacity="0.789"/>
<stop offset="1" stop-color="#7BACDF"/>
</linearGradient>
<linearGradient id="paint40_linear_29_35254" x1="3.30527" y1="20.7192" x2="4.14625" y2="21.5602" gradientUnits="userSpaceOnUse">
<stop stop-color="#B3DAFE" stop-opacity="0"/>
<stop offset="0.2769" stop-color="#AFD7FC" stop-opacity="0.277"/>
<stop offset="0.5367" stop-color="#A4CEF6" stop-opacity="0.537"/>
<stop offset="0.7888" stop-color="#91BEEB" stop-opacity="0.789"/>
<stop offset="1" stop-color="#7BACDF"/>
</linearGradient>
<linearGradient id="paint41_linear_29_35254" x1="0.459249" y1="22.5217" x2="1.23181" y2="23.2943" gradientUnits="userSpaceOnUse">
<stop stop-color="#EAF9FA"/>
<stop offset="1" stop-color="#B3DAFE"/>
</linearGradient>
<linearGradient id="paint42_linear_29_35254" x1="0.976284" y1="23.0513" x2="0.976284" y2="24.1813" gradientUnits="userSpaceOnUse">
<stop stop-color="#B3DAFE" stop-opacity="0"/>
<stop offset="0.2769" stop-color="#AFD7FC" stop-opacity="0.277"/>
<stop offset="0.5367" stop-color="#A4CEF6" stop-opacity="0.537"/>
<stop offset="0.7888" stop-color="#91BEEB" stop-opacity="0.789"/>
<stop offset="1" stop-color="#7BACDF"/>
</linearGradient>
<linearGradient id="paint43_linear_29_35254" x1="0.983377" y1="23.0401" x2="1.82436" y2="23.8811" gradientUnits="userSpaceOnUse">
<stop stop-color="#B3DAFE" stop-opacity="0"/>
<stop offset="0.2769" stop-color="#AFD7FC" stop-opacity="0.277"/>
<stop offset="0.5367" stop-color="#A4CEF6" stop-opacity="0.537"/>
<stop offset="0.7888" stop-color="#91BEEB" stop-opacity="0.789"/>
<stop offset="1" stop-color="#7BACDF"/>
</linearGradient>
<linearGradient id="paint44_linear_29_35254" x1="5.0862" y1="13.2357" x2="5.85877" y2="14.0082" gradientUnits="userSpaceOnUse">
<stop stop-color="#EAF9FA"/>
<stop offset="1" stop-color="#B3DAFE"/>
</linearGradient>
<linearGradient id="paint45_linear_29_35254" x1="5.60319" y1="13.7652" x2="5.60319" y2="14.8952" gradientUnits="userSpaceOnUse">
<stop stop-color="#B3DAFE" stop-opacity="0"/>
<stop offset="0.2769" stop-color="#AFD7FC" stop-opacity="0.277"/>
<stop offset="0.5367" stop-color="#A4CEF6" stop-opacity="0.537"/>
<stop offset="0.7888" stop-color="#91BEEB" stop-opacity="0.789"/>
<stop offset="1" stop-color="#7BACDF"/>
</linearGradient>
<linearGradient id="paint46_linear_29_35254" x1="5.60959" y1="13.7554" x2="6.45057" y2="14.5964" gradientUnits="userSpaceOnUse">
<stop stop-color="#B3DAFE" stop-opacity="0"/>
<stop offset="0.2769" stop-color="#AFD7FC" stop-opacity="0.277"/>
<stop offset="0.5367" stop-color="#A4CEF6" stop-opacity="0.537"/>
<stop offset="0.7888" stop-color="#91BEEB" stop-opacity="0.789"/>
<stop offset="1" stop-color="#7BACDF"/>
</linearGradient>
<linearGradient id="paint47_linear_29_35254" x1="2.76589" y1="15.5569" x2="3.53845" y2="16.3295" gradientUnits="userSpaceOnUse">
<stop stop-color="#EAF9FA"/>
<stop offset="1" stop-color="#B3DAFE"/>
</linearGradient>
<linearGradient id="paint48_linear_29_35254" x1="3.28292" y1="16.0864" x2="3.28292" y2="17.2165" gradientUnits="userSpaceOnUse">
<stop stop-color="#B3DAFE" stop-opacity="0"/>
<stop offset="0.2769" stop-color="#AFD7FC" stop-opacity="0.277"/>
<stop offset="0.5367" stop-color="#A4CEF6" stop-opacity="0.537"/>
<stop offset="0.7888" stop-color="#91BEEB" stop-opacity="0.789"/>
<stop offset="1" stop-color="#7BACDF"/>
</linearGradient>
<linearGradient id="paint49_linear_29_35254" x1="3.28965" y1="16.0764" x2="4.13063" y2="16.9174" gradientUnits="userSpaceOnUse">
<stop stop-color="#B3DAFE" stop-opacity="0"/>
<stop offset="0.2769" stop-color="#AFD7FC" stop-opacity="0.277"/>
<stop offset="0.5367" stop-color="#A4CEF6" stop-opacity="0.537"/>
<stop offset="0.7888" stop-color="#91BEEB" stop-opacity="0.789"/>
<stop offset="1" stop-color="#7BACDF"/>
</linearGradient>
<linearGradient id="paint50_linear_29_35254" x1="0.443671" y1="17.8792" x2="1.21619" y2="18.6517" gradientUnits="userSpaceOnUse">
<stop stop-color="#EAF9FA"/>
<stop offset="1" stop-color="#B3DAFE"/>
</linearGradient>
<linearGradient id="paint51_linear_29_35254" x1="0.960612" y1="18.4087" x2="0.960612" y2="19.5387" gradientUnits="userSpaceOnUse">
<stop stop-color="#B3DAFE" stop-opacity="0"/>
<stop offset="0.2769" stop-color="#AFD7FC" stop-opacity="0.277"/>
<stop offset="0.5367" stop-color="#A4CEF6" stop-opacity="0.537"/>
<stop offset="0.7888" stop-color="#91BEEB" stop-opacity="0.789"/>
<stop offset="1" stop-color="#7BACDF"/>
</linearGradient>
<linearGradient id="paint52_linear_29_35254" x1="0.967716" y1="18.3983" x2="1.8087" y2="19.2393" gradientUnits="userSpaceOnUse">
<stop stop-color="#B3DAFE" stop-opacity="0"/>
<stop offset="0.2769" stop-color="#AFD7FC" stop-opacity="0.277"/>
<stop offset="0.5367" stop-color="#A4CEF6" stop-opacity="0.537"/>
<stop offset="0.7888" stop-color="#91BEEB" stop-opacity="0.789"/>
<stop offset="1" stop-color="#7BACDF"/>
</linearGradient>
<linearGradient id="paint53_linear_29_35254" x1="11.0924" y1="8.62657" x2="12.5649" y2="12.8875" gradientUnits="userSpaceOnUse">
<stop stop-color="#E1D3CE"/>
<stop offset="1" stop-color="#9E9797"/>
</linearGradient>
<linearGradient id="paint54_linear_29_35254" x1="9.6189" y1="10.4939" x2="7.56788" y2="10.4939" gradientUnits="userSpaceOnUse">
<stop stop-color="#433F43" stop-opacity="0"/>
<stop offset="0.3174" stop-color="#3B373B" stop-opacity="0.317"/>
<stop offset="0.8224" stop-color="#242324" stop-opacity="0.822"/>
<stop offset="1" stop-color="#1A1A1A"/>
</linearGradient>
<linearGradient id="paint55_linear_29_35254" x1="13.3258" y1="7.75245" x2="15.4435" y2="6.60737" gradientUnits="userSpaceOnUse">
<stop stop-color="#433F43" stop-opacity="0"/>
<stop offset="0.3174" stop-color="#3B373B" stop-opacity="0.317"/>
<stop offset="0.8224" stop-color="#242324" stop-opacity="0.822"/>
<stop offset="1" stop-color="#1A1A1A"/>
</linearGradient>
<linearGradient id="paint56_linear_29_35254" x1="11.9999" y1="12.6116" x2="11.9999" y2="13.8245" gradientUnits="userSpaceOnUse">
<stop stop-color="#433F43" stop-opacity="0"/>
<stop offset="0.3174" stop-color="#3B373B" stop-opacity="0.317"/>
<stop offset="0.8224" stop-color="#242324" stop-opacity="0.822"/>
<stop offset="1" stop-color="#1A1A1A"/>
</linearGradient>
<linearGradient id="paint57_linear_29_35254" x1="15.6064" y1="10.6205" x2="18.2887" y2="11.4833" gradientUnits="userSpaceOnUse">
<stop stop-color="#433F43" stop-opacity="0"/>
<stop offset="0.3174" stop-color="#3B373B" stop-opacity="0.317"/>
<stop offset="0.8224" stop-color="#242324" stop-opacity="0.822"/>
<stop offset="1" stop-color="#1A1A1A"/>
</linearGradient>
<linearGradient id="paint58_linear_29_35254" x1="13.1431" y1="11.8012" x2="15.5666" y2="9.87176" gradientUnits="userSpaceOnUse">
<stop stop-color="#433F43" stop-opacity="0"/>
<stop offset="0.3174" stop-color="#3B373B" stop-opacity="0.317"/>
<stop offset="0.8224" stop-color="#242324" stop-opacity="0.822"/>
<stop offset="1" stop-color="#1A1A1A"/>
</linearGradient>
<linearGradient id="paint59_linear_29_35254" x1="13.3761" y1="12.235" x2="16.6231" y2="13.2232" gradientUnits="userSpaceOnUse">
<stop stop-color="#433F43" stop-opacity="0"/>
<stop offset="0.3174" stop-color="#3B373B" stop-opacity="0.317"/>
<stop offset="0.8224" stop-color="#242324" stop-opacity="0.822"/>
<stop offset="1" stop-color="#1A1A1A"/>
</linearGradient>
<linearGradient id="paint60_linear_29_35254" x1="14.8851" y1="20.9206" x2="16.5281" y2="20.9206" gradientUnits="userSpaceOnUse">
<stop stop-color="#D5DAF3"/>
<stop offset="1" stop-color="#60B7FF"/>
</linearGradient>
<linearGradient id="paint61_linear_29_35254" x1="20.139" y1="15.6667" x2="21.7821" y2="15.6667" gradientUnits="userSpaceOnUse">
<stop stop-color="#D5DAF3"/>
<stop offset="1" stop-color="#60B7FF"/>
</linearGradient>
<linearGradient id="paint62_linear_29_35254" x1="14.8851" y1="15.6667" x2="16.528" y2="15.6667" gradientUnits="userSpaceOnUse">
<stop stop-color="#D5DAF3"/>
<stop offset="1" stop-color="#60B7FF"/>
</linearGradient>
<linearGradient id="paint63_linear_29_35254" x1="20.139" y1="20.9206" x2="21.7819" y2="20.9206" gradientUnits="userSpaceOnUse">
<stop stop-color="#D5DAF3"/>
<stop offset="1" stop-color="#60B7FF"/>
</linearGradient>
<linearGradient id="paint64_linear_29_35254" x1="18.2929" y1="15.3433" x2="18.2929" y2="16.9176" gradientUnits="userSpaceOnUse">
<stop stop-color="#D5DAF3"/>
<stop offset="1" stop-color="#60B7FF"/>
</linearGradient>
<linearGradient id="paint65_linear_29_35254" x1="19.2195" y1="15.9027" x2="18.0761" y2="16.3053" gradientUnits="userSpaceOnUse">
<stop stop-color="#1F3596" stop-opacity="0"/>
<stop offset="0.4068" stop-color="#1D3290" stop-opacity="0.407"/>
<stop offset="0.9508" stop-color="#192B7F" stop-opacity="0.951"/>
<stop offset="1" stop-color="#192A7D"/>
</linearGradient>
<linearGradient id="paint66_linear_29_35254" x1="17.9514" y1="16.4505" x2="18.6702" y2="16.4505" gradientUnits="userSpaceOnUse">
<stop stop-color="#D5DAF3"/>
<stop offset="1" stop-color="#60B7FF"/>
</linearGradient>
<linearGradient id="paint67_linear_29_35254" x1="18.2938" y1="16.0612" x2="18.2938" y2="15.0858" gradientUnits="userSpaceOnUse">
<stop stop-color="#1F3596" stop-opacity="0"/>
<stop offset="0.4068" stop-color="#1D3290" stop-opacity="0.407"/>
<stop offset="0.9508" stop-color="#192B7F" stop-opacity="0.951"/>
<stop offset="1" stop-color="#192A7D"/>
</linearGradient>
<linearGradient id="paint68_linear_29_35254" x1="17.7296" y1="13.4874" x2="19.08" y2="14.8378" gradientUnits="userSpaceOnUse">
<stop stop-color="#EAF9FA"/>
<stop offset="1" stop-color="#B3DAFE"/>
</linearGradient>
<linearGradient id="paint69_linear_29_35254" x1="18.0034" y1="14.3304" x2="17.3396" y2="14.9727" gradientUnits="userSpaceOnUse">
<stop stop-color="#B3DAFE" stop-opacity="0"/>
<stop offset="0.2769" stop-color="#AFD7FC" stop-opacity="0.277"/>
<stop offset="0.5367" stop-color="#A4CEF6" stop-opacity="0.537"/>
<stop offset="0.7888" stop-color="#91BEEB" stop-opacity="0.789"/>
<stop offset="1" stop-color="#7BACDF"/>
</linearGradient>
<linearGradient id="paint70_linear_29_35254" x1="18.582" y1="14.3304" x2="19.2457" y2="14.9727" gradientUnits="userSpaceOnUse">
<stop stop-color="#B3DAFE" stop-opacity="0"/>
<stop offset="0.2769" stop-color="#AFD7FC" stop-opacity="0.277"/>
<stop offset="0.5367" stop-color="#A4CEF6" stop-opacity="0.537"/>
<stop offset="0.7888" stop-color="#91BEEB" stop-opacity="0.789"/>
<stop offset="1" stop-color="#7BACDF"/>
</linearGradient>
<linearGradient id="paint71_linear_29_35254" x1="18.839" y1="14.7373" x2="17.9317" y2="14.5183" gradientUnits="userSpaceOnUse">
<stop stop-color="#B3DAFE" stop-opacity="0"/>
<stop offset="0.2769" stop-color="#AFD7FC" stop-opacity="0.277"/>
<stop offset="0.5367" stop-color="#A4CEF6" stop-opacity="0.537"/>
<stop offset="0.7888" stop-color="#91BEEB" stop-opacity="0.789"/>
<stop offset="1" stop-color="#7BACDF"/>
</linearGradient>
<linearGradient id="paint72_linear_29_35254" x1="18.2929" y1="21.2437" x2="18.2929" y2="19.6694" gradientUnits="userSpaceOnUse">
<stop stop-color="#D5DAF3"/>
<stop offset="1" stop-color="#60B7FF"/>
</linearGradient>
<linearGradient id="paint73_linear_29_35254" x1="19.2195" y1="20.6853" x2="18.0761" y2="20.2827" gradientUnits="userSpaceOnUse">
<stop stop-color="#1F3596" stop-opacity="0"/>
<stop offset="0.4068" stop-color="#1D3290" stop-opacity="0.407"/>
<stop offset="0.9508" stop-color="#192B7F" stop-opacity="0.951"/>
<stop offset="1" stop-color="#192A7D"/>
</linearGradient>
<linearGradient id="paint74_linear_29_35254" x1="17.9514" y1="20.137" x2="18.6702" y2="20.137" gradientUnits="userSpaceOnUse">
<stop stop-color="#D5DAF3"/>
<stop offset="1" stop-color="#60B7FF"/>
</linearGradient>
<linearGradient id="paint75_linear_29_35254" x1="18.2938" y1="20.5258" x2="18.2938" y2="21.5012" gradientUnits="userSpaceOnUse">
<stop stop-color="#1F3596" stop-opacity="0"/>
<stop offset="0.4068" stop-color="#1D3290" stop-opacity="0.407"/>
<stop offset="0.9508" stop-color="#192B7F" stop-opacity="0.951"/>
<stop offset="1" stop-color="#192A7D"/>
</linearGradient>
<linearGradient id="paint76_linear_29_35254" x1="17.7296" y1="23.0999" x2="19.08" y2="21.7495" gradientUnits="userSpaceOnUse">
<stop stop-color="#EAF9FA"/>
<stop offset="1" stop-color="#B3DAFE"/>
</linearGradient>
<linearGradient id="paint77_linear_29_35254" x1="18.0034" y1="22.2569" x2="17.3396" y2="21.6145" gradientUnits="userSpaceOnUse">
<stop stop-color="#B3DAFE" stop-opacity="0"/>
<stop offset="0.2769" stop-color="#AFD7FC" stop-opacity="0.277"/>
<stop offset="0.5367" stop-color="#A4CEF6" stop-opacity="0.537"/>
<stop offset="0.7888" stop-color="#91BEEB" stop-opacity="0.789"/>
<stop offset="1" stop-color="#7BACDF"/>
</linearGradient>
<linearGradient id="paint78_linear_29_35254" x1="18.582" y1="22.2569" x2="19.2457" y2="21.6145" gradientUnits="userSpaceOnUse">
<stop stop-color="#B3DAFE" stop-opacity="0"/>
<stop offset="0.2769" stop-color="#AFD7FC" stop-opacity="0.277"/>
<stop offset="0.5367" stop-color="#A4CEF6" stop-opacity="0.537"/>
<stop offset="0.7888" stop-color="#91BEEB" stop-opacity="0.789"/>
<stop offset="1" stop-color="#7BACDF"/>
</linearGradient>
<linearGradient id="paint79_linear_29_35254" x1="18.839" y1="21.8501" x2="17.9317" y2="22.0691" gradientUnits="userSpaceOnUse">
<stop stop-color="#B3DAFE" stop-opacity="0"/>
<stop offset="0.2769" stop-color="#AFD7FC" stop-opacity="0.277"/>
<stop offset="0.5367" stop-color="#A4CEF6" stop-opacity="0.537"/>
<stop offset="0.7888" stop-color="#91BEEB" stop-opacity="0.789"/>
<stop offset="1" stop-color="#7BACDF"/>
</linearGradient>
<linearGradient id="paint80_linear_29_35254" x1="21.2446" y1="18.2939" x2="19.6704" y2="18.2939" gradientUnits="userSpaceOnUse">
<stop stop-color="#D5DAF3"/>
<stop offset="1" stop-color="#60B7FF"/>
</linearGradient>
<linearGradient id="paint81_linear_29_35254" x1="20.6862" y1="19.2204" x2="20.2837" y2="18.0771" gradientUnits="userSpaceOnUse">
<stop stop-color="#1F3596" stop-opacity="0"/>
<stop offset="0.4068" stop-color="#1D3290" stop-opacity="0.407"/>
<stop offset="0.9508" stop-color="#192B7F" stop-opacity="0.951"/>
<stop offset="1" stop-color="#192A7D"/>
</linearGradient>
<linearGradient id="paint82_linear_29_35254" x1="20.138" y1="17.9514" x2="20.138" y2="18.6702" gradientUnits="userSpaceOnUse">
<stop stop-color="#D5DAF3"/>
<stop offset="1" stop-color="#60B7FF"/>
</linearGradient>
<linearGradient id="paint83_linear_29_35254" x1="20.5278" y1="18.2938" x2="21.5031" y2="18.2938" gradientUnits="userSpaceOnUse">
<stop stop-color="#1F3596" stop-opacity="0"/>
<stop offset="0.4068" stop-color="#1D3290" stop-opacity="0.407"/>
<stop offset="0.9508" stop-color="#192B7F" stop-opacity="0.951"/>
<stop offset="1" stop-color="#192A7D"/>
</linearGradient>
<linearGradient id="paint84_linear_29_35254" x1="23.0999" y1="17.7305" x2="21.7495" y2="19.0809" gradientUnits="userSpaceOnUse">
<stop stop-color="#EAF9FA"/>
<stop offset="1" stop-color="#B3DAFE"/>
</linearGradient>
<linearGradient id="paint85_linear_29_35254" x1="22.2569" y1="18.0043" x2="21.6145" y2="17.3406" gradientUnits="userSpaceOnUse">
<stop stop-color="#B3DAFE" stop-opacity="0"/>
<stop offset="0.2769" stop-color="#AFD7FC" stop-opacity="0.277"/>
<stop offset="0.5367" stop-color="#A4CEF6" stop-opacity="0.537"/>
<stop offset="0.7888" stop-color="#91BEEB" stop-opacity="0.789"/>
<stop offset="1" stop-color="#7BACDF"/>
</linearGradient>
<linearGradient id="paint86_linear_29_35254" x1="22.2569" y1="18.583" x2="21.6145" y2="19.2467" gradientUnits="userSpaceOnUse">
<stop stop-color="#B3DAFE" stop-opacity="0"/>
<stop offset="0.2769" stop-color="#AFD7FC" stop-opacity="0.277"/>
<stop offset="0.5367" stop-color="#A4CEF6" stop-opacity="0.537"/>
<stop offset="0.7888" stop-color="#91BEEB" stop-opacity="0.789"/>
<stop offset="1" stop-color="#7BACDF"/>
</linearGradient>
<linearGradient id="paint87_linear_29_35254" x1="21.8501" y1="18.84" x2="22.0691" y2="17.9327" gradientUnits="userSpaceOnUse">
<stop stop-color="#B3DAFE" stop-opacity="0"/>
<stop offset="0.2769" stop-color="#AFD7FC" stop-opacity="0.277"/>
<stop offset="0.5367" stop-color="#A4CEF6" stop-opacity="0.537"/>
<stop offset="0.7888" stop-color="#91BEEB" stop-opacity="0.789"/>
<stop offset="1" stop-color="#7BACDF"/>
</linearGradient>
<linearGradient id="paint88_linear_29_35254" x1="15.3443" y1="18.2939" x2="16.9185" y2="18.2939" gradientUnits="userSpaceOnUse">
<stop stop-color="#D5DAF3"/>
<stop offset="1" stop-color="#60B7FF"/>
</linearGradient>
<linearGradient id="paint89_linear_29_35254" x1="15.9027" y1="19.2204" x2="16.3053" y2="18.0771" gradientUnits="userSpaceOnUse">
<stop stop-color="#1F3596" stop-opacity="0"/>
<stop offset="0.4068" stop-color="#1D3290" stop-opacity="0.407"/>
<stop offset="0.9508" stop-color="#192B7F" stop-opacity="0.951"/>
<stop offset="1" stop-color="#192A7D"/>
</linearGradient>
<linearGradient id="paint90_linear_29_35254" x1="16.4505" y1="17.9514" x2="16.4505" y2="18.6702" gradientUnits="userSpaceOnUse">
<stop stop-color="#D5DAF3"/>
<stop offset="1" stop-color="#60B7FF"/>
</linearGradient>
<linearGradient id="paint91_linear_29_35254" x1="16.0612" y1="18.2938" x2="15.0858" y2="18.2938" gradientUnits="userSpaceOnUse">
<stop stop-color="#1F3596" stop-opacity="0"/>
<stop offset="0.4068" stop-color="#1D3290" stop-opacity="0.407"/>
<stop offset="0.9508" stop-color="#192B7F" stop-opacity="0.951"/>
<stop offset="1" stop-color="#192A7D"/>
</linearGradient>
<linearGradient id="paint92_linear_29_35254" x1="13.4874" y1="17.7305" x2="14.8378" y2="19.0809" gradientUnits="userSpaceOnUse">
<stop stop-color="#EAF9FA"/>
<stop offset="1" stop-color="#B3DAFE"/>
</linearGradient>
<linearGradient id="paint93_linear_29_35254" x1="14.3304" y1="18.0043" x2="14.9727" y2="17.3406" gradientUnits="userSpaceOnUse">
<stop stop-color="#B3DAFE" stop-opacity="0"/>
<stop offset="0.2769" stop-color="#AFD7FC" stop-opacity="0.277"/>
<stop offset="0.5367" stop-color="#A4CEF6" stop-opacity="0.537"/>
<stop offset="0.7888" stop-color="#91BEEB" stop-opacity="0.789"/>
<stop offset="1" stop-color="#7BACDF"/>
</linearGradient>
<linearGradient id="paint94_linear_29_35254" x1="14.3304" y1="18.583" x2="14.9727" y2="19.2467" gradientUnits="userSpaceOnUse">
<stop stop-color="#B3DAFE" stop-opacity="0"/>
<stop offset="0.2769" stop-color="#AFD7FC" stop-opacity="0.277"/>
<stop offset="0.5367" stop-color="#A4CEF6" stop-opacity="0.537"/>
<stop offset="0.7888" stop-color="#91BEEB" stop-opacity="0.789"/>
<stop offset="1" stop-color="#7BACDF"/>
</linearGradient>
<linearGradient id="paint95_linear_29_35254" x1="14.7373" y1="18.84" x2="14.5183" y2="17.9327" gradientUnits="userSpaceOnUse">
<stop stop-color="#B3DAFE" stop-opacity="0"/>
<stop offset="0.2769" stop-color="#AFD7FC" stop-opacity="0.277"/>
<stop offset="0.5367" stop-color="#A4CEF6" stop-opacity="0.537"/>
<stop offset="0.7888" stop-color="#91BEEB" stop-opacity="0.789"/>
<stop offset="1" stop-color="#7BACDF"/>
</linearGradient>
<linearGradient id="paint96_linear_29_35254" x1="17.1535" y1="17.1545" x2="18.8561" y2="18.857" gradientUnits="userSpaceOnUse">
<stop stop-color="#D5DAF3"/>
<stop offset="1" stop-color="#60B7FF"/>
</linearGradient>
<linearGradient id="paint97_linear_29_35254" x1="18.2928" y1="18.3211" x2="18.2928" y2="20.8115" gradientUnits="userSpaceOnUse">
<stop stop-color="#1F3596" stop-opacity="0"/>
<stop offset="0.4068" stop-color="#1D3290" stop-opacity="0.407"/>
<stop offset="0.9508" stop-color="#192B7F" stop-opacity="0.951"/>
<stop offset="1" stop-color="#192A7D"/>
</linearGradient>
<linearGradient id="paint98_linear_29_35254" x1="18.3081" y1="18.3058" x2="20.1614" y2="20.1591" gradientUnits="userSpaceOnUse">
<stop stop-color="#1F3596" stop-opacity="0"/>
<stop offset="0.4068" stop-color="#1D3290" stop-opacity="0.407"/>
<stop offset="0.9508" stop-color="#192B7F" stop-opacity="0.951"/>
<stop offset="1" stop-color="#192A7D"/>
</linearGradient>
<clipPath id="clip0_29_35254">
<rect width="24" height="24" fill="white"/>
</clipPath>
</defs>
</svg>
