<svg width="24" height="25" viewBox="0 0 24 25" fill="none" xmlns="http://www.w3.org/2000/svg">
<g clip-path="url(#clip0_201_2905)">
<path d="M12 19.092C15.8002 19.092 18.8809 16.0113 18.8809 12.211C18.8809 8.41078 15.8002 5.33008 12 5.33008C8.19972 5.33008 5.11902 8.41078 5.11902 12.211C5.11902 16.0113 8.19972 19.092 12 19.092Z" fill="url(#paint0_linear_201_2905)"/>
<path d="M12 17.2113C14.7616 17.2113 17.0002 14.9727 17.0002 12.2111C17.0002 9.4496 14.7616 7.21094 12 7.21094C9.23851 7.21094 6.99985 9.4496 6.99985 12.2111C6.99985 14.9727 9.23851 17.2113 12 17.2113Z" fill="url(#paint1_linear_201_2905)"/>
<path d="M12 18.5026C15.4743 18.5026 18.2908 15.6861 18.2908 12.2118C18.2908 8.73742 15.4743 5.9209 12 5.9209C8.52563 5.9209 5.70911 8.73742 5.70911 12.2118C5.70911 15.6861 8.52563 18.5026 12 18.5026Z" fill="url(#paint2_linear_201_2905)"/>
<path d="M12 4.79106C12.2915 4.79106 12.5278 4.10111 12.5278 3.25002C12.5278 2.39893 12.2915 1.70898 12 1.70898C11.7085 1.70898 11.4723 2.39893 11.4723 3.25002C11.4723 4.10111 11.7085 4.79106 12 4.79106Z" fill="url(#paint3_linear_201_2905)"/>
<path d="M12 22.7139C12.2915 22.7139 12.5278 22.024 12.5278 21.1729C12.5278 20.3218 12.2915 19.6318 12 19.6318C11.7085 19.6318 11.4723 20.3218 11.4723 21.1729C11.4723 22.024 11.7085 22.7139 12 22.7139Z" fill="url(#paint4_linear_201_2905)"/>
<path d="M20.9614 12.7391C21.8124 12.7391 22.5024 12.5028 22.5024 12.2114C22.5024 11.9199 21.8124 11.6836 20.9614 11.6836C20.1103 11.6836 19.4203 11.9199 19.4203 12.2114C19.4203 12.5028 20.1103 12.7391 20.9614 12.7391Z" fill="url(#paint5_linear_201_2905)"/>
<path d="M3.03872 12.7391C3.88981 12.7391 4.57975 12.5028 4.57975 12.2114C4.57975 11.9199 3.88981 11.6836 3.03872 11.6836C2.18763 11.6836 1.49768 11.9199 1.49768 12.2114C1.49768 12.5028 2.18763 12.7391 3.03872 12.7391Z" fill="url(#paint6_linear_201_2905)"/>
<path d="M18.7098 6.24796C18.108 6.84979 17.4531 7.17055 17.247 6.96448C17.0408 6.75836 17.3616 6.10344 17.9635 5.50161C18.5653 4.89977 19.2202 4.57902 19.4263 4.78509C19.6324 4.99116 19.3116 5.64612 18.7098 6.24796Z" fill="url(#paint7_linear_201_2905)"/>
<path d="M6.03661 18.9208C5.43478 19.5226 4.77986 19.8434 4.57374 19.6373C4.36762 19.4313 4.68842 18.7763 5.29026 18.1745C5.89209 17.5726 6.54701 17.2519 6.75313 17.4579C6.95925 17.6641 6.63845 18.319 6.03661 18.9208Z" fill="url(#paint8_linear_201_2905)"/>
<path d="M17.9636 18.9208C17.3618 18.319 17.041 17.6641 17.2471 17.458C17.4532 17.2518 18.1081 17.5726 18.71 18.1745C19.3118 18.7763 19.6326 19.4312 19.4265 19.6373C19.2204 19.8435 18.5654 19.5227 17.9636 18.9208Z" fill="url(#paint9_linear_201_2905)"/>
<path d="M5.29027 6.24798C4.68844 5.64614 4.36768 4.99122 4.57375 4.78511C4.77987 4.57899 5.43479 4.89979 6.03662 5.50162C6.63846 6.10346 6.95921 6.75838 6.75314 6.96449C6.54702 7.17056 5.89211 6.84976 5.29027 6.24798Z" fill="url(#paint10_linear_201_2905)"/>
<path d="M9.03517 4.01067C9.22138 4.45091 9.18086 4.88884 8.94463 4.98875C8.70839 5.08865 8.36595 4.81279 8.17969 4.37256C7.99348 3.93232 8.03399 3.49439 8.27023 3.39449C8.50647 3.29453 8.84891 3.57044 9.03517 4.01067Z" fill="url(#paint11_linear_201_2905)"/>
<path d="M15.8202 20.0507C16.0064 20.4909 15.9659 20.9289 15.7296 21.0288C15.4934 21.1287 15.151 20.8528 14.9647 20.4126C14.7785 19.9724 14.819 19.5344 15.0552 19.4345C15.2915 19.3346 15.634 19.6105 15.8202 20.0507Z" fill="url(#paint12_linear_201_2905)"/>
<path d="M20.2008 9.24684C19.7606 9.43305 19.3227 9.39254 19.2227 9.1563C19.1228 8.92006 19.3987 8.57762 19.8389 8.39136C20.2792 8.20515 20.7171 8.24566 20.817 8.4819C20.9169 8.71814 20.6411 9.06063 20.2008 9.24684Z" fill="url(#paint13_linear_201_2905)"/>
<path d="M4.16087 16.032C3.72064 16.2182 3.28271 16.1777 3.1828 15.9415C3.0829 15.7052 3.35876 15.3628 3.79899 15.1765C4.23923 14.9903 4.67716 15.0308 4.77706 15.2671C4.87701 15.5034 4.60115 15.8458 4.16087 16.032Z" fill="url(#paint14_linear_201_2905)"/>
<path d="M4.10468 8.5085C4.54764 8.68813 4.82863 9.02643 4.73226 9.26413C4.63588 9.50182 4.19866 9.54893 3.75564 9.3693C3.31263 9.18968 3.03169 8.85137 3.12807 8.61368C3.22449 8.37598 3.66172 8.32888 4.10468 8.5085Z" fill="url(#paint15_linear_201_2905)"/>
<path d="M20.2443 15.0524C20.6873 15.2321 20.9683 15.5704 20.8719 15.8081C20.7755 16.0458 20.3383 16.0929 19.8953 15.9132C19.4523 15.7336 19.1713 15.3953 19.2677 15.1576C19.3641 14.9199 19.8014 14.8728 20.2443 15.0524Z" fill="url(#paint16_linear_201_2905)"/>
<path d="M15.7025 4.31586C15.5229 4.75883 15.1846 5.03981 14.9469 4.94344C14.7092 4.84706 14.6621 4.40984 14.8417 3.96683C15.0213 3.52381 15.3597 3.24287 15.5973 3.33925C15.8351 3.43563 15.8821 3.87285 15.7025 4.31586Z" fill="url(#paint17_linear_201_2905)"/>
<path d="M9.15827 20.4555C8.97865 20.8985 8.64034 21.1795 8.40265 21.0831C8.16496 20.9867 8.11785 20.5495 8.29747 20.1065C8.4771 19.6635 8.8154 19.3825 9.0531 19.4789C9.29084 19.5753 9.3379 20.0125 9.15827 20.4555Z" fill="url(#paint18_linear_201_2905)"/>
<path d="M24 15.4683V22.4261C24 22.9033 23.6132 23.2901 23.1361 23.2901H0.864031C0.386854 23.2901 3.05176e-05 22.9033 3.05176e-05 22.4261V15.4685C3.05176e-05 14.9187 0.532078 14.526 1.0574 14.6878C2.07575 15.0016 3.16497 15.0016 4.1838 14.6878C4.69274 14.5307 5.21998 14.4521 5.74676 14.4521C6.27354 14.4521 6.80078 14.5307 7.3102 14.6878C7.81961 14.8444 8.34638 14.923 8.87316 14.923C9.40041 14.923 9.92765 14.8445 10.4366 14.6878C10.9455 14.5307 11.4728 14.4521 11.9996 14.4521C12.5263 14.4521 13.0536 14.5307 13.563 14.6878C14.0724 14.8444 14.5992 14.923 15.126 14.923C15.6532 14.923 16.18 14.8445 16.6894 14.6878C17.1983 14.5307 17.7256 14.4521 18.2528 14.4521C18.7796 14.4521 19.3064 14.5307 19.8158 14.6878H19.8163C20.8346 15.0016 21.9238 15.0016 22.9422 14.6878L22.9428 14.6876C23.4681 14.5259 24 14.9186 24 15.4683Z" fill="url(#paint19_linear_201_2905)"/>
<path d="M24 17.4351V22.4266C24 22.9037 23.6132 23.2906 23.1361 23.2906H0.864031C0.386854 23.2906 3.05176e-05 22.9037 3.05176e-05 22.4266V17.4353C3.05176e-05 16.8855 0.532078 16.4928 1.0574 16.6546C2.07575 16.9684 3.16497 16.9684 4.1838 16.6546C4.69274 16.4975 5.21998 16.4189 5.74676 16.4189C6.27354 16.4189 6.80078 16.4975 7.3102 16.6546C7.81961 16.8112 8.34638 16.8898 8.87316 16.8898C9.40041 16.8898 9.92765 16.8113 10.4366 16.6546C10.9455 16.4975 11.4728 16.4189 11.9996 16.4189C12.5263 16.4189 13.0536 16.4975 13.563 16.6546C14.0724 16.8112 14.5992 16.8898 15.126 16.8898C15.6532 16.8898 16.18 16.8113 16.6894 16.6546C17.1983 16.4975 17.7256 16.4189 18.2528 16.4189C18.7796 16.4189 19.3064 16.4975 19.8158 16.6546H19.8163C20.8346 16.9684 21.9238 16.9684 22.9422 16.6546L22.9428 16.6544C23.4681 16.4926 24 16.8854 24 17.4351Z" fill="url(#paint20_linear_201_2905)"/>
<path d="M3.05176e-05 19.8199V22.4258C3.05176e-05 22.903 0.386854 23.2898 0.864031 23.2898H23.1361C23.6133 23.2898 24 22.903 24 22.4258V19.82C24 19.2703 23.468 18.8775 22.9427 19.0394C21.9243 19.3531 20.8351 19.3531 19.8163 19.0394C19.3073 18.8823 18.7801 18.8037 18.2533 18.8037C17.7265 18.8037 17.1993 18.8823 16.6899 19.0394C16.1805 19.196 15.6537 19.2746 15.1269 19.2746C14.5997 19.2746 14.0724 19.196 13.5635 19.0394C13.0545 18.8823 12.5273 18.8037 12.0005 18.8037C11.4737 18.8037 10.9465 18.8823 10.4371 19.0394C9.92765 19.196 9.40088 19.2746 8.8741 19.2746C8.34685 19.2746 7.82008 19.196 7.31067 19.0394C6.80172 18.8823 6.27448 18.8037 5.74723 18.8037C5.22045 18.8037 4.69368 18.8823 4.18427 19.0394H4.1838C3.16544 19.3531 2.07622 19.3531 1.05787 19.0394L1.0573 19.0392C0.531983 18.8775 3.05176e-05 19.2702 3.05176e-05 19.8199Z" fill="url(#paint21_linear_201_2905)"/>
<path d="M3.05176e-05 20.4893V22.4267C3.05176e-05 22.9038 0.386854 23.2906 0.863984 23.2906H23.136C23.6132 23.2906 24 22.9038 24 22.4267V20.4893H3.05176e-05Z" fill="url(#paint22_linear_201_2905)"/>
</g>
<defs>
<linearGradient id="paint0_linear_201_2905" x1="9.61662" y1="9.82768" x2="16.1541" y2="16.3652" gradientUnits="userSpaceOnUse">
<stop stop-color="#FFDA2D"/>
<stop offset="1" stop-color="#FDBF00"/>
</linearGradient>
<linearGradient id="paint1_linear_201_2905" x1="10.2985" y1="9.63786" x2="22.247" y2="27.7083" gradientUnits="userSpaceOnUse">
<stop stop-color="#FF9100" stop-opacity="0"/>
<stop offset="1" stop-color="#FF9100"/>
</linearGradient>
<linearGradient id="paint2_linear_201_2905" x1="13.0087" y1="13.6329" x2="3.50906" y2="0.249039" gradientUnits="userSpaceOnUse">
<stop stop-color="white" stop-opacity="0"/>
<stop offset="1" stop-color="white"/>
</linearGradient>
<linearGradient id="paint3_linear_201_2905" x1="11.601" y1="2.85096" x2="12.6956" y2="3.94555" gradientUnits="userSpaceOnUse">
<stop stop-color="#FFDA2D"/>
<stop offset="1" stop-color="#FDBF00"/>
</linearGradient>
<linearGradient id="paint4_linear_201_2905" x1="11.601" y1="20.7738" x2="12.6956" y2="21.8684" gradientUnits="userSpaceOnUse">
<stop stop-color="#FFDA2D"/>
<stop offset="1" stop-color="#FDBF00"/>
</linearGradient>
<linearGradient id="paint5_linear_201_2905" x1="21.3604" y1="11.8123" x2="20.2658" y2="12.9069" gradientUnits="userSpaceOnUse">
<stop stop-color="#FFDA2D"/>
<stop offset="1" stop-color="#FDBF00"/>
</linearGradient>
<linearGradient id="paint6_linear_201_2905" x1="3.43777" y1="11.8123" x2="2.34319" y2="12.9069" gradientUnits="userSpaceOnUse">
<stop stop-color="#FFDA2D"/>
<stop offset="1" stop-color="#FDBF00"/>
</linearGradient>
<linearGradient id="paint7_linear_201_2905" x1="18.3174" y1="5.30762" x2="18.3174" y2="6.85543" gradientUnits="userSpaceOnUse">
<stop stop-color="#FFDA2D"/>
<stop offset="1" stop-color="#FDBF00"/>
</linearGradient>
<linearGradient id="paint8_linear_201_2905" x1="5.64614" y1="17.9786" x2="5.64618" y2="19.5264" gradientUnits="userSpaceOnUse">
<stop stop-color="#FFDA2D"/>
<stop offset="1" stop-color="#FDBF00"/>
</linearGradient>
<linearGradient id="paint9_linear_201_2905" x1="18.8737" y1="18.5134" x2="17.3259" y2="18.5134" gradientUnits="userSpaceOnUse">
<stop stop-color="#FFDA2D"/>
<stop offset="1" stop-color="#FDBF00"/>
</linearGradient>
<linearGradient id="paint10_linear_201_2905" x1="6.20232" y1="5.84243" x2="4.6545" y2="5.84243" gradientUnits="userSpaceOnUse">
<stop stop-color="#FFDA2D"/>
<stop offset="1" stop-color="#FDBF00"/>
</linearGradient>
<linearGradient id="paint11_linear_201_2905" x1="8.56986" y1="4.19579" x2="9.65772" y2="4.63641" gradientUnits="userSpaceOnUse">
<stop stop-color="#FF9100"/>
<stop offset="1" stop-color="#E63950"/>
</linearGradient>
<linearGradient id="paint12_linear_201_2905" x1="15.3621" y1="20.236" x2="16.45" y2="20.6766" gradientUnits="userSpaceOnUse">
<stop stop-color="#FF9100"/>
<stop offset="1" stop-color="#E63950"/>
</linearGradient>
<linearGradient id="paint13_linear_201_2905" x1="20.0875" y1="8.72298" x2="19.6469" y2="9.81084" gradientUnits="userSpaceOnUse">
<stop stop-color="#FF9100"/>
<stop offset="1" stop-color="#E63950"/>
</linearGradient>
<linearGradient id="paint14_linear_201_2905" x1="4.04746" y1="15.5154" x2="3.60684" y2="16.6032" gradientUnits="userSpaceOnUse">
<stop stop-color="#FF9100"/>
<stop offset="1" stop-color="#E63950"/>
</linearGradient>
<linearGradient id="paint15_linear_201_2905" x1="3.83847" y1="8.99049" x2="4.91968" y2="8.53328" gradientUnits="userSpaceOnUse">
<stop stop-color="#FF9100"/>
<stop offset="1" stop-color="#E63950"/>
</linearGradient>
<linearGradient id="paint16_linear_201_2905" x1="19.983" y1="15.5386" x2="21.0643" y2="15.0814" gradientUnits="userSpaceOnUse">
<stop stop-color="#FF9100"/>
<stop offset="1" stop-color="#E63950"/>
</linearGradient>
<linearGradient id="paint17_linear_201_2905" x1="15.2794" y1="4.10804" x2="15.7366" y2="5.18925" gradientUnits="userSpaceOnUse">
<stop stop-color="#FF9100"/>
<stop offset="1" stop-color="#E63950"/>
</linearGradient>
<linearGradient id="paint18_linear_201_2905" x1="8.73102" y1="20.2526" x2="9.18824" y2="21.3338" gradientUnits="userSpaceOnUse">
<stop stop-color="#FF9100"/>
<stop offset="1" stop-color="#E63950"/>
</linearGradient>
<linearGradient id="paint19_linear_201_2905" x1="12" y1="18.5913" x2="12" y2="22.008" gradientUnits="userSpaceOnUse">
<stop stop-color="#48B2E3"/>
<stop offset="1" stop-color="#0095FF"/>
</linearGradient>
<linearGradient id="paint20_linear_201_2905" x1="12.0992" y1="19.5746" x2="15.0876" y2="8.75951" gradientUnits="userSpaceOnUse">
<stop stop-color="#0095FF" stop-opacity="0"/>
<stop offset="1" stop-color="#03232E"/>
</linearGradient>
<linearGradient id="paint21_linear_201_2905" x1="11.9994" y1="21.1182" x2="10.6999" y2="9.96164" gradientUnits="userSpaceOnUse">
<stop stop-color="#0095FF" stop-opacity="0"/>
<stop offset="1" stop-color="#03232E"/>
</linearGradient>
<linearGradient id="paint22_linear_201_2905" x1="12" y1="21.2925" x2="12" y2="23.7698" gradientUnits="userSpaceOnUse">
<stop stop-color="#0095FF" stop-opacity="0"/>
<stop offset="1" stop-color="#03232E"/>
</linearGradient>
<clipPath id="clip0_201_2905">
<rect width="24" height="24" fill="white" transform="translate(3.05176e-05 0.5)"/>
</clipPath>
</defs>
</svg>
