<svg width="25" height="25" viewBox="0 0 25 25" fill="none" xmlns="http://www.w3.org/2000/svg">
<g clip-path="url(#clip0_201_2841)">
<path d="M12.6666 15.8501C15.8351 15.8501 18.4037 13.2816 18.4037 10.1131C18.4037 6.94456 15.8351 4.37598 12.6666 4.37598C9.49813 4.37598 6.92955 6.94456 6.92955 10.1131C6.92955 13.2816 9.49813 15.8501 12.6666 15.8501Z" fill="url(#paint0_linear_201_2841)"/>
<path d="M12.6666 15.8501C15.8351 15.8501 18.4037 13.2816 18.4037 10.1131C18.4037 6.94456 15.8351 4.37598 12.6666 4.37598C9.49813 4.37598 6.92955 6.94456 6.92955 10.1131C6.92955 13.2816 9.49813 15.8501 12.6666 15.8501Z" fill="url(#paint1_linear_201_2841)"/>
<path d="M12.6666 15.8504C15.8352 15.8504 18.4037 13.2818 18.4037 10.1133H6.92955C6.92955 13.2818 9.49811 15.8504 12.6666 15.8504Z" fill="url(#paint2_linear_201_2841)"/>
<path d="M15.2718 3.80286C14.8335 3.62187 14.6248 3.11985 14.8058 2.68154L15.4872 1.03119C15.6682 0.592884 16.1702 0.384226 16.6085 0.565214C17.0468 0.746155 17.2554 1.24823 17.0745 1.68653L16.3931 3.33688C16.2121 3.77519 15.7101 3.98385 15.2718 3.80286Z" fill="url(#paint3_linear_201_2841)"/>
<path d="M8.7249 19.6603C8.28659 19.4793 8.07794 18.9773 8.25892 18.539L8.94029 16.8886C9.12128 16.4503 9.6233 16.2416 10.0616 16.4226C10.4999 16.6036 10.7086 17.1056 10.5276 17.544L9.84622 19.1943C9.66523 19.6326 9.16321 19.8413 8.7249 19.6603Z" fill="url(#paint4_linear_201_2841)"/>
<path d="M18.9765 12.7177C19.1575 12.2794 19.6595 12.0707 20.0978 12.2517L21.7481 12.9331C22.1865 13.1141 22.3951 13.6161 22.2141 14.0544C22.0332 14.4927 21.5311 14.7014 21.0928 14.5204L19.4425 13.839C19.0041 13.658 18.7955 13.156 18.9765 12.7177Z" fill="url(#paint5_linear_201_2841)"/>
<path d="M3.11926 6.17084C3.30024 5.73253 3.80227 5.52387 4.24057 5.70486L5.89093 6.38623C6.32923 6.56722 6.53789 7.06924 6.3569 7.50755C6.17596 7.94585 5.67389 8.15451 5.23559 7.97352L3.58523 7.29216C3.14693 7.11122 2.93831 6.60919 3.11926 6.17084Z" fill="url(#paint6_linear_201_2841)"/>
<path d="M18.9704 7.49268C18.7884 7.0548 18.9959 6.55225 19.4338 6.37028L21.0825 5.6851C21.5204 5.50313 22.023 5.71061 22.2049 6.14849C22.3869 6.58637 22.1794 7.08891 21.7415 7.27089L20.0928 7.95607C19.6549 8.13804 19.1524 7.93061 18.9704 7.49268Z" fill="url(#paint7_linear_201_2841)"/>
<path d="M3.12832 14.0757C2.94635 13.6378 3.15383 13.1353 3.59171 12.9533L5.24046 12.2681C5.67835 12.0861 6.18089 12.2936 6.36286 12.7315C6.54484 13.1694 6.33736 13.6719 5.89948 13.8539L4.25072 14.5391C3.81279 14.7211 3.3103 14.5136 3.12832 14.0757Z" fill="url(#paint8_linear_201_2841)"/>
<path d="M15.2863 16.4165C15.7242 16.2346 16.2267 16.4421 16.4087 16.8799L17.0939 18.5287C17.2758 18.9666 17.0684 19.4691 16.6305 19.6511C16.1926 19.8331 15.6901 19.6256 15.5081 19.1877L14.8229 17.5389C14.6409 17.101 14.8484 16.5985 15.2863 16.4165Z" fill="url(#paint9_linear_201_2841)"/>
<path d="M8.7028 0.57475C9.14068 0.392774 9.64322 0.600256 9.8252 1.03814L10.5104 2.68689C10.6923 3.12477 10.4849 3.62732 10.047 3.80929C9.6091 3.99127 9.10656 3.78379 8.92458 3.3459L8.23941 1.69715C8.05743 1.25927 8.26491 0.756727 8.7028 0.57475Z" fill="url(#paint10_linear_201_2841)"/>
<path d="M9.98744 17.043C9.98697 17.043 9.98645 17.043 9.98598 17.043C9.90396 17.043 9.83634 17.1089 9.83629 17.1888V17.1902C9.83629 18.42 10.8601 19.4169 12.1229 19.4169H12.1244C12.2064 19.4169 12.274 19.351 12.2741 19.2712C12.2741 19.2707 12.2741 19.2702 12.2741 19.2697C12.2741 18.04 11.2503 17.043 9.98744 17.043Z" fill="url(#paint11_linear_201_2841)"/>
<path d="M10.3851 17.0771V18.6365C10.8045 19.1139 11.4272 19.4169 12.1229 19.4169H12.1244C12.2064 19.4168 12.274 19.3509 12.2741 19.2711C12.2741 19.2706 12.2741 19.2701 12.2741 19.2696C12.2741 18.172 11.4583 17.2605 10.3851 17.0771Z" fill="url(#paint12_linear_201_2841)"/>
<path d="M12.2023 19.7535H13.3349V17.7167C13.3349 16.6883 13.7354 15.7214 14.4626 14.9943L15.1852 14.2716L14.3842 13.4707L13.6617 14.1933C12.7205 15.1344 12.2022 16.3857 12.2022 17.7166L12.2023 19.7535Z" fill="url(#paint13_linear_201_2841)"/>
<path d="M17.561 11.7835C17.525 11.4136 17.2341 11.1227 16.8643 11.0868C15.853 10.9886 14.7667 11.3567 13.9471 12.1764C13.1275 12.996 12.7593 14.0823 12.8575 15.0935C12.8935 15.4634 13.1843 15.7543 13.5542 15.7903C14.5655 15.8885 15.6518 15.5203 16.4714 14.7007C17.291 13.8811 17.6592 12.7947 17.561 11.7835Z" fill="url(#paint14_linear_201_2841)"/>
<path d="M13.0805 15.5668C13.2039 15.6903 13.3692 15.772 13.5541 15.7899C14.5654 15.8882 15.6517 15.52 16.4713 14.7003C17.2909 13.8807 17.6591 12.7944 17.5609 11.7832C17.5429 11.5982 17.4612 11.433 17.3377 11.3096L13.0805 15.5668Z" fill="url(#paint15_linear_201_2841)"/>
<path d="M16.2638 14.8934C16.3346 14.8321 16.404 14.7681 16.4714 14.7007C17.291 13.8811 17.6592 12.7948 17.561 11.7836C17.525 11.4137 17.2341 11.1228 16.8642 11.0868C15.853 10.9886 14.7666 11.3567 13.947 12.1764C13.8796 12.2438 13.8156 12.3131 13.7544 12.3839V14.8934L16.2638 14.8934Z" fill="url(#paint16_linear_201_2841)"/>
<path d="M15.2586 13.3892H17.3318C17.5353 12.8662 17.6125 12.3146 17.561 11.7836C17.525 11.4137 17.2341 11.1228 16.8642 11.0868C16.3332 11.0352 15.7815 11.1124 15.2586 11.3159V13.3892H15.2586Z" fill="url(#paint17_linear_201_2841)"/>
<path d="M13.3841 21.236H11.9315V18.6239C11.9315 17.305 11.418 16.0651 10.4854 15.1326L9.55869 14.2059L10.5858 13.1787L11.5125 14.1054C12.7195 15.3123 13.3841 16.917 13.3841 18.6239V21.236H13.3841Z" fill="url(#paint18_linear_201_2841)"/>
<path d="M11.5125 14.1054L10.5858 13.1787L9.55869 14.2059L10.4854 15.1326C11.2339 15.8811 11.7122 16.8277 11.872 17.8541H13.3383C13.1694 16.4387 12.5361 15.129 11.5125 14.1054Z" fill="url(#paint19_linear_201_2841)"/>
<path d="M7.85403 10.8167C7.4297 10.8579 7.09601 11.1916 7.05478 11.6159C6.94208 12.7759 7.36443 14.0221 8.30467 14.9623C9.2449 15.9026 10.4911 16.3249 11.6512 16.2123C12.0755 16.1711 12.4092 15.8374 12.4504 15.413C12.5631 14.253 12.1407 13.0068 11.2005 12.0666C10.2602 11.1263 9.01408 10.7039 7.85403 10.8167Z" fill="url(#paint20_linear_201_2841)"/>
<path d="M12.1944 15.9563C12.3361 15.8147 12.4298 15.6252 12.4504 15.413C12.5631 14.253 12.1407 13.0068 11.2005 12.0666C10.2602 11.1263 9.01407 10.704 7.85402 10.8166C7.64184 10.8373 7.45233 10.931 7.31073 11.0726L12.1944 15.9563Z" fill="url(#paint21_linear_201_2841)"/>
<path d="M11.4215 12.3046C11.3513 12.2234 11.2778 12.1439 11.2005 12.0666C10.2603 11.1263 9.01411 10.704 7.85406 10.8166C7.42973 10.8579 7.09603 11.1916 7.05481 11.6159C6.94211 12.7759 7.36451 14.0221 8.30474 14.9623C8.38206 15.0397 8.46159 15.1131 8.54281 15.1834H11.4216L11.4215 12.3046Z" fill="url(#paint22_linear_201_2841)"/>
<path d="M9.69591 13.4578V11.0795C9.096 10.8461 8.46315 10.7575 7.85402 10.8166C7.42969 10.8578 7.096 11.1915 7.05478 11.6159C6.99562 12.225 7.08419 12.8579 7.31765 13.4578H9.69591Z" fill="url(#paint23_linear_201_2841)"/>
<path d="M17.5685 18.3057H17.5696C17.6315 18.3057 17.6825 18.3554 17.6826 18.4157V18.4168C17.6826 19.345 16.9099 20.0974 15.9567 20.0974C15.9564 20.0974 15.956 20.0974 15.9556 20.0974C15.8937 20.0974 15.8427 20.0477 15.8426 19.9874C15.8426 19.987 15.8426 19.9867 15.8426 19.9863C15.8426 19.0581 16.6153 18.3057 17.5685 18.3057Z" fill="url(#paint24_linear_201_2841)"/>
<path d="M17.2684 18.3311V19.508C16.9518 19.8684 16.4818 20.097 15.9567 20.097C15.9564 20.097 15.956 20.097 15.9556 20.097C15.8937 20.097 15.8427 20.0473 15.8426 19.987C15.8426 19.9866 15.8426 19.9863 15.8426 19.9859C15.8426 19.1575 16.4583 18.4695 17.2684 18.3311Z" fill="url(#paint25_linear_201_2841)"/>
<path d="M14.8486 18.2155C15.0356 18.0284 15.3388 18.0284 15.5258 18.2155L15.9558 18.6455C16.293 18.9827 16.4786 19.4309 16.4786 19.9077C16.4786 20.1721 16.2642 20.3865 15.9997 20.3865C15.7353 20.3865 15.5209 20.1721 15.5209 19.9076C15.5209 19.6867 15.4349 19.4789 15.2786 19.3227L14.8486 18.8926C14.6617 18.7056 14.6616 18.4025 14.8486 18.2155Z" fill="url(#paint26_linear_201_2841)"/>
<path d="M14.0632 16.817C13.8762 16.63 13.5731 16.63 13.3861 16.817L12.956 17.2471C12.6189 17.5842 12.4333 18.0325 12.4333 18.5093C12.4333 18.7737 12.6477 18.988 12.9122 18.988C13.1766 18.988 13.391 18.7736 13.391 18.5092C13.391 18.2882 13.477 18.0805 13.6332 17.9243L14.0633 17.4942C14.2503 17.3072 14.2503 17.004 14.0632 16.817Z" fill="url(#paint27_linear_201_2841)"/>
<path d="M18.6186 21.9609C18.6184 21.8855 18.6057 21.8036 18.5826 21.722C18.215 20.4249 16.6257 19.4492 14.7207 19.4492C12.8157 19.4492 11.2264 20.4249 10.8588 21.722C10.8357 21.8036 10.823 21.8855 10.8228 21.9609H10.8227V22.3215C10.8227 22.9031 10.9553 23.3745 11.1188 23.3745H18.3226C18.4861 23.3745 18.6187 22.9031 18.6187 22.3215V21.9609H18.6186Z" fill="url(#paint28_linear_201_2841)"/>
<path d="M15.631 19.5257C15.3388 19.4758 15.0341 19.4492 14.7207 19.4492C12.8158 19.4492 11.2264 20.4249 10.8589 21.722C10.8358 21.8036 10.823 21.8855 10.8228 21.9609L10.8228 22.3215C10.8228 22.9031 10.9553 23.3745 11.1189 23.3745H15.6311V19.5257H15.631Z" fill="url(#paint29_linear_201_2841)"/>
<path d="M13.9229 21.7286C13.9227 21.6408 13.911 21.5454 13.8896 21.4504C13.5497 19.9399 12.0802 18.8037 10.3188 18.8037C8.55747 18.8037 7.08791 19.9399 6.74806 21.4504C6.72669 21.5454 6.71493 21.6408 6.71474 21.7286L6.71469 22.1484C6.71469 22.8257 6.83728 23.3747 6.98843 23.3747H13.6492C13.8004 23.3747 13.9229 22.8257 13.9229 22.1484V21.7286Z" fill="url(#paint30_linear_201_2841)"/>
<path d="M6.7481 21.4502C6.72674 21.5452 6.71497 21.6406 6.71478 21.7284H6.71474V22.1482C6.71474 22.8255 6.83733 23.3745 6.98848 23.3745H18.3225C18.4861 23.3745 18.6186 22.903 18.6186 22.3214V21.9609H18.6186C18.6184 21.8855 18.6057 21.8036 18.5825 21.722C18.5506 21.6093 18.5092 21.499 18.4594 21.3916H6.76203C6.75723 21.4111 6.75253 21.4306 6.7481 21.4502Z" fill="url(#paint31_linear_201_2841)"/>
<path d="M24.6665 23.2766C24.6659 23.2113 24.6268 23.1404 24.5556 23.0698C23.424 21.9471 18.5311 21.1025 12.6667 21.1025C6.80226 21.1025 1.90937 21.9471 0.777793 23.0698C0.706593 23.1404 0.66744 23.2113 0.666875 23.2766H0.666687V23.5886C0.666687 24.092 1.07478 24.5001 1.57817 24.5001H23.7552C24.2586 24.5001 24.6667 24.092 24.6667 23.5886V23.2766H24.6665Z" fill="url(#paint32_linear_201_2841)"/>
</g>
<defs>
<linearGradient id="paint0_linear_201_2841" x1="10.302" y1="7.74849" x2="19.0865" y2="16.533" gradientUnits="userSpaceOnUse">
<stop stop-color="#FEE97D"/>
<stop offset="1" stop-color="#FAC600"/>
</linearGradient>
<linearGradient id="paint1_linear_201_2841" x1="10.0913" y1="7.53772" x2="16.7296" y2="14.1761" gradientUnits="userSpaceOnUse">
<stop stop-color="#FAC600" stop-opacity="0"/>
<stop offset="0.6899" stop-color="#D68C3D" stop-opacity="0.69"/>
<stop offset="1" stop-color="#C5715A"/>
</linearGradient>
<linearGradient id="paint2_linear_201_2841" x1="12.6666" y1="10.8692" x2="12.6666" y2="16.4615" gradientUnits="userSpaceOnUse">
<stop stop-color="#FAC600" stop-opacity="0"/>
<stop offset="0.6899" stop-color="#D68C3D" stop-opacity="0.69"/>
<stop offset="1" stop-color="#C5715A"/>
</linearGradient>
<linearGradient id="paint3_linear_201_2841" x1="15.1589" y1="1.88047" x2="17.3624" y2="2.79145" gradientUnits="userSpaceOnUse">
<stop stop-color="#FEE97D"/>
<stop offset="1" stop-color="#FAC600"/>
</linearGradient>
<linearGradient id="paint4_linear_201_2841" x1="8.60545" y1="17.7324" x2="10.809" y2="18.6434" gradientUnits="userSpaceOnUse">
<stop stop-color="#FEE97D"/>
<stop offset="1" stop-color="#FAC600"/>
</linearGradient>
<linearGradient id="paint5_linear_201_2841" x1="20.8105" y1="12.5423" x2="19.8995" y2="14.7458" gradientUnits="userSpaceOnUse">
<stop stop-color="#FEE97D"/>
<stop offset="1" stop-color="#FAC600"/>
</linearGradient>
<linearGradient id="paint6_linear_201_2841" x1="4.95873" y1="5.98891" x2="4.04776" y2="8.19242" gradientUnits="userSpaceOnUse">
<stop stop-color="#FEE97D"/>
<stop offset="1" stop-color="#FAC600"/>
</linearGradient>
<linearGradient id="paint7_linear_201_2841" x1="20.4081" y1="6.06713" x2="21.3238" y2="8.26825" gradientUnits="userSpaceOnUse">
<stop stop-color="#FEE97D"/>
<stop offset="1" stop-color="#FAC600"/>
</linearGradient>
<linearGradient id="paint8_linear_201_2841" x1="4.57351" y1="12.6544" x2="5.48926" y2="14.8555" gradientUnits="userSpaceOnUse">
<stop stop-color="#FEE97D"/>
<stop offset="1" stop-color="#FAC600"/>
</linearGradient>
<linearGradient id="paint9_linear_201_2841" x1="16.8151" y1="17.8165" x2="14.614" y2="18.7323" gradientUnits="userSpaceOnUse">
<stop stop-color="#FEE97D"/>
<stop offset="1" stop-color="#FAC600"/>
</linearGradient>
<linearGradient id="paint10_linear_201_2841" x1="10.2273" y1="1.98228" x2="8.0262" y2="2.89802" gradientUnits="userSpaceOnUse">
<stop stop-color="#FEE97D"/>
<stop offset="1" stop-color="#FAC600"/>
</linearGradient>
<linearGradient id="paint11_linear_201_2841" x1="9.07883" y1="16.2537" x2="11.3926" y2="18.5674" gradientUnits="userSpaceOnUse">
<stop stop-color="#A2E62E"/>
<stop offset="0.1231" stop-color="#97DE30"/>
<stop offset="0.3395" stop-color="#79CB36"/>
<stop offset="0.6234" stop-color="#4AAB3F"/>
<stop offset="0.9609" stop-color="#09804C"/>
<stop offset="1" stop-color="#017B4E"/>
</linearGradient>
<linearGradient id="paint12_linear_201_2841" x1="11.0258" y1="18.199" x2="11.8969" y2="19.1116" gradientUnits="userSpaceOnUse">
<stop stop-color="#017B4E" stop-opacity="0"/>
<stop offset="1" stop-color="#026841"/>
</linearGradient>
<linearGradient id="paint13_linear_201_2841" x1="11.4756" y1="14.7944" x2="13.1432" y2="16.462" gradientUnits="userSpaceOnUse">
<stop stop-color="#A2E62E"/>
<stop offset="0.1231" stop-color="#97DE30"/>
<stop offset="0.3395" stop-color="#79CB36"/>
<stop offset="0.6234" stop-color="#4AAB3F"/>
<stop offset="0.9609" stop-color="#09804C"/>
<stop offset="1" stop-color="#017B4E"/>
</linearGradient>
<linearGradient id="paint14_linear_201_2841" x1="11.673" y1="9.90235" x2="15.7937" y2="14.023" gradientUnits="userSpaceOnUse">
<stop stop-color="#A2E62E"/>
<stop offset="0.1231" stop-color="#97DE30"/>
<stop offset="0.3395" stop-color="#79CB36"/>
<stop offset="0.6234" stop-color="#4AAB3F"/>
<stop offset="0.9609" stop-color="#09804C"/>
<stop offset="1" stop-color="#017B4E"/>
</linearGradient>
<linearGradient id="paint15_linear_201_2841" x1="16.2848" y1="13.8398" x2="14.3675" y2="13.2007" gradientUnits="userSpaceOnUse">
<stop stop-color="#017B4E" stop-opacity="0"/>
<stop offset="1" stop-color="#026841"/>
</linearGradient>
<linearGradient id="paint16_linear_201_2841" x1="15.4096" y1="13.2036" x2="13.1888" y2="15.4244" gradientUnits="userSpaceOnUse">
<stop stop-color="#017B4E" stop-opacity="0"/>
<stop offset="1" stop-color="#026841"/>
</linearGradient>
<linearGradient id="paint17_linear_201_2841" x1="17.5158" y1="11.0975" x2="14.5953" y2="14.0179" gradientUnits="userSpaceOnUse">
<stop stop-color="#017B4E" stop-opacity="0"/>
<stop offset="0.4829" stop-color="#01754A" stop-opacity="0.483"/>
<stop offset="1" stop-color="#026841"/>
</linearGradient>
<linearGradient id="paint18_linear_201_2841" x1="11.406" y1="17.2074" x2="13.4215" y2="17.2074" gradientUnits="userSpaceOnUse">
<stop stop-color="#A2E62E"/>
<stop offset="0.1231" stop-color="#97DE30"/>
<stop offset="0.3395" stop-color="#79CB36"/>
<stop offset="0.6234" stop-color="#4AAB3F"/>
<stop offset="0.9609" stop-color="#09804C"/>
<stop offset="1" stop-color="#017B4E"/>
</linearGradient>
<linearGradient id="paint19_linear_201_2841" x1="11.9363" y1="17.5507" x2="11.3832" y2="15.6513" gradientUnits="userSpaceOnUse">
<stop stop-color="#017B4E" stop-opacity="0"/>
<stop offset="1" stop-color="#026841"/>
</linearGradient>
<linearGradient id="paint20_linear_201_2841" x1="8.23375" y1="11.9956" x2="13.1947" y2="16.9566" gradientUnits="userSpaceOnUse">
<stop stop-color="#A2E62E"/>
<stop offset="0.1231" stop-color="#97DE30"/>
<stop offset="0.3395" stop-color="#79CB36"/>
<stop offset="0.6234" stop-color="#4AAB3F"/>
<stop offset="0.9609" stop-color="#09804C"/>
<stop offset="1" stop-color="#017B4E"/>
</linearGradient>
<linearGradient id="paint21_linear_201_2841" x1="10.8614" y1="12.4258" x2="8.48193" y2="14.8053" gradientUnits="userSpaceOnUse">
<stop stop-color="#017B4E" stop-opacity="0"/>
<stop offset="1" stop-color="#026841"/>
</linearGradient>
<linearGradient id="paint22_linear_201_2841" x1="10.3912" y1="14.1328" x2="12.9389" y2="16.6804" gradientUnits="userSpaceOnUse">
<stop stop-color="#017B4E" stop-opacity="0"/>
<stop offset="1" stop-color="#026841"/>
</linearGradient>
<linearGradient id="paint23_linear_201_2841" x1="8.41938" y1="12.1609" x2="11.7696" y2="15.5111" gradientUnits="userSpaceOnUse">
<stop stop-color="#017B4E" stop-opacity="0"/>
<stop offset="0.4829" stop-color="#01754A" stop-opacity="0.483"/>
<stop offset="1" stop-color="#026841"/>
</linearGradient>
<linearGradient id="paint24_linear_201_2841" x1="16.7626" y1="18.6332" x2="16.7626" y2="20.2812" gradientUnits="userSpaceOnUse">
<stop stop-color="#A2E62E"/>
<stop offset="0.1231" stop-color="#97DE30"/>
<stop offset="0.3395" stop-color="#79CB36"/>
<stop offset="0.6234" stop-color="#4AAB3F"/>
<stop offset="0.9609" stop-color="#09804C"/>
<stop offset="1" stop-color="#017B4E"/>
</linearGradient>
<linearGradient id="paint25_linear_201_2841" x1="16.8517" y1="19.2141" x2="16.1464" y2="19.2141" gradientUnits="userSpaceOnUse">
<stop stop-color="#017B4E" stop-opacity="0"/>
<stop offset="0.4829" stop-color="#01754A" stop-opacity="0.483"/>
<stop offset="1" stop-color="#026841"/>
</linearGradient>
<linearGradient id="paint26_linear_201_2841" x1="16.1983" y1="18.6459" x2="15.2486" y2="19.5643" gradientUnits="userSpaceOnUse">
<stop stop-color="#A2E62E"/>
<stop offset="0.172" stop-color="#8CD732"/>
<stop offset="0.5306" stop-color="#53B23D"/>
<stop offset="1" stop-color="#017B4E"/>
</linearGradient>
<linearGradient id="paint27_linear_201_2841" x1="12.7136" y1="17.2476" x2="13.6633" y2="18.1659" gradientUnits="userSpaceOnUse">
<stop stop-color="#A2E62E"/>
<stop offset="0.172" stop-color="#8CD732"/>
<stop offset="0.5306" stop-color="#53B23D"/>
<stop offset="1" stop-color="#017B4E"/>
</linearGradient>
<linearGradient id="paint28_linear_201_2841" x1="14.7207" y1="20.1668" x2="14.7207" y2="24.6551" gradientUnits="userSpaceOnUse">
<stop stop-color="#C5715A"/>
<stop offset="1" stop-color="#883F2E"/>
</linearGradient>
<linearGradient id="paint29_linear_201_2841" x1="14.9244" y1="21.3305" x2="12.3211" y2="22.2862" gradientUnits="userSpaceOnUse">
<stop stop-color="#883F2E" stop-opacity="0"/>
<stop offset="1" stop-color="#6D3326"/>
</linearGradient>
<linearGradient id="paint30_linear_201_2841" x1="10.3189" y1="19.6393" x2="10.3189" y2="24.866" gradientUnits="userSpaceOnUse">
<stop stop-color="#C5715A"/>
<stop offset="1" stop-color="#883F2E"/>
</linearGradient>
<linearGradient id="paint31_linear_201_2841" x1="12.6667" y1="22.2892" x2="12.6667" y2="23.4379" gradientUnits="userSpaceOnUse">
<stop stop-color="#883F2E" stop-opacity="0"/>
<stop offset="1" stop-color="#6D3326"/>
</linearGradient>
<linearGradient id="paint32_linear_201_2841" x1="12.6667" y1="21.7236" x2="12.6667" y2="25.6086" gradientUnits="userSpaceOnUse">
<stop stop-color="#A2E62E"/>
<stop offset="0.1231" stop-color="#97DE30"/>
<stop offset="0.3395" stop-color="#79CB36"/>
<stop offset="0.6234" stop-color="#4AAB3F"/>
<stop offset="0.9609" stop-color="#09804C"/>
<stop offset="1" stop-color="#017B4E"/>
</linearGradient>
<clipPath id="clip0_201_2841">
<rect width="24" height="24" fill="white" transform="translate(0.666687 0.5)"/>
</clipPath>
</defs>
</svg>
