<svg width="25" height="25" viewBox="0 0 25 25" fill="none" xmlns="http://www.w3.org/2000/svg">
<g clip-path="url(#clip0_201_2946)">
<path d="M17.6617 4.1304C16.1662 2.63492 13.7419 2.63492 12.2463 4.1304C11.0501 5.32664 11.0501 7.26664 12.2463 8.46287C12.7248 8.94137 13.3519 9.18061 13.9798 9.18061C14.5851 9.18061 15.1912 8.95732 15.663 8.51158C14.9066 9.24193 13.9283 9.60668 12.9511 9.60664C11.9513 9.60664 10.9519 9.22508 10.1897 8.46287C10.1475 8.42071 10.1049 8.37901 10.0619 8.33788C7.82611 6.19854 4.27349 6.28165 2.0854 8.46974L0.909541 9.6456C0.1414 10.4137 0.1414 11.6591 0.909541 12.4272C1.67768 13.1953 2.92305 13.1953 3.69114 12.4272L4.15086 11.9675C5.52592 10.5925 7.60827 10.1791 9.3862 10.9669C9.41538 10.9799 9.4439 10.9928 9.47166 11.0058C11.9523 12.1672 14.939 13.6227 17.6618 10.8999C19.3886 9.17294 19.5312 5.99986 17.6617 4.1304Z" fill="url(#paint0_linear_201_2946)"/>
<path d="M12.5507 5.30126C12.1795 5.67251 11.9004 6.20771 11.7692 6.76752C11.6274 7.37265 11.8015 8.01528 12.2396 8.45608C12.2418 8.45834 12.2441 8.4606 12.2463 8.46281C12.7248 8.94131 13.3519 9.18056 13.9798 9.18056C14.4612 9.18056 14.9429 9.03877 15.3573 8.7567C15.4868 8.667 15.6063 8.5687 15.7123 8.46277C16.5853 7.58973 16.5853 6.1743 15.7123 5.30126C14.8393 4.42823 13.4238 4.42823 12.5507 5.30126Z" fill="url(#paint1_linear_201_2946)"/>
<path d="M12.0949 8.29883C12.1433 8.35473 12.1932 8.40979 12.2463 8.46292C12.7248 8.94142 13.3519 9.18066 13.9798 9.18066C14.5851 9.18066 15.1912 8.95737 15.663 8.51163C14.9066 9.24198 13.9283 9.60673 12.9511 9.60669C11.9513 9.60669 10.9519 9.22513 10.1897 8.46292C10.1475 8.42076 10.1049 8.37906 10.0619 8.33793C10.0478 8.32448 10.0331 8.31215 10.0189 8.29888H2.26492C2.20426 8.35459 2.14407 8.41106 2.08534 8.46979L0.90948 9.64565C0.141339 10.4138 0.141339 11.6592 0.90948 12.4273C1.67757 13.1954 2.92299 13.1954 3.69108 12.4273L4.1508 11.9676C5.52586 10.5925 7.60821 10.1792 9.38614 10.967C9.41532 10.9799 9.44383 10.9929 9.4716 11.0059C11.9522 12.1672 14.9389 13.6228 17.6617 10.8999C18.3549 10.2067 18.7922 9.28029 18.9471 8.29888H12.0949V8.29883Z" fill="url(#paint2_linear_201_2946)"/>
<path d="M22.9842 8.20657C21.4887 6.71109 19.0643 6.71109 17.5689 8.20657C16.3726 9.40281 16.3726 11.3428 17.5689 12.539C18.0473 13.0175 18.6744 13.2568 19.3024 13.2568C19.9076 13.2568 20.5137 13.0335 20.9855 12.5877C20.2291 13.3181 19.2507 13.6828 18.2736 13.6828C17.2738 13.6828 16.2744 13.3013 15.5122 12.539C15.47 12.4969 15.4274 12.4552 15.3844 12.4141C13.1486 10.2747 9.59596 10.3578 7.40786 12.5459L6.232 13.7218C5.46386 14.4899 9.47332 16.0437 9.47332 16.0437C10.8484 14.6686 12.9307 14.2553 14.7087 15.0431C14.7378 15.056 14.7664 15.069 14.7941 15.082C17.2747 16.2433 20.2614 17.6989 22.9842 14.976C24.7111 13.2492 24.8537 10.0761 22.9842 8.20657Z" fill="url(#paint3_linear_201_2946)"/>
<path d="M17.8732 9.37743C17.502 9.74868 17.2229 10.2839 17.0917 10.8437C16.95 11.4488 17.124 12.0915 17.5621 12.5323C17.5644 12.5345 17.5666 12.5368 17.5688 12.539C18.0473 13.0175 18.6744 13.2567 19.3023 13.2567C19.7837 13.2567 20.2654 13.1149 20.6798 12.8329C20.8093 12.7432 20.9288 12.6449 21.0348 12.5389C21.9078 11.6659 21.9078 10.2505 21.0348 9.37743C20.1618 8.5044 18.7463 8.5044 17.8732 9.37743Z" fill="url(#paint4_linear_201_2946)"/>
<path d="M17.4175 12.375C17.4658 12.4309 17.5158 12.486 17.5689 12.539C18.0473 13.0175 18.6744 13.2568 19.3024 13.2568C19.9076 13.2568 20.5137 13.0335 20.9855 12.5878C20.2291 13.3181 19.2507 13.6828 18.2736 13.6828C17.2738 13.6828 16.2744 13.3013 15.5122 12.539C15.47 12.4969 15.4274 12.4552 15.3844 12.4141C15.3703 12.4006 15.3556 12.3883 15.3414 12.375H7.58744C7.52678 12.4307 7.46659 12.4872 7.40786 12.5459L6.232 13.7218C5.46386 14.4899 9.47332 16.0437 9.47332 16.0437C10.8484 14.6686 12.9307 14.2553 14.7087 15.0431C14.7378 15.056 14.7664 15.069 14.7941 15.082C17.2747 16.2433 20.2614 17.6989 22.9842 14.976C23.6775 14.2828 24.1147 13.3564 24.2697 12.375H17.4175Z" fill="url(#paint5_linear_201_2946)"/>
<path d="M16.6655 13.337C16.2474 13.1482 15.8556 12.8828 15.5121 12.5393C15.47 12.4971 15.4273 12.4554 15.3843 12.4143C13.1485 10.275 9.5959 10.3581 7.4078 12.5462L6.23194 13.722C5.4638 14.4902 9.47326 16.044 9.47326 16.044C10.8483 14.6689 12.9307 14.2555 14.7086 15.0433C14.7378 15.0563 14.7663 15.0692 14.7941 15.0823C15.392 15.3622 16.0195 15.6591 16.6655 15.9106V13.337Z" fill="url(#paint6_linear_201_2946)"/>
<path d="M13.0404 20.2068C11.9106 21.9943 9.54576 22.5276 7.75767 21.398C6.32765 20.4937 5.90096 18.6014 6.80463 17.1715C7.16614 16.5996 7.72558 16.2282 8.33819 16.09C8.92826 15.957 9.56854 16.0414 10.1269 16.3725C9.22849 15.826 8.19405 15.6857 7.24035 15.9007C6.26525 16.1206 5.37405 16.7128 4.79823 17.624C4.76638 17.6744 4.73442 17.7242 4.70115 17.7737C4.2596 18.4395 3.69969 18.9802 3.06703 19.3875C2.03165 20.054 0.648069 19.4822 0.377198 18.281C0.160445 17.3198 0.769151 16.3739 1.72986 16.1552C2.34525 16.0152 2.93668 15.7494 3.46388 15.3577C3.48953 15.3391 3.51442 15.3201 3.53875 15.3012C5.70308 13.6224 8.29612 11.5457 11.5512 13.6028C13.6156 14.9079 14.4531 17.9715 13.0404 20.2068Z" fill="url(#paint7_linear_201_2946)"/>
<path d="M7.79715 20.189C7.35333 19.9085 6.96336 19.4478 6.7123 18.9306C6.44086 18.3715 6.46924 17.7062 6.79969 17.1799C6.80138 17.1772 6.80307 17.1745 6.80477 17.1718C7.16627 16.5998 7.72538 16.2285 8.3379 16.0904C8.8075 15.9845 9.30853 16.0168 9.77489 16.2009C9.92091 16.2599 10.0591 16.3295 10.1858 16.4095C11.2295 17.0691 11.5408 18.4499 10.8812 19.4936C10.2216 20.5373 8.84082 20.8486 7.79715 20.189Z" fill="url(#paint8_linear_201_2946)"/>
<path d="M6.79494 16.0303C5.99692 16.3124 5.28539 16.8538 4.79819 17.6239C4.76633 17.6743 4.73438 17.7241 4.7011 17.7736C4.25955 18.4394 3.69965 18.9801 3.06699 19.3874C2.0316 20.0539 0.648022 19.4821 0.377151 18.2809C0.281951 17.8586 0.547034 17.4392 0.969293 17.344L6.79494 16.0303Z" fill="url(#paint9_linear_201_2946)"/>
<path d="M6.33167 18.8321C6.3407 19.8384 6.84395 20.8197 7.75778 21.3973C9.54559 22.5272 11.9106 21.9939 13.0405 20.2061C13.6289 19.2751 13.8257 18.2005 13.7073 17.1689L6.33167 18.8321Z" fill="url(#paint10_linear_201_2946)"/>
<path d="M19.3452 18.0526C18.4612 18.0526 17.6213 17.9494 16.8632 17.7637C16.3675 17.6423 16.0715 18.3047 16.4943 18.5905C17.2559 19.1053 18.2533 19.4173 19.3452 19.4173C20.4371 19.4173 21.4345 19.1053 22.1961 18.5905C22.6189 18.3047 22.3229 17.6423 21.8272 17.7637C21.0691 17.9494 20.2292 18.0526 19.3452 18.0526Z" fill="url(#paint11_linear_201_2946)"/>
</g>
<defs>
<linearGradient id="paint0_linear_201_2946" x1="7.807" y1="5.17826" x2="11.9622" y2="13.4885" gradientUnits="userSpaceOnUse">
<stop stop-color="#EAF6FF"/>
<stop offset="1" stop-color="#B3DAFE"/>
</linearGradient>
<linearGradient id="paint1_linear_201_2946" x1="13.6007" y1="6.50347" x2="16.3022" y2="9.20493" gradientUnits="userSpaceOnUse">
<stop stop-color="#8FCBFE" stop-opacity="0"/>
<stop offset="1" stop-color="#8AC9FE"/>
</linearGradient>
<linearGradient id="paint2_linear_201_2946" x1="9.64026" y1="9.90151" x2="9.64026" y2="12.4394" gradientUnits="userSpaceOnUse">
<stop stop-color="#8FCBFE" stop-opacity="0"/>
<stop offset="1" stop-color="#8AC9FE"/>
</linearGradient>
<linearGradient id="paint3_linear_201_2946" x1="13.6319" y1="9.00328" x2="17.787" y2="17.3135" gradientUnits="userSpaceOnUse">
<stop stop-color="#EAF6FF"/>
<stop offset="1" stop-color="#B3DAFE"/>
</linearGradient>
<linearGradient id="paint4_linear_201_2946" x1="18.9232" y1="10.5796" x2="21.6247" y2="13.2811" gradientUnits="userSpaceOnUse">
<stop stop-color="#8FCBFE" stop-opacity="0"/>
<stop offset="1" stop-color="#8AC9FE"/>
</linearGradient>
<linearGradient id="paint5_linear_201_2946" x1="15.2019" y1="13.7894" x2="15.2019" y2="16.0293" gradientUnits="userSpaceOnUse">
<stop stop-color="#8FCBFE" stop-opacity="0"/>
<stop offset="1" stop-color="#8AC9FE"/>
</linearGradient>
<linearGradient id="paint6_linear_201_2946" x1="13.3883" y1="12.8161" x2="10.3766" y2="15.922" gradientUnits="userSpaceOnUse">
<stop stop-color="#8AC9FE" stop-opacity="0"/>
<stop offset="0.1534" stop-color="#85C2F3" stop-opacity="0.153"/>
<stop offset="0.4248" stop-color="#78AED5" stop-opacity="0.425"/>
<stop offset="0.7796" stop-color="#628FA5" stop-opacity="0.78"/>
<stop offset="1" stop-color="#537983"/>
</linearGradient>
<linearGradient id="paint7_linear_201_2946" x1="6.07504" y1="15.7236" x2="9.18881" y2="21.059" gradientUnits="userSpaceOnUse">
<stop stop-color="#EAF6FF"/>
<stop offset="1" stop-color="#B3DAFE"/>
</linearGradient>
<linearGradient id="paint8_linear_201_2946" x1="7.91949" y1="18.9914" x2="10.1756" y2="17.387" gradientUnits="userSpaceOnUse">
<stop stop-color="#8FCBFE" stop-opacity="0"/>
<stop offset="1" stop-color="#8AC9FE"/>
</linearGradient>
<linearGradient id="paint9_linear_201_2946" x1="3.68876" y1="17.6124" x2="4.14403" y2="19.6322" gradientUnits="userSpaceOnUse">
<stop stop-color="#8FCBFE" stop-opacity="0"/>
<stop offset="1" stop-color="#8AC9FE"/>
</linearGradient>
<linearGradient id="paint10_linear_201_2946" x1="10.1294" y1="18.635" x2="10.7017" y2="21.174" gradientUnits="userSpaceOnUse">
<stop stop-color="#8FCBFE" stop-opacity="0"/>
<stop offset="1" stop-color="#8AC9FE"/>
</linearGradient>
<linearGradient id="paint11_linear_201_2946" x1="19.3452" y1="17.6761" x2="19.3452" y2="19.4199" gradientUnits="userSpaceOnUse">
<stop stop-color="#EAF6FF"/>
<stop offset="1" stop-color="#B3DAFE"/>
</linearGradient>
<clipPath id="clip0_201_2946">
<rect width="24" height="24" fill="white" transform="translate(0.333374 0.5)"/>
</clipPath>
</defs>
</svg>
